<?xml version="1.0" encoding="UTF-8" standalone="no"?>
<svg
   viewBox="0 0 620.33 144.42"
   version="1.1"
   id="svg38"
   sodipodi:docname="dropver6.1.svg"
   inkscape:version="1.1.1 (3bf5ae0d25, 2021-09-20)"
   xmlns:inkscape="http://www.inkscape.org/namespaces/inkscape"
   xmlns:sodipodi="http://sodipodi.sourceforge.net/DTD/sodipodi-0.dtd"
   xmlns="http://www.w3.org/2000/svg"
   xmlns:svg="http://www.w3.org/2000/svg"
   xmlns:rdf="http://www.w3.org/1999/02/22-rdf-syntax-ns#"
   xmlns:cc="http://creativecommons.org/ns#"
   xmlns:dc="http://purl.org/dc/elements/1.1/">
  <sodipodi:namedview
     id="namedview40"
     pagecolor="#ffffff"
     bordercolor="#111111"
     borderopacity="1"
     inkscape:pageshadow="0"
     inkscape:pageopacity="0"
     inkscape:pagecheckerboard="1"
     showgrid="false"
     inkscape:zoom="1.52745"
     inkscape:cx="336.18122"
     inkscape:cy="36.335068"
     inkscape:window-width="1920"
     inkscape:window-height="1051"
     inkscape:window-x="-9"
     inkscape:window-y="-9"
     inkscape:window-maximized="1"
     inkscape:current-layer="Layer_2" />
  <defs
     id="defs4">
    <style
       id="style2">.cls-1{fill:#fff;}.cls-2{fill:#020000;}.cls-3{fill:#63bde0;}</style>
  </defs>
  <title
     id="title6">Asset 19</title>
  <g
     id="Layer_2"
     data-name="Layer 2">
    <g
       id="g11512"
       transform="translate(-2.9018824e-6,-0.46293755)">
      <path
         class="cls-1"
         d="M 586.71,5.81 H 196.87 a 27.84,27.84 0 0 0 -27.81,27.81 v 77.18 a 27.83,27.83 0 0 0 27.81,27.81 H 586.71 A 27.84,27.84 0 0 0 614.52,110.8 V 33.62 A 27.85,27.85 0 0 0 586.71,5.81 Z M 271.45,76.48 a 30.64,30.64 0 0 1 -26.55,25.9 h -28.55 v -39 h 13 v 26 h 14.57 a 17.64,17.64 0 0 0 7.92,-31.52 17.45,17.45 0 0 0 -7.11,-3.22 17.17,17.17 0 0 0 -2.7,-0.33 h -25.68 v -13 l 27.15,0.1 a 30.61,30.61 0 0 1 27.95,35 z m 53.37,25.91 -0.71,-1.16 -15.7,-25.74 c -0.4,0.08 -0.8,0.16 -1.19,0.22 l -0.46,0.08 h -0.22 v 0 l -0.58,0.08 h -0.27 l -0.61,0.07 -0.65,0.06 h -0.1 -0.13 -0.6 -0.18 -0.47 -9 v 26.22 H 281 V 63.21 h 21 a 17.44,17.44 0 0 0 6.79,-1.36 l 0.19,-0.07 a 17.84,17.84 0 0 0 8.38,-7.6 H 281 v -13 h 51.27 l 0.16,2.26 c 0.05,0.72 0.07,1.45 0.07,2.15 a 30.72,30.72 0 0 1 -0.72,6.65 30.37,30.37 0 0 1 -8.37,15.09 c -0.4,0.4 -0.78,0.76 -1.16,1.09 l -0.4,0.35 -0.07,0.06 -0.51,0.42 -0.39,0.32 -0.21,0.17 h -0.07 l -0.31,0.23 17.46,28.73 2.25,3.69 z m 43.64,0 a 30.4,30.4 0 1 1 30.4,-30.39 30.43,30.43 0 0 1 -30.4,30.39 z m 83,-31.77 a 17.36,17.36 0 0 1 -6.41,4.38 13.37,13.37 0 0 1 -2.41,0.69 18.13,18.13 0 0 1 -2.65,0.56 h -20.91 v 26.17 h -13 V 63.19 h 13 v 0 h 19.61 a 4.44,4.44 0 1 0 0,-8.87 h -0.32 -0.09 -2.1 v 0 h -30.06 v -13 h 33.39 c 0,0 1.39,0.17 2.65,0.42 a 22.26,22.26 0 0 1 2.18,0.52 17.4,17.4 0 0 1 7.09,28.29 z m 22.38,25.49 c 0,2.59 -1.67,4.53 -5,5.82 -0.74,0.09 -1.39,0.19 -1.85,0.19 -4.06,-0.93 -6,-2.87 -6,-5.82 -0.19,0 -0.28,-0.28 -0.28,-0.83 0,-3.14 1.94,-5.27 5.64,-6.47 h 1.47 c 2.77,0 4.8,1.85 6,5.45 z m 20.34,6.28 h -13 V 41.27 h 13 z m 42.73,0 h -13 v -39 h 13 z m 21.43,-48 h -55 v -13 h 55 z"
         id="path8"
         style="fill:#28263b;fill-opacity:1" />
      <path
         class="cls-1"
         d="M 368.46,54.28 A 17.72,17.72 0 1 0 386.18,72 17.74,17.74 0 0 0 368.46,54.28 Z"
         id="path10"
         style="fill:#28263b;fill-opacity:1" />
      <path
         class="cls-2"
         d="M 586.71,0 H 196.87 a 33.66,33.66 0 0 0 -33.62,33.62 v 77.18 a 33.66,33.66 0 0 0 33.62,33.62 H 586.71 A 33.66,33.66 0 0 0 620.33,110.8 V 33.62 A 33.66,33.66 0 0 0 586.71,0 Z m 27.81,110.8 a 27.84,27.84 0 0 1 -27.81,27.81 H 196.87 A 27.83,27.83 0 0 1 169.06,110.8 V 33.62 A 27.84,27.84 0 0 1 196.87,5.81 h 389.84 a 27.85,27.85 0 0 1 27.81,27.81 z"
         id="path12"
         style="fill:#8358f0;fill-opacity:1" />
      <path
         class="cls-3"
         d="M 108.44,5.81 H 36 A 30.21,30.21 0 0 0 5.81,36 v 72.46 A 30.21,30.21 0 0 0 36,138.61 h 72.46 a 30.2,30.2 0 0 0 30.17,-30.17 V 36 A 30.21,30.21 0 0 0 108.44,5.81 Z m -2.53,90.75 A 15.55,15.55 0 0 1 90.38,112.1 H 73.49 l -33.33,-27.31 5.73,-7 30.83,25.26 h 13.66 a 6.5,6.5 0 0 0 6.49,-6.5 v -47 A 8.24,8.24 0 0 0 88.64,41.32 H 47.55 V 59 l 23.07,18.5 -5.66,7 -26.45,-21.13 v -31 h 50.13 a 17.3,17.3 0 0 1 17.27,17.23 z"
         id="path14"
         style="fill:#28263b;fill-opacity:1" />
      <path
         class="cls-2"
         d="M 108.44,0 H 36 A 36,36 0 0 0 0,36 v 72.46 a 36,36 0 0 0 36,36 h 72.46 a 36,36 0 0 0 36,-36 V 36 A 36,36 0 0 0 108.44,0 Z m 30.17,108.44 a 30.2,30.2 0 0 1 -30.17,30.17 H 36 A 30.21,30.21 0 0 1 5.81,108.44 V 36 A 30.21,30.21 0 0 1 36,5.81 h 72.46 A 30.21,30.21 0 0 1 138.61,36 Z"
         id="path16"
         style="fill:#8358f0;fill-opacity:1" />
      <path
         class="cls-3"
         d="M 261.45,49.07 A 30.56,30.56 0 0 0 243.5,41.48 l -27.15,-0.1 v 13 H 242 a 17.17,17.17 0 0 1 2.7,0.33 17.45,17.45 0 0 1 7.11,3.22 17.64,17.64 0 0 1 -7.92,31.52 h -14.58 v -26 h -13 v 39 h 28.59 a 30.61,30.61 0 0 0 16.55,-53.31 z"
         id="path18"
         style="fill:#8358f0;fill-opacity:1" />
      <path
         class="cls-3"
         d="m 320.28,70.06 0.31,-0.23 h 0.07 l 0.21,-0.17 0.39,-0.32 0.51,-0.42 0.07,-0.06 0.4,-0.35 c 0.38,-0.33 0.76,-0.69 1.16,-1.09 a 30.37,30.37 0 0 0 8.37,-15.09 30.72,30.72 0 0 0 0.72,-6.65 c 0,-0.7 0,-1.43 -0.07,-2.15 l -0.16,-2.26 H 281 v 13 h 36.33 a 17.84,17.84 0 0 1 -8.38,7.6 l -0.19,0.07 A 17.44,17.44 0 0 1 302,63.21 h -21 v 39.18 h 13 V 76.17 h 9 0.47 0.18 0.6 0.13 0.1 l 0.65,-0.06 0.61,-0.07 h 0.27 l 0.58,-0.08 v 0 h 0.22 l 0.46,-0.08 c 0.39,-0.06 0.79,-0.14 1.19,-0.22 l 15.7,25.74 0.71,1.16 H 340 l -2.25,-3.69 z"
         id="path20"
         style="fill:#8358f0;fill-opacity:1" />
      <path
         class="cls-3"
         d="M 368.46,41.59 A 30.4,30.4 0 1 0 398.86,72 30.44,30.44 0 0 0 368.46,41.59 Z m 0,48.12 A 17.72,17.72 0 1 1 386.18,72 17.74,17.74 0 0 1 368.46,89.71 Z"
         id="path22"
         style="fill:#8358f0;fill-opacity:1" />
      <path
         class="cls-3"
         d="m 444.35,42.33 a 22.26,22.26 0 0 0 -2.18,-0.52 c -1.26,-0.25 -2.65,-0.42 -2.65,-0.42 h -33.39 v 13 h 30.06 v 0 h 2.1 0.09 0.32 a 4.44,4.44 0 1 1 0,8.87 h -19.62 v 0 h -13 v 39.2 h 13 V 76.22 H 440 a 18.13,18.13 0 0 0 2.65,-0.56 13.37,13.37 0 0 0 2.41,-0.69 17.39,17.39 0 0 0 -0.7,-32.64 z"
         id="path24"
         style="fill:#8358f0;fill-opacity:1" />
      <path
         d="m 467.81,89 h -1.47 c -3.7,1.2 -5.64,3.33 -5.64,6.47 0,0.55 0.09,0.83 0.28,0.83 0,3 1.94,4.89 6,5.82 0.46,0 1.11,-0.1 1.85,-0.19 3.32,-1.29 5,-3.23 5,-5.82 V 94.45 C 472.61,90.85 470.58,89 467.81,89 Z"
         id="path26"
         style="fill:#8358f0;fill-opacity:1" />
      <rect
         class="cls-3"
         x="481.20001"
         y="41.27"
         width="12.96"
         height="61.130001"
         id="rect28"
         style="fill:#8358f0;fill-opacity:1" />
      <polygon
         class="cls-3"
         points="558.32,54.35 558.32,41.39 503.37,41.39 503.37,54.35 523.93,54.35 536.89,54.35 "
         id="polygon30"
         style="fill:#8358f0;fill-opacity:1" />
      <rect
         class="cls-3"
         x="523.92999"
         y="63.380001"
         width="12.96"
         height="39.009998"
         id="rect32"
         style="fill:#8358f0;fill-opacity:1" />
      <path
         class="cls-2"
         d="M 88.64,32.32 H 38.51 V 63.37 L 65,84.58 70.66,77.58 47.55,59 V 41.37 h 41.09 a 8.24,8.24 0 0 1 8.23,8.23 v 47 a 6.5,6.5 0 0 1 -6.49,6.5 H 76.72 l -30.83,-25.3 -5.73,7 33.33,27.3 h 16.89 a 15.55,15.55 0 0 0 15.53,-15.54 v -47 A 17.3,17.3 0 0 0 88.64,32.32 Z"
         id="path34"
         style="fill:#8358f0;fill-opacity:1" />
    </g>
  </g>
  <metadata
     id="metadata36486">
    <rdf:RDF>
      <cc:Work
         rdf:about="">
        <dc:title>Asset 19</dc:title>
      </cc:Work>
    </rdf:RDF>
  </metadata>
</svg>
