<svg xmlns="http://www.w3.org/2000/svg" xmlns:xlink="http://www.w3.org/1999/xlink" viewBox="0 0 500 500" xmlns:v="https://vecta.io/nano"><style><![CDATA[.Q{fill:#263238}.R{fill:#37474f}.S{fill:#fff}.T{fill:#ffc727}.U{fill:#ebebeb}.V{fill:#eb9481}.W{fill:#dbdbdb}.X{fill:#c7c7c7}]]></style><path d="M407.17 317.02h26.48v11.19h-26.48zm-14.77 14.11h26.48v11.19H392.4zm29.54 0h26.48v11.19h-26.48zM66.35 317.02h26.48v11.19H66.35z" class="U"/><path d="M51.57 331.13h26.48v11.19H51.57z" class="W"/><path d="M234.25 227.76h26.48v11.19h-26.48z" class="U"/><path d="M219.47 241.87h26.48v11.19h-26.48zM347.4 114.93h26.48v11.19H347.4z" class="W"/><path d="M249.02 241.87h26.48v11.19h-26.48zM405.64 55.18h26.48v11.19h-26.48z" class="U"/><path d="M420.41 69.29h26.48v11.19h-26.48z" class="W"/><g class="U"><path d="M51.57 55.19h26.48v11.19H51.57z"/><ellipse cx="323.63" cy="450.27" rx="116.72" ry="14.46"/></g><path d="M68.69 378.15c-4.38.15-9.26.4-12.88-2.44-3.35-2.62-6.34-6.52-5.89-11 .13-1.28.42-2.07 1.79-1.53 2.09.84 3.69 3.14 5.14 4.75a44.08 44.08 0 0 0 6.07 5.76c1.56 1.2 3.23 2.23 4.82 3.38l.6.45.22.17h.13a.23.23 0 0 1 .18.09v.08a.23.23 0 0 1-.18.29z" class="R"/><path d="M68.9 377.86c-3.84-.07-8 .11-11.07-2.5a17.84 17.84 0 0 1-3.58-4.36c-.44-.72-1.77-2.88-1.22-3.74 1-1.55 5.58 4.78 6.22 5.39a18.7 18.7 0 0 0 8.49 4.41l.6.45a21.31 21.31 0 0 1-6.34-2.44c-2.73-1.63-4.25-4-6.39-6.29-.46-.49-1.85-2.12-2.38-1.1-.34.67 1 2.78 1.22 3.23a17.72 17.72 0 0 0 3.34 4.09c3.07 2.68 7.2 2.58 11.08 2.74.01.07.03.09.03.12z" class="S"/><path d="M71.1 380.82c0 .16-.07.33-.11.5h0a.11.11 0 0 1-.08.09.19.19 0 0 1-.23-.09.11.11 0 0 1 0-.11.14.14 0 0 1 0-.06V381h0a.07.07 0 0 1 0-.05c-.78-2.89-1.08-5.9-1.9-8.8l-2.31-8.3c-.35-1.78-1.59-10.71 2.34-9.59 1.75.49 2.94 3 3.6 4.52a18.24 18.24 0 0 1 1.45 6.42c.34 5.44-1.66 10.4-2.76 15.62z" class="R"/><path d="M72.36 369.7a21.29 21.29 0 0 0-.63-6.06c-.18-.68-1-4-2.14-3.89-.72.05-.85 1.47-.91 1.94-.25 2 .4 4 .78 5.95a81.17 81.17 0 0 1 1.45 11.92c0 .25-.08.51-.1.76s-.06.42-.09.63 0 .14 0 .22a.88.88 0 0 0 0 .17.19.19 0 0 0 .23.09c0-.17 0-.33.07-.49v.4h0c0-.15 0-.28.08-.42a.29.29 0 0 1 0-.09v-.67a87.94 87.94 0 0 0 1.26-10.46zm-1.33 9l-.67-7-1-5.57a17.77 17.77 0 0 1-.5-3.16c0-.81.08-3.83 1.63-2 1.12 1.36 1.39 4.24 1.53 5.9a31.06 31.06 0 0 1-.11 5.54l-.91 6.3z" class="S"/><path d="M73.46 392.82h0a.64.64 0 0 1-.16 0c-4-.2-9.33.18-12.66-2.47-2.46-2-4.87-5.82-4.09-9.1.88-3.69 5.87.74 7.19 1.81a121.75 121.75 0 0 1 9.81 9.54.18.18 0 0 0 0 .07h0c.08.1 0 .13-.09.15z" class="R"/><path d="M73.59 392.71l-.69-.44Q69 389.8 65.24 387c-.62-.48-5.12-4.49-5.8-3.06-.41.87 1.08 2.63 1.55 3.23a12.5 12.5 0 0 0 3 2.72c2.67 1.66 5.9 2 8.92 2.82a2.47 2.47 0 0 1 .43.11h.07 0c.14-.02.22-.05.18-.11zm-7.91-2.28a12.43 12.43 0 0 1-3.46-2.34c-.67-.63-3-3-2.4-4 .33-.52.61-.25 1.24.07a6.47 6.47 0 0 1 .85.49c.67.44 1.29.95 1.92 1.45l3.35 2.55q2.79 2 5.72 3.85c-2.4-.75-4.9-1.04-7.22-2.07z" class="S"/><path d="M80.77 384.58a23.69 23.69 0 0 1-6.86 12h-.08a.17.17 0 0 1-.2-.07.16.16 0 0 1 0-.23l.2-.21 2-16.3c.13-1.29 1.14-9.47 3.66-8.14 1.55.83 1.65 4.18 1.78 5.69a23.82 23.82 0 0 1-.5 7.26z" class="R"/><path d="M79.31 377.29c-.13-.46-.37-.92-.88-.6-1 .61-1.36 4.45-1.53 5.52-.67 4.39-1.71 8.61-2.76 12.9l-.27 1.09-.24.33a.18.18 0 0 0 .2.07v-.11c0-.04.22-.29.32-.44h0a28.1 28.1 0 0 0 4-7.72 26.09 26.09 0 0 0 1.17-5.33c.19-1.74.5-4.06-.01-5.71zm-5.13 18.46L74 396c0-.15.09-.29.13-.44a77.85 77.85 0 0 0 2.45-10c.29-1.71.48-3.44.83-5.14.15-.72.5-2.78 1.1-3.11s.58.47.64.93 0 .93 0 1.25a27.57 27.57 0 0 1-4.97 16.26z" class="S"/><g class="R"><path d="M74.57 408.29h-.8v-2.11l-.38-8.53-.38-4.82v-.16-.4c0-.14 0-.27-.05-.42a34.61 34.61 0 0 0-2.75-10.44l-1.65-3.26c0-.1-.11-.2-.17-.3a.2.2 0 0 0 0-.09l-.17-.32-.14-.23c-1.85-3.26-4-6.37-6-9.51l-1.72-2.7a.86.86 0 0 1-.1-.16 1.37 1.37 0 0 1-.13-.2l-7.62-11.9c-.11-.14.13-.27.23-.13l5.42 7.71.72 1c.48.68 1 1.35 1.43 2 1 1.36 1.89 2.71 2.8 4.09a113 113 0 0 1 7.37 11.92 27.29 27.29 0 0 1 .46.94c.15.32.19.39.27.59s.21.46.31.69a36.66 36.66 0 0 1 2.69 12.6l.06.91v.42a1.64 1.64 0 0 0 0 .22v.3h0v.22.78l.25 8.52c-.02.95.02 1.86.05 2.77z"/><path d="M50.69 356.8c-2.19-2.95-5-9-1.77-12.18a3.42 3.42 0 0 1 4.57-.34c1.71 1.23 2.47 3.56 3 5.49 1.48 5.16 2.46 10.41 4.3 15.46a5.63 5.63 0 0 1 .21.54c0 .11-.13.15-.17.05s-.12-.33-.19-.49c-3.45-2.54-7.36-5.04-9.95-8.53z"/></g><path d="M60.85 365.24l-.05-.09a34.93 34.93 0 0 1-2-3.81 74.88 74.88 0 0 1-3.15-8.44c-.35-1.1-1.92-6.52-3.86-4.36-.81.91-.69 2.52-.57 3.63a13.63 13.63 0 0 0 1.69 5.07 24.64 24.64 0 0 0 7.27 7.6l.39.29a1 1 0 0 0 .08.14.41.41 0 0 0 0 .09.1.1 0 0 0 .05 0 .13.13 0 0 0 .17-.08.07.07 0 0 0-.02-.04zm-.85-.6a28.93 28.93 0 0 1-6.17-6.18 15.29 15.29 0 0 1-2-4.1 12 12 0 0 1-.44-2 8.51 8.51 0 0 1-.09-1.52c0-1.11.5-2.32 1.16-2.44s1.08.33 1.62 1.26a9.85 9.85 0 0 1 .48 1 26 26 0 0 1 .91 2.56l1.43 4.27 1.13 2.84a36.64 36.64 0 0 0 2.4 4.66 4.58 4.58 0 0 1-.43-.35z" class="S"/><path d="M431.69 365c-.36 2.92-.92 5.82-1.51 8.7l-1 4.9c-.36 1.8-.9 3.64-.41 5.46h0a1.14 1.14 0 0 1 0 .25h0a.22.22 0 0 1-.38-.06v-.13h0a6.75 6.75 0 0 1-.63-1.52 38.89 38.89 0 0 1-1.45-4.22 36.65 36.65 0 0 1-1.42-9 30.78 30.78 0 0 1 .85-8.11c.52-2.12 1.26-5.28 2.84-6.9 1.43-1.47 2.62.88 3 2.07.9 2.72.42 5.83.11 8.56z" class="R"/><path d="M429.07 358.84c-1.06 0-1.84 3.44-2.22 4.92a29.84 29.84 0 0 0-.9 7.17 38.32 38.32 0 0 0 2.2 12.72l.17.5h0v.11a.22.22 0 0 0 .38.07l-.16-1.07-.1-1a51 51 0 0 1 .65-10.54c.58-3.99 1.39-12.88-.02-12.88zm-.76 24.16c.05.48.13.94.21 1.41l-.32-1a42.88 42.88 0 0 1-2-11.23 28.9 28.9 0 0 1 1.29-9.77c.15-.47.92-3.34 1.58-3.2.46.1.57 2.69.58 2.75v1.56c0 1.07-.09 2.14-.18 3.21-.2 2.31-.53 4.62-.81 6.92a40.3 40.3 0 0 0-.35 9.35z" class="S"/><path d="M448.46 373.1c-2 3.81-5.25 6.73-8.65 9.24-1.83 1.34-3.71 2.59-5.56 3.89a29.8 29.8 0 0 0-4.8 3.69l-.19.2a7.68 7.68 0 0 0-1 1.37.12.12 0 0 1-.09.06 1.22 1.22 0 0 1-.07.17 0 0 0 0 1-.07 0 1.23 1.23 0 0 1 0-.19h0a.13.13 0 0 1 0-.15v-.06-.19c.56-4.46 3.67-9 6.31-12.39a23.68 23.68 0 0 1 10-8c1-.39 3.35-1.47 4.39-.64s.14 2.19-.27 3z" class="R"/><path d="M445.43 373.12c-.92-.93-3.66 1.36-4.34 1.9a44.58 44.58 0 0 0-5.66 5.5A40.79 40.79 0 0 0 428.2 391h0l-.09.12v.19.06a.12.12 0 0 0 0 .15l.14-.16 1.06-1.22a1.8 1.8 0 0 1 .19-.2 87.36 87.36 0 0 1 8.46-7.47 42.79 42.79 0 0 0 5.63-5.47c.41-.54 2.62-3.1 1.84-3.88zm-.85 2c-2.31 3.82-6.3 6.62-9.69 9.41a46 46 0 0 0-6.44 6.11 43.23 43.23 0 0 1 6.68-9.4 58.59 58.59 0 0 1 4.59-4.73 25 25 0 0 1 2.79-2.23 9 9 0 0 1 1.89-1c1.29-.36.6 1.22.18 1.88z" class="S"/><path d="M427.65 400.57a.23.23 0 0 1-.2.11l.05.07a.07.07 0 0 1 0 .1.08.08 0 0 1-.1 0c-3.61-3.68-7.09-8.15-8.89-13a20.1 20.1 0 0 1-1.29-6.41c0-1.5-.12-4.52 1.16-5.61 2.58-2.2 4.94 7.12 5.29 8.53.64 2.56 1.06 5.17 1.65 7.74.65 2.82 1.5 5.58 2.34 8.34a.19.19 0 0 1-.01.13z" class="R"/><path d="M427.65 400.57l-.41-.72a43.54 43.54 0 0 1-4.65-12.52 39.62 39.62 0 0 0-1.72-6.52c-.21-.52-.85-2.5-1.71-1.5-.44.52-.07 4.29.1 5.26a27.59 27.59 0 0 0 2.1 6.4 45.35 45.35 0 0 0 5.92 9.62l.21.26a.07.07 0 0 0 0-.1l-.05-.07a.23.23 0 0 0 .21-.11zm-5.25-8a32.81 32.81 0 0 1-2.48-6.22 22.79 22.79 0 0 1-.54-2.61 14.6 14.6 0 0 1-.18-2.08c0-1.7.15-2.14.44-2.2s.42.15.92 1.16a11.84 11.84 0 0 1 .73 2.07l.71 3 1.44 6.06a33.87 33.87 0 0 0 3.59 8.15 52.34 52.34 0 0 1-4.63-7.34z" class="S"/><path d="M439.24 391.63a12.82 12.82 0 0 1-2.37 4.93c-2.15 3-4.89 5.43-7.23 8.23-.35.41-.69.84-1 1.28 0 .05-.31.66-.3.61l.11-.64h0c.37-2 1.61-7.88 3.14-10.91a26.68 26.68 0 0 1 3.43-5.36c.66-.75 2.22-2.37 3.39-2s1.01 2.92.83 3.86z" class="R"/><path d="M437.33 390.44c-1.26-.78-4.49 5-4.93 5.74a37.21 37.21 0 0 0-3.69 8.81l-.27 1.05-.13.64.31-.62.17-.22.85-1 4.21-6.32a34.33 34.33 0 0 0 2.61-4.81c.16-.43 1.42-2.94.87-3.27zm-.36 1.62c-1.79 5-5.43 9-8.21 13.45l-.13.22c0-.13.07-.26.11-.39a42 42 0 0 1 2.95-7.34 39.4 39.4 0 0 1 2.48-4.14 20.57 20.57 0 0 1 1.55-2.15c.26-.28 1-1 1.25-.91s.11.93.03 1.26z" class="S"/><path d="M451.84 350.15c-3.73 8.56-13.52 12.55-17.76 20.81h0c-.13.25-.25.51-.37.77a.17.17 0 0 1-.28.05.16.16 0 0 1 0-.15l.09-.18a44.64 44.64 0 0 1 5.24-15c2.14-3.95 5.07-7.64 9.14-9.72 1-.52 2.95-1.6 4.07-.75s.33 3.11-.13 4.17z" class="R"/><path d="M448.48 350.51c-.47-.35-1.19.08-1.6.29a14.44 14.44 0 0 0-2.83 1.93 23.49 23.49 0 0 0-4.51 5.37 48.5 48.5 0 0 0-5.32 10.78l-.74 2.61c0 .11-.05.22-.07.32a.17.17 0 0 0 .28 0l.36-.74V371a28.18 28.18 0 0 1 2.66-4.88 65.34 65.34 0 0 1 5.58-6.62c.79-.89 7.83-7.78 6.19-8.99zm-.6 2a32.3 32.3 0 0 1-4.42 5.36l-4.63 5.19a32.75 32.75 0 0 0-3.27 4.46 25.46 25.46 0 0 0-2 4.12 36.11 36.11 0 0 1 1.46-4.29h0a64.67 64.67 0 0 1 3.61-7.21.26.26 0 0 0 .05-.09 29.62 29.62 0 0 1 4.13-5.75 16.28 16.28 0 0 1 2.93-2.5c1.23-.79 2.3-1.31 2.61-.92s-.13 1.03-.47 1.62z" class="S"/><path d="M438.81 360.19l-3.25 7.32-1.48 3.45v.07l-.54 1.25a76.31 76.31 0 0 0-4.38 11.58 35.29 35.29 0 0 0-.89 6.44v.67h0v.36a1.48 1.48 0 0 0 0 .21v5.59l.51 7.63a1.64 1.64 0 0 0 0 .22v.35.17.33l.22 2.45h-.78a51.28 51.28 0 0 1-.94-7.54.92.92 0 0 1 0-.16v-.74-.91l-.06-2.18a53.5 53.5 0 0 1 .9-12.63c0-.11 0-.22.08-.34a.89.89 0 0 1 0-.14 2 2 0 0 1 .05-.24l.11-.39.19-.68.06-.21a83.69 83.69 0 0 1 4.31-10.4l.86-1.83.49-1 .76-1.54h0l3.61-7.21c.04-.14.23-.07.17.05z" class="R"/><path d="M126.96 355.81h177.6v23.52h-177.6z" class="T"/><g class="U"><path d="M163.46 355.81l-12.89 23.52h-22.93l12.89-23.52h22.93zm47.02 0l-12.89 23.52h-22.94l12.88-23.52h22.95zm47.01 0l-12.89 23.52h-22.94l12.89-23.52h22.94zm47.01 0l-12.89 23.52h-22.94l12.89-23.52h22.94z"/><path d="M270.39 409.18h24.43l-18.1-110.97H252.3l18.09 110.97zm-130.27 0h24.43l-18.09-110.97h-24.43l18.09 110.97z"/></g><path d="M280.39 409.18h24.43l-18.1-110.97H262.3l18.09 110.97zm-140.27 0h24.43l-18.09-110.97h-24.43l18.09 110.97z" class="X"/><path d="M136.8 298.22l-1.52 9.34-1.63 10.04-14.94 91.58H94.29l14.93-91.58 1.64-10.04 1.52-9.34h24.42z" class="U"/><g class="X"><path d="M133.27 298.22l-4.07 27.79-4.31 27.76-4.51 27.72-2.33 13.85-2.43 13.84 2-13.9 2.08-13.9 4.3-27.75 4.51-27.73 4.76-27.68z"/><path d="M135.28 307.56l-1.63 10.04h-24.43l1.64-10.04h24.42z"/></g><path d="M277.07 298.22l-1.52 9.34-1.64 10.04-14.93 91.58h-24.43l14.94-91.58 1.64-10.04 1.52-9.34h24.42z" class="U"/><g class="X"><path d="M273.46 298.22l-4.07 27.79-4.31 27.76-4.51 27.72-2.33 13.85-2.43 13.84 2-13.9 2.08-13.9 4.31-27.75 4.51-27.73 4.75-27.68z"/><path d="M275.55 307.56h-24.42l-1.64 10.04h24.42l1.64-10.04z"/></g><path d="M96.7 360.03h177.6v23.52H96.7z" class="T"/><path d="M133.2 360.03l-12.89 23.52H97.38l12.89-23.52h22.93zm47.02 0l-12.89 23.52h-22.94l12.89-23.52h22.94zm47.01 0l-12.89 23.52H191.4l12.89-23.52h22.94zm47.01 0l-12.89 23.52h-22.94l12.89-23.52h22.94z" class="U"/><path d="M96.7 265.5h209.5v42.07H96.7z" class="T"/><path d="M139.76 265.5l-15.2 42.06H97.5l15.21-42.06h27.05zm55.46 0l-15.2 42.06h-27.07l15.21-42.06h27.06zm55.45 0l-15.2 42.06h-27.06l15.21-42.06h27.05zm55.46 0l-15.2 42.06h-27.07l15.21-42.06h27.06z" class="U"/><path d="M43.94 408.97l51.51-.24 51.52-.09 103.03-.17 103.03.17 51.52.09 51.51.24-51.51.25-51.52.09-103.03.16-103.03-.17-51.52-.08-51.51-.25z" class="Q"/><path d="M73.16 52.27H224.6v180.05H73.16z" class="T"/><circle cx="148.88" cy="92.56" r="25.76" transform="matrix(.926332 -.376709 .376709 .926332 -23.9 62.91)" fill="#455a64"/><g class="S"><path d="M148.88 115.21a22.65 22.65 0 1 1 22.65-22.65 22.67 22.67 0 0 1-22.65 22.65zm0-43.53a20.88 20.88 0 1 0 20.88 20.88 20.9 20.9 0 0 0-20.88-20.88zm-6.99 23.56h0l-.06-.08-1.84-2.5a2.88 2.88 0 0 0-.69-.66 1.89 1.89 0 0 0-2.91 1.13 2.11 2.11 0 0 0 .33 1.72l4.8 7.28a7.63 7.63 0 0 0 3.48 2.97 11.52 11.52 0 0 0 7.72.43 6.15 6.15 0 0 0 4.09-3.55 7.87 7.87 0 0 0 .69-3.27v-8.95-4.83a1.62 1.62 0 0 0-.61-1.33 1.55 1.55 0 0 0-1.73-.21 1.53 1.53 0 0 0-.94 1.48v6.5c0 .37-.15.57-.42.57s-.41-.2-.41-.57V82a2.68 2.68 0 0 0 0-.4 1.63 1.63 0 0 0-3.25.22v8.49a1.93 1.93 0 0 1 0 .24.41.41 0 0 1-.39.36.39.39 0 0 1-.41-.33 1.1 1.1 0 0 1 0-.26v-9.41a2.35 2.35 0 0 0 0-.26 1.56 1.56 0 0 0-.79-1.29 1.62 1.62 0 0 0-2.55 1.41q0 4.78 0 9.55a1.61 1.61 0 0 1 0 .22.42.42 0 0 1-.41.37.41.41 0 0 1-.41-.35 1.55 1.55 0 0 1 0-.22v-3.55-4a1.63 1.63 0 1 0-3.26.05v12.4z"/><path d="M141.89 95.24V82.87a1.63 1.63 0 1 1 3.26-.05v4 3.55a1.55 1.55 0 0 0 0 .22.41.41 0 0 0 .41.35.42.42 0 0 0 .41-.37 1.61 1.61 0 0 0 0-.22q0-4.77 0-9.55a1.62 1.62 0 0 1 2.46-1.41 1.56 1.56 0 0 1 .79 1.29 2.35 2.35 0 0 1 0 .26v9.41a1.1 1.1 0 0 0 0 .26.39.39 0 0 0 .41.33.41.41 0 0 0 .39-.36 1.93 1.93 0 0 0 0-.24v-8.52a1.63 1.63 0 0 1 3.25-.22 2.68 2.68 0 0 1 0 .4v9.37c0 .37.14.57.41.57s.42-.2.42-.57v-6.5a1.53 1.53 0 0 1 .94-1.48 1.55 1.55 0 0 1 1.73.21 1.62 1.62 0 0 1 .61 1.33v4.83 8.95a7.87 7.87 0 0 1-.69 3.27 6.15 6.15 0 0 1-4.09 3.55 11.52 11.52 0 0 1-7.72-.43 7.63 7.63 0 0 1-3.48-2.95l-4.8-7.28a2.11 2.11 0 0 1-.33-1.72 1.89 1.89 0 0 1 2.98-1.15 2.88 2.88 0 0 1 .69.66l1.84 2.5.06.08z"/><circle cx="77.93" cy="56.94" r="1.68"/><circle cx="219.84" cy="56.94" r="1.68"/><circle cx="77.93" cy="227.66" r="1.68"/><circle cx="219.84" cy="227.66" r="1.68"/></g><path d="M110.15 184.44V174H89.68v-8.34l23.48-30.14h6.38v30.07h6.17V174h-6.17v10.44zm-11.08-18.85h12.13v-15.84zM167.91 155a25.55 25.55 0 0 1-1.37 8.52 21 21 0 0 1-3.78 6.73 17.22 17.22 0 0 1-5.75 4.42 17.32 17.32 0 0 1-14.41 0 17.37 17.37 0 0 1-5.71-4.42 21 21 0 0 1-3.78-6.73 27.15 27.15 0 0 1 0-17 20.9 20.9 0 0 1 3.78-6.73 17.6 17.6 0 0 1 5.71-4.45 16.83 16.83 0 0 1 14.41 0 17.44 17.44 0 0 1 5.75 4.45 20.9 20.9 0 0 1 3.78 6.73 25.53 25.53 0 0 1 1.37 8.48zm-9.46 0a19.91 19.91 0 0 0-.63-5.15 13.07 13.07 0 0 0-1.79-4 8.42 8.42 0 0 0-2.74-2.59 6.76 6.76 0 0 0-3.47-.91 7 7 0 0 0-3.54.91 8.49 8.49 0 0 0-2.73 2.59 13.07 13.07 0 0 0-1.79 4 19.91 19.91 0 0 0-.63 5.15 19.46 19.46 0 0 0 .63 5.12 13.11 13.11 0 0 0 1.79 4 8.49 8.49 0 0 0 2.73 2.59 7 7 0 0 0 3.54.91 6.76 6.76 0 0 0 3.47-.91 8.42 8.42 0 0 0 2.74-2.59 13.11 13.11 0 0 0 1.79-4 19.46 19.46 0 0 0 .63-5.12zm39.6 4a11.17 11.17 0 0 1 7 4.17 13 13 0 0 1 2.7 8.31 13.54 13.54 0 0 1-1.3 6 13 13 0 0 1-3.65 4.52 17.2 17.2 0 0 1-5.71 2.87 26.06 26.06 0 0 1-7.57 1 24.36 24.36 0 0 1-9.43-1.72 17.63 17.63 0 0 1-6.83-5l5.32-6.66A12.83 12.83 0 0 0 183 176a14.07 14.07 0 0 0 6.31 1.27 10.76 10.76 0 0 0 6.52-1.69 6.07 6.07 0 0 0 2.24-5.18 6.61 6.61 0 0 0-2.59-5.61q-2.6-2-7.85-2h-2v-7h2.18a10.49 10.49 0 0 0 6.73-1.93 6.07 6.07 0 0 0 2.38-4.94 4.91 4.91 0 0 0-2-4.28 8.66 8.66 0 0 0-5.12-1.4 11.37 11.37 0 0 0-5.78 1.47 11.49 11.49 0 0 0-4.17 4.14l-5.85-6.53a11.15 11.15 0 0 1 2.8-2.91 19.43 19.43 0 0 1 4-2.25 24.9 24.9 0 0 1 4.8-1.47 26.84 26.84 0 0 1 5.33-.52 21.86 21.86 0 0 1 6.52.91 16.54 16.54 0 0 1 5.08 2.52 10.82 10.82 0 0 1 4.45 9 12.55 12.55 0 0 1-.63 4 11.3 11.3 0 0 1-1.85 3.4 11 11 0 0 1-2.84 2.6 9.82 9.82 0 0 1-3.61 1.4zM96.08 200.06v1.56h-6.35l-.06-9.15h6.24V194h-4.46v2.2h3.86v1.44h-3.85v2.39zm1.4 1.55v-9.15h4a2.57 2.57 0 0 1 1.17.25 3.17 3.17 0 0 1 .92.69 3.33 3.33 0 0 1 .62 1 3.09 3.09 0 0 1-.21 2.72 2.61 2.61 0 0 1-1.2 1.06l2.11 3.42h-2l-1.89-3.08h-1.76v3.07zm1.75-4.61h2.23a.93.93 0 0 0 .46-.12 1.1 1.1 0 0 0 .36-.32 1.6 1.6 0 0 0 .24-.47 1.81 1.81 0 0 0 .09-.58 1.63 1.63 0 0 0-.11-.59 1.47 1.47 0 0 0-.28-.47 1.2 1.2 0 0 0-.4-.31.93.93 0 0 0-.46-.1h-2.15zm6.82 4.56l-.06-9.15h4.05a2.71 2.71 0 0 1 1.17.26 3 3 0 0 1 .92.69 3.11 3.11 0 0 1 .61 1 2.86 2.86 0 0 1 .23 1.1 3.12 3.12 0 0 1-.43 1.62 2.59 2.59 0 0 1-1.2 1.05l2.11 3.43h-2l-1.89-3.05h-1.75v3.07zm1.75-4.64h2.2a1.09 1.09 0 0 0 .46-.12 1.22 1.22 0 0 0 .36-.32 1.6 1.6 0 0 0 .24-.47 1.85 1.85 0 0 0 .09-.58 1.64 1.64 0 0 0-.11-.6 1.53 1.53 0 0 0-.28-.46 1.08 1.08 0 0 0-.4-.31 1.07 1.07 0 0 0-.46-.11h-2.15zm10.72 4.62a4 4 0 0 1-1.82-.38 4.43 4.43 0 0 1-1.41-1 4.66 4.66 0 0 1-.92-1.49 4.56 4.56 0 0 1-.33-1.71 4.36 4.36 0 0 1 .33-1.75 4.68 4.68 0 0 1 .93-1.49 4.43 4.43 0 0 1 1.42-1 4.07 4.07 0 0 1 1.78-.39 3.92 3.92 0 0 1 1.82.39 4.59 4.59 0 0 1 1.4 1.06 4.81 4.81 0 0 1 .91 1.49 4.76 4.76 0 0 1 .34 1.69 4.69 4.69 0 0 1-.33 1.75 4.79 4.79 0 0 1-.92 1.48 4.4 4.4 0 0 1-1.41 1 4.11 4.11 0 0 1-1.79.35zm-2.68-4.62a3.7 3.7 0 0 0 .19 1.15 2.94 2.94 0 0 0 .53 1 2.43 2.43 0 0 0 .84.68 2.61 2.61 0 0 0 2.27 0 2.68 2.68 0 0 0 .83-.71 3.32 3.32 0 0 0 .51-1 3.47 3.47 0 0 0 .16-1.11 3.43 3.43 0 0 0-.19-1.15 3.25 3.25 0 0 0-.53-1 2.44 2.44 0 0 0-.85-.67 2.39 2.39 0 0 0-1.11-.25 2.41 2.41 0 0 0-1.15.27 2.56 2.56 0 0 0-.83.7 3.08 3.08 0 0 0-.5 1 3.48 3.48 0 0 0-.17 1.09zm8.52 4.52l-.06-9.14h4a2.57 2.57 0 0 1 1.17.26 3 3 0 0 1 .92.69 3.06 3.06 0 0 1 .61 1 2.89 2.89 0 0 1 .23 1.1 3.07 3.07 0 0 1-.43 1.62 2.61 2.61 0 0 1-1.2 1.06l2.11 3.43h-2l-1.89-3h-1.75v3.06zm1.75-4.63h2.23a1.07 1.07 0 0 0 .46-.11 1.22 1.22 0 0 0 .36-.32 1.73 1.73 0 0 0 .24-.47 1.92 1.92 0 0 0 .09-.59 1.63 1.63 0 0 0-.11-.59 1.58 1.58 0 0 0-.28-.47 1.17 1.17 0 0 0-.4-.3 1 1 0 0 0-.46-.11h-2.15zm9.89 4.56l-.06-9.15h6.15v1.56h-4.37v2.36h3.63v1.44h-3.63v3.79zm11.11 0a4.18 4.18 0 0 1-1.82-.38 4.46 4.46 0 0 1-1.41-1 4.79 4.79 0 0 1-1.25-3.19 4.41 4.41 0 0 1 .37-1.8 4.64 4.64 0 0 1 .93-1.48 4.33 4.33 0 0 1 3.21-1.43 4 4 0 0 1 1.81.4 4.3 4.3 0 0 1 1.4 1 4.74 4.74 0 0 1 .91 1.49 4.81 4.81 0 0 1 .34 1.7 4.73 4.73 0 0 1-.33 1.75 4.68 4.68 0 0 1-.92 1.47 4.33 4.33 0 0 1-3.2 1.42zm-2.68-4.62a3.68 3.68 0 0 0 .19 1.14 3 3 0 0 0 .53 1 2.65 2.65 0 0 0 .84.68 2.44 2.44 0 0 0 1.13.25 2.59 2.59 0 0 0 1.14-.27 2.7 2.7 0 0 0 .83-.71 3 3 0 0 0 .51-1 3.9 3.9 0 0 0 .17-1.12 3.69 3.69 0 0 0-.2-1.14 3 3 0 0 0-.53-1 2.62 2.62 0 0 0-.84-.67 2.45 2.45 0 0 0-1.12-.24 2.34 2.34 0 0 0-1.14.27 2.5 2.5 0 0 0-.84.7 3 3 0 0 0-.5 1 3.58 3.58 0 0 0-.17 1.11zm8.57 4.52v-9.15h4a2.57 2.57 0 0 1 1.17.25 3.17 3.17 0 0 1 .92.69 3.33 3.33 0 0 1 .62 1 3.09 3.09 0 0 1-.21 2.72 2.61 2.61 0 0 1-1.2 1.06l2.11 3.42h-2l-1.89-3.06h-1.75v3.07zm1.75-4.64h2.23a.93.93 0 0 0 .46-.12 1.1 1.1 0 0 0 .36-.32 1.39 1.39 0 0 0 .24-.47 1.81 1.81 0 0 0 .09-.58 1.59 1.59 0 0 0-.11-.59 1.47 1.47 0 0 0-.28-.47 1.2 1.2 0 0 0-.4-.31 1.07 1.07 0 0 0-.46-.11h-2.15zm14.13 2.18a2.19 2.19 0 0 1-.23 1 2.13 2.13 0 0 1-.63.74 3.17 3.17 0 0 1-.94.46 4.24 4.24 0 0 1-1.14.16h-4.42l-.06-9.15h4.9a1.73 1.73 0 0 1 .86.2 2 2 0 0 1 .66.53 2.39 2.39 0 0 1 .43.74 2.54 2.54 0 0 1-.18 2.11 2 2 0 0 1-1 .87 2.28 2.28 0 0 1 1.72 2.32zm-5.63-5.23v2.3h2.38a1 1 0 0 0 .76-.32 1.13 1.13 0 0 0 .31-.85 1.16 1.16 0 0 0-.29-.83 1 1 0 0 0-.72-.31zm3.83 4.91a1.28 1.28 0 0 0-.31-.86 1.27 1.27 0 0 0-.34-.27 1 1 0 0 0-.42-.09h-2.74v2.41h2.64a1.18 1.18 0 0 0 .46-.09 1 1 0 0 0 .63-.59 1.18 1.18 0 0 0 .08-.51zm3.2 2.67l-.05-9.15H172l.06 9.15zm3.72-.02l-.06-9.15h3.32a5 5 0 0 1 2 .35 4 4 0 0 1 2.28 2.41 5.47 5.47 0 0 1 .29 1.77 5.36 5.36 0 0 1-.3 1.89 4 4 0 0 1-.9 1.45 4.1 4.1 0 0 1-1.42.94 5.18 5.18 0 0 1-1.86.34zm6-4.62a3.57 3.57 0 0 0-.19-1.21 2.8 2.8 0 0 0-.53-1 2.44 2.44 0 0 0-.86-.61 3 3 0 0 0-1.16-.21h-1.56v6h1.54a2.72 2.72 0 0 0 1.17-.24 2.44 2.44 0 0 0 .84-.64 2.83 2.83 0 0 0 .52-1 3.85 3.85 0 0 0 .23-1.09zm3.19 4.56l-.05-9.14h3.32a5.21 5.21 0 0 1 2 .35 4.08 4.08 0 0 1 1.41 1 4 4 0 0 1 .86 1.45 5.64 5.64 0 0 1 0 3.66 3.94 3.94 0 0 1-.9 1.45 4 4 0 0 1-1.41.93 5 5 0 0 1-1.86.34zm6-4.62a4.2 4.2 0 0 0-.19-1.21 2.66 2.66 0 0 0-.53-.95 2.47 2.47 0 0 0-.87-.62 3 3 0 0 0-1.15-.21h-1.55v6h1.55a2.67 2.67 0 0 0 1.16-.24 2.36 2.36 0 0 0 .85-.64 2.76 2.76 0 0 0 .51-1 3.87 3.87 0 0 0 .24-1.13zm9.57 2.97V201h-6.35l-.06-9.15h6.24v1.56h-4.46v2.2h3.86v1.44h-3.85v2.39zm3.14-4.33v5.87h-1.78l-.06-9.15h1.38l4.81 6v-6h1.78l.06 9.14h-1.45z" class="Q"/><path d="M88,405.76H50.67l13.87-48.24a5.08,5.08,0,0,1,9.55,0Z" class="T"/><path d="M78.61 373.27h-18.6l2.92-10.17H75.7l2.91 10.17zm4.86 16.88H55.16l2.92-10.18h22.46l2.93 10.18z" class="U"/><path d="M88,405.76H50.67l13.2-45.93c-1.13,29.72,17.41,39.05,22.69,41.1Z" style="mix-blend-mode:multiply" opacity=".1"/><path d="M43.58 405.76h51.46v3.21H43.58zm394.95 0h-37.29l13.87-48.24a5.08 5.08 0 0 1 9.55 0z" class="T"/><path d="M429.19 373.27h-18.61l2.92-10.17h12.77l2.92 10.17zm4.85 16.88h-28.31l2.92-10.18h22.46l2.93 10.18z" class="U"/><path d="M438.52,405.76H401.24l13.2-45.93c-1.13,29.72,17.41,39.05,22.69,41.1Z" style="mix-blend-mode:multiply" opacity=".1"/><path d="M394.15 405.76h51.46v3.21h-51.46z" class="T"/><path d="M245.49 451.89c2.4.77 73.13-.11 75.71-1.8 1-.62-4-67.17-4-67.17l-45.7.45 4.86 44.53s-26 12-28.64 14.19-4.62 9.04-2.23 9.8z" class="V"/><path d="M245.5 451.89c2.39.77 73.13-.11 75.7-1.8.46-.28-.35-14.57-1.35-29.88h-44.31l.84 7.68s-26 12-28.65 14.2-4.64 9.03-2.23 9.8z" class="S"/><path d="M244.72 452.86c2.52.83 73.94.15 76.67-1.61 1-.66-.47-24.21-.47-24.35h-44.18v.79s-27.46 12.59-30.25 14.85-4.3 9.51-1.77 10.32z" class="Q"/><path d="M244.91 450.06c12.14-.41 61.13-.92 73.16-.41.1 0 .1.07 0 .08-12 .67-61 .79-73.16.53-.26-.01-.26-.19 0-.2zm26.66-22.98c4.77-.93 10.62-.25 14.3 3.12.14.13 0 .33-.2.28a67.41 67.41 0 0 0-14.08-2.79.31.31 0 0 1-.02-.61zm-3.43 2.11c4.77-.93 10.62-.25 14.3 3.12.14.13 0 .33-.2.28a67.44 67.44 0 0 0-14.07-2.79.31.31 0 0 1-.03-.61zm-3.43 2.11c4.77-.93 10.62-.25 14.3 3.12.15.13 0 .33-.2.28a67.31 67.31 0 0 0-14.07-2.79.31.31 0 0 1-.03-.61zm7.05-5.3H321l-8-115.64c.5-2.57 3.4-14.21 7.27-29.41l3.88-15.14 11.23-43.53 9.42-36.2h-41.7l-11 35.46c-10 32.58-23.32 77.42-24.64 88.33-1.55 13.2 4.3 116.13 4.3 116.13z" class="R"/><g class="Q"><path d="M274.05 417c7.5-.15 5.34-.21 12.85-.28 3.67 0 27.8-.25 31.23.32a.08.08 0 0 1 0 .15c-3.43.57-27.56.36-31.23.32l-12.85-.29a.11.11 0 1 1 0-.22zm63.21-225.26l-7.65 26.94-7.46 27-7.28 27-7 27.14-1.52 6.85-.31 1.76c0 .32-.05.67-.05 1l.07.87 6.54 99.4v.3l.55-.34-6-99.44-.06-.87v-.77l.3-1.69 1.54-6.81c4.37-18.13 9.25-36.16 14-54.21z"/><path d="M304.14 186.08c2.89 22.4 13.37 59.62 17.39 90.09l23.31-90.09z"/></g><path d="M404.66 451.53c-2.42.76-61.83 1-64.41-.7-1-.64-1.34-10.65-1.41-22.77v-.38c0-2.5-5.77-44.46-5.77-44.46l44.89.92 5.19 44.07v.75s16.76 10.51 19.39 12.7 4.53 9.13 2.12 9.87z" class="V"/><path d="M338 420.21l.83 7.47v.38c.08 12.12.43 22.13 1.42 22.77 2.57 1.72 62 1.46 64.41.71s.46-7.7-2.16-9.88S383.11 429 383.11 429v-.75l-.95-8z" class="S"/><path d="M407.59 452.86c-2.52.83-66.42.15-69.14-1.61-1.05-.66.46-24.21.46-24.35h44.18v.79s19.93 12.59 22.72 14.85 4.3 9.51 1.78 10.32z" class="Q"/><path d="M407.4 450.06c-12.14-.41-53.61-.92-65.64-.41-.09 0-.09.07 0 .08 12 .67 53.5.79 65.64.53.25-.01.26-.19 0-.2zm-27.89-21.67c-6.05-1.67-13.59-1.66-18.5 1.66-.19.13 0 .38.24.35a94 94 0 0 1 18.19-1.33.342.342 0 0 0 .07-.68zm4.27 2.82c-6.06-1.67-13.59-1.66-18.5 1.67-.19.12 0 .37.24.34a95.62 95.62 0 0 1 18.19-1.33.342.342 0 0 0 .07-.68zM388 434c-6.05-1.67-13.58-1.66-18.49 1.67-.19.13 0 .38.24.34a95.56 95.56 0 0 1 18.25-1.3.355.355 0 0 0 0-.71zm-83.86-247.92l6.75 39.79 6.59 3.07 17.29 196.88 49.45.2-26.12-239.94z" class="R"/><path d="M336.47 417c7.55-.12 5.38-.2 12.94-.24 3.7 0 28-.12 31.44.46a.08.08 0 0 1 0 .16c-3.46.55-27.75.24-31.45.19l-12.93-.35a.11.11 0 0 1 0-.22zm-27.63-192.33a92.28 92.28 0 0 1 14.16 7.41.163.163 0 0 1-.15.29c-4.77-2.32-9.64-4.55-14.27-7.13a.32.32 0 0 1 .26-.57zm1.81-22.08c.78 4.61 1.21 9.3 1.73 13.95l.38 3.34a6.49 6.49 0 0 0 .8 2.93c1 1.56 2.8 2.29 4.43 3 .19.08.11.38-.09.31a10.72 10.72 0 0 1-4.71-2.48c-1.48-1.57-1.43-3.95-1.66-6a128.47 128.47 0 0 1-1.09-15.06c0-.08.19-.11.21.01zm5.61 1.41c.17 3.32.54 6.64.81 10l.36 4.91c.1 1.64.29 3.37.24 5 0 .11-.18.14-.2 0-.28-1.57-.31-3.22-.44-4.81l-.35-5c-.19-3.36-.28-6.74-.58-10.09-.01-.11.16-.11.16-.01zm2.23 29.88l2.65 22.62 2.76 22.61 5.69 45.19 10.1 88.23-9.05-88.36-5.93-45.17-3.06-22.57-3.16-22.55z" class="Q"/><use xlink:href="#A" class="V"/><use xlink:href="#A" class="T"/><path d="M315.68 130.79l-22.87 44.88c0 .82-7.68 8.75-15.34 14.52l40.68-69.52c1.14.91.85 3.78-2.47 10.12z" fill="#000102" opacity=".1"/><path d="M298.11 203.43H360c.18-.22 2.35-5.06 2-7.21-1.12-7.65-19.41-64.66-27.91-74.31-4.82-5.48-15.88-3.59-18.55 0-11.42 15.5-20 63.6-20.18 74.69-.01 2.4 2.64 6.65 2.75 6.83z" class="T"/><g class="Q"><path d="M322.6 137.24l-3.47-5.9-3.77 4.63 1.24 4.32 4 .28 2-3.33z"/><path d="M320.6 140.57l2.05 44.19-7.74 13.14-5.18-13.64 6.87-43.97 4 .28z"/><path d="M319.13 131.34l-1.16 9.07-1 9.07c-.64 6.05-1.24 12.11-1.63 18.18s-.7 12.14-.66 18.22c0 3 .13 6.08.43 9.1a41.3 41.3 0 0 0 1.66 9c-2.06-5.77-2.47-12-2.67-18s.1-12.2.49-18.29 1.05-12.14 1.81-18.19l1.25-9 1.48-9.16z"/></g><path d="M333.63 162.83h-.12l-7.25-2.53-1.06-10.7 12.29-.55 1.05 10.47zm-6.91-2.94l6.83 2.39 4.47-3-1-9.71-11.29.51zm-19.42 2.97l-3.42-3.4.72-10.46 8.57.57-.72 10.66zm-2.91-3.6l3 3 4.57-2.33.67-9.88-7.57-.5z" opacity=".1" fill="#000102"/><path d="M313.21 148.65l-8.12-.76.36-1.67 7.76.81v1.62zm15.45-5.29a21 21 0 0 0 .42 3.58c.29.74 2.4 1.05 2.4 1.05s1.84-.56 2-1.13a22.44 22.44 0 0 0-.28-3.79 3.09 3.09 0 0 1-2.57-1 2.15 2.15 0 0 1-1.97 1.29z" class="S"/><path d="M296.69 203.43h63.94v4.92h-63.94z" class="Q"/><path d="M323.06,209.8H309V202h14.05Zm-12.05-2h10.05V204H311Z" class="U"/><use xlink:href="#B" class="V"/><use xlink:href="#B" class="T"/><g class="Q"><path d="M339.06 138.11c2 2.95 3.86 6 5.73 9s3.69 6.06 5.5 9.11l5.31 9.22 2.58 4.66 2.49 4.72c-1-1.47-1.93-3-2.9-4.46l-2.77-4.54c-1.88-3-3.7-6.06-5.51-9.11l-5.3-9.23-5.13-9.37z"/><path d="M339.47 141.42c.73.67 1.39 1.38 2 2.08l1 1.07 1 1.09a8.54 8.54 0 0 1-2.32-1.82 9.89 9.89 0 0 1-1.68-2.42zm-69.023 60.681l107.834-72.755 4.049 6.001-107.834 72.755zm25.331-6.84l13.73 20.58-6.014 4.013-13.73-20.58z"/></g><g class="V"><path d="M264.56 197.49c6.43 2.38 10.5.56 35.39-10.39 3.44-1.52 2-27.16-2-27.27-6.35-.18-25.15 9.77-26.4 10.52-10.55 6.35-11.36 25.53-6.99 27.14z"/><path d="M328.88 175.77c-.6 3.16-3.84 2.49-3.84 2.49a6 6 0 0 1 .79 4c-.49 2.42-4.49 2.71-4.49 2.71a7.48 7.48 0 0 1 .16 4.36c-.7 2.27-4.7 3.14-4.7 3.14a6.49 6.49 0 0 1-2.27 3.92c-3.31 2.52-9.26.3-13-1.14-5.61-2.13-13.23-8.91-15.18-10.16l6.65-24.3a17.08 17.08 0 0 1 6.94-.92 75.25 75.25 0 0 1 18.11 4.49c4.45 2.07 11.41 8.31 10.83 11.41z"/></g><path d="M325 177.81c-3.29-2.95-7.28-4.76-11.15-6.8-.09 0-.16.1-.07.14 3.87 2 7.31 4.7 11.1 6.83a.104.104 0 0 0 .12-.17zm-3.63 6.83a10.94 10.94 0 0 0-2.64-1.45l-2.93-1.3q-2.94-1.26-6-2.35c-.09 0-.16.09-.07.13l5.83 2.62 2.88 1.39a14.14 14.14 0 0 0 2.76 1.22c.18.03.29-.17.17-.26zm-4.65 7.81a7.94 7.94 0 0 0-2.45-1.18l-2.71-1.1-5.37-2.29c-.09 0-.16.09-.07.13l5.39 2.49 2.67 1.18a7.5 7.5 0 0 0 2.5.86.05.05 0 0 0 .04-.09z" class="Q"/><g class="T"><path d="M288.93 161.23l-6 35s-16.88 4.92-19.58.8-1.77-16.77 4.78-24.23c5.29-6.07 20.8-11.57 20.8-11.57z"/><path d="M283.29 162.48l10.86-3.88-5.67 36.88-10.41 2.42 5.22-35.42z"/></g><g class="Q"><path d="M283 164.67l-.79 8.05-1.06 8-1.29 8-.73 4-.83 4 .35-4 .45-4 1.06-8 1.29-8 1.55-8.05zm10.86-4.18c0-.64.09-1.27.15-1.91l.19.16-5.35 2.19-5.4 2 .33-.4-.16 1.08v.26l-.25.12-6 2.82-5.9 3a27.94 27.94 0 0 1 2.7-2l2.86-1.73c1.92-1.12 3.91-2.11 5.93-3.06l-.28.38.15-1.08v-.3l.28-.1q2.72-1 5.46-1.86l5.52-1.68.24-.07v.22l-.47 1.96z"/><path d="M273.31 167.25a5.2 5.2 0 0 1 2-.92 5.34 5.34 0 0 1 2.18-.09l-1 .32-1 .26-1 .23-1.18.2z"/></g><g class="V"><path d="M390.91 193.48c-5.61 3.56-16.44 4-38.32-12.18-3-2.24 4-26.94 8-26.16 6.22 1.22 22.39 15 23.44 16.05 8.8 8.49 10.8 19.81 6.88 22.29z"/><path d="M337.63 140.6c-2.33 2.21 0 4.57 0 4.57a6.06 6.06 0 0 0-3.79 1.51c-1.77 1.73.17 5.25.17 5.25a7.43 7.43 0 0 0-3.75 2.24c-1.52 1.82-.08 5.65-.08 5.65a6.54 6.54 0 0 0-2.06 4c-.31 4.15 4.79 7.94 8.05 10.33 4.85 3.54 14.69 6.25 16.79 7.2l16.76-18.83a17 17 0 0 0-3-6.33 75.17 75.17 0 0 0-13.61-12.75c-4.17-2.58-13.2-5.02-15.48-2.84z"/></g><path d="M338 145c4.26 1.16 8 3.52 11.77 5.66a.08.08 0 0 1-.08.13c-3.77-2.17-7.92-3.57-11.77-5.6-.09-.1-.02-.27.08-.19zm-3.73 6.71a11.7 11.7 0 0 1 2.65 1.43l2.68 1.75 5.22 3.73c.08 0 0 .18-.07.13l-5.37-3.47-2.74-1.65a14.07 14.07 0 0 1-2.52-1.66.16.16 0 0 1 .15-.26zm-4.02 8.16a7.93 7.93 0 0 1 2.32 1.41L335 163l4.85 3.27c.08.05 0 .18-.08.13l-5-3.17-2.44-1.59a7.59 7.59 0 0 1-2.08-1.64.065.065 0 0 1 0-.13z" class="Q"/><g class="T"><path d="M356.67 184.9l20.11-19.9s8.65 6 11.87 11.35 6.2 12.19 3.49 16.16-14.8 6.83-35.47-7.61z"/><path d="M356.98 186.89l-8.33-5.6 23.65-22.48 7.46 6.63-22.78 21.45z"/></g><g class="Q"><path d="M357.5 186.4l5.06-5.29 5.24-5.11 5.39-4.93 2.76-2.4 2.83-2.33-2.5 2.69-2.56 2.6-5.24 5.09-5.4 4.93-5.58 4.75z"/><path d="M370.61 160.38l1.59-1.67.08-.08.1.08 3.86 3.18 3.77 3.27.3.26-.3.29-1 .92v-.56a53.11 53.11 0 0 1 4.46 4 46.65 46.65 0 0 1 3.94 4.5l-4.32-4.1-4.53-3.83-.34-.25.32-.3 1-.93v.54l-3.7-3.35-3.62-3.45h.19l-1.8 1.48z"/><path d="M383.25 170.26a3.84 3.84 0 0 1 1.6.49 3.28 3.28 0 0 1 1.22 1.15 11.78 11.78 0 0 1-1.47-.71 7.75 7.75 0 0 1-1.35-.93zm-33.49 9.97l-1 1.17v-.23a71.62 71.62 0 0 1 8.38 5.51h-.29l1.28-.91.09-.06.06.05.9.8-1-.59h.16l-1.12 1.1-.13.12-.17-.11a71.68 71.68 0 0 1-8.27-5.68l-.15-.12.13-.11 1.13-.94z"/></g><path d="M317.45 129.89c3.67 1.27 10.71-3.82 13.73-8.22.21-.3.06-3.71.08-7.87 0-2.53.1-5.34.36-7.9.06-.52-16.44 2.27-16.44 2.27a41.05 41.05 0 0 1 .55 10 6.36 6.36 0 0 1-.22 1v.17c-.57 1.98-1.61 9.32 1.94 10.55z" class="V"/><path d="M330.63 105.87c-1.19 4.25-4.94 14.43-13.52 13.75a10.69 10.69 0 0 1-1.64-.25 1.72 1.72 0 0 1 0-.18 5.53 5.53 0 0 0 .22-1 41.1 41.1 0 0 0-.55-10s11.94-2.04 15.49-2.32z" class="Q"/><path d="M333.44 85.35c2 5.65-.46 22.27-4.4 26.1-5.7 5.55-15.32 6.41-20.12-.51-4.64-6.71-1.1-28.31 3.32-31.82 6.5-5.12 18.32-2.12 21.2 6.23z" class="V"/><g class="Q"><path d="M320.28 95.59s.08.07.07.12c-.19 1.11-.23 2.42.73 2.94v.06c-1.23-.35-1.16-2.09-.8-3.12z"/><path d="M321.44 94.57c1.82.11 1.46 3.75-.23 3.64s-1.29-3.74.23-3.64zm-7.63.37s-.09 0-.09.09c-.08 1.12-.36 2.4-1.42 2.68v.06c1.26-.05 1.62-1.77 1.51-2.83z"/><path d="M312.93 93.66c-1.8-.32-2.31 3.29-.65 3.59s2.15-3.32.65-3.59zm10.81-1.31c-.5.14-1 .18-1.48.27a2.45 2.45 0 0 1-1.56 0 .77.77 0 0 1-.35-.87 1.94 1.94 0 0 1 1.58-1.13 2.86 2.86 0 0 1 2 .26.82.82 0 0 1-.19 1.47zm-12.42-.7a13.34 13.34 0 0 0 1.44.43 2.5 2.5 0 0 0 1.55.15.78.78 0 0 0 .44-.84 1.9 1.9 0 0 0-1.45-1.28 2.79 2.79 0 0 0-2 0 .82.82 0 0 0 .02 1.54zm8.49 14.49c-.3.23-.6.57-1 .56a2.9 2.9 0 0 1-1.18-.4h-.06a1.56 1.56 0 0 0 1.37.76 1.21 1.21 0 0 0 1-.91c0-.01-.09-.05-.13-.01z"/><path d="M318.83 104.71c-2.2-.55-4.82-.78-4.83-.91l.47-2.58c-.34.12-2 .69-2 .24a58.15 58.15 0 0 1 2.7-11.46.11.11 0 0 1 .21 0c-.44 3.6-1.51 7.1-2 10.72a6.32 6.32 0 0 1 1.86-.37 24.61 24.61 0 0 1-.46 3 16.38 16.38 0 0 1 4.1 1.06c.12.12.06.33-.05.3zm14.23-3.48c-2.46-.61-3.72-4.18-3.72-8.93 0-3.55-1-8.81-4.62-9.51-4-.78-5.77 2-8.27 1.84-2.29-.14-2.45-2.63-4.18-2.63s-2.86 2-3.85 5.24c1-3.88 2.22-7.53 3.67-8.68 6.51-5.17 18.9-2.44 21.78 5.9 1.13 3.21.38 10.84-.81 16.77z"/></g><path d="M330.4,98.93s3.65-5.4,6.1-4.11-.24,9.08-3.07,10.19a2.89,2.89,0,0,1-3.9-1.49Z" class="V"/><path d="M335.67 97a0 0 0 0 1 0 .07c-2 .84-3 2.71-3.71 4.64a1.6 1.6 0 0 1 2.39-.48c.05 0 0 .12-.06.11a1.78 1.78 0 0 0-1.95.66 8.7 8.7 0 0 0-.91 1.6c-.09.18-.41.09-.35-.12h0c-.08-2.55 1.92-6.14 4.59-6.48z" class="Q"/><path d="M315.27,119.7l4.21,9.81,12-12.71,3.55,3.93s-11.56,20-11.66,19.15l-4.23-8.41-5.74,6,.17-14.84Z" class="T"/><path d="M313.05 130.16l.38-7.36c0-.08.14-.13.17 0 .53 2.35.06 11.71.12 13.95h0c.24-.26 5.33-5.31 5.38-5.23.91 1.33 4 7.45 4.23 8 1.83-3.18 8.85-14.76 11-17.78a.09.09 0 0 1 .15.08c-1.61 3.36-10.89 18.95-11 18.9a94.52 94.52 0 0 1-4.43-8.88c-.86 1.09-6 6.77-6 6.41a77.2 77.2 0 0 1 0-8.09z" class="Q"/><path d="M339.78 88.8c-.39.61-2.92.16-3.28.27l-1.85 1.46s-10.1-8.66-12.59-9.48-13.7-.28-13.7-.28l-1.24-5.37s-4.77-3.4-5-5.86c-.15-1.47 12-5.2 21.52-1.72 12.03 4.42 18.26 17.66 16.14 20.98z" class="R"/><path d="M336.51 89.07l-1.86 1.45s-10.1-8.65-12.59-9.47-13.7-.28-13.7-.28l-1.24-5.37s13.06-1.47 17.17 1.52 9.87 7.51 12.22 12.15z" class="Q"/><path d="M311.06 74.62a28 28 0 0 0 .67 3.46c.29.74 2.15 1.18 2.15 1.18s1.84-.56 2-1.14a22.67 22.67 0 0 0-.27-3.79 3.11 3.11 0 0 1-2.58-1 2.13 2.13 0 0 1-1.97 1.29z" class="T"/><path d="M334.65 90.53S329 87.77 325 87.35c-3.39-.36-12.87-.92-15.51-.79-3.85.18-9.9-4.47-8.43-5.82 2.44-2.26 17.88-.78 21.09.21 4.91 1.51 12.5 9.58 12.5 9.58z" class="R"/><path d="M332.55 88.44a1 1 0 1 0 .93-1.12 1 1 0 0 0-.93 1.12z" class="U"/><defs><path id="A" d="M307.66 125.35c-23.79 19.53-50.76 55.42-45.15 69 3.78 9.13 30.23-17.11 30.31-18.63.06-1.15 14.27-28.33 22.86-44.88s-3.05-9.57-8.02-5.49z"/><path id="B" d="M342.71 125.5c25 18 54.13 52.12 49.38 66-3.2 9.34-31.24-15.18-31.42-16.69-.13-1.15-16-27.39-25.63-43.36s2.44-9.72 7.67-5.95z"/></defs></svg>