<svg xmlns="http://www.w3.org/2000/svg" xmlns:xlink="http://www.w3.org/1999/xlink" viewBox="0 0 500 500" xmlns:v="https://vecta.io/nano"><style><![CDATA[.B{fill:#263238}.C{fill:#ffc727}.D{fill:#ebebeb}.E{fill:#ad6359}.F{fill:#37474f}.G{fill:#c7c7c7}.H{fill:#fff}.I{fill:#455a64}.J{fill:#a6a6a6}]]></style><path d="M437.23 353.47h-35.16v-11.19h35.16zm-132.84-91.12h-35.16v-11.19h35.16zm117.29 105.23l17.7-.29 8.75-.12h8.71l-.46.45v-11.19l.5.5-17.58-.07-8.79-.08-8.79-.11.24-.24zm0 0l-.23-11.19v-.23h.24l8.79-.11 8.79-.08 17.58-.07h.5v.5 11.19.41h-.45-8.9l-8.83-.12zM254.5 418l17.7-.3 8.75-.12h8.71l-.46.46v-11.19l.5.49-17.58-.06-8.79-.09-8.83-.19.24-.23zm0 0l-.24-11.19v-.24h.24l8.79-.11 8.79-.09 17.58-.06h.5v.51l-.05 11.18v.45h-.45-8.87l-8.83-.12zm19.61 14.06l17.7-.3 8.75-.12h8.71l-.46.45v-11.18l.5.49-17.58-.06-8.79-.09-8.79-.11.24-.23zm0 0l-.24-11.19v-.24h.24l8.79-.11 8.79-.09 17.58-.06h.5v.51 11.18.46h-.45-8.87l-8.83-.12zm54.69-14.12h-35.16v-11.19h35.16zM78.32 367.58H43.16v-11.19h35.16zM97.93 60.97H62.77V49.78h35.16zM43.16 75.09l17.7-.3 8.75-.12h8.71l-.46.46V63.94l.5.5-17.58-.07-8.78-.13-8.79-.11.24-.23zm0 0l-.24-11.19v-.24h.24l8.84-.11 8.79-.08 17.58-.07h.5v.5 11.19.45h-.45-8.87l-8.83-.12zM402.07 61l17.7-.3 8.75-.12h8.71l-.46.46V49.85l.5.5-17.58-.07-8.79-.09-8.83-.19.24-.23zm0 0l-.24-11.19v-.24h.24l8.79-.11 8.79-.08 17.58-.07h.5v.5L437.68 61v.45h-.45-8.87l-8.83-.12z" class="D"/><path d="M299.65,291.5V462.21H402.84V291.5Zm93.82,107.71H309V354.77h84.45Zm0-55H309V299.75h84.45Z" fill="#dbdbdb"/><path d="M402.84 291.5h46.66v170.7h-46.66zm-93.82 8.25h20.07v44.44h-20.07zm84.7 152h-84.43v-42.87h84.43zm-83.93-.5h83.43v-41.87h-83.43zm33.38-30.2h16.67v6.09h-16.67zm-34.15-66.27h20.07v44.44h-20.07z" class="D"/><path d="M381.92 358.25v40.97H367.8v-40.97z" class="J"/><path d="M381.92 383.79v8.84H367.8v-8.84zm0-12.35v5.24H367.8v-5.24z" fill="#dbdbdb"/><path d="M374.82 257.17h35.68v34.29h-35.68z" class="D"/><g class="G"><path d="M410.5 257.17h13.56v34.29H410.5z"/><path d="M374.81 274.32h35.69l-27.87.88-7.82-.88zm35.69 13h-35.69l27.87.88 7.82-.88zm-35.69-22.59h22.61l-20.1.72-2.51-.72zm35.69 17.54h-22.61l20.1.72 2.51-.72zm-27.13-21.35h25.5l-4.25.43-21.25-.43zm-5.09 17.07h25.5l-4.25.44-21.25-.44z"/></g><path d="M393.96 268h16.54l2.95 1.15-19.49-1.15zm-23.7 0h16.54l2.95 1.15-19.49-1.15zm21.22 15.41h-16.54l-2.95 1.15 19.49-1.15z" class="D"/><path d="M410.5 279.5h13.28l2.95 1.15-16.23-1.15zm4.63-5.18h10.3l-1.37-.94-8.93.94z" class="G"/><path d="M333.64 309.9h35.68v34.29h-35.68z" class="D"/><g class="G"><path d="M369.32 309.9h13.56v34.29h-13.56z"/><path d="M333.64 327.05h35.68l-27.86.88-7.82-.88zm35.68 13h-35.68l27.87.88 7.81-.88zm-35.68-22.59h22.6l-20.09.72-2.51-.72zM369.32 335h-22.6l20.09.72 2.51-.72zm-27.12-21.35h25.49l-4.25.43-21.24-.43zm-5.09 17.07h25.49l-4.25.43-21.24-.43z"/></g><path d="M352.79 320.73h16.53l2.96 1.15-19.49-1.15zm-23.7 0h16.53l2.96 1.15-19.49-1.15zm21.22 15.41h-16.54l-2.96 1.15 19.5-1.15z" class="D"/><path d="M369.32 332.23h13.28l2.96 1.15-16.24-1.15zm4.64-5.18h10.3l-1.38-.94-8.92.94z" class="G"/><path d="M381.92 355.5h11.55v43.71h-11.55z" class="D"/><path d="M387.7 364.13a2.41 2.41 0 1 1 2.4-2.41 2.41 2.41 0 0 1-2.4 2.41z" class="H"/><path d="M387.7,363.1a1.38,1.38,0,1,1,0-2.75,1.38,1.38,0,0,1,0,2.75Z" class="J"/><path d="M393.48 381.69v10.63h-11.55v-10.63z" class="H"/><path d="M324.09 390.19h43.71v9.09h-43.71z" class="G"/><path d="M359.18 394.73a2.41 2.41 0 1 1 2.4 2.41 2.39 2.39 0 0 1-2.4-2.41z" class="H"/><path d="M360.21,394.73a1.38,1.38,0,0,1,2.75,0,1.38,1.38,0,1,1-2.75,0Z" class="J"/><path d="M341.61 399.27h-10.63v-9.09h10.63z" class="H"/><path d="M43.34 462.21l51.67-.24 51.66-.09 103.33-.17 103.33.17 51.66.09 51.67.24-51.67.25-51.66.08-103.33.17-103.33-.17-51.66-.09-51.67-.24z" class="B"/><use xlink:href="#B" class="C"/><use xlink:href="#B" opacity=".1"/><g class="C"><path d="M168,208.69a12.23,12.23,0,0,1-12.44,12.22h-2.22v16.88a12.22,12.22,0,0,1-24.44,0V220.91H59a10.89,10.89,0,0,1-7.56-2.66,11.9,11.9,0,0,1-2-17.11L131.58,99c.22,0,.22-.22.44-.44a2.81,2.81,0,0,0,.67-.89A2.34,2.34,0,0,0,133.8,97c.22-.23.67-.45.89-.67a2.42,2.42,0,0,1,1.33-.45c.22-.44.45-.66.89-.66.22-.22.67-.22,1.34-.45a1.32,1.32,0,0,0,.88-.22h3.78a2,2,0,0,0,1.11.22c.22.23.89.23,1.33.45.22,0,.67.22.89.22.45.44.89.67,1.11.89.44.22.67.44,1.11.67a.22.22,0,0,1,.22.22c.23,0,.67.22.67.44l.89.89c.22.22.44.67.66.89a5.39,5.39,0,0,1,.89,1.11,1.72,1.72,0,0,0,.45.89,9,9,0,0,1,.44,1.33c0,.22.22.67.22.89a2.31,2.31,0,0,1,.23,1.33c0,.45.22.67.22,1.11v90.41h2.22A12.37,12.37,0,0,1,168,208.69Zm-39.1-67.08-44.2,54.87h44.2Z"/><use xlink:href="#C"/></g><use xlink:href="#C" opacity=".1"/><g class="C"><path d="M192 172.27c.22-20.44 5.33-38.88 15.1-53.09 9.33-14.22 23.77-24.66 41.32-24.66 17.1 0 31.76 10.44 41.09 24.66 9.55 14.21 14.88 32.65 14.88 53.09 0 20.21-5.33 38.87-14.88 53.08-9.33 14-24 24.66-41.09 24.66-17.55 0-32-10.66-41.32-24.66-9.8-14.21-14.91-32.87-15.1-53.08zm87.74 0c0-16-4.45-30-10.67-39.54-6.44-9.33-13.77-13.77-20.65-13.55-6.89-.22-14.44 4.22-21.1 13.55-6.22 9.55-10.67 23.54-10.67 39.54 0 15.77 4.45 30 10.67 39.31 6.66 9.55 14.21 13.77 21.1 13.77s14.21-4.22 20.65-13.77c6.19-9.33 10.64-23.58 10.64-39.31z"/><use xlink:href="#D"/></g><use xlink:href="#D" opacity=".1"/><path d="M444.87 208.69a12.23 12.23 0 0 1-12.44 12.22h-2.22v16.88a12.22 12.22 0 1 1-24.43 0v-16.88h-70a10.91 10.91 0 0 1-7.56-2.66 11.89 11.89 0 0 1-2-17.11L408.44 99c.22 0 .22-.22.44-.44a2.81 2.81 0 0 0 .67-.89 2.34 2.34 0 0 0 1.11-.66c.23-.23.67-.45.89-.67a2.42 2.42 0 0 1 1.33-.45c.22-.44.45-.66.89-.66.22-.22.67-.22 1.33-.45a1.34 1.34 0 0 0 .89-.22h3.78a2 2 0 0 0 1.11.22c.22.23.89.23 1.33.45.23 0 .67.22.89.22.45.44.89.67 1.11.89.44.22.67.44 1.11.67a.22.22 0 0 1 .22.22c.23 0 .67.22.67.44l.89.89c.22.22.44.67.67.89a6.18 6.18 0 0 1 .89 1.11 1.69 1.69 0 0 0 .44.89 10.1 10.1 0 0 1 .45 1.33c0 .22.21.67.21.89A2.31 2.31 0 0 1 430 105c0 .45.22.67.22 1.11v90.41h2.22a12.37 12.37 0 0 1 12.43 12.17zm-39.09-67.08l-44.21 54.87h44.21z" class="C"/><g class="G"><use xlink:href="#E"/><use xlink:href="#E" x="27.39"/><path d="M264.08 72.47h-4v7.08a1.81 1.81 0 0 1-3.61 0V60.31a1.78 1.78 0 0 1 1.79-1.79h5.84a7 7 0 1 1 0 13.95zm-4-3.62h4a3.36 3.36 0 1 0 0-6.71h-4zm14.66 6.82a1.69 1.69 0 0 1 2.38-.23 10.65 10.65 0 0 0 6.22 2.56 7 7 0 0 0 4.08-1.21 2.91 2.91 0 0 0 1.4-2.34 1.84 1.84 0 0 0-.29-1.05 3.23 3.23 0 0 0-1-1 13 13 0 0 0-4.47-1.53H283a17.43 17.43 0 0 1-4.21-1.27 7 7 0 0 1-3-2.54 5 5 0 0 1-.75-2.68 6 6 0 0 1 2.61-4.76 9.62 9.62 0 0 1 5.64-1.73 12.82 12.82 0 0 1 7.11 2.61 1.68 1.68 0 0 1 .45 2.32 1.64 1.64 0 0 1-2.31.49c-1.66-1.11-3.26-2.09-5.25-2.09a6.23 6.23 0 0 0-3.65 1.11 2.59 2.59 0 0 0-1.24 2 1.56 1.56 0 0 0 .23.92 3 3 0 0 0 .88.84 11.16 11.16 0 0 0 4.07 1.44h.07a19 19 0 0 1 4.5 1.37 7.61 7.61 0 0 1 3.26 2.7 5.33 5.33 0 0 1 .78 2.78 6.3 6.3 0 0 1-2.8 5 10.24 10.24 0 0 1-6 1.86 14 14 0 0 1-8.39-3.19 1.73 1.73 0 0 1-.26-2.38zm22.1-2.19V60.31a1.81 1.81 0 0 1 1.8-1.79 1.78 1.78 0 0 1 1.76 1.79v13.17a1.77 1.77 0 0 1-1.76 1.8 1.8 1.8 0 0 1-1.8-1.8zm1.8 7.86a1.79 1.79 0 0 1-1.8-1.79v-.65a1.82 1.82 0 0 1 1.8-1.8 1.78 1.78 0 0 1 1.76 1.8v.65a1.76 1.76 0 0 1-1.76 1.79z"/></g><path d="M214.68,121.9v30h64.84v-30Zm61.53,26.73H218V125.2h58.23Z" class="B"/><path d="M217.98 125.2h58.23v23.43h-58.23z" class="H"/><path d="M221.1 127.63h4.63v18.56h-4.63z" class="I"/><path d="M279.55 128.88h5.77v16.07h-5.77zm-64.87 23.05v7.55l9.45-7.55h-9.45z" class="B"/><path d="M268 463.44c-2.7.84-81.37-.85-84.24-2.77-.37-.24.65-8.66.28-19.8-.47-14.57 15.61-55.46 15.61-55.46l49.23 1-15.27 49.88s29 13.74 32 16.19 5.09 10.13 2.39 10.96z" class="E"/><path d="M268 463.44c-2.69.84-81.37-.86-84.24-2.78-.35-.21-.27-7.58 0-17.64 14.26 2.39 66 10.22 69.94 7.89 2.77-1.63.32-4.17-1.95-5.88 6.5 3.24 12.57 6.36 13.82 7.41 2.94 2.43 5.13 10.18 2.43 11zm-30.25-31.26l-57.62-.41s29.4-90 26.76-96.95-44.7-21.61-57.74-33c-20.65-18-2.28-49.89-2.28-49.89h46.77s-3.2 14.38 3.05 24.51c0 0 52.06 19.41 61.13 37.13 9.69 18.9-20.07 118.61-20.07 118.61z" class="B"/><g class="F"><path d="M187.59 420.15a26.85 26.85 0 0 1 4.57-.19l4.7.05 9.56.14 19.11.54c3.59.16 7.17.46 10.75.74a.11.11 0 0 1 0 .22c-12.77.33-25.5-.11-38.26-.6l-5.21-.21a30.42 30.42 0 0 1-5.22-.46c-.13-.02-.11-.21 0-.23zm68.65-63.53L207 335.17a1.2 1.2 0 0 0-.08-.35c-2.7-7.12-44.7-21.61-57.75-33-20.63-18.05-2.27-49.89-2.27-49.89h46.76s-3.18 14.38 3.06 24.51c0 0 52.06 19.41 61.14 37.14 3.43 6.73 1.85 23.85-1.62 43.04z"/><path d="M195.18,414.89c7.44-23.46,15.25-47,19.53-71.3.44-3.85,1.37-8.26-.07-11.91a13.85,13.85,0,0,0-3.93-4.41c-15-10.79-33.17-16.17-48.68-26.46-3.4-2.33-6.79-4.83-9.26-8.25-6.6-10.77-5.3-24.59-.83-35.9a44.56,44.56,0,0,0-1.85,5.88c-2.39,9.76-2.32,21,3.19,29.66,2.42,3.26,5.79,5.71,9.17,8C176.32,309,192,314.59,206.2,323c3.68,2.38,7.82,4.8,9.64,9a16.88,16.88,0,0,1,.44,5.53c-.77,10.31-3.54,20.34-6.17,30.28-4.39,15.87-9.47,31.53-14.93,47.06Z"/></g><path d="M187.65 315.07l2.11 15.93 26.09 131.17h7.47L202.72 331l-1.67-15.93h-13.4z" class="C"/><path d="M187.65 315.07l2.11 15.93 26.09 131.17h7.47L202.72 331l-1.67-15.93h-13.4z" opacity=".3"/><path d="M117 462.17h7.47L150.56 331l2.12-15.93h-13.4L137.6 331 117 462.17z" class="C"/><path d="M117 462.17h7.47L150.56 331l2.12-15.93h-13.4L137.6 331 117 462.17z" opacity=".3"/><path d="M212.41 424.5h-83.26v-3.74h83.26z" class="C"/><path d="M212.41 424.5h-83.26v-3.74h83.26zm-9.69-94.06h-12.96l-2.11-15.37h13.4l1.67 15.37zm-65.12 0h12.96l2.12-15.37h-13.4l-1.68 15.37z" opacity=".3"/><path d="M209.76 319.88h-79.22v-15.4h79.22z" class="C"/><path d="M209.76 319.88h-79.22v-15.4h79.22z" opacity=".3"/><path d="M389.33 463.1c-2.68.89-81.21.44-84.1-1.42-.37-.23.21-8.26-.05-19-.09-3.52-20.55-55.79-20.55-55.79l49.14.16 20.81 49.45s29.19 13.26 32.16 15.65 5.26 10.08 2.59 10.95z" class="E"/><path d="M389.33 463.1c-2.67.88-81.21.44-84.1-1.43-.35-.21-.39-7.56-.27-17.6 14.27 2.16 66 9.14 69.91 6.75 2.73-1.66.25-4.16-2-5.83 6.54 3.13 12.65 6.15 13.91 7.17 2.91 2.38 5.22 10.07 2.55 10.94zm-33.09-35.96l-59.64.86-52.93-93.19c-8.51-8.51-82.22-19.7-100.58-37.94-19.44-19.32-2-44.93-2-44.93H195s-.58 11.75 2.13 12.59c29.29 9.11 78.31 30.18 91 41.38 22.74 20.09 68.11 121.23 68.11 121.23z" class="B"/><path d="M298.25 415.73a25.4 25.4 0 0 1 4.44-.35l4.58-.12 9.32-.21 18.65-.14c3.5 0 7 .19 10.49.34a.11.11 0 0 1 0 .22c-12.43.79-24.85.82-37.3.79h-5.08a28.16 28.16 0 0 1-5.11-.27c-.11-.05-.1-.23.01-.26zM146.4 254.49c-5.54 10.86-7.67 25.43.47 35.54 9.29 9.79 34.4 17 47.68 21.34 9.62 3 19.31 5.66 29 8.31 6 1.84 18 4.51 23.64 7a22.65 22.65 0 0 1 3.75 4.44c2.92 4.13 5.61 8.39 8.28 12.66l7.85 12.91c10.31 17.31 20.26 34.81 30.06 52.41l-30.72-52c-5.27-8.57-10.44-17.23-16.21-25.44a23 23 0 0 0-3.51-4.19c-5.42-2.35-17.58-5.1-23.4-6.85l-29-8.4c-13.49-4.47-38.38-11.72-47.84-21.85-8.17-10.3-5.8-25 0-35.9z" class="F"/><path d="M204.87 197.41c13.62-.28 39.6 5.08 51.31 10.22 7.95 3.5 10.14 8.9 9.54 12.15-1.63 9-35.66 2.87-36 1.53-.26-1-13.86-4.37-28.57-12.57-7.06-3.93-2.15-11.21 3.72-11.33z" class="I"/><g class="F"><path d="M250 209.25l.89-2.1-2.06.67-1.33-1.62.31 2.05-2.16 1.29 2.29.37.4 2 1.14-1.83 1.6.5zm-27.33-5.63l.47-2-1.44 1.49-2.33-.93 1.11 2-1.34 1.54 2.15-.23.58 1.58.39-1.68 2.21-.56zm41.13 11.8l-2.37-.11-1.33-2.83-1.21 2.74-2.89-.11 2.4 1.56-.83 2.47 2.4-1.44 2.7 1.76-.86-2.86zm-30.28 1.05l.77-2.18-1.89 1.44-2.85-1.34.83 2.88-2.26 1.73 2.84-.33.93 2.42.94-2.63 3.19-.37zm19.43 7l-.14-5-2.72 4.08-3.24-1 2.24 2.5-.28.45h6l.81-.23z"/><path d="M220.48 217.59a145.94 145.94 0 0 1-19.33-8.85c-7.06-3.92-2.14-11.21 3.72-11.33h2.92z"/></g><g class="E"><path d="M265.06 220.29c-2.46 5.94-11.5 8.7-34.86 18.89-3.23 1.41-18.41-15-16.08-18 2.82-3.57 21.33-11.88 22.64-12.26 11.02-3.14 29.96 7.34 28.3 11.37z"/><path d="M216.77 219.18s-9 5.91-12.69 10.46a37.91 37.91 0 0 0-7.38 16.55c-1.2 6.51.41 23.07 5.26 23.43 4.39.34 1.89-16.5 1.89-16.5s-.29 17.59 5.07 17 1.35-20 1.35-20 .11 18.09 5.55 16.62c4.1-1.1 1.46-18.86 1.46-18.86s.2 15.54 4.47 14.58c4.73-1 3.31-17.6 3.31-17.6 10.46-4.25 13.69-10.55 15.46-15.31.48-1.09-23.75-10.37-23.75-10.37z"/></g><path d="M203.56 247l-.16 6.22.49 6.18a34.85 34.85 0 0 0 1.81 7.89c-1.27-4.64-1.65-12-1.73-14.11s-.25-4.13-.33-6.19c0 .01-.08.01-.08.01zm7.44-.38l-.05 7.91c.09 2.65.41 5.12.68 7.74 0 .2.12.12.11-.08l-.26-7.7-.42-7.88c.02-.04-.06-.03-.06.01zm6.36-1.5a59.19 59.19 0 0 0 .85 12.1c0 .2.15.08.13-.12-.36-4-.67-7.17-.84-12a.071.071 0 0 0-.14.02z" class="B"/><path d="M216.73,217.06l26.67,19.08s20.24-9.62,22.2-15.87c1.28-4.12-18-15.45-29.9-11Z" class="I"/><path d="M255.63 224.28l-2.65-.83-.14-5-2.72 4.08-3.24-1 2.24 2.5-1.68 2.55 3.15-.89 2.53 2.81-.12-3.5zm-22.08-7.81l.77-2.18-1.89 1.44-2.85-1.34.83 2.88-2.29 1.73 2.84-.33.93 2.42.94-2.63 3.19-.37zm29.33-.5l-.79-.63h0-.62l-.3-.62h0l-1.56-1-.68 1.55-2.89-.11 2.4 1.56-.83 2.47 2.4-1.44 2.7 1.76-.86-2.86zm-12.57-6.38l-3.36-.82-1.27.77 2.29.37.4 2 1.14-1.83 1.6.5z" class="F"/><g class="B"><path d="M251.23 209.9a21.8 21.8 0 0 0-15.55-.64c-.06 0 0 .12 0 .11 5.34-1.34 13.2-.14 15.5.63.08 0 .11-.08.05-.1zm-2.86 20.96c-2.82-2.26-5.76-4.36-8.71-6.46l-8.88-6.22-5.12-3.38s-.1 0-.06.08c2.82 2.25 5.75 4.37 8.67 6.48l8.87 6.26q2.52 1.74 5.11 3.38c.09.05.2-.08.12-.14z"/><path d="M216.62 216.76a30.84 30.84 0 0 1 3.81-1.8l3.9-1.6c2.6-1 8-3.51 13-4.6.06 0-.17.31-.22.32-2.4.4-18.65 7.55-20 8a1 1 0 0 1 .21.25.08.08 0 0 1-.09.13c-.2-.08-.35-.2-.55-.29a.2.2 0 0 1-.06-.41z"/><path d="M227.15 212.91a4.26 4.26 0 0 0 3.2 1.07c.35-.06.7-.2 1.05-.26a2.57 2.57 0 0 1 1.6.28 10.66 10.66 0 0 0 1.74.64c1.84.45 4 .29 5.23-1.29a6.11 6.11 0 0 0 7.65-.12 5.38 5.38 0 0 0 .77-.81c.31-.41.53-1 1-1.25a5 5 0 0 1 1.64-.27 6.15 6.15 0 0 0 1.27-.29A2.36 2.36 0 0 0 254 208a3.89 3.89 0 0 0 3.55-2.38 6.72 6.72 0 0 0 .2-5.6 4.63 4.63 0 0 0 2-6.18 4.11 4.11 0 0 0 .44-6.15 6 6 0 0 0 0-5.69 2.67 2.67 0 0 1-.31-1.13 4.58 4.58 0 0 0 .56-3.88 3.47 3.47 0 0 0-3.31-2.34 6.9 6.9 0 0 0-1.3-3 4.69 4.69 0 0 0-4.19-2 6.59 6.59 0 0 0-8.82-4.39 4.78 4.78 0 0 0-3.79-3.64c-2.21-.49-4.43.41-6.34 1.49a3.33 3.33 0 0 0-3.79-2 3.67 3.67 0 0 0-2.59 2.38 5.12 5.12 0 0 0-3.85.82 3.07 3.07 0 0 0-1.13 3.11 4.56 4.56 0 0 0-4.26 6.38 5.42 5.42 0 0 0-6 7.94 4.86 4.86 0 0 0-3.88 3.63 7.13 7.13 0 0 0 1.73 6.18 4.83 4.83 0 0 0-1.56 5.14 6.23 6.23 0 0 0 3.35 3.71 4.59 4.59 0 0 1-4.13-3 5.11 5.11 0 0 1 2.28-5.89 5 5 0 0 0-2.65 6.07 5.21 5.21 0 0 0 5.43 3.33 5.67 5.67 0 0 0 5.53 8.66c.65 4.71 6.57 7.43 9.98 3.34zm32.68-32.76a.81.81 0 0 0 0-.16 5.14 5.14 0 0 0 0-1.24 4.8 4.8 0 0 0-1.12-2.54 4.75 4.75 0 0 0-1-.88 6.89 6.89 0 0 0-.66-.35v-.19a3.64 3.64 0 0 1 3 2.94 4.49 4.49 0 0 1-.22 2.42zm-33.14-16.7h0a3.08 3.08 0 0 1 2.2-2.13c1.71-.4 2.77.56 3.55 1.86h-.1a3.53 3.53 0 0 0-3.9-1 4 4 0 0 0-1.75 1.27zm-8.52 47.89a6.36 6.36 0 0 0 8.75 1.4h0c-3.26 3.2-6.76 1.68-8.75-1.4z"/></g><path d="M205.64 197.36c-1 .78-5.47 9.4-2.81 14.24.87 1.58 9.68-2.77 9.68-2.77l.72-.17 10.14-2.41 1.64-14.1.15-2-6.11 1.93-.49.16-.55.16-1.54.49-1.18.4-1.21.43a66.7 66.7 0 0 0-8.44 3.64z" class="E"/><path d="M219.05 192.08a20.9 20.9 0 0 0-5.82 16.58l10.14-2.41 1.64-14.1.15-2-6.11 1.93z" class="B"/><path d="M243.09 214.38c-15.87 9.07-23.11.58-25.06-2.85-1.77-3.11-7.42-13.92 7.43-24.58s24.09-6.15 28.53.75 5.01 17.61-10.9 26.68z" class="E"/><g class="B"><path d="M223.89 188.84a7.45 7.45 0 0 0 7.29 1 19.5 19.5 0 0 0 9.25 4.23l-4.62.65c7.05 9.29 16.48 8.54 16.48 8.54A19.58 19.58 0 0 1 248 211s6.33-3.07 8.92-8.41a11.34 11.34 0 0 0-.5-11.45 16.21 16.21 0 0 0-11.44-12c-10.56-3-21.09 9.7-21.09 9.7z"/><path d="M241.41 201.68a21.36 21.36 0 0 1-4.56-4.29 17.94 17.94 0 0 0 8.32 5.25 17 17 0 0 0 4.2.67 11.88 11.88 0 0 0 4.59-.59c.1 0 .17.12.06.16a13.75 13.75 0 0 1-4.45 1.21 12.64 12.64 0 0 1-4.53-.58 14.29 14.29 0 0 1-3.65-1.81"/></g><path d="M225.68,190.17s3.51-6,1.13-7.77-8.63,4.43-8.38,7.67a3.09,3.09,0,0,0,3.25,3.06Z" class="E"/><g class="B"><path d="M225.06 184.21h-.08c.11 2.3-1.21 4.15-2.74 5.72a1.7 1.7 0 0 0-.65-2.51c-.06 0-.12.05-.08.1a1.91 1.91 0 0 1 .28 2.18 10 10 0 0 1-1.12 1.62c-.13.17.11.44.28.28h0c2.52-1.11 5.05-4.6 4.11-7.39zm18.79 26.57c0-.43 0-.83-.08-1.26a2.1 2.1 0 0 0-.33-1.28.65.65 0 0 0-.79-.12 1.64 1.64 0 0 0-.61 1.53 2.36 2.36 0 0 0 .62 1.6.7.7 0 0 0 1.19-.47zm-7.2-11.78a10.68 10.68 0 0 1 1 .72c.4.28.75.46.93.94a.64.64 0 0 1-.3.73 1.6 1.6 0 0 1-1.62-.26 2.36 2.36 0 0 1-1.07-1.35.7.7 0 0 1 1.06-.78zm-12.37 7.21a1.9 1.9 0 0 0-.3 1.24 3.18 3.18 0 0 0 .78 1.14 0 0 0 0 1 0 .08 1.71 1.71 0 0 1-1.21-1.24 1.35 1.35 0 0 1 .67-1.32c.02-.04.08.04.06.1zm3.44 1.26a11.41 11.41 0 0 1 2.34 4.1c.09.11.34.34.47.3h0l2.24-1.37c0 .38.21 2.31.62 2a63.11 63.11 0 0 0 10.18-7.69c.1-.09 0-.26-.14-.18-3.38 2-6.38 4.63-9.74 6.72a7.62 7.62 0 0 0-.46-2c-.1-.1-2.3 1.57-2.69 1.74a7 7 0 0 0-2.7-3.89c-.5-.36-.66-.33-.12.27z"/><path d="M227.31 210.27c.42.46 2.9.38 2.65-.59a4.77 4.77 0 0 0-3.43-3c-1.47-.17.55 2.13.55 2.64s-.08.62.23.95z"/></g><path d="M227.08 209.31v.25a1.71 1.71 0 0 0 .8-2.4 3.22 3.22 0 0 0-1.34-.5c-1.48-.16.54 2.14.54 2.65z" fill="#ff9abb"/><g class="B"><path d="M235 203.11s-.1-.05-.15 0c-1 .76-2.3 1.44-3.29.75h-.05c.95 1.06 2.65.14 3.49-.75zm-1-2.37a3.35 3.35 0 0 0-.57.42 2.13 2.13 0 0 1-.56 0 1 1 0 0 1-.85-.58c-.28-.72.27-1.37.93-1.77h.07c-.21.47-.4 1-.13 1.34s.73.37 1.09.53a0 0 0 0 1 0 0z"/><path d="M233.9 203.92a2 2 0 0 1-1 .17 1.38 1.38 0 0 1-.94-.58 1.26 1.26 0 0 1-.13-1.11 2.31 2.31 0 0 1 .57-.83 5.71 5.71 0 0 1 .48-.38 2.81 2.81 0 0 1 1.16-.45 3.87 3.87 0 0 0-.72.54 6.37 6.37 0 0 0-.57.6c-.34.45-.54 1-.28 1.29a1.09 1.09 0 0 0 1.28.3 9.23 9.23 0 0 0 1.61-.68 4 4 0 0 1-1.46 1.13zm5.1 5.6s0 .11-.05.14c-1.09.62-2.24 1.53-2 2.72 0 0-.05.06-.07 0-.55-1.26.98-2.45 2.12-2.86zm1.77 1.84a3.29 3.29 0 0 1-.6.36 1.8 1.8 0 0 0-.25.5 1 1 0 0 0 .19 1c.55.54 1.36.29 2-.15.05 0 .05-.08 0-.08-.51 0-1.06 0-1.28-.42s-.05-.81-.05-1.2z"/><path d="M237.81 210.2a2 2 0 0 0-.56.85 1.42 1.42 0 0 0 .16 1.1 1.24 1.24 0 0 0 1 .56 2.16 2.16 0 0 0 1-.19 3.39 3.39 0 0 0 .53-.29 2.77 2.77 0 0 0 .89-.88 4.53 4.53 0 0 1-.8.45 5.89 5.89 0 0 1-.77.27c-.55.15-1.09.12-1.3-.25a1.08 1.08 0 0 1 .24-1.29 9.19 9.19 0 0 1 1.27-1.21 4 4 0 0 0-1.66.88z"/></g><path d="M233.6 219.74a3 3 0 1 1 4.85 3.61 3.31 3.31 0 0 1 .6 1.8 3.42 3.42 0 0 1-6.46 1.71h-.13a3 3 0 0 1-2.08-5.63 2.84 2.84 0 0 1 1.22-.38" class="H"/><path d="M233.6 219.74c2.5-3.85 7.89.24 5 3.76v-.28a3.64 3.64 0 1 1-6.2 3.78l.24.12c-4.41.86-5.56-5.7-1-6.2-4.16.64-3 6.77 1.11 5.73a3.2 3.2 0 1 0 5.46-3.28c2.9-3.19-2.09-7.05-4.57-3.59zm-3.6-.22a30.37 30.37 0 0 1-1.7-5.36 32.42 32.42 0 0 1 1.7 5.36zm2.6-1.63a25.92 25.92 0 0 1-2.65-4.44 26.18 26.18 0 0 1 2.65 4.44zm-.83 1.87a31.71 31.71 0 0 1-2.38-5.16 32.57 32.57 0 0 1 2.38 5.16z" class="B"/><path d="M200.43,265.06l4.14-21.34s8.14-2.55,10.24-9.64c1.63-5.5,1.16-23.13-.32-28.09-2.53-8.43-6.09-10.42-11.22-10.32-22.8.48-53.81,34-70.35,59.82Z" class="I"/><path d="M166 250.45l-2.67-.84-.14-5-2.71 4.08-3.23-1 2.24 2.5-1.69 2.54 3.16-.89 2.53 2.81-.11-3.5zm35.18 10.29l-3.24-1 2.24 2.5-1.68 2.55 2.05-.59.69-3.55zm-17.06-48.65l-2.65-.84-.14-4.95-2.72 4.08-3.24-1 2.24 2.5-1.61 2.53 3.15-.9 2.53 2.82-.1-3.5zm31.29 6.91l-2.73.59-2.59-4.22-.32 4.88-3.31.74 3.19 1-.2 3 2.3-2.34 3.59 1.18-1.83-3zm-60.6 22l.77-2.18-1.89 1.44-2.84-1.34.82 2.89-2.29 1.75 2.84-.32.93 2.42.94-2.64 3.2-.37zm48.44-36l.77-2.18-1.89 1.44-2.84-1.26.82 2.88-2.29 1.75 2.83-.33.94 2.43.94-2.63 3.19-.37zm-18.15 35l-2.38-.09-1.33-2.91-1.21 2.75-2.89-.12 2.4 1.56-.82 2.47 2.39-1.43L184 244l-.86-2.85zm23.4.43l.57 1 .73-.52zm-38.38-11.5l.89-2.1-2.07.67-1.32-1.62.31 2.05-2.16 1.28 2.29.37.41 2 1.13-1.83 1.61.5z" class="F"/><g class="E"><path d="M214.13 208.83c2.37 13.48 3 29.43 4.91 47.85 2.15 20.54 2.64 41 3 45.46.49 5.69-28.91-4.42-28.66-8.33.16-2.51.88-21.69 1.58-39.19s4.93-35.57 7.35-47.26c2.81-13.49 10.07-8.46 11.82 1.47z"/><path d="M221.59,293s.29,2,.89,11.88c.41,6.82-2.94,23.71-20.38,31.78-6.68,3.1-11.77-.24-5.4-4.69,4.49-3.13,7.87-4.91,9.05-6.34,0,0-8.36-.53-10.92-4.66a90,90,0,0,1-5.91-11.25,19.39,19.39,0,0,1,2-1.3s-1.61-9.09,2.47-14.61Z"/><path d="M221.84 311.46c-2.19 2.83-6.93 8.77-12.5 12.27-6.18 3.9-19.14 9.73-22 5.14-2.07-3.37 2.68-6 2.68-6s-5.87 1.28-7.07-2.17c-1.1-3.15 2.7-5 2.7-5s-3.7.17-4.17-3.06c-.58-3.89 7.26-3.6 10.08-8.05.66-1.01 30.28 6.87 30.28 6.87z"/></g><path d="M206.31 316.52a29.09 29.09 0 0 1-16.13 6.39c-.15 0-.23-.1-.1-.14a71.37 71.37 0 0 0 16.2-6.31s.06.03.03.06zm-4.11-6.13c-2.36 1.79-9.78 5.42-16.48 5.42-.15 0-.23-.11-.09-.14a77.12 77.12 0 0 0 16.54-5.34s.06.04.03.06z" class="B"/><path d="M223.81 292.92l-33.25-1.33 2.17-42.44c.8-10.8 7.1-35.91 9.87-44.89s9.06-6.86 11.64 3 4.71 43.35 5 44.38 4.57 41.28 4.57 41.28z" class="I"/><path d="M206.73 262.46l-2.65-.84-.15-5-2.71 4.08-3.24-1 2.24 2.5-1.68 2.55 3.15-.89 2.53 2.8-.1-3.49zm8.68-43.46l-2.73.59-2.59-4.22-.32 4.88-3.31.74 3.19 1-.2 3 2.3-2.34 3.59 1.18-1.83-3zm-12.16-14l.77-2.18-1.29 1c0 .13-.09.27-.13.41l-1.34 4.6.33.85.94-2.63 3.19-.37zm12.47 66.57l-2.37-.09-1.35-2.8-1.21 2.75-2.88-.11 2.4 1.55-.83 2.47 2.4-1.43 2.7 1.76-.86-2.86zm-3.92-29.75l.47-2-1.44 1.5-2.33-.93 1.11 2-1.34 1.61 2.15-.23.58 1.58.39-1.68 2.2-.56zM198.53 288l.9-2.09-2.08.67-1.35-1.64.3 2.05-2.15 1.28 2.29.38.4 2 1.14-1.83 1.6.5z" class="F"/><g class="B"><path d="M207.08 285.88l6.62.12h3.17l3.44-.06a.07.07 0 0 0 0-.13c-1.13-.18-2.3-.18-3.43-.28l-3.17-.19-6.6-.3c-4.41-.13-8.82-.13-13.23-.08a.09.09 0 0 0 0 .17c4.4.33 8.79.61 13.2.75zm-15.46-17.1c.32-9 .21-18 1.49-26.88a249.06 249.06 0 0 1 6.32-26.16l-5.34 26.32c-1.37 8.84-1.35 17.84-2.47 26.72z"/><path d="M196.68,226.28a21.25,21.25,0,0,1,.22-6.61,21.56,21.56,0,0,1-.22,6.61Z"/></g><path d="M131.49 368.45c-.62-.56 2.24-9.23 4.58-10.73s16.78-1.22 18.38 1.6-.91 11.57-1.95 11.71-3.8-.2-4.31-.82 1.21-6.12.44-7.14c-1-1.33-9.21-1.44-10-.61s-1.81 5.72-2 6-4.15.88-5.14-.01z" class="C"/><path d="M171.46 448c-3.22 6-14.09 13.64-20.49 14.64s-48.68 5.83-55.3-3.17c-6-8.18 7-65.74 19.42-83.84a19.29 19.29 0 0 1 3.33-3.89l.26-.21c11.6-9.18 34.24-3.74 37.08-2.89 4.42 1.34 10.6 5.32 13.63 13.86s5.3 59.55 2.07 65.5z" class="I"/><path d="M147.54 443.82c-.74 4.24-7.62 14.12-15.56 16.48s-36.31-.79-42.57-6.49a6.34 6.34 0 0 1-1.41-3.72c-1.87-12.8 6.84-51.35 16.1-62.92a10.65 10.65 0 0 1 3-2.75 25.73 25.73 0 0 1 4.19-1.77 48.11 48.11 0 0 1 24.8-.63c4.93 1.27 8.94 3.45 10.73 6.56 4.58 7.88 1.46 51.02.72 55.24z" class="C"/><path d="M147.54 443.82c-.74 4.24-7.62 14.12-15.56 16.48s-36.31-.79-42.57-6.49a6.34 6.34 0 0 1-1.41-3.72 38.69 38.69 0 0 0 16.5 5.47 70.53 70.53 0 0 0 12.75.21c4.21-.29 8.53-1.11 12-3.68 6.61-4.86 9.06-14.3 10.1-22.22 1.13-8.64.74-17.55.16-26.22A103.66 103.66 0 0 0 136.1 382c4.93 1.27 8.94 3.45 10.73 6.56 4.57 7.9 1.45 51.04.71 55.26z" opacity=".1"/><path d="M142.55 426.69l-1.93-.14c.66-8.93 1.42-33.14-2.92-37.92S116.62 383 109.6 385a33 33 0 0 0-5.52 2.15 10.43 10.43 0 0 1 3-2.76 24.65 24.65 0 0 1 4.19-1.77c8.51-1.53 23.44-.16 27.83 4.68 5.82 6.4 3.54 38.05 3.45 39.39zm22.95-7.24h-1.94c-.63-36-2.31-37.34-9.37-43l-.24-.2c-6.87-5.53-23.35-5.12-29.81-4.08a23.39 23.39 0 0 0-9 3.48 19.29 19.29 0 0 1 3.33-3.89 26.3 26.3 0 0 1 5.4-1.5c4.54-.73 23.16-2.11 31.34 4.49l.24.19c7.4 6 9.4 7.62 10.05 44.51z" class="B"/><path d="M176.65 447c-1.14 4.67-12.25 13.84-17.69 15.76-1.09.4-10.25 2.11-10.61-1.58 0-.24 0-.49-.06-.74-.62-9.64 3.7-30.47 4.71-33.26 1.2-3.3 11.62-9.41 17.8-10.6a6.71 6.71 0 0 1 3.32 0c4.49 1.65 3.24 27.5 2.53 30.42z" class="F"/><defs ><path id="B" d="M172.41 208.15a10.83 10.83 0 0 0-.83-.83h0a8.33 8.33 0 0 0-.84-.84 11 11 0 0 0-.83-.84 9.29 9.29 0 0 0-.83-.83 8.33 8.33 0 0 0-.84-.84h0a11 11 0 0 0-.83-.84h0a11 11 0 0 0-.84-.83h0a8.33 8.33 0 0 0-.84-.84h0a10.83 10.83 0 0 0-.83-.83 13 13 0 0 0-3-2.38v-83.6c0-.44-.22-.67-.22-1.11a2.4 2.4 0 0 0-.22-1.33c0-.23-.22-.67-.22-.89a8 8 0 0 0-.45-1.34 1.66 1.66 0 0 1-.44-.89 5.58 5.58 0 0 0-.89-1.1c-.23-.23-.44-.67-.67-.9l-.89-.89c0-.13-.17-.27-.36-.36l-.44-.44h0c0-.14-.17-.27-.37-.36s-.25-.26-.44-.44h0c0-.13-.17-.27-.36-.36l-.44-.44h0c0-.13-.17-.27-.36-.36l-.44-.44h0c0-.14-.17-.27-.36-.36l-.44-.44h0c0-.13-.17-.27-.36-.36l-.44-.44h-.05c0-.13-.17-.27-.36-.36l-.44-.44h0c0-.14-.17-.27-.36-.36l-.44-.44-.05-.05c0-.13-.17-.27-.36-.36l-.44-.44h-.05c0-.14-.17-.28-.36-.37l-.48-.48c0-.22-.44-.44-.67-.44a.21.21 0 0 0-.21-.23c-.45-.21-.68-.44-1.12-.66-.23-.23-.67-.44-1.11-.89-.22 0-.66-.22-.89-.22-.44-.22-1.11-.22-1.33-.45a2.15 2.15 0 0 1-1.12-.21h-3.77a1.39 1.39 0 0 1-.89.21c-.66.23-1.1.23-1.33.45-.44 0-.67.22-.89.67a2.32 2.32 0 0 0-1.33.44c-.22.22-.67.45-.89.66a2.26 2.26 0 0 1-1.11.67 2.78 2.78 0 0 1-.67.89c-.22.23-.22.44-.44.44L49.4 201.14a11.89 11.89 0 0 0 1.1 16.35 8.43 8.43 0 0 0 .85.84 6.83 6.83 0 0 0 .85.85 8.43 8.43 0 0 0 .8.82 8.43 8.43 0 0 0 .85.84 6.83 6.83 0 0 0 .85.85 8.43 8.43 0 0 0 .84.85 7.5 7.5 0 0 0 .85.84 6.83 6.83 0 0 0 .85.85 8.43 8.43 0 0 0 .84.85 12.71 12.71 0 0 0 1.74 1.6 10.88 10.88 0 0 0 7.55 2.66h61.51v8.42a12.13 12.13 0 0 0 4 9.12h0l.81.82h0a10.7 10.7 0 0 0 .83.82h0q.39.42.81.81h0a10.83 10.83 0 0 0 .83.83h0q.39.42.81.81h0a10.72 10.72 0 0 0 .82.83h0l.81.82c.26.29.54.56.82.82h0q.39.42.81.81a12.28 12.28 0 0 0 21.28-8.29v-16.59H164a12.16 12.16 0 0 0 8.38-21.22zm-43.49-47.57v35.9H100z"/><path id="C" d="M298 127.64a62.6 62.6 0 0 0-8.7-10.58 3.32 3.32 0 0 0-.38-.37 1.14 1.14 0 0 0-.11-.11 3.31 3.31 0 0 0-.32-.33l-.88-.88s-.05-.06-.08-.07l-.3-.3a1.14 1.14 0 0 0-.11-.11l-.32-.33c-.28-.31-.59-.59-.88-.88a.25.25 0 0 0-.08-.07l-.3-.3a1.36 1.36 0 0 0-.12-.12l-.31-.32-.88-.89-.08-.06-.31-.31a1.14 1.14 0 0 0-.11-.11 3.31 3.31 0 0 0-.32-.33l-.88-.88-.08-.07a2.83 2.83 0 0 0-.3-.3l-.11-.11c-8.92-9.2-20.56-15.28-33.6-15.28-17.55 0-32 10.43-41.32 24.64-9.77 14.22-14.88 32.67-15.1 53.09.22 20.22 5.33 38.87 15.1 53.09a65.9 65.9 0 0 0 8.6 10.43l.44.43a.17.17 0 0 1 .06.06l.79.79.4.41.44.43a.12.12 0 0 1 .06.06l.79.79c.13.15.27.28.41.42l.44.43.05.05.79.79c.14.15.27.29.41.42l.44.43a.1.1 0 0 1 .05.06c.26.27.54.53.79.79l.41.41.44.43.06.06c.26.27.53.53.79.79 8.78 8.77 20.1 14.65 33.12 14.65 17.1 0 31.76-10.67 41.1-24.66 9.54-14.22 14.88-32.88 14.88-53.09-.05-20.43-5.39-38.87-14.88-53.09zm-29 83.94c-6.44 9.55-13.77 13.77-20.65 13.77a20.37 20.37 0 0 1-11.72-4c-.31-.4-.62-.83-.92-1.27-6.22-9.33-10.67-23.54-10.67-39.32 0-16 4.45-30 10.67-39.54 6.67-9.33 14.22-13.77 21.1-13.55a18.6 18.6 0 0 1 11.19 3.61c.35.48.7.95 1 1.45 6.22 9.55 10.67 23.54 10.67 39.53.04 15.74-4.41 29.99-10.67 39.32z"/><path id="D" d="M449.28 208.15l-.84-.83h0a11.09 11.09 0 0 0-.84-.84l-.83-.84-.84-.83a11.09 11.09 0 0 0-.84-.84h0l-.83-.84h0l-.84-.83h0l-.83-.84h0l-.83-.83a12.3 12.3 0 0 0-3-2.38v-83.6c0-.44-.22-.67-.22-1.11a2.4 2.4 0 0 0-.22-1.33c0-.23-.22-.67-.22-.89a8 8 0 0 0-.45-1.34 1.73 1.73 0 0 1-.44-.89 5.23 5.23 0 0 0-.89-1.1c-.23-.23-.44-.67-.67-.9l-.89-.89c0-.13-.17-.27-.36-.36l-.44-.44h0c0-.14-.17-.27-.36-.36l-.45-.44h0c0-.13-.17-.27-.36-.36l-.44-.44h-.05c0-.13-.17-.27-.36-.36l-.44-.44h0c0-.14-.17-.27-.36-.36l-.44-.44h-.05c0-.13-.17-.27-.36-.36l-.44-.44h-.05c0-.13-.17-.27-.36-.36l-.44-.44h0c0-.14-.17-.27-.36-.36l-.44-.44-.05-.05c0-.13-.17-.27-.36-.36l-.44-.44h-.05c0-.14-.16-.28-.36-.37l-.48-.48c0-.22-.44-.44-.67-.44a.22.22 0 0 0-.22-.23c-.44-.21-.67-.44-1.11-.66-.23-.23-.67-.44-1.11-.89-.22 0-.66-.22-.89-.22-.44-.22-1.1-.22-1.33-.45a2.15 2.15 0 0 1-1.12-.21H416a1.39 1.39 0 0 1-.89.21c-.66.23-1.1.23-1.33.45-.44 0-.66.22-.89.67a2.34 2.34 0 0 0-1.33.44c-.22.22-.67.45-.88.66a2.36 2.36 0 0 1-1.12.67 3.11 3.11 0 0 1-.67.89c-.22.23-.22.44-.44.44l-82.19 101.71a11.89 11.89 0 0 0 1.1 16.35 8.43 8.43 0 0 0 .85.84 6.83 6.83 0 0 0 .85.85 101 101 0 0 0 1.69 1.69 6.83 6.83 0 0 0 .85.85 8.43 8.43 0 0 0 .84.85 7.5 7.5 0 0 0 .85.84 6.83 6.83 0 0 0 .85.85 8.43 8.43 0 0 0 .84.85 12.71 12.71 0 0 0 1.74 1.6 10.88 10.88 0 0 0 7.55 2.66h61.51v8.42a12.14 12.14 0 0 0 4 9.12 10.72 10.72 0 0 0 .82.83h0l.82.81c.26.29.54.56.82.82h0l.81.82h0a10.7 10.7 0 0 0 .83.82h0q.39.42.81.81h0c.26.29.55.57.83.83h0q.39.42.81.81h0a10.72 10.72 0 0 0 .82.83h0a12.27 12.27 0 0 0 21.26-8.3v-16.62h2.22a12.16 12.16 0 0 0 8.39-21.22zm-43.5-47.57v35.9h-28.93z"/><path id="E" d="M219.34 61.35a12 12 0 0 1 0 16.5 10.68 10.68 0 0 1-7.79 3.49 11 11 0 0 1-8-3.49 12.15 12.15 0 0 1 0-16.5 10.9 10.9 0 0 1 8-3.49 10.57 10.57 0 0 1 7.79 3.49zm-.43 8.25a8.46 8.46 0 0 0-2.21-5.7 7 7 0 0 0-5.15-2.32 7.11 7.11 0 0 0-5.29 2.32 8.28 8.28 0 0 0-2.21 5.7 8.17 8.17 0 0 0 2.21 5.68 7 7 0 0 0 10.44 0 8.36 8.36 0 0 0 2.21-5.68z"/></defs></svg>