<svg xmlns="http://www.w3.org/2000/svg" xmlns:xlink="http://www.w3.org/1999/xlink" viewBox="0 0 500 500" xmlns:v="https://vecta.io/nano"><style><![CDATA[.B{fill:#263238}.C{fill:#ffc727}.D{fill:#ebebeb}.E{fill:#fff}.F{fill:#f7a9a0}.G{opacity:.1}.H{fill:#c7c7c7}.I{fill:#dbdbdb}.J{fill:#a6a6a6}.K{fill:#37474f}]]></style><g class="D"><path d="M85.57 307.17l-13.12.28-6.66.11-6.7.06h-.44v-.45L58.59 296v-.5h.5l13.24.06 13.24.17h.28v.27l-.13 5.66zm0 0l-.14-5.65-.13-5.54.27.27-13.24.17-13.24.06.5-.5-.05 11.19-.45-.44h6.55l6.58.11zm-41.25 2.92H70.8v11.19H44.32zm110.01-111.52l-13.12.28-6.66.11h-6.7-.44v-.45l-.06-11.19v-.5h.5l13.24.06 13.24.17h.28v.27l-.14 5.65zm0 0l-.14-5.66-.13-5.53.27.27-13.24.16-13.24.07.5-.5v11.19l-.45-.45 6.55.06 6.58.11zm-41.25 2.92h26.48v11.19h-26.48zm242.36-65.3l-13.13.28-6.66.11-6.69.06h-.45v-.45l-.05-11.19v-.5h.5l13.24.06 13.24.17h.27v.27l-.13 5.65zm0 0l-.14-5.65-.13-5.54.27.27-13.24.17-13.2.06.5-.5-.06 11.19-.44-.45 6.54.06 6.58.11zm-230.59 62.38l-13.13.28-6.66.11h-6.69-.45v-.45-11.19-.5h.51l13.24.06 13.24.17h.27v.27l-.13 5.65zm0 0l-.14-5.66-.14-5.53.28.27-13.24.16-13.24.07.5-.5-.06 11.19-.44-.45 6.54.06 6.58.11zm311.47 69.51l-13.12.28-6.66.11h-6.7-.44v-.45l-.06-11.19v-.5h.5l13.24.06 13.24.16h.28v.27l-.13 5.65zm0 0l-.14-5.66-.13-5.53.27.27-13.24.16-13.24.07.5-.5v11.19l-.45-.45 6.55.06 6.58.11zm-14.24 3.79h26.48v11.19h-26.48z"/><path d="M440.91 66.89l-13.13.28-6.66.11h-6.69-.43v-.45l-.05-11.19v-.5h.5l13.24.06 13.24.17h.27v.27l-.13 5.65zm0 0l-.14-5.66-.13-5.53.27.27-13.24.17-13.24.06.5-.5-.06 11.19-.44-.45 6.54.06 6.58.11zm-11.71 2.92h26.48V81H429.2zM44.32 55.7H70.8v11.19H44.32zm95.61 302.47H42.76l-3.92-77.31h105.01l-3.92 77.31z"/></g><path d="M50.36 289.41h82l-1.48 26.84h-78.8zm81 .95h-80L53 315.3h77zM52 322.9h77l-1.21 24.22H53.54zm76 1H53l1.4 22.32h72.43zm-44.95-24.64H98l-.84 6.48H83.88zm13.82.95H84.13l.59 4.57h11.56zm-13.82 31.56H98l-.84 6.48H83.88zm13.82 1H84.13l.59 4.58h11.56z" class="H"/><path d="M123.04 358.17l1.18 8.42 2.38 16.92h4.65v-25.34h-8.21z" class="D"/><path d="M123.04 358.17l1.18 8.42h7.03v-8.42h-8.21z" class="H"/><path d="M59.65 358.17l-1.18 8.42-2.38 16.92h-4.65v-25.34h8.21z" class="D"/><path d="M59.65 358.17l-1.18 8.42h-7.03v-8.42h8.21z" class="H"/><path d="M153.01 130.56l-36.44 27.78-35.65-46.78 27.05-20.62 9.39-7.16 6.79 8.92 28.86 37.86z" class="D"/><g class="I"><use xlink:href="#B"/><use xlink:href="#B" x="2.316" y="3.031"/><use xlink:href="#B" x="4.622" y="6.062"/><use xlink:href="#B" x="6.932" y="9.085"/><path d="M129.398 107.209l-29.864 22.771-.921-1.208 29.864-22.771z"/><use xlink:href="#B" x="11.556" y="15.163"/><path d="M134.915 113.477l-29.687 22.632-.915-1.201L134 112.277z"/><use xlink:href="#B" x="16.178" y="21.224"/><use xlink:href="#B" x="18.488" y="24.247"/><use xlink:href="#B" x="20.794" y="27.278"/><use xlink:href="#B" x="23.11" y="30.319"/><path d="M145.428 128.397l-29.864 22.771-.921-1.208 29.864-22.771z"/></g><path d="M172.82 145.08l-45.4 6.16-7.92-58.28 33.72-4.58 13.19 9.52 6.41 47.18z" class="D"/><g class="I"><path d="M153.22 88.38l13.19 9.52-11.69 1.59-1.5-11.11zm-1.942 11.347l-25.215 3.311-.196-1.495 25.215-3.311zm-.059 4.255l-25.239 3.426-.203-1.496 25.239-3.426zm1.118 3.303l-25.215 3.311-.196-1.495 25.215-3.311z"/><use xlink:href="#C"/><use xlink:href="#C" x="0.506" y="3.773"/><use xlink:href="#C" x="1.013" y="7.547"/><use xlink:href="#C" x="1.53" y="11.33"/><use xlink:href="#C" x="2.047" y="15.103"/><use xlink:href="#C" x="2.553" y="18.887"/><use xlink:href="#C" x="3.069" y="22.66"/><use xlink:href="#C" x="3.587" y="26.443"/><use xlink:href="#C" x="4.103" y="30.216"/></g><circle cx="383.31" cy="90.99" r="37.64" transform="matrix(.15833 -.987386 .987386 .15833 232.78 455.06)" class="D"/><circle cx="385.03" cy="91.83" r="35.91" transform="matrix(.987386 -.15833 .15833 .987386 -9.68 62.15)" class="I"/><circle cx="385.03" cy="91.83" r="33.64" transform="matrix(.625243 -.78043 .78043 .625243 72.65 334.93)" class="E"/><path d="M417.92 84.69l-54.58 32.86a33.63 33.63 0 0 1-9.19-12.37L400.69 62a33.73 33.73 0 0 1 17.23 22.69zm.73 8.31a33 33 0 0 1-2.22 10.93l-42 19.85a32.81 32.81 0 0 1-5.3-2.28L418.65 93z" opacity=".5" class="D"/><g class="H"><path d="M384.71 60.62h.65v5.1h-.65zm-15.572 4.334l.563-.325 2.55 4.417-.563.325zm-11.314 11.537l.325-.563 4.417 2.55-.325.563zM353.83 91.5h5.1v.65h-5.1zm4.016 15.626l4.417-2.55.325.563-4.417 2.55zm11.308 11.559l2.547-4.419.563.325-2.547 4.419zm15.556-.755h.65v5.1h-.65zm13.085-3.33l.563-.325 2.55 4.417-.563.325z"/><path d="M407.45 105.135l.325-.563 4.417 2.55-.325.563zm3.69-13.635h5.1v.65h-5.1zm-3.648-12.98l4.417-2.55.325.563-4.417 2.55zm-9.674-9.457l2.548-4.418.563.325-2.548 4.418zM385.52 62.93l1.11 31.17-3.19-.04 1.22-31.14.86.01z"/></g><path d="M404.93 80.96l-20.96 13.38-1.53-2.8 22.08-11.34.41.76z" class="J"/><path d="M386.12 91.83a1.09 1.09 0 1 1-1.12-1.09 1.09 1.09 0 0 1 1.12 1.09z" class="H"/><ellipse cx="250" cy="434.43" rx="163.03" ry="20.36" class="D"/><path d="M40.8 383.79l52.3-.24 52.3-.09 104.6-.17 104.6.17 52.3.09 52.29.24-52.29.24-52.3.09-104.6.17-104.6-.17-52.3-.09-52.3-.24z" class="B"/><path d="M414.82 229.56s-21.67-3-16.61-29.2c0 0 24.22 5.44 16.61 29.2z" class="C"/><path d="M414.82 229.56s-21.67-3-16.61-29.2c0 0 24.22 5.44 16.61 29.2z" class="G"/><g class="B"><path d="M413.73 224.09l-1.48-3.89-.06-.5-.09-1.08q-.09-1.17-.15-2.34l-.22-4.7c0-.08-.13-.08-.13 0v4.69c0 .79.08 1.57.13 2.35v.52a46 46 0 0 0-4.35-7.43l-2.37-3-2.65-2.9c-.05-.07-.15 0-.09.09a39.71 39.71 0 0 1 4.18 5.55l1.87 3.06-.2-.08-.77-.31-1.77-.67-3.49-1.29c-.07 0-.12.09 0 .12l3.43 1.43 1.68.73.85.35a3 3 0 0 0 .57.2l1.27 2.37a57.11 57.11 0 0 1 2.65 6.25l.16.45a13.21 13.21 0 0 0-1.78-.86l-2.24-1-4.49-2.23c-.07 0-.14.07-.06.11l4.44 2.49 2.26 1.17a7.15 7.15 0 0 0 2 .82 25.37 25.37 0 0 1 1.42 6.14l.29 8.91h.08l.34-8.11a23.61 23.61 0 0 0-1.23-7.41zm-3.34-15.38a26.33 26.33 0 0 0-.22 4.61 0 0 0 0 0 .07 0l.28-4.58c.01-.08-.12-.11-.13-.03z"/><path d="M404.19 210a16.69 16.69 0 0 1-2.78-1.37c-.08-.05-.14.07-.07.12a10.9 10.9 0 0 0 2.82 1.34s.08-.09.03-.09zm11.32 61.09l-.09-7.18q-.06-11.94-.25-23.86-.17-9.48-.44-18.94s0-.06-.06-.08v-5.18s-.06-.06-.11-.06-.1 0-.1.07v5.18s-.05 0-.05.07l-.67 33.72v6.85q-.12 11-.09 22v3.5l.07 20.11c0 .36.4.54.82.56s1-.18 1-.59l.05-22.18-.08-13.99z"/></g><path d="M406.46 263.82s-10.42-7.73-20.31-2.51-11.45 25.34-11.45 25.34 14.53 2.07 23.68-6.63c8.81-8.4 8.08-16.2 8.08-16.2z" class="C"/><path d="M409.3 264.29a12.47 12.47 0 0 0-6-.79 9.23 9.23 0 0 0-1.28-.12l-1.47-.11-3-.22-6.17-.48c-.08 0-.09.12 0 .13l6.09.75 3.15.29.76.08-.92.23a24.78 24.78 0 0 0-4.73 1.91l-2.44.57-3.85 1-7.55 2.14a.07.07 0 0 0 0 .13l7.54-1.78 3.67-.88 1-.22a30.72 30.72 0 0 0-7.41 6.44 39.88 39.88 0 0 0-5.15 8.13c0 .07.07.14.11.07a39.77 39.77 0 0 1 6.23-8.18c0 .14-.09.28-.13.41l-.58 1.85-1.15 3.68a.07.07 0 0 0 .13 0l1.28-3.59.62-1.76.31-.91c0-.1.07-.19.1-.28a34.42 34.42 0 0 1 3.7-3.15 27.85 27.85 0 0 1 5.53-3.18c0 .18-.07.37-.11.54l-.3 1.42-.59 3-1 6.08c0 .08.11.11.12 0l1.53-6.06.66-3.05.29-1.43a7.49 7.49 0 0 0 .15-.8l.57-.23a16.34 16.34 0 0 1 8.67-1.19 8.49 8.49 0 0 1 6.27 5 .212.212 0 0 0 .4-.14 8 8 0 0 0-5.05-5.3zm-15.95 8.59l-.88 4a28.52 28.52 0 0 0-.73 3.86c0 .05.07.05.08 0a30.28 30.28 0 0 0 .89-3.88l.76-3.92c.02-.11-.11-.14-.12-.06zm-10.09 3.36l-4 2c-.08 0 0 .16.06.12l4-2.06c.01-.03-.02-.08-.06-.06z" class="B"/><path d="M408.81 249.63s-12.74.81-18.67-7.59-4.6-20.4-4.6-20.4 13.39 1.63 18.7 7.66 4.57 20.33 4.57 20.33z" class="C"/><path d="M414.79 262.2l-1.51-4.05-1.58-3.81a80.21 80.21 0 0 0-3.82-7.51l-2.86-4.53c0-.23-.06-.45-.09-.68l-.18-1.18-.4-2.42-.94-5.27c0-.08-.15-.08-.13 0l.67 5.22.36 2.57.15.92a93.48 93.48 0 0 0-6.3-8.17l-.93-1-.12-.3-.28-.72-.55-1.52-.95-3a.07.07 0 0 0-.13 0l.84 3.13.49 1.48.09.24-5.05-5.17a.064.064 0 0 0-.09.09 92.12 92.12 0 0 1 9 11.06 8.1 8.1 0 0 0-.94-.24l-3-.45-6.22-.86c-.08 0-.11.12 0 .13l5.89 1.29 2.79.57a19 19 0 0 1 2.23.64l.63.88 2.71 4.15-1.3-.25-3-.53-5.81-1.1a.07.07 0 1 0 0 .13l5.81 1.51 2.81.68 1.42.31a3.05 3.05 0 0 0 .57.09q2.79 4.53 5.23 9.26l2.06 4.2 1.89 4.39c.17.26.64.14.54-.18zm-13.04-29.28l-.77-3.64c0-.08-.15 0-.13 0l.69 3.59a35.8 35.8 0 0 0 .72 3.57 25.18 25.18 0 0 0-.51-3.52zm-7.44-.35a17.27 17.27 0 0 0-1.83-.77l-1-.38-.5-.2a2.5 2.5 0 0 1-.53-.23c-.1-.08-.16.09-.07.11a2.18 2.18 0 0 1 .55.22l.48.22.93.41a18.87 18.87 0 0 0 1.88.75c.12.02.16-.1.09-.13z" class="B"/><path d="M421.85 239.61s7.71-14.4 19.44-16.63 18.91 9.84 18.91 9.84-8.56 10.93-19.32 12.83-19.03-6.04-19.03-6.04z" class="C"/><path d="M449.15 229.44a31.53 31.53 0 0 0-9.2.11l.52-.29 2.61-1.34 5.5-2.69a.07.07 0 1 0-.05-.12l-5.58 2.42-2.72 1.34c-.58.31-1.22.6-1.79 1a32.29 32.29 0 0 0-7.45 2.48l1.46-1.6 3.37-3.54c.07-.06 0-.15-.09-.09l-3.72 3.31-1.67 1.74-.79.93a30.94 30.94 0 0 0-15.73 21.23c0 .08.1.13.13.05a35.5 35.5 0 0 1 8.62-14.6 33.86 33.86 0 0 1 15.72-9.09 34.43 34.43 0 0 1 10.84-1 .12.12 0 0 0 .02-.25z" class="B"/><path d="M460.2 232.82s-8.56 10.93-19.33 12.83c-8.21 1.46-15-2.82-17.7-4.93l-.6-1s5.56-4.69 16.06-7.39 21.57.49 21.57.49z" class="G"/><path d="M442.34 224.3a28 28 0 0 0-2.61 1.72 17.73 17.73 0 0 0-2.26 2.07c-.06.07 0 .15.1.1l2.37-2a24.18 24.18 0 0 1 2.47-1.78c.07-.04 0-.15-.07-.11zm6.43 2.44l-1.31.52-1.31.54c-.09 0 0 .19.05.15l1.31-.53 1.3-.56a.063.063 0 1 0-.04-.12z" class="B"/><path d="M420.31 257.74s2.06 14.26 12.8 19.26 23.89 0 23.89 0-5.2-30.89-36.69-19.26z" class="C"/><path d="M449.55 267.73l-3-.46-1.44-.27-.75-.15-.87-.81a43.37 43.37 0 0 0-6.58-4.76 35.58 35.58 0 0 0-3.93-2h.2l3.54.16 7.07.31c.08 0 .08-.13 0-.13l-7.08-.63-3.43-.3-1.77-.16h-.45l-1.86-.64a16.78 16.78 0 0 0-9.1-.5c-2.7.69-5.4 2.46-6.1 5.31 0 .1.13.16.17.07 1-2.39 3.65-3.58 6-4.08a14.42 14.42 0 0 1 4.86-.09 12 12 0 0 0 .55 2.16l.89 3 1.87 6a.07.07 0 0 0 .13 0l-1.4-6-.73-3a18.56 18.56 0 0 0-.54-2 26.31 26.31 0 0 1 2.79.66 42.88 42.88 0 0 1 4.86 1.78l.62 3 1 3.74a.06.06 0 0 0 .12 0v-.23h0l-.74-3.5-.59-2.83c1.34.6 2.65 1.26 3.92 2 0 .3.1.59.14.86l.25 1.46.69 3.29a51.65 51.65 0 0 0 1.85 6.22.05.05 0 0 0 0 .08l.06.07c.05.06.12 0 .11-.06l-1.53-6.35-.68-3.18-.31-1.6c0-.15 0-.32-.07-.48a46 46 0 0 1 4.18 2.79 45 45 0 0 1 6.41 5.85c.07.08.23 0 .15-.13a40.16 40.16 0 0 0-2.56-3.13l-1.67-1.68h.18l1.51.23 3 .34c.11-.09.14-.22.06-.23zm-7.55 4.84h0l-.06-.37c0-.15-.11-.31-.13-.46h0l-.59-2.88c0-.07-.11-.05-.11 0a11.46 11.46 0 0 0 .82 3.73h.07zm-9-.22s0-.06-.07-.06l-.85-3.81-.4-2-.2-1.09a3.2 3.2 0 0 0-.24-.92.07.07 0 0 0-.12 0 6.65 6.65 0 0 0 .27 1.92l.42 2.09 1.07 4.2c0 .08.15.06.14 0zm15.57-8.73l-5.89-.8c-.08 0-.12.12 0 .13l5.89.79c.05.01.09-.11 0-.12z" class="B"/><path d="M414.8 224.23s-6.57-28.84 24.42-40.51c0 0 8.58 37.96-24.42 40.51z" class="C"/><path d="M421.49 207.87l.34-.2 1.75-1 3.59-2 7.08-4c.08 0 0-.15-.07-.11l-7.21 3.78-3.55 1.87-1.42.79c1-2 2.14-3.88 3.35-5.73 1.62-2.47 3.39-4.83 5.24-7.13a.103.103 0 1 0-.15-.14 48.87 48.87 0 0 0-7.17 8.78v-.3l.07-2.15v-4.23c0-.08-.13-.08-.13 0l-.3 4.15q-.06 1-.09 2.07c0 .38-.05.8 0 1.21q-1 1.53-1.83 3.09a55.33 55.33 0 0 0-2.77 5.81c0-.72-.07-1.44-.11-2.15l-.36-4.74c0-.08-.13-.08-.13 0v4.74l.1 2.36.06.89a50.89 50.89 0 0 0-2.34 7.92 85.09 85.09 0 0 0-1.16 8.71 0 0 0 0 0 0 0 48.18 48.18 0 0 1 1.65-7.77l1.22-4.06c1.29-.6 2.53-1.36 3.77-2l3.89-2.13 7.83-4.11c.08 0 0-.15-.07-.11l-8.07 3.72-3.91 2.09-3.21 1.91 1-2.67c.87-2.45 1.93-4.84 3.11-7.16zm-2.61-6.59c0-.08-.14-.08-.13 0l.34 4.93a.08.08 0 1 0 .15 0l-.36-4.93zm14.86 5.51l-5.83 2.33c-.05 0 0 .11 0 .09l5.84-2.29c.11-.04.07-.16-.01-.13zm2.94-13.3a53 53 0 0 0-5.51 2.95.083.083 0 0 0 .09.14l5.49-3c.08-.02.01-.13-.07-.09z" class="B"/><path d="M391.53 286.6h44.69v47.11h-44.69z" class="K"/><g class="B"><path d="M388.45 303.27h2.29v80.69h-2.29zm48.31 0h2.29v80.69h-2.29zm-22.94 0h2.29v80.69h-2.29z"/><path d="M389.59 330.69h48.31v6.52h-48.31z"/></g><use xlink:href="#D" class="C"/><use xlink:href="#D" class="G"/><path d="M90.23 378.52a39.43 39.43 0 0 0 36.48 39.31v.11h223.23a46.33 46.33 0 0 0 4.33-92.46A78.05 78.05 0 0 0 203 301.07a45.7 45.7 0 0 0-20.71-4.9 46.32 46.32 0 0 0-46.24 43.46 38.6 38.6 0 0 0-6.41-.52 39.42 39.42 0 0 0-39.41 39.41z" class="C"/><g class="E"><path d="M270.12 250.2v103.92h-40.24v-88.88a77.62 77.62 0 0 1 40.24-15.04z"/><path d="M290.79 354.12h-81.58L250 404.79l40.79-50.67z"/></g><g class="C"><path d="M135.05 83.38h75.99v49.13h-75.99z"/><path d="M158.99 78.29h-23.94v5.09h25.32l-1.38-5.09z"/></g><g class="G"><path d="M135.05 83.38h75.99v49.13h-75.99z"/><path d="M158.99 78.29h-23.94v5.09h25.32l-1.38-5.09z"/></g><path d="M189.63 110.1l-49.42-.02.03-63.44 36.69.02 12.72 12.09-.02 51.35z" class="C"/><path d="M189.63 110.1l-49.42-.02.03-63.44 36.69.02 12.72 12.09-.02 51.35z" opacity=".6" class="E"/><path d="M176.93 46.66l12.72 12.09h-12.72V46.66z" class="C"/><g class="E"><path d="M176.93 46.66l12.72 12.09h-12.72V46.66z" opacity=".4"/><path d="M172.53 58.934l-27.48-.014.001-1.63 27.48.014zm.002 4.11l-27.48-.014.001-1.63 27.48.014zm-.008 4.1l-27.48-.014.001-1.63 27.48.014zm12.782 4.13l-40.26-.021.001-1.63 40.26.021zm.003 4.11l-40.26-.021v-1.63l40.26.021zm-.049 4.186H145v-1.63h40.26zm0 4.11H145v-1.63h40.26zm.035 4.034l-40.26-.021.001-1.63 40.26.021zm.002 4.11l-40.26-.021.001-1.63 40.26.021zm.002 4.12l-40.26-.021.001-1.63 40.26.021zm-.007 4.11l-40.26-.021v-1.63l40.26.021zm.002 4.1l-40.26-.021.001-1.63 40.26.021z"/></g><path d="M177.99 120.25l55.52-18.27-12.26-37.12-55.52 18.27 12.26 37.12z" class="D"/><path d="M179.53 117.18l50.91-16.76-10.73-32.49-50.91 16.75 10.73 32.5z" class="E"/><path d="M176.76 93.29a5.83 5.83 0 1 0 3.72-7.36 5.83 5.83 0 0 0-3.72 7.36zm18.6 18.74l35.07-11.54-25.36-18-9.71 29.54z" class="I"/><path d="M181.62 116.56l28.95-9.53L191 96.32l-9.38 20.24z" class="D"/><g class="C"><path d="M210.85 132.51h-75.98l-5.23-45.05h75.99l5.22 45.05z"/><path d="M153.05 82.79H129.1l.54 4.67h25.32l-1.91-4.67z"/></g><path d="M148.47 113.92a5.54 5.54 0 0 0 5.13 5.52h0H185a6.51 6.51 0 0 0 .61-13 11 11 0 0 0-21.29-3.44 6.51 6.51 0 0 0-9.41 5.42 5.29 5.29 0 0 0-.9-.07 5.54 5.54 0 0 0-5.54 5.57z" class="E"/><g class="C"><path d="M173.75 95.88v14.6h-5.65V98a10.85 10.85 0 0 1 5.65-2.12z"/><path d="M176.66 110.48h-11.47l5.74 7.13 5.73-7.13z"/></g><g class="B"><path d="M159.81 136.57l-.12-1 1-.08s0 .35.12 1zm26.99 27.77c-.7 0-1.41-.09-2.1-.16l.1-1 2 .15zm-4.2-.46l-2.06-.46.25-1 2 .44zm-4.09-1.09l-2-.79.42-.91 1.89.76zm-3.86-1.79l-1.8-1.13.57-.82 1.72 1.08zm-3.49-2.4l-1.58-1.42.7-.71 1.51 1.36zm-3-3l-1.34-1.64.8-.6 1.29 1.58zm-2.55-3.38l-1.09-1.8.87-.5 1.06 1.76zm-2.07-3.68l-.87-1.92.92-.39.85 1.88zm-1.63-3.89l-.67-2 1-.29.65 1.95zm-1.23-4l-.47-2.06 1-.19.46 2zm28.26 23.71v-1h1l.05 1z"/><path d="M184.09 166.96l-.37-.93 6.11-2.38-6.21-2.1.32-.95 8.81 2.98-8.66 3.38z"/></g><path d="M121.55 295.15c2.76 1 84.34 2.3 87.44.45.37-.2 1.07-17.78 1.07-17.78 14.63-30.07 29-57.18 29-57.18l-57.34-2.26-23.28 49.3-33.73 16.12c-3.21 2.38-5.93 10.34-3.16 11.35z" class="F"/><path d="M121.54 295.15c2.77 1 84.35 2.3 87.45.45.37-.2 1.07-17.78 1.07-17.78l5.39-11-52.19-9.44-4.86 10.29-33.73 16.12c-3.17 2.39-5.89 10.35-3.13 11.36z" class="D"/><path d="M120.8 295.76c2.85 1 84.89 2.44 88.05.52 1.21-.72 1.8-6.49 2.48-20.94l-52.27-8.92s-32 15.17-35.2 17.65-5.86 10.68-3.06 11.69z" class="J"/><path d="M122 292.5c13.76-.1 69.26.8 82.87 1.75.11 0 .11.09 0 .09-13.63.39-69.13-1-82.87-1.62-.26-.01-.26-.22 0-.22zm7.19-11.29a11 11 0 0 1 8.16 3.5 10.69 10.69 0 0 1 3 7.4c0 .08-.16.08-.17 0a12.77 12.77 0 0 0-10.95-10.72.092.092 0 1 1-.04-.18zm24.21-11.85c5.5 0 11.85 2.08 15.19 6.64.13.17-.12.36-.28.27a75.9 75.9 0 0 0-15-6.23.35.35 0 0 1 .09-.68zm-4.28 1.58c5.51 0 11.85 2.08 15.2 6.64.13.18-.13.36-.29.27a75.9 75.9 0 0 0-15-6.23.35.35 0 0 1 .09-.68zm-4.28 1.59c5.51 0 11.86 2.07 15.2 6.63.13.18-.13.36-.29.27a76.5 76.5 0 0 0-15-6.23.34.34 0 0 1 .09-.67zm-4.28 1.58c5.51 0 11.86 2.07 15.2 6.63.13.18-.12.36-.29.28a75.85 75.85 0 0 0-15-6.24.34.34 0 0 1 .09-.67z" class="B"/><path d="M201.63 281.13c6.17.13 6 9.72-.2 9.6s-5.99-9.73.2-9.6z" class="E"/><g class="B"><path d="M148 262.64c2.91 3.89 7.39 6.38 11.26 9.16a.67.67 0 0 0 1-.43.15.15 0 0 0 .18-.15 29 29 0 0 0-4.76-14.16c-1.68-2.43-5.15-4.75-8-2.49s-1.37 5.81.32 8.07zm-.17-4.56c.65-6 6-1.28 7.14.56a29.44 29.44 0 0 1 1.94 3.74 83.75 83.75 0 0 1 3 8.21c-1.81-1.48-3.74-2.79-5.61-4.2-2.3-1.69-6.83-5.01-6.47-8.31z"/><path d="M180 268.05c-.36-3.6-4.45-4.45-7.36-3.94a28.81 28.81 0 0 0-13.43 6.53.15.15 0 0 0 0 .24.68.68 0 0 0 .39 1c4.7.81 9.62 2.26 14.43 1.61 2.85-.37 6.36-2.03 5.97-5.44zm-13 3.61c-2.32-.34-4.61-.8-6.94-1.05A84.84 84.84 0 0 1 168 267a31.77 31.77 0 0 1 4-1.24c2.13-.46 9.21 0 5.4 4.7-2.04 2.54-7.61 1.61-10.4 1.2z"/></g><path d="M219.67 261.21l-57-8.65 44.39-84.3c9.44-16.49 35.26-17.3 47.81 2.46 16.78 26.39 29.8 51.12 37.26 64.83l12.87 1.11-2.8 21.14-43 9.63c-16.47 2-28-27.35-28.3-26.86-.9 1.79-11.23 20.64-11.23 20.64z" class="K"/><path d="M230.63 240.7c1.62-3.32 2.88-6.85 4.33-10.25l4.18-9.88 8.41-20c1.52-3.76 2.92-7.56 4.34-11.36 0-.09.18-.05.15 0q-1.65 5.38-3.45 10.73c.32-.62.64-1.23 1-1.83l2.81-4.87c0-.07.13 0 .1.06l-2.66 4.85c-.45.8-.95 1.59-1.43 2.39a250.59 250.59 0 0 1-11.83 29.23c-1.81 3.72-3.93 7.28-5.75 11-.09.16-.26.05-.2-.07zm-12.23 10.37c2.75-4.25 9.3-17.09 11.64-21.53 4.75-9 9.09-18.15 13.2-27.44 2.32-5.25 4.49-10.54 6.63-15.86h.06a301.77 301.77 0 0 1-11.25 28.18c-4.19 9.22-17.68 34.06-20.11 36.75-.09.1-.24.01-.17-.1zm35.41-57.74l14.87 26.26q3.75 6.65 7.46 13.3l3.49 6.28a11.94 11.94 0 0 0 4.51 4.68 35.1 35.1 0 0 0 7.16 2.49l8.31 2.45a.104.104 0 0 1-.06.2l-7.49-1.86a63.72 63.72 0 0 1-6.8-1.83 11.1 11.1 0 0 1-5-3.48 41.73 41.73 0 0 1-3.53-5.89q-7.4-13.53-14.65-27.12l-8.27-15.45a0 0 0 1 1 0-.03zM221 253.2c-3.42-.62-6.92-.92-10.37-1.36l-10.36-1.34c-6.89-.9-30.36-4.64-32.13-5.23-.11 0-.07-.21 0-.22 1.68-.05 17 2 20.49 2.5 6.89 1 13.74 2.24 20.61 3.4l5.87 1.05c1.96.35 3.91.77 5.88 1 .13 0 .1.23.01.2z" class="B"/><path d="M89 448c2.78 1 84.38.77 87.44-1.13.37-.22.75-17.8.75-17.8 14.08-30.33 27.92-57.7 27.92-57.7l-57.37-1.22-22.39 49.71-33.44 16.77c-3.13 2.43-5.7 10.43-2.91 11.37z" class="F"/><path d="M89 448c2.79 1 84.38.77 87.44-1.14.37-.2.75-17.79.75-17.79l5.19-11.09-52.38-8.46-4.68 10.37-33.41 16.73c-3.12 2.44-5.7 10.45-2.91 11.38z" class="D"/><path d="M88.26 448.65c2.86 1 84.92.9 88.05-1.08 1.19-.74 1.67-6.51 2.09-21l-52.42-8s-31.68 15.8-34.88 18.34-5.71 10.78-2.84 11.74z" class="J"/><g class="B"><path d="M89.43 445.36c13.76-.34 69.27-.44 82.89.26.11 0 .11.08 0 .09-13.63.64-69.14.29-82.89-.12-.29-.01-.29-.22 0-.23zM96.38 434a11.07 11.07 0 0 1 8.23 3.35 10.74 10.74 0 0 1 3.08 7.35c0 .08-.16.08-.17 0a12.77 12.77 0 0 0-11.14-10.53.09.09 0 0 1 0-.17zm23.99-12.33c5.51-.08 11.89 1.85 15.32 6.35.13.18-.12.37-.29.28a76.33 76.33 0 0 0-15.12-6 .34.34 0 0 1 .09-.63zm-4.25 1.66c5.51-.08 11.89 1.85 15.32 6.35.13.18-.12.36-.28.28A76.66 76.66 0 0 0 116 424a.34.34 0 0 1 .12-.67z"/><use xlink:href="#E"/><use xlink:href="#E" x="-4.25" y="1.64"/></g><path d="M168.81 432.56c6.17 0 6.16 9.61 0 9.6s-6.19-9.62 0-9.6z" class="E"/><g class="B"><path d="M114.86 415.05c3 3.83 7.5 6.24 11.42 8.95a.67.67 0 0 0 1-.45.14.14 0 0 0 .17-.15 28.82 28.82 0 0 0-5-14.08c-1.72-2.4-5.23-4.65-8-2.34-2.67 2.19-1.33 5.83.41 8.07zm-.26-4.56c.54-6 6-1.4 7.15.42a30.27 30.27 0 0 1 2 3.72c1.26 2.64 2.12 5.41 3.11 8.15-1.85-1.45-3.8-2.73-5.7-4.1-2.25-1.68-6.86-4.89-6.56-8.19z"/><path d="M147 419.87c-.43-3.59-4.54-4.37-7.43-3.81a29 29 0 0 0-13.32 6.78.15.15 0 0 0 0 .23.67.67 0 0 0 .41 1c4.71.73 9.66 2.09 14.45 1.35 2.81-.42 6.29-2.15 5.89-5.55zm-13 3.85c-2.33-.3-4.62-.72-7-.93a84.75 84.75 0 0 1 7.86-3.79 32 32 0 0 1 4-1.31c2.12-.5 9.2-.12 5.48 4.6-1.95 2.61-7.53 1.79-10.34 1.43z"/></g><path d="M129.21 409.64l62-.46s32.43-81.61 36.2-85.65c2.54-2.73 19.6-5.76 40-10.23h.11c7.52-1.65 15.5-3.5 23.35-5.62 20.45-5.45 40.11-12.62 49.06-22.53 18.73-20.7 0-58.12 0-58.12h-52.82s-1.31 16.29 2.72 26.26c0 0-38.82 5.7-71.51 16.31-18.52 6-35.07 13.6-41.48 22.63-9.39 13.23-47.63 117.41-47.63 117.41z" class="K"/><g class="B"><path d="M136.21 400.34c7.18-.52 14.36-.71 21.56-.88s14.39-.25 21.58-.17c4.06 0 8.11.28 12.16.33.13 0 .14.2 0 .2-3.62.08-7.24.35-10.86.45l-10.71.24-21.58.24c-4.05 0-8.1 0-12.15-.14a.14.14 0 1 1 0-.27zM313 234.71a4.45 4.45 0 0 0 .3.71.11.11 0 0 1 0 .12c.69 2.16 1 4.46 1.65 6.62a10.39 10.39 0 0 0 4 5.72c4.09 2.84 9 4.13 13.77 5.31.16 0 .11.26 0 .27a26.44 26.44 0 0 1-8.13-1.25 21.4 21.4 0 0 1-6.84-3.28 10.71 10.71 0 0 1-3.93-5.92 34.77 34.77 0 0 1-.69-3.8 29.09 29.09 0 0 1-.47-4.45.2.2 0 0 1 .34-.05zm-30.92 15.04a60.51 60.51 0 0 1 9.48 3.63l.15.06a2.79 2.79 0 0 1-.14-.57l-.11-.69c0-.23-.06-.48-.08-.72s0-.24 0-.36h0a2.85 2.85 0 0 1-2-1.05 7.61 7.61 0 0 1-1.27-3l-1-4.07-.84-4.58a29 29 0 0 1-.52-4.54.211.211 0 0 1 .42-.05c.35 1.4.51 2.84.78 4.26l.89 4.25 1.07 4.21c.34 1.23.69 3 2.13 3.44 3 .85 1.63-5.8 1.5-7.1l-1-9.07a.1.1 0 0 1 .19-.05l1.87 8.22.55 4.11a6.24 6.24 0 0 1-.27 3.53 2.6 2.6 0 0 1-1.95 1.45l.09.31.19.66.16.67a1.68 1.68 0 0 1 .1.82.3.3 0 0 1-.15.18l3.79 1.68a34.12 34.12 0 0 1 4.55 2.21c.17.08 0 .32-.13.28a34.39 34.39 0 0 1-4.77-1.72l-4.72-1.91a59.61 59.61 0 0 1-9-4.2.15.15 0 0 1 .04-.29zm-86.23 120.62q4.91-12.12 10.37-24 5.46-11.88 11.56-23.53c1.75-3.37 3.36-6.78 6.88-8.6a25.91 25.91 0 0 1 5.07-1.8l6.18-1.6c16.8-4.25 33.79-7.75 50.49-12.43 8.34-2.34 16.61-5 24.69-8.14 6.55-2.56 13.1-5.53 18.55-10.06a30 30 0 0 0 6.66-7.58c2.07-3.46 6.9-12.88-.26-41.41 0-.13.14-.22.17-.1 5.72 20.32 4.51 31.39 3.47 35.42A25.84 25.84 0 0 1 335 276c-4.22 5.4-10.18 9.14-16.3 12.06a170 170 0 0 1-22.62 8.48c-16.64 5.21-33.7 8.86-50.65 12.88l-12.59 3.09c-3.74 1-8.12 1.71-10.8 4.76a25.35 25.35 0 0 0-3.13 5.17l-3 5.83q-3 6-5.93 12.05-11.43 23.9-20.81 48.7l-2.32 6.14c-.06.16-.3.09-.25-.07 2.75-8.37 5.96-16.58 9.25-24.72z"/><path d="M193 279.4c2.58-1.55 13.3-7.06 19-9 5.93-2 12-3.71 18-5.35q18.65-5.08 37.69-8.48 5.42-1 10.85-1.84a95.64 95.64 0 0 1 10.67-1.31c.12 0 .14.18 0 .21-3.14.78-6.36 1.26-9.55 1.8l-9.42 1.71q-9.4 1.8-18.75 3.92c-12.33 2.8-24.68 5.86-36.73 9.67-6.41 2-16.08 6.69-21.49 9.11a.26.26 0 0 1-.27-.44z"/></g><g class="F"><path d="M233.42 300.27l-8-4.92-4-2.2-3.86-2.69a74.9 74.9 0 0 1-7.36-5.54 75.94 75.94 0 0 0-7.3-6.11c-.1-.08 0-.24.1-.17a71.15 71.15 0 0 0 8.16 4.72 47.14 47.14 0 0 1 5.52 3.45 32.44 32.44 0 0 1-3.13-2.6l-5-4.57c-.09-.07 0-.23.11-.16a57.32 57.32 0 0 0 5.66 3.19l.83.45-1.83-1.41-2.54-2.2-1.17-1-.19-.14h0a1.53 1.53 0 0 1-1-.88.07.07 0 0 1 .1-.09l5.74 2.85c1.9.97 3.75 2.2 5.59 3.34a59.25 59.25 0 0 1 10.15 7.65.4.4 0 0 1-.42.64 46.34 46.34 0 0 1-4.88-2.45l.26.2c1.65 1.36 3.17 2.88 4.73 4.34.08.07 0 .23-.12.19l-5.74-2.53-1.74-1 .68.48a43 43 0 0 1 3.38 2.95c2.35 2.14 5 4 7.48 5.93a.19.19 0 0 1-.21.28zM222.28 278l5.52 3.2a30.54 30.54 0 0 1 5.26 3.3c3.24 2.69 6 5.93 9.25 8.57.1.07 0 .23-.11.15-3.28-2.63-7.07-4.46-10.55-6.8a37 37 0 0 1-4.72-4c-1.54-1.46-3.23-2.75-4.83-4.13a.171.171 0 0 1 .18-.29zm-24.86 4.36c3.58 1.64 7.33 2.88 10.88 4.56a25.24 25.24 0 0 1 4.76 3c1.6 1.26 3 2.71 4.72 3.88a.1.1 0 0 1-.1.17 47 47 0 0 0-5.44-2.4 31.8 31.8 0 0 1-5.14-2.69c-3.26-2.15-6.34-4.51-9.8-6.34-.14-.04-.01-.24.12-.18zM308.37 171.4c-4.65 18.93-15.93 48.35-25.9 48.19-9.1-.14-29.39-16.27-37.89-21.56s10.57-26.11 15.44-22.74c7.55 5.22 18.86 14.54 20.77 13.93 2.38-.76 5.4-6.61 19-23.88 5.53-7.06 10.56-2 8.58 6.06z"/><path d="M250.88,167.26c-4-1.41-8.49-3.36-12.94-3.27s-8.15,6-8.15,7.64,1.68,12.18,6.13,12.18,1.77-8.06,1.94-9,.33-2.1,1.17-2,15.55,7.06,15.55,7.06Z"/><path d="M250.6,167.88c-.25,0-12.18-4.71-16.64-4.62s-8.15,6-8.15,7.64,1.68,12.18,6.14,12.18,1.76-8.06,1.93-9,.34-2.11,1.18-2,15.54,7.06,15.54,7.06Z"/></g><path d="M233.46 182.52a5.28 5.28 0 0 0 .74-2.63 9 9 0 0 0-.16-2.84 14.9 14.9 0 0 1-.54-2.45 4.89 4.89 0 0 1 .62-2.36c.34-.62 1-.41 1.56-.21a23.86 23.86 0 0 1 2.42 1.09l2.54 1.3a24.83 24.83 0 0 1 2.58 1.42c.06 0 0 .15-.05.13a23 23 0 0 1-2.26-1l-2.55-1.17-2.38-1.09a2.61 2.61 0 0 0-1.17-.35c-.34.08-.51.91-.59 1.18a4.22 4.22 0 0 0 .16 2.41 13.46 13.46 0 0 1 .46 2.44 6.49 6.49 0 0 1-.19 2.32 8.93 8.93 0 0 1-1.06 1.91c-.05.07-.19-.02-.13-.1z" class="B"/><path d="M264.72 179.57l-14.91-13.48c-5.15-4.49-26.85-13.35-29.88-13.67s-4.11 5.88 10.62 12.32c7.76 3.4 9.14 7.84 9 10.31s-2.5 7-6.64 6.94-6.83-6.16-10.64-6.83-1.3 6.31 1.39 10.34a25.43 25.43 0 0 0 11.15 8.7c3.59 1.35 14.68 6.13 14.68 6.13z" class="F"/><path d="M227.76 179.08c1.56 1.21 3.33 2.77 5.38 2.85s3.5-1.3 4.49-3a7.88 7.88 0 0 0 1.09-5.73 9.7 9.7 0 0 0-2.84-4.65 23.53 23.53 0 0 0-5.62-3.74c-.09 0 0-.17.08-.13 1.91.85 7.84 3.28 9 8.52a8.06 8.06 0 0 1-1.16 5.84c-.91 1.65-2.25 3.24-4.26 3.4-2.45.2-4.56-1.79-6.32-3.27-.04-.1.07-.17.16-.09z" class="B"/><path d="M264.72 178l-18.46 28.66s29.29 16.4 37.57 13.76 20.81-26.4 26-47.24-7.64-12.86-12.61-6.42-15.74 21.33-16.33 21.14-16.17-9.9-16.17-9.9z" class="C"/><path d="M256.72 190.41a33.37 33.37 0 0 1 3.49 1.46 36.67 36.67 0 0 1 6.84 4.52l1.68 1.46.21.18a129.47 129.47 0 0 1 9.52 9.95 125.15 125.15 0 0 0 9.48 9.78l-.51.44a130.27 130.27 0 0 1-9.49-9.75 133.27 133.27 0 0 0-9.81-10.2l-.22-.19-1.31-1.13a35.35 35.35 0 0 0-6.7-4.43 27 27 0 0 0-3.55-1.5zm-7.11 11l4.54 5c2.48 2.75 5 5.49 7.68 8l1.83.82a125.9 125.9 0 0 1-9-9.33l-4.12-4.56-.26-.27-.27-.29-.21.32-.19.29zm0 0a7.15 7.15 0 0 0 .93-.05 54.67 54.67 0 0 0 4.62-.42 107.68 107.68 0 0 0 13-2.72 8.12 8.12 0 0 0 .81-.22 64.96 64.96 0 0 0 2.11-.55 123.71 123.71 0 0 1 15.81-3.6 39.76 39.76 0 0 1 8.08-.31 31.14 31.14 0 0 1 7.28 1.4l.21-.46a30.14 30.14 0 0 0-7.46-1.39 41.13 41.13 0 0 0-8.15.39 126 126 0 0 0-15.85 3.74l-2.25.63-.82.21a90.2 90.2 0 0 1-12.77 2.65c-1.61.21-3.22.35-4.85.41h-.48zm47.09-34.09a94.89 94.89 0 0 0 9.38 3.31l.29.1a56.68 56.68 0 0 0 2.15.56c.53.13 1.08.25 1.62.34 0-.23.09-.44.14-.67-.53-.1-1.06-.21-1.59-.34s-1.12-.28-1.69-.45a1.43 1.43 0 0 1-.28-.07c-3.24-.92-6.4-2.12-9.56-3.37-.16.27-.28.42-.45.62zm-15.8 20.52a31.32 31.32 0 0 0 4-1.36 40.74 40.74 0 0 0 7.1-3.88 127 127 0 0 0 12.59-10.3l1.76-1.54.63-.56 3.9-3.3a1.27 1.27 0 0 0 0-.28c-1.43 1.13-2.82 2.31-4.21 3.51-.21.17-.42.36-.64.53-.55.49-1.09 1-1.65 1.44a123 123 0 0 1-12.62 10.19 39.54 39.54 0 0 1-7.11 3.81 30.07 30.07 0 0 1-3.07 1.06 3.49 3.49 0 0 1-.67.71zm-21.9-1.03a50.35 50.35 0 0 0 1.75.51 40.49 40.49 0 0 0 16.2 1.32 29.74 29.74 0 0 0 3.85-.75l-.62-.35a28.35 28.35 0 0 1-3.29.59 41.12 41.12 0 0 1-16-1.42c-.52-.14-1-.29-1.54-.47z" class="E"/><path d="M266.9 216.65c6.67 2.72 13.22 4.7 16.64 3.84l.3-.08c8.28-2.65 20.79-26.39 26-47.24a32.46 32.46 0 0 0 1.19-8.56v-.31a4.23 4.23 0 0 0-.05-.5 1.5 1.5 0 0 0 0-.2 3.11 3.11 0 0 0-.06-.44z" class="G"/><path d="M256.57 203.83l1.77-3c1.19-2 8.34-14 11.16-17.67.08-.1.23 0 .18.12-2 4.19-9.38 16-10.62 17.92l-1.9 3c-.64 1-1.41 1.9-2.05 2.89-.07.1-.23 0-.17-.08.59-1.08 1.06-2.16 1.63-3.18z" class="B"/><path d="M350.25 252.79c-.17.19-64.48-20-65.15-20.74-.93-1.09 9.71-61 17.45-70.87 1.66-2.11 12.4-6 17.85 0 21.21 23.71 30.47 90.92 29.85 91.61z" class="C"/><path d="M287.18 217.08l2.7 2.38a46 46 0 0 0 9.54 6.21l.51.24a35.76 35.76 0 0 0 3.87 1.53 28.62 28.62 0 0 0 7.88 1.55 35 35 0 0 0 8-.53 98 98 0 0 0 14.7-4.29l.73-.25h.11l9.49-3a1.6 1.6 0 0 1 .05.21l-9.45 3.07-.72.26a100.4 100.4 0 0 1-14.84 4.41 35.23 35.23 0 0 1-8.13.62 29.68 29.68 0 0 1-8-1.5 37.4 37.4 0 0 1-4.56-1.83l-.51-.23a46.12 46.12 0 0 1-9.09-5.93l-2.42-2.11.14-.81zm-1.66 10.12l2.35.21a35.52 35.52 0 0 0 8.11-.61l3.09-.69.86-.2c3.95-1 7.79-2.46 11.62-3.8a93.26 93.26 0 0 1 15.59-4.44c.54-.1 1.08-.18 1.64-.25.27 0 .54-.08.81-.11a45.67 45.67 0 0 1 13.66.32c.26 0 .51.08.77.14a3.48 3.48 0 0 0-.1-.41c-.2-.05-.4-.08-.6-.12a46.14 46.14 0 0 0-13.93-.18l-.81.11c-.5.08-1 .15-1.49.25a105.75 105.75 0 0 0-15.62 4.44c-4 1.37-8 2.79-12.05 3.81a10.81 10.81 0 0 1-.86.21c-.87.21-1.75.39-2.63.55a35.06 35.06 0 0 1-8 .53c-.77-.05-1.54-.12-2.3-.23a1.62 1.62 0 0 0-.11.47zm6.48-33.7a28.86 28.86 0 0 1 2.94.07 30.66 30.66 0 0 1 7.88 1.6 41.15 41.15 0 0 1 13.73 8.28 92.91 92.91 0 0 1 10.74 12.09l1.29 1.63a1.46 1.46 0 0 0 .2.25c1.8 2.3 3.64 4.59 5.64 6.75a2.25 2.25 0 0 0 .21.24q1.64 1.76 3.43 3.36a31.64 31.64 0 0 0 6.74 4.66c.85.41 1.72.81 2.62 1.15l-.16-.8a19.9 19.9 0 0 1-2.15-1 31 31 0 0 1-6.59-4.58 44 44 0 0 1-3.17-3.09c-.07-.07-.14-.16-.2-.23-2-2.1-3.77-4.35-5.56-6.61l-.2-.25-1.54-1.95A93.34 93.34 0 0 0 317 203a40.47 40.47 0 0 0-14-8.29 30.42 30.42 0 0 0-8-1.57 27.54 27.54 0 0 0-2.87 0 .63.63 0 0 0-.13.36zm7.06-25.23c2.31.88 4.65 1.71 7 2.39l.29.1a56.68 56.68 0 0 0 2.15.56 36.36 36.36 0 0 0 8.12 1.05 28 28 0 0 0 4.1-.26c.67-.09 1.35-.23 2-.36s1.34-.22 2-.4 1.57-.39 2.33-.62a6 6 0 0 0-.31-.55q-1.08.3-2.16.54c-1.32.28-2.65.48-4 .72a28.23 28.23 0 0 1-4 .25 36.87 36.87 0 0 1-7.95-1c-.57-.14-1.12-.28-1.69-.45a1.43 1.43 0 0 1-.28-.07c-2.51-.7-5-1.59-7.42-2.53-.02.17-.1.36-.18.63zm-3.76 11.95c3.24-2.49 6.27-5.22 9.32-7.92l1.76-1.54.63-.56a92.22 92.22 0 0 1 10.31-8 54.69 54.69 0 0 1 2.51-1.55l-.21-.2a52.19 52.19 0 0 0-2.44 1.53 106.8 106.8 0 0 0-10.45 8.14c-.21.17-.42.36-.64.53-.55.49-1.09 1-1.65 1.44-2.95 2.58-5.89 5.2-9 7.58-.03.18-.08.33-.14.55z" class="E"/><g class="F"><path d="M325.86 180.34c-3.29 19.3-19.49 55.41-30.05 58.8-12.22 3.94-54.65-9.62-63-15.72-3.31-2.43 14.35-23.8 18.48-22.29 17.27 6.36 32.59 9.62 34.81 8.11 3.42-2.32 17.36-22.29 26.42-34.68 11.4-15.56 14.82-2.88 13.34 5.78z"/><path d="M233.93 224c-1.89-.68-14.89-10.11-18.72-14.54a56.9 56.9 0 0 1-10-15.49c-3.85-9-5.67-15.55-4.74-18.49 1.08-3.42 1.39-4 10.37 10.92 5.09 8.44 9.93 9.39 14.14 9.31a64.63 64.63 0 0 1 29.85 6.67s-13.65 24.21-20.9 21.62z"/></g><path d="M212.42 160.7l21.71 28a1.12 1.12 0 0 1-.47 1.9l-15.39 4.95a2.61 2.61 0 0 1-2.64-.9l-21.72-28a1.12 1.12 0 0 1 .47-1.9l15.39-4.95a2.64 2.64 0 0 1 2.65.9z" class="B"/><path d="M211.11 159.37l-15.39 4.95a1.12 1.12 0 0 0-.47 1.9l21.71 28a2.62 2.62 0 0 0 2.65.9l15.39-4.96a1.13 1.13 0 0 0 .47-1.91l-21.72-28a2.63 2.63 0 0 0-2.64-.88zm22.72 28.33c.57.74.4 1.53-.37 1.78l-13.77 4.43a2.42 2.42 0 0 1-2.43-.89L197 167c-1.16-1.5-.6-1.78.18-2l2.75-.89a.64.64 0 0 1 .58.27l.06.08a.74.74 0 0 0 1 .26l6.38-2c.36-.11.65-.21.28-.67l-.06-.09c-.16-.2-.15-.4 0-.45l2.76-.89c.77-.25 1.55-.25 2.61 1.13z" fill="#455a64"/><path d="M205.23 162.79l-1.74.55a.16.16 0 0 1-.18-.06h0a.08.08 0 0 1 0-.13l1.74-.55a.16.16 0 0 1 .18.06h0a.08.08 0 0 1 0 .13z" class="B"/><path d="M213.6 161.65l20.23 26c.57.74.41 1.53-.37 1.78l-13.77 4.43a2.42 2.42 0 0 1-2.43-.89L197 167c-1.16-1.5-.6-1.78.18-2l2.75-.89a.64.64 0 0 1 .58.27l.06.08a.74.74 0 0 0 1 .26l6.38-2c.36-.11.65-.21.28-.67l-.06-.09c-.16-.2-.15-.4 0-.45l2.76-.89c.83-.35 1.61-.35 2.67 1.03z" class="E"/><path d="M213.6 161.65l1.51 1.94-16.56 5.32L197 167c-1.16-1.5-.6-1.78.18-2l2.76-.89a.62.62 0 0 1 .57.27l.06.08a.74.74 0 0 0 1 .26l6.38-2c.36-.11.65-.21.28-.67l-.06-.09c-.16-.2-.15-.4 0-.45l2.76-.89c.83-.35 1.61-.35 2.67 1.03z" class="C"/><g class="E"><path d="M200 164.8h0a.47.47 0 0 0-.33 0 .24.24 0 0 0-.18.17h0 0 0a.25.25 0 0 1 0-.07s.05 0 .08-.06h0 .37 0z"/><path d="M199.57 165.06h-.07a.18.18 0 0 1 .11-.13.39.39 0 0 1 .32 0h0a.34.34 0 0 0-.22 0 .15.15 0 0 0-.14.13z"/><path d="M199.9 165v.05a.24.24 0 0 0-.12 0 .09.09 0 0 0-.06.06h-.07c.01-.11.12-.11.25-.11z"/><path d="M199.86 165.1v.05a.07.07 0 0 1-.06 0 0 0 0 0 1 .06-.05zm-2.45.6a.08.08 0 0 1 0-.13.2.2 0 0 1 .19.06.09.09 0 0 1 0 .14.17.17 0 0 1-.19-.07zm.34-.11a.08.08 0 0 1 0-.13.18.18 0 0 1 .18.06c.05.06 0 .12 0 .13a.18.18 0 0 1-.18-.06zm.35-.11a.08.08 0 0 1 0-.13.18.18 0 0 1 .18.06v.13a.17.17 0 0 1-.18-.06zm.35-.11a.07.07 0 0 1 0-.13.2.2 0 0 1 .19.06.08.08 0 0 1 0 .13.18.18 0 0 1-.19-.06zm.34-.11a.08.08 0 0 1 0-.13.18.18 0 0 1 .18.06.08.08 0 0 1 0 .13.2.2 0 0 1-.18-.06zm13.02-3.92l-.89.29-.28-.37.89-.29zm-.88.23l.81-.26-.22-.28-.81.26zm.4-.46l-.57.19.19.24.57-.18-.19-.25z"/><path d="M211.83 161.23l-.08.02-.15-.19.08-.03.15.2z"/></g><use xlink:href="#F" class="C"/><use xlink:href="#F" class="G"/><g class="C"><path d="M209.8 179.36a2.44 2.44 0 0 0 2.35.78h0l8.1-2.87a1.21 1.21 0 0 0 .48-2.06 2.84 2.84 0 0 0-2.73-.92 4.77 4.77 0 0 0-4.8-1.39 1.94 1.94 0 0 0-1.33 2.56 2.32 2.32 0 0 0-.88.11 1.19 1.19 0 0 0-.54 2l-.25.07a1 1 0 0 0-.4 1.72z"/><path d="M217.76 178.72l-1.54.55-1.69-2.05 1.54-.55 1.69 2.05z"/><path d="M218.29 178.54l-2.6.92 2.23.67.37-1.59z"/></g><g opacity=".2"><path d="M217.76 178.72l-1.54.55-1.69-2.05 1.54-.55 1.69 2.05z"/><path d="M218.29 178.54l-2.6.92 2.23.67.37-1.59z"/></g><path d="M222.89 195.64c4.34.06-9.77-8.75-10-13.69s4.6-3.39 8.4-.6c13.18 9.69 23.12 9.21 29.8 18.47s-28.2-4.18-28.2-4.18z" class="F"/><path d="M236 189.61a35.15 35.15 0 0 1 8.11 3.18 21.07 21.07 0 0 1 5.87 5.5c.07.09-.06.22-.13.12-3.56-4.37-8.83-6.56-13.89-8.67a.07.07 0 0 1 .04-.13z" class="B"/><path d="M285.19 208.05c-3.37.91-26.89-5.54-26.89-5.54l-13.22 32s41 9.54 50.52 6.23S320 204.9 324.86 186c4.52-17.75-1.51-29.33-14.18-10.95 0 .03-23.68 32.52-25.49 33z" class="C"/><path d="M277.78 207.23l.68.75a109.55 109.55 0 0 0 11.42 11.48 46 46 0 0 0 9.54 6.21l.51.24a35.76 35.76 0 0 0 3.87 1.53 28 28 0 0 0 3.13.89l-.27.45a30.8 30.8 0 0 1-3-.84 37.4 37.4 0 0 1-4.56-1.83l-.51-.23a46.12 46.12 0 0 1-9.09-5.93 109.81 109.81 0 0 1-11.53-11.5l-1.35-1.45zm-21.89 1.1a95.24 95.24 0 0 0 9.79 9.58 43.57 43.57 0 0 0 14.16 8 30.39 30.39 0 0 0 8 1.5 35.52 35.52 0 0 0 8.11-.61l3.09-.69.86-.2c3.5-.93 6.91-2.14 10.31-3.34.07-.12.13-.24.19-.36-3.63 1.26-7.28 2.54-11 3.46a10.81 10.81 0 0 1-.86.21c-.87.21-1.75.39-2.63.55a35.06 35.06 0 0 1-8 .53 29.75 29.75 0 0 1-7.88-1.54 43.78 43.78 0 0 1-13.92-8 96.4 96.4 0 0 1-9.91-9.79zm40.93-14.57a30.46 30.46 0 0 1 6 1.41 41.15 41.15 0 0 1 13.73 8.28c.62.56 1.22 1.12 1.81 1.73l.27-.65c-.54-.53-1.09-1-1.66-1.55a40.47 40.47 0 0 0-14-8.29 29.85 29.85 0 0 0-5.84-1.36zm16.05-21.65a32 32 0 0 0 3.78.26 28 28 0 0 0 4.1-.26c.67-.09 1.35-.23 2-.36s1.34-.22 2-.4c.4-.1.8-.19 1.19-.31 0-.21-.08-.41-.13-.61l-1.2.29c-1.32.28-2.65.48-4 .72a28.23 28.23 0 0 1-4 .25 29.75 29.75 0 0 1-3.27-.21c-.13.2-.29.41-.47.63z" class="E"/><path d="M265.36 238.57l3 .52m11.97-31.39l-2.88-.53" class="D"/><path d="M296.1 239.71c8-4.1 17.89-25.57 19.79-29.78 1.22-2.7 2.33-5.44 3.42-8.19 2.19-5.51 4.2-11.08 6.11-16.68a.08.08 0 0 1 .15 0q-1.57 6.5-3.79 12.83a47.67 47.67 0 0 0 2.62-4.88.08.08 0 0 1 .14.06 27 27 0 0 1-3.05 5.65c-1.5 4.23-3.2 8.4-5.09 12.46-.54 1.17-12 27.47-20.92 29.91-3.11.85-13.77.08-16-.43-.09 0-.12-.14 0-.15 3.03-.03 13.76.67 16.62-.8zm-42.17-9.11l1.21-3.3c.86-2.2 5.74-15.3 7.86-19.3a.103.103 0 0 1 .19.08c-1.2 4.48-6.42 17.38-7.3 19.51l-1.35 3.25c-.46 1.08-1.05 2.13-1.51 3.22-.05.1-.22.06-.18-.06.42-1.14.68-2.29 1.08-3.4zm4.36-28.03c1.95.08 19.55 4.17 23.44 5.05a8 8 0 0 0 2.87.39 4.18 4.18 0 0 0 2.31-1.72c1.26-1.45 15-19.64 16-20.54.37-.34.67-.4.31.17-.61 1-14 19-15.21 20.37s-2.19 2.69-4.09 2.62c-.83 0-24.57-5.36-25.74-5.85-.18-.06-.18-.51.11-.49z" class="B"/><path d="M304.45 172.1c3.57-.07 11.55-5.94 12.71-11.37.08-.38-1.42-3.61-3.06-7.61a98.7 98.7 0 0 1-2.8-7.74c-.15-.53-14.92 8.73-14.92 8.73a42.42 42.42 0 0 1 4.51 9.38 6.46 6.46 0 0 1 .2 1.09v.18c.31 2.1-.47 7.42 3.36 7.34z" class="F"/><path d="M301.09 164.58v.18a12.37 12.37 0 0 0 1.68-.41c9.41-3 8.35-15.65 7.94-18.8-2.74 1.27-14.36 8.55-14.36 8.55a42.61 42.61 0 0 1 4.51 9.39 6.46 6.46 0 0 1 .23 1.09z" class="B"/><path d="M308.31 124.51c3.28 5.29 4.65 22.73 1.54 27.52-4.51 6.95-14.09 10-20.55 4.12-6.26-5.74-7.65-28.5-4-33.08 5.45-6.75 18.16-6.38 23.01 1.44z" class="F"/><g class="B"><path d="M294.44 139c0-.05.09.05.1.09.06 1.18.33 2.52 1.42 2.82v.07c-1.31-.05-1.65-1.83-1.52-2.98z"/><path d="M295.38 137.71c1.88-.3 2.35 3.48.61 3.76s-2.18-3.47-.61-3.76zm-7.38 2.08s-.09.07-.08.11c.18 1.17.19 2.53-.82 3v.07c1.27-.29 1.24-2.11.9-3.18z"/><path d="M286.78 138.7c-1.89.09-1.58 3.88.18 3.79s1.42-3.87-.18-3.79zm9.88-2.9a12.84 12.84 0 0 1-1.52-.33 2.49 2.49 0 0 1-1.49-.64.8.8 0 0 1 0-1 2 2 0 0 1 2-.45 3 3 0 0 1 1.83 1 .86.86 0 0 1-.82 1.42zm-11.57 1.2a15.11 15.11 0 0 0 1.45-.58 2.47 2.47 0 0 0 1.37-.87.79.79 0 0 0-.16-1 2 2 0 0 0-2-.13 2.89 2.89 0 0 0-1.64 1.33.86.86 0 0 0 .98 1.25zm12.05 12.49c-.25.3-.48.72-.9.8a3 3 0 0 1-1.29-.14 0 0 0 0 0 0 .07 1.58 1.58 0 0 0 1.56.45 1.24 1.24 0 0 0 .79-1.14c-.03-.07-.12-.09-.16-.04zm-1.66-3.35a4 4 0 0 1-2.44 2.09 4.87 4.87 0 0 1-1.42.25 1.31 1.31 0 0 1-.28 0h-.26a.3.3 0 0 1-.27-.23h0a.48.48 0 0 1 0-.12h0V148c-.14-.9-.22-2.28-.22-2.28-.31.21-1.89 1.17-1.92.69a59.62 59.62 0 0 1 .06-12.24c0-.13.21-.12.22 0 .38 3.76.1 7.56.43 11.34a7.07 7.07 0 0 1 1.81-.8c.13 0 .11 2.67.2 3.07a.1.1 0 0 0 0 0 5.57 5.57 0 0 0 4-1.78c.05 0 .15 0 .09.14z"/><path d="M292.09 148a4.8 4.8 0 0 0 2.07 1.24 2.16 2.16 0 0 0 1.3-.08c.91-.36.83-1.22.56-1.93a5 5 0 0 0-.55-1.07 6.17 6.17 0 0 1-3.38 1.84z"/></g><path d="M294.16 149.19a2.16 2.16 0 0 0 1.3-.08c.91-.36.83-1.22.56-1.93a2.21 2.21 0 0 0-1.86 2.01z" fill="#ff9bbc"/><g class="B"><path d="M311.15 140.11c-3.21.33-5.17-7.54-5.17-7.54s-4.23-.53-7.18-7.4c0 0-1 7.69-14.27 9.23a11.38 11.38 0 0 1-.67-7 47.25 47.25 0 0 0-1.59 7.76s-5.67-10 2.6-16c3.29-2.38 8.92-3.41 18.35-1.26 0 0 .41-5.44 1.54-5s.39 5.6.39 5.6 3.43-2 4.24-1.41-2.65 2.33-2.65 2.33a7.55 7.55 0 0 1 6.73 7.22c.53 6.21-.73 13.36-2.32 13.47z"/><path d="M305.7 119.59a6.89 6.89 0 0 1 8.2 4 12.85 12.85 0 0 1 .56 5.78 24.43 24.43 0 0 1-1.48 5.93c0 .11-.2 0-.16-.08a18.37 18.37 0 0 0 1-5.5 16.53 16.53 0 0 0-.41-5.34 6.61 6.61 0 0 0-7.68-4.62.1.1 0 0 1-.03-.17zm-13.87-3.97a26.67 26.67 0 0 1 6.89.81 19.54 19.54 0 0 1 6.13 2.4c.09.06 0 .21-.08.16a34.89 34.89 0 0 0-12.34-2.47c-3.89-.17-8.2.87-10.27 4.5 0 .06-.13 0-.1 0 1.74-3.75 5.94-5.3 9.77-5.4z"/></g><g fill="#455a64"><path d="M297.21 144.82a5.57 5.57 0 0 1-5.62-5.49h0a5.55 5.55 0 1 1 5.62 5.49zm-4.87-5.5a4.81 4.81 0 1 0 4.75-4.86 4.68 4.68 0 0 0-1.19.16 4.81 4.81 0 0 0-3.56 4.7zm-6.74 7.15c-2.25.33-4.45-1.87-4.89-4.9a6.62 6.62 0 0 1 .61-4 3.46 3.46 0 0 1 5.86-.85 6.6 6.6 0 0 1 1.72 3.67c.41 2.87-.89 5.47-2.94 6zm-3.6-8.57a5.94 5.94 0 0 0-.52 3.56c.38 2.63 2.2 4.54 4.05 4.28s3-2.63 2.66-5.25a5.93 5.93 0 0 0-1.51-3.26 3 3 0 0 0-2.54-1l-.27.05a3 3 0 0 0-1.87 1.62z"/><path d="M291.87 139.94l.39-.63c-.93-.58-3-1.24-4.13.39l.61.42c1.01-1.46 3.04-.23 3.13-.18zm24.69-2.14l.6-.44c-.2-.28-2-2.75-3.69-2.77s-11.29 2.33-11.7 2.43l.18.72c2.78-.68 10.29-2.43 11.5-2.41s2.62 1.79 3.11 2.47z"/></g><path d="M307.75,139.37s2.46-6.33,5.24-5.58,1.85,9.28-.77,11.05a3,3,0,0,1-4.31-.62Z" class="F"/><path d="M312.66 136.23s.07 0 0 .07c-1.82 1.31-2.43 3.44-2.7 5.56a1.66 1.66 0 0 1 2.31-1 .06.06 0 0 1 0 .12 1.87 1.87 0 0 0-1.83 1.12 9.46 9.46 0 0 0-.56 1.83c-.05.2-.4.19-.38 0v-.05c-.66-2.63.5-6.72 3.16-7.65zm-12.82 28.18h.05c-.44 3.36-1.25 11.18 3.89 11 2.08-.06 4.05-1.27 5.7-2.47a29 29 0 0 0 4.66-4.27 44.27 44.27 0 0 0 4.45-5.58c.06-.09.18 0 .12.1-1.36 2-2.52 4.06-4.06 5.91a26 26 0 0 1-5 4.74c-1.77 1.23-3.87 2.42-6.05 2.37a4.11 4.11 0 0 1-4-3.49 19.5 19.5 0 0 1 .24-8.31z" class="B"/><defs ><path id="B" d="M121.053 95.284l-29.687 22.632-.915-1.201 29.687-22.632z"/><path id="C" d="M163.998 109.944l-36.991 5.021-.203-1.496 36.991-5.021z"/><path id="D" d="M103.73 378.52a39.43 39.43 0 0 0 36.48 39.31v.11h223.24a46.33 46.33 0 0 0 4.33-92.46 78.06 78.06 0 0 0-151.28-24.41 45.7 45.7 0 0 0-20.71-4.9 46.32 46.32 0 0 0-46.24 43.46 38.51 38.51 0 0 0-6.41-.52 39.42 39.42 0 0 0-39.41 39.41z"/><path id="E" d="M111.87 425c5.51-.08 11.89 1.86 15.32 6.36.13.18-.12.36-.28.28a76.41 76.41 0 0 0-15.13-6 .35.35 0 0 1 .09-.64z"/><path id="F" d="M210.29 179.19a2.41 2.41 0 0 0 2.35.77h0l8.1-2.88a1.21 1.21 0 0 0 .48-2.06 2.88 2.88 0 0 0-2.73-.92 4.78 4.78 0 0 0-4.8-1.38 1.93 1.93 0 0 0-1.33 2.56 2.14 2.14 0 0 0-.88.11 1.19 1.19 0 0 0-.54 2l-.25.07a1 1 0 0 0-.4 1.73z"/></defs></svg>