<svg xmlns="http://www.w3.org/2000/svg" xmlns:xlink="http://www.w3.org/1999/xlink" viewBox="0 0 500 500" xmlns:v="https://vecta.io/nano"><style><![CDATA[.B{fill:#263238}.C{fill:#ffc727}.D{fill:#ebebeb}.E{fill:#dbdbdb}.F{fill:#fff}.G{fill:#eb9481}.H{fill:#ffc4c0}.I{opacity:.1}.J{fill:#a6a6a6}.K{fill:#37474f}.L{fill:#c7c7c7}.M{fill:#455a64}]]></style><g class="D"><path d="M424.22 313.15l13.35-.27 6.58-.12 6.55-.05-.45.44-.05-11.15.5.49-13.24-.06c-4.42 0-8.83-.11-13.24-.16l.27-.27c0 1.83-.09 3.67-.13 5.53zm0 0l-.15-5.53c0-1.87-.11-3.76-.13-5.65v-.27h.28l13.24-.16 13.24-.06h.5v.52l-.06 11.18v.45h-.44c-2.23 0-4.47 0-6.7-.05l-6.66-.12zM439 327.26l13.35-.27 6.58-.12 6.55-.05-.45.44v-11.18l.5.49-13.24-.06c-4.41 0-8.83-.11-13.24-.16l.27-.27c0 1.83-.08 3.67-.13 5.53zm0 0l-.14-5.53-.13-5.65v-.27h.27l13.24-.16 13.24-.06h.5v.51l-.06 11.18v.45h-.44-6.7l-6.66-.12zM105.33 197.64l13.36-.28 6.58-.12 6.54-.05-.44.45-.06-11.19.5.5-13.24-.07c-4.41 0-8.82-.11-13.24-.16l.27-.27c0 1.83-.08 3.67-.13 5.53zm0 0l-.14-5.54c0-1.87-.11-3.76-.13-5.65v-.27h.27l13.24-.16 13.24-.06h.5v.51l-.05 11.19v.44h-.45c-2.23 0-4.47 0-6.69-.05l-6.66-.12zm14.77 14.11l13.36-.28 6.58-.12h6.54l-.44.45-.06-11.19.5.49-13.24-.1c-4.41 0-8.82-.11-13.24-.16l.28-.27c0 1.83-.09 3.67-.13 5.53zm0 0l-.14-5.54c0-1.87-.11-3.76-.13-5.65v-.27h.27l13.24-.16 13.24-.06h.51v.51l-.09 11.17v.44h-.45c-2.23 0-4.47 0-6.69-.05l-6.66-.12zm14.72-14.11l13.35-.28 6.58-.12 6.55-.05-.45.45v-11.19l.5.5-13.24-.07c-4.42 0-8.83-.11-13.24-.16l.27-.27c0 1.83-.09 3.67-.13 5.53zm0 0l-.15-5.54c0-1.87-.11-3.76-.13-5.65v-.27h.28l13.24-.16 13.24-.02h.5v.51l-.06 11.19v.44h-.44c-2.23 0-4.47 0-6.7-.05l-6.66-.12zM40.45 332.53l13.36-.28 6.58-.12 6.54-.05-.44.44-.06-11.18.5.49-13.24-.06c-4.41 0-8.83-.11-13.24-.16l.27-.27c0 1.83-.08 3.67-.13 5.53zm0 0l-.14-5.53-.13-5.65v-.27h.27l13.24-.16 13.24-.06h.5v.51l-.05 11.18v.45h-.45c-2.23 0-4.47 0-6.69-.05l-6.66-.12zm5.09-247.08l13.36-.28 6.58-.11 6.54-.06-.44.45-.06-11.19.5.5-13.24-.07c-4.41 0-8.83-.11-13.24-.16l.27-.27c0 1.83-.08 3.67-.13 5.53zm0 0l-.14-5.54c0-1.87-.11-3.75-.13-5.65V74h.27l13.24-.16L72 73.76h.5v.5 11.19.45H72h-6.69l-6.66-.11zM30.77 99.56l13.36-.28 6.57-.11 6.55-.06-.45.45V88.37l.5.5L44 88.8c-4.41 0-8.83-.11-13.24-.16l.27-.27-.12 5.53zm0 0L30.63 94l-.13-5.65v-.25h.28l13.24-.16 13.24-.06h.5v.5 11.19.43h-.44-6.69l-6.67-.11zM353.82 48l13.35-.28 6.58-.11 6.55-.05-.45.44-.05-11.2.5.5-13.24-.06c-4.42 0-8.83-.11-13.24-.17l.27-.27c0 1.83-.09 3.67-.13 5.54zm0 0l-.15-5.54c0-1.86-.11-3.75-.13-5.65v-.27h.28l13.24-.17 13.24-.06h.5v.5L380.74 48v.45h-.44c-2.24 0-4.47 0-6.7-.06l-6.66-.11zM217.03 148.29H53.4v-7.17h163.63z"/><path d="M200.67 148.29h7.18v23.73h-7.18z"/></g><path d="M200.67 148.29h7.18v7.34h-7.18z" class="E"/><path d="M62.56 148.29h7.18v23.73h-7.18z" class="D"/><path d="M62.56 148.29h7.18v7.34h-7.18z" class="E"/><path d="M186.48 95.39v45.73h-11.52V95.39z" class="L"/><g class="E"><path d="M186.49 92.94v5.03h-11.52v-5.03zm-.01 11.46v1.86h-11.52v-1.86zm0 25.69v5.03h-12.95v-5.03z"/><path d="M174.96 87.77v53.35h-8.05V87.77z"/></g><path d="M173.39 92.79v20.52h-4.83V92.79z" class="D"/><path d="M153.252 103.63l-37.941 37.506-5.659-5.725 37.941-37.506z" class="L"/><path d="M137.654 116.753l-14.593 14.426-3.396-3.435 14.593-14.426z" class="E"/><path d="M166.92 100.61v40.52h-13.67v-40.52z" class="J"/><path d="M166.92 133.05v3.78h-13.67v-3.78zm0-3.94v1.46h-13.67v-1.46z" class="L"/><path d="M195.93 103.04v38.08h-9.44v-38.08z" class="J"/><path d="M195.93 133.54v3.55h-9.44v-3.55zm-.01-22.65v3.55h-9.44v-3.55zm0 5.99v1.38h-9.44v-1.38z" class="L"/><path d="M86.48 92.33c8.06 7.89 9.41 20.09 7.71 30.77 0 .25-.42.18-.42 0l.07-7.24c0-.11-.08-.22-.13-.33a16.19 16.19 0 0 1-5.23-5.62c-1.34-2.64-1.87-5.63-2.9-8.39-.1-.27.18-.19.37 0 4.9 3.61 6.46 7.5 7.87 12.7A43.7 43.7 0 0 0 93 106a27.59 27.59 0 0 0-6.69-13.47c-.17-.12.03-.34.17-.2z" class="J"/><path d="M85 93.25c-1.39 0-2.26 2.26-3.34 2.91a1 1 0 0 1-1.53-.24c-1.07-1.49.4-3.34 1.78-4.37A14.61 14.61 0 0 1 79 92.87a1 1 0 0 1-1.29-.77c-.47-2 2.08-2.94 3.83-3-.85-.59-3.28-2.19-2-3s4.17 1.5 5.1 2.26c1.37 1.11 3 2.77 3.07 4.51.1 2.06-1.71.81-2.71.38z" class="E"/><path d="M85.37 93.59c-1.77-.8-5.18.36-5.47-.31-.58-1.37 2.14-2.3 3.6-2.49-1.35-.36-3.94-1-3.86-2.25.1-1.59 4-.22 5.94 1.28 2.47 1.9 2.45 3.73 2 4.09-.52.5-1.92-.18-2.21-.32z" class="D"/><path d="M104.83 91.55C96.48 99.13 94.66 111.27 96 122c0 .24.41.19.42 0l.21-7.24.14-.32a16.21 16.21 0 0 0 5.44-5.42c1.45-2.59 2.09-5.55 3.22-8.27.11-.27-.18-.2-.37-.07-5 3.42-6.74 7.25-8.34 12.39a42.7 42.7 0 0 1 1.11-8.07A27.57 27.57 0 0 1 105 91.77c.17-.13 0-.35-.17-.22z" class="J"/><path d="M106.3 92.53c1.39.1 2.17 2.34 3.22 3a1 1 0 0 0 1.54-.18c1.13-1.45-.27-3.35-1.61-4.43a15.9 15.9 0 0 0 2.82 1.43 1 1 0 0 0 1.32-.73c.55-2-2-3-3.72-3.13.87-.56 3.37-2.07 2.11-2.91s-4.23 1.35-5.19 2.07c-1.41 1.06-3.1 2.65-3.23 4.39-.16 2.05 1.66.87 2.74.49z" class="E"/><path d="M105.89 92.85c1.8-.73 5.16.55 5.47-.1.64-1.35-2-2.39-3.5-2.62 1.36-.32 4-.8 3.94-2.11 0-1.59-4-.37-6 1.06-2.54 1.8-2.59 3.63-2.2 4s1.99-.08 2.29-.23z" class="D"/><path d="M96.29 111.55a82.71 82.71 0 0 1-2.59 12 .3.3 0 0 1-.59-.12c.55-3.69 1.55-7.31 2.1-11a55.48 55.48 0 0 0 .64-11.3c-.35-6.22-2-12.83-6.1-17.7-.09-.11.1-.27.19-.17 8.13 9.48 6.84 21.09 6.83 22.13 1.15-3.94 2.33-8.39 6.68-12.39.19-.17.34-.09.31.2-.78 7.28-2.8 11.07-7 15l-.47 3.35z" class="J"/><path d="M89.68 84.5c-1.46-.65-3.48 1.22-4.93 1.34a1.19 1.19 0 0 1-1.46-1c-.36-2.09 2.09-3.26 4-3.63-1.23-.08-2.43.25-3.64-.08a1.15 1.15 0 0 1-1-1.45c.54-2.35 3.65-2 5.49-1.17-.59-1-2.3-3.93-.56-4.1s3.56 3.66 4.15 4.91c.86 1.84 1.72 4.39.91 6.22-.86 2.13-2.07-.06-2.96-1.04z" class="E"/><path d="M89.92 85.06c-1.43-1.73-5.55-2.24-5.51-3.08.08-1.71 3.37-1.31 5-.76-1.22-1.06-3.61-3-2.88-4.29.91-1.6 4.24 1.77 5.52 4.32 1.61 3.21.67 5.1.06 5.28-.84.23-1.95-1.19-2.19-1.47z" class="D"/><path d="M101.63,113.74l3.59,27.38H83.41c.45-2.43,4.51-27.41,4.51-27.41Z" class="E"/><path d="M304.59,70V257.32h143.3V70Zm139.52,183.5H308.37V73.82H444.11Z" class="D"/><path d="M444.11 73.82v179.72H379.6V74.8h-3.77v178.74h-67.46V73.82h135.74z" class="F"/><g class="D"><path d="M375.83 74.8h3.77v180.63h-3.77z"/><use xlink:href="#B"/><use xlink:href="#B" y="5.92"/><use xlink:href="#B" y="11.84"/><use xlink:href="#B" y="17.77"/><use xlink:href="#B" y="23.69"/><use xlink:href="#B" y="29.61"/><use xlink:href="#B" y="35.53"/><use xlink:href="#B" y="41.45"/><use xlink:href="#B" y="47.37"/></g><g class="E"><path d="M312.39 76.61h.94v121.28h-.94z"/><path d="M311.19 202.29h3.35l-.84-4.82h-1.67l-.84 4.82zm-2.2-125.68h.94v175.45h-.94z"/><path d="M307.78 255.6h3.36l-.84-4.82h-1.67l-.85 4.82zm149.4-175.29H295.31V69.3h161.87z"/></g><path d="M83.51 307.61a54.83 54.83 0 0 0-1.76 10c.09.17.07.79 0 .62 0 .55-.85.45-.85-.09q0-.54 0-1.05c-1.94-2.42-4.77-3.95-7.06-6.05a13.21 13.21 0 0 1-3.84-6.19c-1.9-6.54-.12-13.46-2.4-20-2-5.62-5.49-10.51-8.48-15.6-3.15-5.39-5.47-11-5.7-17.36-.19-4.83.39-11.26 4.06-14.88 3.9-3.84 8.74-1 11.73 2.46 8.65 9.94 12.66 22.49 14.28 35.33.89 7.1 1.82 14.25 1.6 21.43a57.21 57.21 0 0 1-1.58 11.38z" class="C"/><path d="M81.79 320.19a121.89 121.89 0 0 0-.24-20.13.15.15 0 0 0 0-.07c.11-5.44.55-10.86.33-16.31a97.23 97.23 0 0 0-2.39-17.49.06.06 0 0 0-.11 0 112.83 112.83 0 0 1 1.89 17.1q.17 4.62-.07 9.22c0 1-.14 2-.21 3h0a107.8 107.8 0 0 0-16.16-42.81c-.11-.18-.43 0-.32.19a111.89 111.89 0 0 1 13.18 31.77c-4.16-7.72-10.45-14.06-15.12-21.47h-.07c4.19 8.29 11.12 14.81 15.5 22.93.77 3.31 1.39 6.66 1.86 10a111.94 111.94 0 0 1 1 13.93c-2.53-4.74-5.16-9.28-7.24-14.29-.05-.13-.25 0-.2.09 1.76 5.21 4.14 10.82 7.46 15.26 0 3.29-.08 6.59-.28 9.88-.51 8.79-2 17.46-2.71 26.22a.2.2 0 0 0 .4 0 200.34 200.34 0 0 0 3.5-27.02zm-9.33-67.77c0-.07-.12 0-.1 0C74 256.9 74.87 261.4 76 266a.17.17 0 0 0 .33-.06 48.51 48.51 0 0 0-3.87-13.52z" class="B"/><path d="M113.22 271a67.25 67.25 0 0 1-3.69 7.59c-2.89 5.24-5.91 10.05-6.46 16.17a37.42 37.42 0 0 1-1.16 8.1 24.32 24.32 0 0 1-3.23 6.34c-3.13 4.56-7 8.49-10 13.23a55.67 55.67 0 0 0-6.61 15.94c-.07.31-.56.23-.48-.08a.15.15 0 0 0 0-.07.08.08 0 0 1 0-.06c-.46-13.11.58-26.32 4.58-38.87a134.22 134.22 0 0 1 6.35-16.17 38.21 38.21 0 0 1 8.57-12.33c2.44-2.2 7.73-6.36 11.2-4.16 1.71 1.08 1.58 2.76.93 4.37z" class="C"/><path d="M100.05 300.73a108.66 108.66 0 0 1-7.62 10.95l-3.82 5-1.82 2.4 1-4.13c1.7-6.62 3.32-13.3 5.84-19.67a133.06 133.06 0 0 1 9.1-17.84c.09-.15-.16-.26-.25-.11-2.77 4.55-5.58 9.1-7.9 13.9a71 71 0 0 0-3.36 8.25 126.81 126.81 0 0 1 4.47-17.63c0-.05-.06-.09-.08 0A60.3 60.3 0 0 0 91 300.11h0a113.44 113.44 0 0 0-1.58 5.15c-2.06 7.33-3.87 14.74-5.55 22.18a78.47 78.47 0 0 1 1.26-14.58c0-.11-.15-.13-.17 0a46.19 46.19 0 0 0-1.27 15.36q-.95 4.25-1.86 8.49c-1.28 6-2.87 12.19-3.62 18.32a.12.12 0 0 0 .24 0c.9-3.3 1.44-6.73 2.18-10.08l2.28-10.06q1.71-7.31 3.54-14.59a26 26 0 0 1 3.55-4.81l3.84-4.95a74.06 74.06 0 0 0 6.3-9.75.06.06 0 1 0-.09-.06zm.56-5.6A67.41 67.41 0 0 0 93.15 307s.06.11.09.06l7.48-11.83c.04-.1-.07-.16-.11-.1z" class="B"/><path d="M44.82 283.45c1.7 2.92 3.63 6.43 2.9 9.95-.46 2.22-2.09 4-2.38 6.29-.66 5 4.33 8.32 7.94 10.68 9 5.91 21.34 11.17 23 23.23.06.42.8.32.75-.1a.24.24 0 0 0 0-.08v-.07a46.07 46.07 0 0 0-.17-18.42c-1.34-6.21-4-11.8-7.25-17.26-5.42-9.23-11.15-18.7-19.34-25.77-2.27-2-6.91-5.48-8.72-1.06s1.19 9.04 3.27 12.61z" class="C"/><path d="M53.05 303c6 6.45 15.45 10.07 20.59 17.31a72.41 72.41 0 0 0-15.82-29.72.233.233 0 0 1 .33-.33A58.71 58.71 0 0 1 71.08 309a84.08 84.08 0 0 0-5.57-14.24c-.09-.18.16-.33.26-.16a54.16 54.16 0 0 1 6 16c6.77 16.38 7.4 35.59 6 52.86 0 .25-.4.26-.39 0 .39-13.61.17-27.45-3.09-40.74l-.21-.83c-5.59-7.79-15-11.4-21.11-18.79-.08-.03.03-.1.08-.1zm-1.38-5.51l9.35 8.68v.06a45.52 45.52 0 0 1-9.5-8.56.13.13 0 0 1 .15-.18zM51.18 285a97.65 97.65 0 0 0 9.37 12.89c0 .05 0 .13-.08.08A45.49 45.49 0 0 1 51 285.14a.114.114 0 1 1 .18-.14z" class="B"/><path d="M65.28 375.68h27.43l-3.7-36.91H69.5l-4.22 36.91z" class="M"/><path d="M68.81 344.77h20.81l-.6-6H69.5l-.69 6z" class="B"/><path d="M91.85 340.57H66.13v-5.89h25.72z" class="M"/><path d="M40.29 375.68l52.43-.24 52.42-.09 104.86-.17 104.86.17 52.42.09 52.43.24-52.43.24-52.42.09-104.86.17-104.86-.17-52.42-.09-52.43-.24z" class="B"/><ellipse cx="250" cy="431.57" rx="204.99" ry="14.92" class="D"/><path d="M303.52 432.38c2 .71 59.6 1.72 61.82.37.85-.5 1.49-8.89 2-19v-.32l1.43-38.4-37.41-.52-1.18 37.85v.64s-22.22 9.48-24.5 11.22-4.16 7.45-2.16 8.16z" class="G"/><path d="M365.34 432.74c-2.22 1.36-59.82.35-61.82-.37s-.12-6.46 2.14-8.19c1.23-.94 8.23-4.13 14.44-6.86-7.7 4.47-13 9.75 16.47 6.84 17.35-1.71 26.11-3.25 30.4-4.24-.43 7.17-.97 12.43-1.63 12.82zm15.22-229.16l-10.8 105c-.32 1.69-.87 95.43-.87 95.43l-39.33-.6 5.63-95.47c1.8-14.84 10.22-104.36 10.22-104.36z" class="B"/><path d="M367.68 395.82a28.12 28.12 0 0 0-3.55-.26l-3.55-.16-7-.28q-7.11-.24-14.22-.5l-8-.07a.08.08 0 0 0 0 .16c9.43 1 18.95 1.15 28.42 1.38l4.06.07a30.86 30.86 0 0 0 3.85-.06c.19-.02.13-.26-.01-.28zm7.58-187.94l-8.12 71.43-3 35.54c-.72 11.87-1 23.93-1.2 35.9l-.29 40.63c0 .13.19.12.2 0 1.17-23.93.84-47.91 2.11-71.84s3.86-47.77 6.5-71.6l4.23-40c.01-.25-.41-.3-.43-.06z" class="K"/><path d="M385.69 432.18c2.12.16 58-14 59.74-15.89.69-.71-.9-9-3.1-18.88l-.08-.32c-.44-2-12.21-36.42-12.21-36.42L393.81 370l12.31 35.83.17.61s-19 15-20.69 17.26-2.03 8.3.09 8.48z" class="G"/><path d="M445.43 416.29c-1.78 1.89-57.62 16.06-59.74 15.89s-1.81-6.2-.09-8.47c.94-1.23 6.86-6.14 12.13-10.41-6.25 6.34-10 12.83 17.69 2.27 16.29-6.21 24.34-10 28.22-12.08 1.47 7.03 2.36 12.25 1.79 12.8zM402.64 403l39.83-9.6L411 310.6c-1.23-3.78-11.11-49.94-14.58-70.1 0 0 5.18-14.72-6.44-36.95h-44.57s1 21.15 6.39 34.57a62.19 62.19 0 0 1 10.37 4.73L377 321.62 402.64 403z" class="B"/><g class="K"><path d="M369.25 281.49q-2.4-12.76-4.78-25.52l-1.45-7.18-1.61-7.13c-.05-.15-.29-.12-.28 0 .13 2.17.53 4.34.82 6.49l.95 6.28q1.11 6.43 2.35 12.83l5.22 25.54 3.34 14.27c0 .1.17.05.15 0l-4.71-25.58zm-9.38-49.25c.6-1.49.12-3.2-.15-4.71q-.51-2.86-1-5.74-1.2-6.47-2.6-12.89a0 0 0 0 0-.08 0l1.38 10.27c.49 3.42 1.17 6.86 1.59 10.31.14 1.12 0 3.31-1.57 3.32-1.37 0-2.19-2-2.63-3a47.92 47.92 0 0 1-2.49-9.44c-.79-3.8-1.44-7.62-2.1-11.44 0-.13-.23-.09-.22 0a113 113 0 0 0 1.33 11.3c.59 3.57 1.14 7.32 2.64 10.63.57 1.25 1.36 2.78 2.79 3.17a2.25 2.25 0 0 0 .62.08c.13 1.14.3 2.26.54 3.39a24.57 24.57 0 0 0 .9 3.47.132.132 0 0 0 .26-.05h0a24.15 24.15 0 0 0-.52-3.48 34.17 34.17 0 0 0-.84-3.35 2.94 2.94 0 0 0 2.15-1.84z"/><path d="M367.34 243.37a36.44 36.44 0 0 0-7.07-2.35 49 49 0 0 0-7.11-1c-.09 0-.11.15 0 .16 2.38.37 11.8 2.68 14.15 3.27.05.04.09-.05.03-.08zm58.09 121.8q-3.19-8.51-6.4-17l-12.81-33.63c-4.21-11.23-6-22.89-8.22-34.49q-1.74-8.87-3.48-17.74c-1.16-5.85-2.56-11.72-3.24-17.66s.2-11.62-.31-17.43a43.62 43.62 0 0 0-4.1-14.94 38.91 38.91 0 0 0-1.88-3.48c-.08-.13-.27 0-.2.13a47.2 47.2 0 0 1 5.15 15.58 48.55 48.55 0 0 1 .43 8.17c-.08 2.93-.29 5.86-.15 8.8.28 5.86 1.65 11.63 2.77 17.37l3.46 17.56 3.49 17.73a134.76 134.76 0 0 0 4.14 17.07c1.87 5.58 4.06 11.07 6.15 16.57q3.21 8.49 6.44 17l13 33.71c.52 1.31 1.05 2.6 1.62 3.88.08.17.35 0 .29-.13-1.79-5.78-4.02-11.42-6.15-17.07zm12.47 19.91a29.51 29.51 0 0 0-3.47.79l-3.45.87-6.76 1.77-13.74 3.65-7.68 2.25a.08.08 0 0 0 0 .16c9.29-1.83 18.46-4.4 27.59-6.93l3.91-1.12a29.54 29.54 0 0 0 3.67-1.17c.2-.07.03-.28-.07-.27z"/></g><g class="B"><path d="M362.12 146.83c4.21 6.85 10.41 14.36 11.11 22.66.54 6.51-2.42 12.73-6.26 17.79-8.44 11.14-23.73 20.44-37.7 13.68-5.58-2.7-11.23-11.64-7.91-17.89 1.71-3.2 4.65-5.36 7.21-7.84a14.66 14.66 0 0 0 4.8-11.78c-.39-9.19-4-14.07-7.65-22.24a6.35 6.35 0 0 1-.37-5.14 11.42 11.42 0 0 1 3.2-5.12 11.32 11.32 0 0 1 4.3-3.4c3.65-1.55 8.73-.2 12.49.3a10.41 10.41 0 0 1 8.3 5.2l8.48 13.78z"/><path d="M364.82 149.66l-13-17.93h-.06l10.27 15.05c3.5 4.97 7.27 9.65 10.25 14.8 6.69 11.58-2.7 23-13 27.93-.47.22-.06.94.41.7 8.87-4.62 17.66-13.38 15-24.35-1.32-5.97-6.39-11.27-9.87-16.2zm-38.88-9.38c-.07-.12-.25 0-.19.12 3.27 6.59 7.69 14 7.13 21.6a18.61 18.61 0 0 1-4 10.28c-1.87 2.32-4.39 3.83-6.64 5.72-8.8 7.41-1.51 20.79 8.54 22 .21 0 .26-.33.05-.37-7.28-1.23-13-7.62-11.84-15.27.92-6.14 8-8.29 11.24-13.11 6.63-9.97 1.08-21.73-4.29-30.97z"/></g><g class="G"><path d="M349.74 169.69c-3.54 12.13-9.77 32.4-19.11 37.43-7.51 4-29.85 11.11-36.38 11.39-5.5.23-7.43-22.65-3-23.61 5.49-1.19 26.77-5.33 28.73-6.33 1.79-.92 10-10.66 21.61-22.59 6.41-6.6 9.92-2.34 8.15 3.71z"/><path d="M300.79,216.09c-2.32,1.66-13.62,8.36-17.18,9.52s-14.06,3.75-15.23,1.12,1.85-3.65,1.85-3.65-4.6.4-5.53-2.37,3.8-4.17,3.8-4.17-4.76.06-5.49-2.76,4.27-3.44,4.27-3.44-4.35.26-4-2.32c.45-3.1,8.52-2.67,12.35-4.25.88-.35,17.15-8.51,17.15-8.51Z"/></g><path d="M266.85 210.4c5.94.3 8.59-.59 13.68-3.46.1-.05.21.08.11.15-4.74 3.26-7.9 4.86-13.82 3.6-.29-.06-.25-.3.03-.29zm1.15 6.11c6.19-.22 9.07-1.17 14.63-3.78.08 0 .15.1.08.14-5.24 3-8.43 4.54-14.65 3.95-.25-.03-.31-.3-.06-.31zm2.51 6.43c6-.65 9.18-1.55 14.26-4.77a.111.111 0 0 1 .13.18c-4.86 3.79-8.85 4.94-14.35 4.77-.38-.01-.42-.12-.04-.18z" class="B"/><path d="M297.05 195.55s-7-2.4-10.37-2.78-16.25 2.81-15.72 5.64c.68 3.65 8.5 3.29 12.31 2.61 0 0 1.56 8.45 7.23 9.4s6.55-14.87 6.55-14.87z" class="G"/><path d="M271.48 199.35c3 2.88 8 1.67 11.7 1.29a.35.35 0 0 1 .39.41c.89 3.5 3.17 8.17 6.74 9.5a.09.09 0 0 1-.05.17c-4-.91-6.63-5.32-7.37-9.21-3.83.45-8.83 1.45-11.44-2.13a0 0 0 0 1 .03-.03z" class="B"/><path d="M343.22 192.65l-17.11-13.19s9.47-11.75 16.95-16.93 9.62-.12 7.51 8.49-7.35 21.63-7.35 21.63z" class="C"/><path d="M349.35 160.71l1.31 1.3a5.83 5.83 0 0 1 .56 1.78l-3.36-3.33a2.85 2.85 0 0 1 1.49.25zm-4.31.63l6.18 6.14c0-.39.07-.76.09-1.13l-5.44-5.4-.87.39zm-2.29 1.42l7.91 7.85.22-1-7.4-7.35-.42.28zm-2.09 1.6l9.24 9.17.26-1-8.82-8.75c-.23.22-.46.39-.68.58zm-2 1.7l10.38 10.31.29-1-10-9.94zm-1.92 1.77l11.41 11.33.3-.92-11.08-11zm-1.87 1.84l12.34 12.25.32-.92-12-11.95zm-1.21 1.25q-.32.32-.6.63l13.19 13.09.32-.9zm-1.79 1.9l-.59.64 14 13.88.34-.9zm-1.76 1.93l-.57.66L344.26 190l.33-.89zm-1.72 2l-.56.67 15.32 15.22h.06l.35-.87zm-1.69 2l-.56.67.41.41 5.57 4.29z" class="I"/><path d="M329.36 177.05a137.54 137.54 0 0 1 14.44 11.34s-.06.14-.09.12c-4.12-2.86-11.89-9.16-14.48-11.28-.05-.04.08-.23.13-.18z" class="B"/><path d="M350.57 171c-2.11 8.61-7.35 21.63-7.35 21.63l-11.48-8.86 18.4-22.51c1.47 1.58 1.56 5.16.43 9.74z" class="I"/><path d="M343.75,216.14l49.17-9.89s-21.61-37.09-34.13-45.57c-5.7-3.85-10-2.08-13.09,1.93-.77,1-9.13,18.59-8.94,24,.17,4.79,5.06,9,5.06,9Z" class="C"/><path d="M348.4 192.08a36.08 36.08 0 0 1 6.41-.1 35.08 35.08 0 0 1 3.2.43l1.59.22a5.78 5.78 0 0 0 1.66 0c.05 0 .07.08 0 .09a8.79 8.79 0 0 1-1.53.29 8.69 8.69 0 0 1-1.53 0l-3.25-.33-6.55-.4c-.08.01-.1-.19 0-.2zm-4.63 3.33a40.52 40.52 0 0 1 5.07-1.41c.86-.17 1.73-.28 2.6-.37l1.26-.09h1.39c.05 0 .07.09 0 .09-.43 0-.85.19-1.28.27l-1.29.23-2.58.48-5.15 1c-.07-.01-.1-.17-.02-.2z" class="B"/><path d="M385.67 226.26l-30.97 24.75-32.32-40.45 23.35-18.66 13.71 1.53 26.23 32.83z" class="M"/><path d="M359.44 193.43l-7.63 6.09-6.08-7.62 13.71 1.53z" class="B"/><path d="M340.93 219.09a3 3 0 1 0 .45-4.16 3 3 0 0 0-.45 4.16zm11.76 7.41l15.66-12.51-15.47-3.31-.19 15.82z" class="F"/><path d="M346.55 231.41l12.93-10.34-11.44-1.05-1.49 11.39z" class="D"/><path d="M346.39 232.81L332.92 216l23.36-18.67 13.48 16.86zm-10.66-16.54l11 13.73L367 213.83l-11-13.74zM360 236.81l-2.81-3.51a.41.41 0 0 1 .07-.59h0l1.93-1.54a.423.423 0 1 1 .53.66l-1.61 1.29.87 1.09 1.38-1.11a.423.423 0 1 1 .53.66l-1.39 1.11.88 1.09 1.61-1.29a.43.43 0 0 1 .59.08.41.41 0 0 1-.06.58l-1.93 1.54h0a.4.4 0 0 1-.59-.06zm3.9-5.22l-.73.59 1 1.29a.41.41 0 0 1-.07.59.43.43 0 0 1-.59-.07l-2.8-3.51a.4.4 0 0 1 .07-.58h0l1.06-.85a1.63 1.63 0 1 1 2 2.55zm-1.25-.07l.73-.59a.793.793 0 1 0-1-1.23l-.73.59zm3.67-.9a.39.39 0 0 1 .4-.39 2.55 2.55 0 0 0 1.5-.45 1.69 1.69 0 0 0 .57-.81.71.71 0 0 0-.09-.64.43.43 0 0 0-.21-.14.61.61 0 0 0-.32 0 3.12 3.12 0 0 0-1 .37h0a3.93 3.93 0 0 1-.95.38 1.6 1.6 0 0 1-.92 0 1.11 1.11 0 0 1-.53-.38 1.44 1.44 0 0 1-.22-1.25 2.22 2.22 0 0 1 .78-1.13 3 3 0 0 1 1.68-.57.41.41 0 0 1 .42.36.39.39 0 0 1-.36.43 2.23 2.23 0 0 0-1.26.38 1.48 1.48 0 0 0-.5.74.58.58 0 0 0 .07.55.47.47 0 0 0 .18.14.78.78 0 0 0 .28 0 2.39 2.39 0 0 0 .95-.33h0a4.73 4.73 0 0 1 1-.41 1.85 1.85 0 0 1 1 0 1.21 1.21 0 0 1 .54.39 1.48 1.48 0 0 1 .23 1.33 2.36 2.36 0 0 1-.83 1.22 3.26 3.26 0 0 1-2 .62.39.39 0 0 1-.41-.41z" class="F"/><g class="G"><path d="M361.54 162.17c11.51 8.68 35 30.34 31.44 37.7-5.84 12.09-24.17 26.46-30.17 29.93-2.61 1.52-18.05-16-15.87-18.42 2.63-2.85 22.9-16.28 22.28-18.16-.36-1.06-5.35-9.4-10.69-20.41-6.2-12.81-2.47-14.81 3.01-10.64z"/><path d="M325.78 222.93a3.69 3.69 0 0 0 3 3 5.48 5.48 0 0 0-.3 3.72c.71 2.15 4.38 2 4.38 2a6.74 6.74 0 0 0 .32 4c.88 2 4.61 2.36 4.61 2.36a5.93 5.93 0 0 0 2.48 3.31c3.28 1.94 8.44-.75 11.74-2.42s11.09-9.52 12.72-10.86l-10.56-21.26s-16.93 3.3-20.52 5.82c-3.08 2.09-8.25 7.47-7.87 10.33z"/></g><path d="M328.71 225.52c2.68-3 6.12-5.1 9.42-7.36.08 0 .15.07.08.12-3.32 2.21-6.15 5.05-9.37 7.39a.1.1 0 0 1-.13-.15zm4.04 5.81a10.51 10.51 0 0 1 2.25-1.59l2.52-1.49q2.55-1.45 5.18-2.78c.07 0 .15.07.07.12l-5 3-2.47 1.58a12.38 12.38 0 0 1-2.38 1.4.147.147 0 0 1-.17-.24zm5.07 6.6a7.27 7.27 0 0 1 2.1-1.33l2.35-1.29 4.64-2.65c.08 0 .15.07.08.11l-4.64 2.84-2.3 1.36a6.79 6.79 0 0 1-2.19 1s-.07.03-.04-.04z" class="B"/><path d="M382.64 177.47l-18.51 11.15s-7.51-13.09-9.61-22 3.38-9 10.64-3.9 17.48 14.75 17.48 14.75z" class="C"/><path d="M355.11 160.15l1.68-.74a5.79 5.79 0 0 1 1.86.12l-4.32 1.92a2.85 2.85 0 0 1 .78-1.3zm-1 4.25l8-3.53-1-.5-7 3.11a7.59 7.59 0 0 0 .02.92zm.49 2.64l10.19-4.51-.79-.53-9.54 4.22c0 .16.07.32.11.49a2.54 2.54 0 0 0 .05.29zm.72 2.53l11.91-5.27-.81-.59-11.36 5 .28.86zm.87 2.48l13.38-5.93-.78-.61-12.91 5.72.33.82zm1 2.43l14.7-6.51-.75-.62-14.28 6.32zm1 2.41l15.89-7-.74-.64-15.5 6.87c.16.23.24.5.36.77zm.72 1.58l.37.79 17-7.53-.72-.63zm1.12 2.36l.38.78 18-8-.71-.64zm1.16 2.34l.4.77 18.95-8.39-.71-.64zm1.21 2.32l.42.76 19.74-8.74h.06l-.68-.64zm1.25 2.3l.43.77.52-.23 6-3.63z" class="I"/><path d="M363.07 184.71a138.88 138.88 0 0 1 15.8-9.33s.11.11.08.13c-4.15 2.8-12.85 7.75-15.77 9.39-.06.03-.18-.15-.11-.19zm-5.36-6.78a0 0 0 0 1 .05 0l1.4 1.9q-1-2.24-1.87-4.5c0-.06.06-.09.08 0l6.78 13 1.5-.43a.07.07 0 0 1 .05.13c-.52.24-1 .52-1.53.81a.27.27 0 0 1-.37 0 69.27 69.27 0 0 1-4-7.56l-.84-1.14a17.64 17.64 0 0 1-1.25-2.21z" class="B"/><path d="M354.23 159.7c.18.89-1.29 7.86-5 9.36C348 169.54 345 163 345 163l-.32-.43-4.6-6.08 5.64-8.73.84-1.2 2.55 3.94.2.31a3.75 3.75 0 0 1 .24.36l.64 1c.21.35.32.5.48.77l.49.81a49.76 49.76 0 0 1 3.07 5.95z" class="G"/><path d="M349.12 150.48a15.31 15.31 0 0 1-4.43 12.07l-4.6-6.08 5.64-8.73.84-1.2 2.55 3.94z" class="B"/><path d="M324.46 148.34c1.69 13.28 9.83 13.76 12.69 13.4 2.6-.34 11.4-1.8 11.1-15.18s-7-16.79-13-16.34-12.48 4.85-10.79 18.12z" class="G"/><g class="B"><path d="M326 145.81a8.18 8.18 0 0 0 .87-.32 1.46 1.46 0 0 0 .82-.5.47.47 0 0 0-.09-.57 1.15 1.15 0 0 0-1.19-.1 1.7 1.7 0 0 0-1 .76.51.51 0 0 0 .59.73zm9.11-1.38c-.31 0-.61 0-.92-.06a1.51 1.51 0 0 1-.93-.23.47.47 0 0 1-.08-.58 1.16 1.16 0 0 1 1.11-.44 1.71 1.71 0 0 1 1.16.44.51.51 0 0 1-.34.87zM333.5 148s.08 0 .08.07c.09.91.34 1.93 1.19 2.13v.05c-1.01-.02-1.33-1.39-1.27-2.25z"/><path d="M334.19 146.94c1.44-.29 1.92 2.61.59 2.88s-1.78-2.63-.59-2.88z"/><path d="M334.79 147c.28.12.57.37.88.35s.58-.37.76-.7h.06c.1.56 0 1.17-.6 1.35s-1-.26-1.24-.8c-.04-.08.02-.2.14-.2zm-6.32 1.63s-.06.05-.05.09c.18.89.24 1.94-.52 2.38v.05c.99-.31.89-1.71.57-2.52z"/><path d="M327.51 147.83c-1.46.14-1.07 3 .28 2.92s.95-3.04-.28-2.92z"/><path d="M326.93 148.1c-.21.19-.4.5-.68.55s-.59-.22-.83-.49c0 0-.05 0 0 0 .05.56.32 1.12.87 1.16s.79-.5.85-1.07c-.03-.08-.14-.25-.21-.15zm7.9 7.25c-.17.25-.32.59-.64.68a2.46 2.46 0 0 1-1 0 0 0 0 0 0 0 .06 1.24 1.24 0 0 0 1.24.24 1 1 0 0 0 .53-.94 0 0 0 0 0-.13-.04zm-3.71-.93a3.75 3.75 0 0 0 1.58 1 1.7 1.7 0 0 0 1 0c.71-.26.67-.93.48-1.49a4.19 4.19 0 0 0-.4-.85 4.88 4.88 0 0 1-2.66 1.34z"/></g><path d="M332.7 155.43a1.7 1.7 0 0 0 1 0c.71-.26.67-.93.48-1.49a1.73 1.73 0 0 0-1.48 1.49z" fill="#ff97b8"/><path d="M330.56 152.67s0 1.38.12 2c0 .06.17.06.39 0h0a3.06 3.06 0 0 0 2.76-1.58c0-.06-.06-.12-.11-.07a4.61 4.61 0 0 1-2.63 1.21c-.08-.17 0-2.35-.06-2.34a5.21 5.21 0 0 0-1.39.55v-8.57a.09.09 0 0 0-.18 0 46.75 46.75 0 0 0-.43 9.22c.06.41 1.3-.27 1.53-.42z" class="B"/><path d="M348.89 151.45a2.56 2.56 0 0 1-.57.29 2.09 2.09 0 0 1-.61.15 1.78 1.78 0 0 1-.81-.08 2.33 2.33 0 0 1-.57-.28 2.52 2.52 0 0 1-.66-.62v-3.65s2-4.7 4-4.08 1.23 7-.78 8.27z" class="G"/><path d="M349.39 145a0 0 0 0 1 0 .05 5.76 5.76 0 0 0-2.14 4.12 1.25 1.25 0 0 1 1.76-.72v.09a1.37 1.37 0 0 0-1.39.8 7 7 0 0 0-.46 1.36c0 .15-.3.13-.28 0h0c-.46-2.01.47-5.06 2.51-5.7z" class="B"/><path d="M348.59 150.94a.62.62 0 1 1-1.24.02.63.63 0 0 1 .62-.63.61.61 0 0 1 .62.61zm1.05-1.18a.44.44 0 0 1-.43.44.44.44 0 0 1-.45-.43.44.44 0 0 1 .44-.44.43.43 0 0 1 .44.43z" class="F"/><path d="M347.59 146.45c-2.14.58-3.45-4.37-3.45-4.37s-4.42.85-7.09-5.23a10 10 0 0 0 2.95 4.88s-8 1.14-12.52-4.76c0 0 1.94 3.08 3.39 4a9.34 9.34 0 0 1-5.54-2.65s-.65 4-1.51 5.27c0 0-2.26-13.71 10.65-14.66 0 0 8-1 12 4.75s1.12 12.77 1.12 12.77z" class="B"/><path d="M257.9 433.05c-2 .61-59.52-1.29-61.66-2.76-.82-.54-1-8.93-1-19.08v-.32c0-2.09.9-37.16.9-37.16l40.24 1.21-4 36.76v.63s21.62 10.57 23.8 12.43 3.75 7.69 1.72 8.29z" class="H"/><path d="M257.9 433.05c-2 .61-59.52-1.29-61.66-2.76-.82-.54-1-8.93-1-19.08v-.32c0-.57 0-3.42.17-7.73l37.72 1.45-.78 7.09v.63s21.69 10.58 23.87 12.43 3.71 7.68 1.68 8.29z" class="D"/><path d="M258.34 433.3c-2 .61-60.1-1.32-62.27-2.8-.83-.55-1-9-1-19.27l37.43 1.14s21.89 10.68 24.1 12.55 3.79 7.77 1.74 8.38z" class="C"/><g class="B"><path d="M257.58 431c-9.72-.57-49-1.92-58.64-1.74-.08 0-.09.06 0 .06 9.63.77 48.91 1.81 58.65 1.84.19-.05.2-.16-.01-.16zm-4.65-8.29a7.85 7.85 0 0 0-5.9 2.18 7.56 7.56 0 0 0-2.34 5.13c0 .06.1.06.11 0a9 9 0 0 1 8.13-7.19.06.06 0 1 0 0-.12zm-16.69-9.24c-3.89-.19-8.45 1-11 4.14-.1.12.07.26.19.2a54 54 0 0 1 10.86-3.81.266.266 0 0 0-.05-.53zm2.97 1.27c-3.89-.19-8.46 1-11 4.14-.1.12.07.26.19.21a53.83 53.83 0 0 1 10.84-3.87.24.24 0 0 0-.03-.48z"/><path d="M242.18 416c-3.9-.18-8.46 1-11 4.15-.1.12.07.25.19.2a53.83 53.83 0 0 1 10.84-3.87.24.24 0 0 0-.03-.48zm2.96 1.28c-3.89-.18-8.45 1-11 4.15-.09.12.08.26.2.2a53.83 53.83 0 0 1 10.84-3.87.241.241 0 0 0-.04-.48zm-43.42 2.77c-4.37-.13-4.58 6.66-.2 6.8s4.58-6.66.2-6.8zm39.08-16.84c-1.92-1.7-4.46-.18-5.73 1.47a20.51 20.51 0 0 0-3.87 9.85c0 .08.05.11.12.11a.48.48 0 0 0 .69.34c2.83-1.83 6.09-3.43 8.29-6.07 1.28-1.54 2.31-4.09.5-5.7zm-5.06 8.12c-1.37.93-2.78 1.79-4.12 2.77a60.07 60.07 0 0 1 2.39-5.69 19.55 19.55 0 0 1 1.51-2.58c.89-1.26 4.82-4.39 5.06-.14.14 2.31-3.2 4.53-4.84 5.64z"/><path d="M221.47 415.65c3.38.63 6.91-.22 10.26-.62a.48.48 0 0 0 .31-.7.11.11 0 0 0 0-.17 20.4 20.4 0 0 0-9.26-5.1c-2-.47-5 0-5.35 2.52s2.07 3.7 4.04 4.07zm-2.27-2.3c-2.53-3.43 2.5-3.53 4-3.13a23 23 0 0 1 2.81 1 59.45 59.45 0 0 1 5.48 2.87c-1.66.09-3.29.33-4.95.49-1.99.21-5.95.66-7.34-1.23z"/></g><path d="M235.62 408.9h-45s8-61.29 5.35-65.29c-.48-.72-10.51-.17-23.38-.52-18.63-.52-43.22-2.94-53.33-13.9-15.63-16.93.28-48.65.28-48.65h48s1 13.6 3.56 19c.1.21.63.37 1.52.51 8.91 1.37 53.93-.11 61.56 13.81 11.16 20.49 1.44 95.04 1.44 95.04z" class="K"/><g class="B"><path d="M195.35 400.34l15.26-.35c5.08 0 10.2.11 15.29.31l6.38.31a15.91 15.91 0 0 1 2.07.18c.08 0 .06.12 0 .13-1.11.2-12.63.33-15.16.33-5.06 0-10.12-.13-15.19-.31l-8.63-.33c-.16-.01-.18-.27-.02-.27zm5.46-59.63a2.64 2.64 0 0 0-2.2-2.09 22 22 0 0 0-3.89-.08l-9 .07c-11.82 0-23.73-.31-35.35-2.64a82.42 82.42 0 0 1-16.53-5c-4.5-1.95-9-4.63-11.82-8.78-3.24-4.77-3.49-11-3.38-16.6a63.88 63.88 0 0 1 2.89-17.78q.69-2.19 1.56-4.32c0-.09-.1-.17-.13-.07a61.16 61.16 0 0 0-4.69 17.15 58.22 58.22 0 0 0-.4 8.76 33.38 33.38 0 0 0 1.11 8.5c3.06 10.45 14.77 14.77 24.25 17.43 11.39 3.19 23.28 4.08 35.07 4.26 5.93.08 11.86 0 17.78-.08 1.14 0 3-.34 3.67.85a6.59 6.59 0 0 1 .53 2.15c.13.84.22 1.68.29 2.52a71.12 71.12 0 0 1-.13 9.46q-.57 9.58-1.33 19.17l-1.69 19.26c-.11 1.58-.27 3.15-.42 4.72 0 .18.3.22.32 0 1.64-12.7 2.82-25.46 3.66-38.24.2-3.15.44-6.31.52-9.47a33.89 33.89 0 0 0-.69-9.15z"/><path d="M172.57 300.08v43c-18.63-.52-43.22-2.94-53.33-13.9-15.63-16.93.28-48.65.28-48.65h48s1 13.6 3.56 19c.07.25.6.41 1.49.55z"/></g><path d="M44.12 430.62c.23-2.1 24.44-54.28 26.62-55.68.82-.55 8.63 2.54 18 6.54l.29.12c1.93.82 37.42 10.36 37.42 10.36l-15.73 34.15-36.97-10.67-.57-.28S55 431 52.42 432.28s-8.54.45-8.3-1.66z" class="H"/><path d="M95.74 383.59l-16.18 33.52-5.81-1.67-.57-.28S55 431 52.42 432.27s-8.55.46-8.3-1.64 24.44-54.3 26.62-55.69c.82-.55 8.63 2.53 18 6.54l.28.12c.45.21 3.07.97 6.72 1.99z" class="D"/><path d="M43.91 430.88c.23-2.12 24.5-54.9 26.69-56.32.83-.55 8.73 2.54 18.16 6.54l-15.55 34.07s-18.33 16.05-20.91 17.35-8.62.48-8.39-1.64z" class="C"/><g class="B"><path d="M46.37 431.1c4.28-8.75 20.74-44.43 24.31-53.4 0-.07 0-.1-.05 0-4.44 8.55-20.63 44.36-24.41 53.3-.08.22.06.28.15.1zm9.39-1.1a7.83 7.83 0 0 0 .28-6.28 7.55 7.55 0 0 0-3.82-4.15s-.1.07 0 .1A9 9 0 0 1 55.65 430c-.02 0 .08.07.11 0zm14.99-11.81c1.68-3.52 2.32-8.2.43-11.73-.07-.13-.26 0-.26.1a53.92 53.92 0 0 1-.63 11.49.24.24 0 0 0 .46.14zm-2.32 2.25c1.68-3.52 2.32-8.2.43-11.73-.07-.14-.27 0-.26.1a54 54 0 0 1-.6 11.49.24.24 0 0 0 .43.14z"/><path d="M66.11 422.68c1.67-3.52 2.31-8.2.43-11.73-.07-.14-.27 0-.26.1a53.28 53.28 0 0 1-.64 11.49.25.25 0 0 0 .47.14zm-2.32 2.24c1.67-3.52 2.31-8.2.43-11.73-.08-.13-.27 0-.26.1a54.58 54.58 0 0 1-.64 11.49.25.25 0 0 0 .47.14zm14.26-41.1c1.81-4-4.37-6.81-6.18-2.83s4.36 6.81 6.18 2.83zm.39 42.54c2.31-1.11 1.9-4 .86-5.85a20.46 20.46 0 0 0-7.57-7.38.1.1 0 0 0-.15.07c-.29 0-.64.16-.58.5.58 3.33.79 6.95 2.38 10 .93 1.77 2.88 3.71 5.06 2.66zm-5.53-7.8c-.32-1.63-.57-3.26-1-4.88a60 60 0 0 1 4.33 4.41 22 22 0 0 1 1.8 2.39c.81 1.31 2.17 6.15-1.84 4.73-2.2-.79-2.9-4.71-3.29-6.65z"/><path d="M74.46 403.73c-1.89 2.87-2.48 6.45-3.4 9.7-.09.33.23.57.53.56a.1.1 0 0 0 .14.08A20.4 20.4 0 0 0 80 407.5c1.22-1.69 1.93-4.56-.25-5.9s-4.19.46-5.29 2.13zm3-1.21c4.14-1 2.29 3.67 1.34 4.89a22.12 22.12 0 0 1-2 2.19 57.83 57.83 0 0 1-4.8 3.94c.55-1.56 1-3.16 1.46-4.75.59-1.89 1.72-5.72 4-6.27z"/></g><path d="M168.06,280.56s2.72,12.94,2.56,19.53c0,0-6.6,10.65-7.6,11.28,0,0,22.38,62.95,20.93,86.36-.47,7.67-8.64,17.38-17.42,22.85-15.53,9.66-86.95,4.08-86.95,4.08l11-45.59s43,2.67,44.22.08c1.54-3.29-8-28.88-15.63-49.68-.77-2.1-8.44-9.85-7.55-23.87a72.6,72.6,0,0,1,6.6-25Z" class="K"/><g class="B"><path d="M99.33 384.14c10.45-.19 19 .7 29.44.7h6.92a11.43 11.43 0 0 0 2.73-.25 3.35 3.35 0 0 0 2.1-1.25c.69-1 .32-2.35.08-3.48-.52-2.46-1.12-4.9-1.77-7.33-2.63-9.88-6.07-19.53-9.31-29.23l-5-15c-.41-1.22-.81-2.43-1.32-3.61a31.14 31.14 0 0 0-1.65-3.13 29.46 29.46 0 0 1-2.84-6.17c-2.83-9.3-.11-18.93 3.2-27.7q.66-1.77 1.38-3.51a.07.07 0 0 1 .14 0c-3 9.26-6.61 18.9-4.59 28.78a23.9 23.9 0 0 0 2.42 6.65l1.78 3.16a25.72 25.72 0 0 1 1.45 3.37c1.78 4.91 3.35 9.9 5 14.85 3.3 9.84 6.78 19.65 9.53 29.67q1 3.74 1.88 7.52c.42 1.86 1.35 4.4-.27 5.94-1.19 1.12-3.06 1.26-4.61 1.27h-7.82c-10.61 0-27.58-.92-28.89-.94a.19.19 0 0 1 .02-.31zm-11.7 38.4l3.19-16c1.19-5.33 2.45-10.59 3.83-15.86l1.18-4.45.59-2.12a19.92 19.92 0 0 1 .65-2.12c0-.08.14 0 .13 0a29.93 29.93 0 0 1-.72 4.09l-.78 3.86q-.81 4-1.68 7.91c-1.15 5.28-2.46 10.52-3.81 15.75q-1.14 4.47-2.31 8.92a.14.14 0 0 1-.27.02zM162 301.2l-.46-4.93c-.31-3.75-.58-7.52-.6-11.27 0-.29.37-.24.4 0l.65 8.74c.23 2.91.39 5.83.81 8.7.12.87.41 2.32 1.39 2.43 1.3.14 1.59-1.82 1.73-2.88a52.94 52.94 0 0 0 .3-8.07c-.07-3.08-.35-6.18-.59-9.26 0-.11.16-.11.18 0 1 6.05 1.94 12.37.87 18.36-.2 1.17-.7 2.39-1.81 2.7h-.06a.25.25 0 0 1 0 .11v.51.44.9c0 .3-.35.25-.39 0a.17.17 0 0 1-.14-.16 5.2 5.2 0 0 1 .07-1.76 2 2 0 0 1-1.59-1.12 8.62 8.62 0 0 1-.76-3.44z"/><path d="M168.62 303.49a77.09 77.09 0 0 0-8.57 10.25c-.1.15.09.32.21.18 3-3.32 6-6.61 8.76-10.09a.262.262 0 0 0-.4-.34zm-38.57-1.74a18.87 18.87 0 0 0 3.1-.24 25.21 25.21 0 0 0 2.69-.68c1.66-.49 3.69-1.07 4.9-2.39a17.5 17.5 0 0 0 2.78-4.79 19.26 19.26 0 0 0 1.63-5.71c0-.09.15-.09.14 0a29.55 29.55 0 0 1-1 6.05 19.54 19.54 0 0 1-1.13 2.86 8 8 0 0 1-7 5.1 17 17 0 0 1-6.11 0c-.17.05-.12-.19 0-.2z"/></g><g class="H"><path d="M175.32 238.26c8.69 12.5 22 29 29.63 29.46 6 .36 23.5-7.22 36-15.46 2.51-1.65-16.57-22-18.18-20.58-4.74 4-16.15 14.77-17 14.2-1.15-.74-14.21-8-24-15.74-11.87-9.29-12.24-.2-6.45 8.12z"/><path d="M240.29,252.57C243,251.41,255,245,257.88,242.48s10.83-10.41,9.12-12.84-4.2-.32-4.2-.32,2.81-3.86.86-6.16S258,224.3,258,224.3s2.59-4.17.49-6.33-5.32,1.93-5.32,1.93,2.55-3.7.07-4.75c-3-1.25-6.91,6.1-10.35,8.65-.78.58-16.68,10.59-16.68,10.59Z"/></g><path d="M253.4 219.56c-2.9 5.4-5.11 7.26-10.36 10.23-.11.06 0 .23.07.18 5.41-2.44 8.52-4.38 10.56-10.29.1-.28-.13-.38-.27-.12zm4.77 4.3c-3.51 5.35-5.88 7.39-11.16 10.91-.07 0 0 .18.08.14 5.47-3 8.52-5 11.32-10.83.13-.26-.08-.46-.24-.22zm4.35 5.63c-3.76 4.93-6.27 7.28-11.83 10a.114.114 0 0 0 .09.21c5.94-2.26 9.09-5.17 11.88-10.12.19-.3.1-.4-.14-.09z" class="B"/><path d="M280.33 237.8l-36.87 9.99-12.83-47.33 27.38-7.42 11.94 6.45 10.38 38.31z" class="D"/><g class="E"><path d="M258.01 193.04l11.94 6.45-9.5 2.57-2.44-9.02zm-1.608 8.686l-20.603 5.522-.328-1.222 20.603-5.522zm.826 3.048l-20.603 5.522-.328-1.222 20.603-5.522zm.837 3.047l-20.603 5.522-.328-1.222 20.603-5.522zm11.168 1.907l-30.036 8.144-.33-1.216 30.036-8.144z"/><use xlink:href="#C"/><use xlink:href="#C" x="0.837" y="3.048"/><path d="M271.732 218.94l-30.036 8.144-.33-1.216 30.036-8.144zm.816 3.067l-30.036 8.144-.33-1.216 30.036-8.144z"/><use xlink:href="#C" x="3.33" y="12.204"/><use xlink:href="#C" x="4.157" y="15.252"/><use xlink:href="#C" x="4.996" y="18.31"/><use xlink:href="#C" x="5.833" y="21.357"/></g><path d="M282.18 240.28l-34.88 18.84-24.61-45.56 26.3-14.21 13.22 3.95 19.97 36.98z" class="C"/><path d="M282.18 240.28l-34.88 18.84-24.61-45.56 26.3-14.21 13.22 3.95 19.97 36.98z" opacity=".6" class="F"/><g class="C"><path d="M262.21 203.3l-8.58 4.64-4.64-8.59 13.22 3.95zm-22.78 21.96a3 3 0 1 0 1.18-4 3 3 0 0 0-1.18 4zm10.25 9.38l17.64-9.53-14.63-6-3.01 15.53z"/><path d="M242.77 238.38l14.56-7.87-11.07-3.08-3.49 10.95z"/></g><path d="M242.77 238.38l14.56-7.87-11.07-3.08-3.49 10.95z" class="I"/><path d="M242.36 239.73l-10.25-19 26.31-14.21 10.26 19zm-7.54-18.18l8.35 15.45L266 224.71l-8.36-15.47zm17.33 23.88a1.035 1.035 0 0 0 1.65-1.25l-1.43-2.66a.41.41 0 0 1 .17-.57.42.42 0 0 1 .57.16l1.44 2.66a1.9 1.9 0 0 1-3 2.27.428.428 0 1 1 .6-.61zm4.96-3.25l-.83.45.79 1.45a.42.42 0 0 1-.18.57.41.41 0 0 1-.56-.17l-2.14-3.95a.42.42 0 0 1 .17-.57h0l1.19-.64a1.63 1.63 0 1 1 1.55 2.86zm-1.23-.29l.83-.45a.78.78 0 0 0 .32-1.06.79.79 0 0 0-1.07-.32l-.82.44zm4.35.48l-2.13-4a.41.41 0 0 1 .17-.57h0l2.17-1.17a.421.421 0 0 1 .4.74l-1.82 1 .67 1.22 1.56-.84a.421.421 0 0 1 .4.74l-1.56.84.66 1.24 1.82-1a.42.42 0 0 1 .57.17.43.43 0 0 1-.17.57l-2.17 1.17h0a.41.41 0 0 1-.57-.11zm2.67-4.07a2.81 2.81 0 0 1 3-4.05.43.43 0 0 1 .37.5.44.44 0 0 1-.51.35 2 2 0 0 0-1.25.21 1.84 1.84 0 0 0-.94 1.14 1.79 1.79 0 0 0 1.25 2.32 1.87 1.87 0 0 0 1.47-.16 2.16 2.16 0 0 0 .78-.75l-.5-.92-1 .52a.45.45 0 0 1-.59-.18.44.44 0 0 1 .18-.58l1.32-.71h0a.43.43 0 0 1 .59.17l.8 1.48a.56.56 0 0 1 0 .12h0 0a.39.39 0 0 1 0 .23 2.82 2.82 0 0 1-1.24 1.34 2.76 2.76 0 0 1-3.73-1.03z" class="C"/><path d="M221.26 233.73s4.5-6.23 7.09-8.53 15.35-7.32 16.6-4.63c1.6 3.49-5.2 7.84-8.81 9.54 0 0 3.72 8.06-.49 12.24s-14.39-8.62-14.39-8.62z" class="H"/><path d="M245.08 221.68c-.83 4.23-5.72 6.15-9.1 8.06a.36.36 0 0 0-.08.58c1.33 3.48 2.2 8.78 0 12a.09.09 0 0 0 .14.11c2.85-3.17 2.42-8.44.71-12.16 3.5-1.9 8.31-4.05 8.38-8.62-.01.01-.05 0-.05.03z" class="B"/><path d="M219.54 233.63L237 256.8s-27.19 14-35.44 12.42c-4.82-.92-22.31-22.2-29.15-33.9-3.72-6.34-3.31-12.21 4.2-9 7.25 3.14 27.24 17.82 28.86 17.59s14.07-10.28 14.07-10.28z" class="C"/><path d="M208.34 256.59a7.66 7.66 0 0 0 0 5.06 7.34 7.34 0 0 0 0-5.06zm4.95-10.47a7 7 0 0 0-2.53.45 6.82 6.82 0 0 0 2.53.44 6.51 6.51 0 0 0 2.52-.44 6.52 6.52 0 0 0-2.52-.45zm-12.77 21.53a7.61 7.61 0 0 0-1.57.16l1 .7h.56a6.75 6.75 0 0 0 2.53-.44 6.39 6.39 0 0 0-2.52-.42zm-16.93-24.27a6.75 6.75 0 0 0-2.1-1.48 7.31 7.31 0 0 0 3.58 3.58 7.1 7.1 0 0 0-1.48-2.1zm44.76 2.88a6.34 6.34 0 0 0-2.1-1.48 6.94 6.94 0 0 0 1.47 2.11 6.87 6.87 0 0 0 2.12 1.47 7.18 7.18 0 0 0-1.49-2.1zm-32.77 6a6.64 6.64 0 0 0-1.48 2.1 7.38 7.38 0 0 0 3.58-3.59 6.78 6.78 0 0 0-2.1 1.5zm26.8 5.81a6.64 6.64 0 0 0-1.48 2.1 6.66 6.66 0 0 0 2.1-1.47 6.84 6.84 0 0 0 1.48-2.12 6.67 6.67 0 0 0-2.1 1.5zm-27.55-20.53a5.86 5.86 0 0 0 .4 1.84 6.06 6.06 0 0 0 .36-1.34z" class="F"/><path d="M229.49 257.15a44.45 44.45 0 0 1-3.53-4.33l-3.29-4.36-3.14-4.34-1.53-2.23-.83-1.21a15.75 15.75 0 0 0-.92-1.38.07.07 0 1 1 .11-.08c.3.46.71.85 1 1.28l.86 1.06 1.76 2.21 3.3 4.35 3.16 4.32a42.23 42.23 0 0 1 3.13 4.63c.08.07-.02.14-.08.08z" class="B"/><path d="M190.62,259.67l-.21-.24c-6.56-7.38-14.08-17.34-18-24.1-2.68-4.57-3.21-8.88-.51-9.73Z" class="I"/><path d="M113.43 285c.07.2 56.68 21.71 57.41 21.32 1-.55 11.35-66.76 8.39-76.54-.63-2.09-4.57-4.08-8.22-5a16 16 0 0 0-2.89-.46H168a6.68 6.68 0 0 0-2.34.22c-12.63 4.09-31 28.11-36 35.52-8.15 12.28-16.5 24.28-16.23 24.94z" class="C"/><path d="M162.72 267.34a6.64 6.64 0 0 0-1.48 2.1 6.66 6.66 0 0 0 2.1-1.47 7 7 0 0 0 1.48-2.12 6.83 6.83 0 0 0-2.1 1.49zm-20.56 24.4a6.78 6.78 0 0 0-1.47 2.1 6.9 6.9 0 0 0 2.1-1.47 7 7 0 0 0 1.47-2.1 6.61 6.61 0 0 0-2.1 1.47zm-14.57-26.46a6.73 6.73 0 0 0-1.47 2.1 7 7 0 0 0 2.1-1.47 6.78 6.78 0 0 0 1.47-2.1 6.9 6.9 0 0 0-2.1 1.47zM131.8 281a6.41 6.41 0 0 0-2.1-1.47 7 7 0 0 0 1.47 2.1 6.78 6.78 0 0 0 2.1 1.47 6.78 6.78 0 0 0-1.47-2.1zm20.2-38.6a7 7 0 0 0-2.1-1.47 6.61 6.61 0 0 0 1.47 2.1 6.82 6.82 0 0 0 2.11 1.47 7.1 7.1 0 0 0-1.48-2.1zm22.39 36.49a6.84 6.84 0 0 0-2.53.43 7.1 7.1 0 0 0 2.53.46c.33 0 .66 0 1-.07 0-.25.07-.5.11-.75a8 8 0 0 0-1.07-.07zm-7.08-28a7.27 7.27 0 0 0-2.53.45 7.49 7.49 0 0 0 5.06 0 7.23 7.23 0 0 0-2.49-.5zm-49.91 35.1a7.81 7.81 0 0 0-1.43.15l1.89.73h0a6.08 6.08 0 0 0 2.06-.43 7.23 7.23 0 0 0-2.48-.5zm30.7-9.85a7 7 0 0 0-2.52.45 7.47 7.47 0 0 0 5 0 7 7 0 0 0-2.44-.5zm11.92 11a6.66 6.66 0 0 0-.44 2.53 6.87 6.87 0 0 0 .44 2.54 7.32 7.32 0 0 0 .45-2.54 7.08 7.08 0 0 0-.41-2.62zm-13.84-29a6.82 6.82 0 0 0-.44 2.53 6.7 6.7 0 0 0 .44 2.52 6.71 6.71 0 0 0 .45-2.52 6.83 6.83 0 0 0-.41-2.67zm30.26 2.53a7.31 7.31 0 0 0 0 5 7.47 7.47 0 0 0 0-5zm-8.23-29.83a7.52 7.52 0 0 0 0 5.07 7.37 7.37 0 0 0 0-5.07z" class="F"/><path d="M175.8 236.26c-3.11-.11-7.45-6.5-8.44-10.66-.06-.29 1-2.8 2.22-5.92.72-1.89 1.47-4 2-6l11.65 6.45a33 33 0 0 0-3.3 7.31 5.26 5.26 0 0 0-.14.84.36.36 0 0 1 0 .14c-.18 1.58-.98 7.94-3.99 7.84z" class="H"/><path d="M172 213.9c-.43 2.68-1.26 11.83 6.49 14.23a7.61 7.61 0 0 0 1.3.28v-.14a4.29 4.29 0 0 1 .13-.84 32.85 32.85 0 0 1 3.3-7.3zm15.17-17.19s3.91 1.66 4.6 5.65-.24 8.15-.59 8.35-4.01-14-4.01-14z" class="B"/><path d="M169.8 201.64c-1.36 4.6 1.17 17.83 4.45 20.75 4.76 4.25 12.51 4.6 16.1-1.12 3.49-5.54-.11-22.72-3.78-25.38-5.4-3.89-14.76-1.04-16.77 5.75z" class="H"/><g class="B"><path d="M182.49 210.15s-.06 0-.05.09c.2.88.27 1.93-.48 2.38 0 0 0 .06 0 0 .97-.27.86-1.62.53-2.47z"/><path d="M181.53 209.36c-1.46.16-1 3.06.31 2.91s.9-3.04-.31-2.91zm6.47-.14s.08 0 .08.07c.11.9.38 1.92 1.23 2.1a0 0 0 0 1 0 .05c-1.03 0-1.37-1.35-1.31-2.22z"/><path d="M188.65 208.17c1.43-.32 2 2.56.64 2.85s-1.84-2.58-.64-2.85zm-8.46.04c.38-.16.7-.37 1.06-.56a2 2 0 0 0 1-.78.63.63 0 0 0-.21-.73 1.52 1.52 0 0 0-1.55.07 2.26 2.26 0 0 0-1.15 1.15.67.67 0 0 0 .85.85zm9.37-1.66c-.41 0-.79-.09-1.2-.14a1.91 1.91 0 0 1-1.19-.36.62.62 0 0 1-.08-.75 1.55 1.55 0 0 1 1.47-.51 2.27 2.27 0 0 1 1.49.65.67.67 0 0 1-.49 1.11zm-6.65 11.75a1.34 1.34 0 0 0 .83.41 2.47 2.47 0 0 0 .93-.36 0 0 0 0 1 .05 0 1.24 1.24 0 0 1-1.07.65 1 1 0 0 1-.83-.69s.05-.04.09-.01zm.55-2.83a3.05 3.05 0 0 0 2.24 1.06 3.74 3.74 0 0 0 1.1-.11h.21l.19-.06a.23.23 0 0 0 .15-.23h0a.36.36 0 0 0 0-.1h0v-.08l-.31-1.74c.27.09 1.65.49 1.57.13a46.57 46.57 0 0 0-2.53-9.08.08.08 0 0 0-.16 0c.47 2.87 1.45 5.64 2 8.51a5.66 5.66 0 0 0-1.51-.23c-.09.05.47 2 .48 2.32h0a4.3 4.3 0 0 1-3.31-.52c-.13 0-.19.07-.12.13z"/></g><path d="M172.72,212.41s-3.12-4.2-5-3.07.51,7.26,2.82,8a2.32,2.32,0,0,0,3.07-1.33Z" class="H"/><g class="B"><path d="M168.43 211.08a0 0 0 0 0 0 .06 5.88 5.88 0 0 1 3.13 3.59 1.27 1.27 0 0 0-1.92-.3v.08a1.46 1.46 0 0 1 1.59.46 7.33 7.33 0 0 1 .79 1.25c.07.14.33.06.27-.11h0c0-2.11-1.67-4.89-3.86-5.03zm2.93 1.18c2.31-.47 2-6.38 2-6.38s2.83-1.27 3.41-6.7c0 0 2.32 5.16 11.93 3.36a8.36 8.36 0 0 0-1-5 34.44 34.44 0 0 1 2.78 5.06s1.8-8.2-5.26-10.59c-2.8-.95-6.94-.45-13 3.08 0 0-1.46-3.7-2.15-3.16s.93 4 .93 4-2.83-.68-3.26-.07 2.26 1.04 2.26 1.04a5.51 5.51 0 0 0-3.13 6.48c.92 4.44 3.35 9.11 4.49 8.88z"/><path d="M170.74 196.78a5 5 0 0 0-4.84 4.57 9.31 9.31 0 0 0 .85 4.15 17.61 17.61 0 0 0 2.31 3.81c.05.07.15 0 .09-.09a13.52 13.52 0 0 1-1.89-3.61 12.55 12.55 0 0 1-.86-3.81 4.82 4.82 0 0 1 4.36-4.87c.08-.01.06-.15-.02-.15zm8.81-5.78a19.57 19.57 0 0 0-4.63 2.05 14.33 14.33 0 0 0-3.75 3c0 .07 0 .15.09.1a25.48 25.48 0 0 1 8.06-4.38c2.68-1 5.9-1.17 8.13.92 0 0 .09 0 .05-.06-2-2.18-5.24-2.36-7.95-1.63z"/></g><g class="H"><path d="M155.8 230.76c-12.63 10-40.28 33.31-36.42 41.59 6.35 13.62 26.7 29.74 33.32 34 2.85 1.82 20.45-17.68 18-20.38-2.89-3.24-23-18.53-22.77-19.65s8.85-15.55 13.71-27.39c6.06-14.74-.56-12.36-5.84-8.17z"/><path d="M166.42 283s9.07 6.47 15 9.73c3.33 1.83 8.75 5.46 10.59 7.92 2.74 3.67 11.85 20.79 7.75 23.09-3.72 2.08-9.68-13.62-9.68-13.62s7.42 15.31 2.48 17-9.31-17-9.31-17 7.27 15.91 1.91 16.84c-4.05.7-9-16-9-16s6.15 13.72 2 14.62c-4.57 1-10.07-14.09-10.07-14.09-10.9.52-17-6.65-20.53-10.11-.76-.76 18.86-18.38 18.86-18.38z"/></g><path d="M188.33 305.55c3.56 6.55 5.59 14 5.89 17.08 0 .38.06.71.06.69-1.22-3.83-5.25-15.9-6-17.75-.04-.04.03-.06.05-.02zm-7.16 1.78c3.41 4.57 5 11.58 5.82 14 .07.19-.05.16-.12 0-.93-2.37-4.72-11.62-5.75-13.94-.02-.08.03-.09.05-.06zm-5.91 1.85a26.6 26.6 0 0 1 3.93 10.37c0 .2-.1.14-.17-.05-1.32-3.67-2.07-6-3.88-10.25-.03-.07.07-.14.12-.07z" class="B"/><path d="M171.51 284.67l-21.37 24.62s-31.48-30.26-31.59-38.6 30.1-36.26 38.32-41.37 9.45-1.72 7 6.1-15.49 30.58-15.47 31.06 23.11 18.19 23.11 18.19z" class="C"/><path d="M146.22 258a6.82 6.82 0 0 0-.44 2.53 6.7 6.7 0 0 0 .44 2.52 6.71 6.71 0 0 0 .45-2.52 6.83 6.83 0 0 0-.45-2.53zm13.84 29a6.66 6.66 0 0 0-.44 2.53 6.87 6.87 0 0 0 .44 2.54 7.32 7.32 0 0 0 .45-2.54 7.08 7.08 0 0 0-.45-2.48zm-11.92-11a7 7 0 0 0-2.52.45 7.47 7.47 0 0 0 5 0 7 7 0 0 0-2.48-.36zm-13.62-27.22h0l-.75.76a6 6 0 0 0 2-.42 5.17 5.17 0 0 0-1.25-.25zM152 242.4a7 7 0 0 0-2.1-1.47 6.61 6.61 0 0 0 1.47 2.1 6.82 6.82 0 0 0 2.11 1.47 7.1 7.1 0 0 0-1.48-2.1zM131.8 281a6.41 6.41 0 0 0-2.1-1.47 7 7 0 0 0 1.47 2.1 6.78 6.78 0 0 0 2.1 1.47 6.78 6.78 0 0 0-1.47-2.1zm21 22.08a6.61 6.61 0 0 0-2.1-1.47 6.9 6.9 0 0 0 1.47 2.1 7.07 7.07 0 0 0 1.72 1.28l.18-.2a6.57 6.57 0 0 0-1.3-1.7zm-25.18-37.81a6.73 6.73 0 0 0-1.47 2.1 7 7 0 0 0 2.1-1.47 6.78 6.78 0 0 0 1.47-2.1 6.9 6.9 0 0 0-2.13 1.48zm14.57 26.46a6.78 6.78 0 0 0-1.47 2.1 6.9 6.9 0 0 0 2.1-1.47 7 7 0 0 0 1.47-2.1 6.61 6.61 0 0 0-2.13 1.48z" class="F"/><path d="M172 284.55c.11-.14-22-17.23-23.35-18.39 2.12-3.36 4-6.89 5.85-10.4l1.76-3.43a53.08 53.08 0 0 0 1.12-1.5c.6-.9 1.16-1.82 1.68-2.77a0 0 0 0 0-.07 0l-1.86 2.65-.06.09a3.59 3.59 0 0 1 .17-.34l1.26-2.59.58-1.27a7.93 7.93 0 0 1 .4-.83c.21-.36 0-.18.24-.68 0-.05-.06-.08-.09 0-.42.72-.1 0-.46.81-.1.21-.24.41-.35.62l-.67 1.23-1.43 2.7q-1.37 2.59-2.76 5.18l-5.77 10.51a.21.21 0 0 0 0 .24.18.18 0 0 0 .06.14c1.34 1.19 21.9 17.33 23.1 18.33l-.38.46c-.14.2-.29.38-.43.57s0 .18.1.11.33-.37.48-.56a8.93 8.93 0 0 0 .88-.88zm-17 7.54c1.5-1.7 7.57-8.44 9.2-10h.06c-1.27 1.79-7.06 8.62-8.57 10.33a124.56 124.56 0 0 1-9.3 9.92c-.06.05-.17 0-.12-.09 2.65-3.55 5.73-6.81 8.73-10.16zm-19.51 2.17c-.71-.79-1.34-1.67-2-2.49l-2-2.48-4-4.89-3.88-5-1.93-2.55a18.53 18.53 0 0 0-2-2.51.07.07 0 0 0-.11.07 14.74 14.74 0 0 0 1.66 2.51l1.88 2.6 3.91 5.09 4.06 5 2.12 2.41 2.19 2.35a.074.074 0 1 0 .1-.11z" class="B"/><g class="C"><path d="M162.67 324.49h153.59v111.56H162.67z"/><path d="M259.17 312.94h57.02l.01 11.55h-60.29l3.26-11.55z"/></g><g opacity=".2"><path d="M162.67 324.49h153.59v111.56H162.67z"/><path d="M259.17 312.94h57.02l.01 11.55h-60.29l3.26-11.55z"/></g><path d="M224.86 334.8l-40.62 7.63-9.8-52.15 30.16-5.66 12.32 7.96 7.94 42.22z" class="D"/><g class="E"><path d="M204.6 284.62l12.32 7.96-10.46 1.97-1.86-9.93zm-1.706 10.751l-22.585 4.243-.251-1.337 22.585-4.243zm.627 3.386L180.936 303l-.251-1.337 22.585-4.243zm.647 3.375l-22.585 4.243-.251-1.337 22.585-4.243z"/><use xlink:href="#D"/><use xlink:href="#D" x="0.627" y="3.376"/><use xlink:href="#D" x="1.263" y="6.75"/><use xlink:href="#D" x="1.902" y="10.147"/><path d="M197.6 326.77l-1.29.24.82 4.32a.45.45 0 0 1-.37.53.44.44 0 0 1-.52-.36l-.82-4.32-1.28.24a.47.47 0 0 1-.53-.37.45.45 0 0 1 .37-.53l3.45-.65a.45.45 0 0 1 .53.36.47.47 0 0 1-.36.54zm5.82-1.23l-1.15 2.38 1.93 1.81a.45.45 0 0 1 0 .64.49.49 0 0 1-.24.14.48.48 0 0 1-.4-.12l-1.71-1.62-1 2.13a.43.43 0 0 1-.32.25.36.36 0 0 1-.27 0 .43.43 0 0 1-.22-.59l1.14-2.4-1.93-1.8a.44.44 0 0 1 0-.63.43.43 0 0 1 .63 0l1.72 1.61 1-2.12a.44.44 0 0 1 .6-.22.45.45 0 0 1 .22.54zm5.28-.86l-1.29.24.81 4.33a.45.45 0 0 1-.36.53.46.46 0 0 1-.53-.36l-.81-4.33-1.28.24a.46.46 0 0 1-.17-.9l3.46-.65a.46.46 0 0 1 .17.9z"/></g><path d="M279.95 324.72l-41.73-9.91 12.94-54.51 31.46 7.47 7.83 12.7-10.5 44.25z" class="C"/><path d="M279.95 324.72l-41.73-9.91 12.94-54.51 31.46 7.47 7.83 12.7-10.5 44.25z" opacity=".6" class="F"/><g class="C"><path d="M290.45 280.47l-10.26-2.43 2.43-10.27 7.83 12.7zm-34.2 1.33a3.2 3.2 0 1 0 3.84-2.39 3.18 3.18 0 0 0-3.84 2.39zm1.52 14.96l21.1 5.01-7.49-15.39-13.61 10.38z"/><path d="M249.49 294.8l17.43 4.14-6.72-10.46-10.71 6.32z"/></g><path d="M249.49 294.8l17.43 4.14-6.72-10.46-10.71 6.32z" class="I"/><path d="M279.62 303l-31.33-7.44 5.35-22.56 31.36 7.42zm-28.92-8.92l27.43 6.51 4.43-18.67-27.43-6.51zm3.49 13.27a3 3 0 0 1 5.32-1.13.47.47 0 0 1-.06.67.5.5 0 0 1-.67-.08 2.15 2.15 0 0 0-1.16-.74 2 2 0 0 0-1.58.25 1.94 1.94 0 0 0-.94 1.25 2 2 0 0 0 .28 1.52 2.07 2.07 0 0 0 1.3.93 2.31 2.31 0 0 0 1.17 0l.26-1.1-1.11-.32a.47.47 0 0 1-.35-.56.45.45 0 0 1 .56-.34l1.58.37h0a.47.47 0 0 1 .36.56l-.42 1.78-.06.13h0 0a.37.37 0 0 1-.2.16 3 3 0 0 1-2 .19 3 3 0 0 1-2.28-3.54zm7.38-.67a.44.44 0 0 1 .54-.34.47.47 0 0 1 .35.55l-1.13 4.73a.45.45 0 0 1-.55.33.44.44 0 0 1-.34-.54zm1.26 5.32l1.13-4.72a.44.44 0 0 1 .54-.34h0l2.59.61a.47.47 0 0 1 .34.55.46.46 0 0 1-.55.34l-2.17-.51-.35 1.46 1.87.45a.45.45 0 0 1 .33.54.46.46 0 0 1-.54.35l-1.87-.45-.46 1.93a.45.45 0 0 1-.55.33.46.46 0 0 1-.31-.54z" class="C"/><path d="M275.46 358.01l-25.09-32.84 42.17-32.22 18.63 24.39-1.58 14.6-34.13 26.07z" class="D"/><g class="E"><path d="M311.17 317.34l-1.58 14.6-6.46-8.46 8.04-6.14zm-10.412 3.308l-13.951-18.261 1.081-.826 13.951 18.261zm-2.74 2.087l-13.951-18.261 1.081-.826 13.951 18.261zm-2.732 2.09l-13.951-18.261 1.081-.826L296.367 324z"/><use xlink:href="#E"/><use xlink:href="#E" x="-2.732" y="2.081"/><use xlink:href="#E" x="-5.472" y="4.167"/><use xlink:href="#E" x="-8.204" y="6.258"/><use xlink:href="#E" x="-10.93" y="8.346"/><use xlink:href="#E" x="-13.661" y="10.427"/><use xlink:href="#E" x="-16.401" y="12.523"/><use xlink:href="#E" x="-19.127" y="14.612"/><use xlink:href="#E" x="-21.859" y="16.692"/></g><path d="M261.48 334.81l-41.96 8.89-11.61-54.81 31.63-6.71 12.52 8.14 9.42 44.49z" class="M"/><path d="M252.06 290.32l-10.33 2.19-2.19-10.33 12.52 8.14z" class="B"/><path d="M228.65 314.32a1.15 1.15 0 0 1 .32 1.6 1.19 1.19 0 0 1-.73.48 1.25 1.25 0 0 1-.88-.16l-6-4.1c-.06 0-.08 0-.11-.09h-.06c-.05 0-.05-.09-.08-.14a.11.11 0 0 1-.07-.06s0-.08-.06-.1 0-.06-.05-.08v-.12a.66.66 0 0 1 0-.11v-.09-.12-.08a.76.76 0 0 1 0-.15s0-.13.05-.18a0 0 0 0 1 0 0 .34.34 0 0 1 .08-.14l4-6.05a1.19 1.19 0 0 1 1.6-.31 1.15 1.15 0 0 1 .31 1.6l-3.39 5.07zm3.02.68l2.67-12.77a1.15 1.15 0 0 1 1.36-.88 1.11 1.11 0 0 1 .84 1.33l-2.65 12.79a1.16 1.16 0 0 1-.9.87 1 1 0 0 1-.42 0 1.11 1.11 0 0 1-.9-1.34zm15.59-8a0 0 0 0 1 0 0 .61.61 0 0 1-.1.14l-4 6.05a1.152 1.152 0 0 1-1.91-1.29l3.39-5.08-5.05-3.42a1.16 1.16 0 0 1-.31-1.61 1.18 1.18 0 0 1 1.6-.31l6 4.1a.78.78 0 0 1 .15.1 1.1 1.1 0 0 0 .12.14c.03.05 0 0 0 0a1.51 1.51 0 0 0 .09.14v.06.12a.59.59 0 0 0 0 .08.34.34 0 0 0 0 .1v.14.17.06c0 .06.04.18.02.31zm-18.69 25.28l-1-4.75a.46.46 0 1 1 .89-.19l.41 1.93 2.09-.44-.41-1.93a.45.45 0 0 1 .35-.54.47.47 0 0 1 .55.35l1 4.75a.44.44 0 0 1-.35.54.45.45 0 0 1-.54-.35l-.41-1.93-2.09.44.41 1.93a.46.46 0 0 1-.36.54.44.44 0 0 1-.54-.35zm8.25-6.28l-1.28.27.91 4.3a.45.45 0 0 1-.35.54.46.46 0 0 1-.54-.35l-.91-4.3-1.27.27a.46.46 0 0 1-.54-.36.45.45 0 0 1 .35-.54l3.44-.73a.46.46 0 0 1 .54.35.47.47 0 0 1-.35.55zm6.53-1.82l1 4.76a.47.47 0 0 1-.36.54.46.46 0 0 1-.54-.35l-.72-3.4-.82 1.86a.43.43 0 0 1-.32.26h0a.5.5 0 0 1-.42-.11l-1.49-1.37.72 3.4a.45.45 0 0 1-.36.53.44.44 0 0 1-.53-.34l-1-4.76a.46.46 0 0 1 .35-.54h0a.43.43 0 0 1 .4.11l2.07 1.88 1.13-2.56a.46.46 0 0 1 .33-.26h0a.47.47 0 0 1 .56.35zm2.96 4.34l-1-4.75a.46.46 0 0 1 .35-.54.47.47 0 0 1 .55.35l.91 4.3 2.18-.46a.46.46 0 0 1 .54.36.45.45 0 0 1-.35.53l-2.61.56h0a.44.44 0 0 1-.57-.35z" class="F"/><g class="C"><path d="M162.62 436.05H316.2l19.19-102.3H181.81l-19.19 102.3z"/><path d="M280.36 323.15h57.02l-1.99 10.6H275.1l5.26-10.6z"/></g><path d="M280.49 399.39l-62.08 4.09 3.99-36.79 62.08-4.09-3.99 36.79z" class="F"/><path d="M218.34 361.99l4.82-2.97 4.8 10.09-4.82 2.97-4.8-10.09zm57.85 33.75l4.82-2.96 4.8 10.09-4.82 2.96-4.8-10.09zm14.55-38.27l-4.25-2.37-7.07 10.87 4.24 2.37 7.08-10.87zm-66.01 41.41l-4.24-2.37-7.08 10.88 4.25 2.36 7.07-10.87z" class="E"/><path d="M248.65 377.53l-9 11.32 6.82-.45a1 1 0 0 1 1.06 1.13 1.48 1.48 0 0 1-1.32 1.27l-9.13.6a.76.76 0 0 1-.21 0h-.06-.15l-.06-.06h-.1-.08 0a.07.07 0 0 1-.06 0 .44.44 0 0 1-.08-.1.28.28 0 0 1-.08-.06.41.41 0 0 0-.05-.09v-.1c0-.02-.06-.06 0-.1s0-.09 0-.13v-.09-.15a.13.13 0 0 0 0-.06h0a.3.3 0 0 1 0-.15.54.54 0 0 1 0-.11s0-.07.06-.11a1 1 0 0 1 0-.11.17.17 0 0 0 .07-.09l.08-.12h0l9-11.34-6.84.45a1 1 0 0 1-1-1.13 1.45 1.45 0 0 1 1.3-1.27l9.13-.6h.17.08.12.09a.08.08 0 0 1 .09.05l.1.06h0l.06.06.08.08c.02.02 0 .06.05.08a.16.16 0 0 1 .08.08.23.23 0 0 0 .05.11v.08a.38.38 0 0 0 0 .13v.11a.57.57 0 0 1 0 .12.22.22 0 0 0 0 .09v.15a.15.15 0 0 0 0 .09c0 .06 0 .09-.06.13l-.05.13s0 .05-.05.07a.35.35 0 0 1-.08.11zm3.79-.96a1.42 1.42 0 0 1 1.29-1.26 1 1 0 0 1 1.06 1.1l-1.38 12.74a1.48 1.48 0 0 1-1.32 1.26.94.94 0 0 1-1-1.11zm10.4 7.31l-2.61.17-.51 4.68a1.48 1.48 0 0 1-1.31 1.27 1 1 0 0 1-1-1.11l1.38-12.74a1.46 1.46 0 0 1 1.3-1.26h0l3.77-.25a3.73 3.73 0 0 1 4.05 4.34 5.68 5.68 0 0 1-5.07 4.9zm-2.35-2.23l2.61-.17a2.74 2.74 0 0 0 2.44-2.35 1.8 1.8 0 0 0-2-2.09l-2.61.17z" class="K"/><path d="M270.91,139.3a19.54,19.54,0,0,0,32.65,12.36l9.78,1.43-4.89-8.45a19.55,19.55,0,1,0-37.54-5.34Z" class="F"/><path d="M276.76 123.16a19.51 19.51 0 0 1 16.37-5.44 19.76 19.76 0 0 1 15.67 27.07v-.34l4.87 8.47.36.63-.71-.11-9.77-1.5.23-.07a19.72 19.72 0 0 1-9.67 4.77 17.53 17.53 0 0 1-2.7.28 19 19 0 0 1-2.72 0 19.43 19.43 0 0 1-5.26-1.26 19 19 0 0 1-4.71-2.62 21.52 21.52 0 0 1-2.07-1.75 20.22 20.22 0 0 1-1.77-2 19.65 19.65 0 0 1 1.91-26zm-1.85 26a17.61 17.61 0 0 0 3.84 3.74 18.09 18.09 0 0 0 4.72 2.54 19.06 19.06 0 0 0 5.22 1.15 18.3 18.3 0 0 0 2.67 0 15.72 15.72 0 0 0 2.65-.32 19.18 19.18 0 0 0 9.36-4.82l.1-.09h.13l9.79 1.37-.35.52-4.92-8.44-.1-.16.07-.17a19.53 19.53 0 0 0 1.38-8.52 19.31 19.31 0 0 0-2.48-8.27 20 20 0 0 0-5.85-6.37 19 19 0 0 0-8.07-3.19 19.38 19.38 0 0 0-8.69.65 19.32 19.32 0 0 0-9.47 30.36z" class="B"/><path d="M287.84 148.41l-8.35-8.45 2.81-2.77 4.87 4.94 10.13-15.89 3.33 2.12-12.79 20.05z" class="C"/><defs ><path id="B" d="M451.32 82.93H301.17v-5.26h150.15z"/><path id="C" d="M269.261 211.354l-30.186 8.091-.328-1.222 30.186-8.091z"/><path id="D" d="M215.314 303.533l-33.091 6.217-.251-1.337 33.091-6.217z"/><path id="E" d="M299.053 335.412l-20.441-26.755 1.081-.826 20.441 26.755z"/></defs></svg>