<svg xmlns="http://www.w3.org/2000/svg" xmlns:xlink="http://www.w3.org/1999/xlink" viewBox="0 0 750 500" xmlns:v="https://vecta.io/nano"><style><![CDATA[.B{fill:#263238}.C{fill:#ffc727}.D{fill:#ebebeb}.E{fill:#dbdbdb}.F{fill:#fff}.G{fill:#c7c7c7}.H{fill:#eb9481}.I{fill:#ad6359}.J{fill:#37474f}.K{fill:#455a64}.L{fill:#a6a6a6}]]></style><g class="D"><path d="M652.37 304.22l-13.12.28-6.66.11-6.7.06h-.44v-.45l-.06-11.22v-.5h.5l13.24.06 13.24.16h.28v.28l-.13 5.66zm0 0l-.14-5.65-.13-5.54.27.28-13.24.16-13.24.06.5-.5v11.19l-.45-.44 6.55.05 6.51.17zm-14.77 14.11l-13.12.28-6.67.11-6.69.06h-.44v-.45-11.19-.5h.5l13.24.07 13.24.16h.28v.27l-.13 5.66zm0 0l-.14-5.65-.13-5.54.27.28-13.24.16-13.24.06.5-.5v11.19l-.45-.44 6.55.05 6.57.12zm29.54 0l-13.12.28-6.66.11-6.7.06h-.44v-.45l-.06-11.19v-.5h.5l13.24.07 13.24.16h.28v.27l-.13 5.66zm0 0l-.14-5.65-.13-5.54.27.28-13.24.16-13.24.06.5-.5v11.19l-.45-.44 6.55.05 6.58.12zM354.79 171.07l-13.12.28-6.66.11h-6.7-.44v-.45l-.06-11.19v-.5h.5l13.24.06 13.24.16h.28v.27l-.14 5.65zm0 0l-.14-5.66-.13-5.53.27.27-13.24.16-13.24.07.5-.5-.05 11.19-.45-.45 6.55.06 6.58.11zM340 185.18l-13.12.28-6.67.11-6.69.05h-.44v-.45L313 174v-.5h.5l13.24.06 13.24.16h.28v.28l-.13 5.65zm0 0l-.14-5.66-.13-5.53.27.27-13.24.16-13.24.07.5-.5-.02 11.19-.45-.45 6.55.06 6.57.11zm29.56 0l-13.12.28-6.66.11-6.7.05h-.44v-.45l-.06-11.17v-.5h.5l13.24.06 13.24.16h.28v.28l-.13 5.65zm0 0l-.14-5.66-.13-5.53.27.27-13.24.16-13.24.07.5-.5-.05 11.19-.45-.45 6.55.06 6.58.11zm-230.68 59.93l-13.12.28-6.67.11-6.69.05h-.4v-.45-11.19-.5h.5l13.24.06 13.24.16h.28v.27l-.13 5.65zm0 0l-.14-5.66-.13-5.53.27.27-13.24.16-13.24.07.5-.5-.05 11.19-.45-.45 6.55.06 6.57.11zm398.98-74.05l-13.12.28-6.66.11-6.7.05h-.44v-.45l-.06-11.19v-.5h.5l13.24.06 13.24.17h.28v.27l-.13 5.65zm0 0l-.14-5.65-.13-5.54.27.27-13.24.17-13.24.06.5-.5-.05 11.19-.45-.45 6.55.06 6.58.11z"/><path d="M650.84 62.38l-13.12.28-6.67.11-6.69.06h-.44v-.45-11.19-.5h.5l13.24.06 13.24.17h.28v.27l-.13 5.65zm0 0l-.14-5.65-.13-5.54.27.27-13.24.17-13.24.06.5-.5-.05 11.19-.45-.45 6.55.06 6.57.11zm14.77 14.11l-13.12.28-6.66.11-6.7.05h-.44v-.45l-.06-11.19v-.5h.5l13.24.06 13.24.17h.28v.27l-.14 5.65zm0 0l-.14-5.65-.13-5.54.27.27-13.24.17-13.24.06.5-.5v11.19l-.45-.45 6.55.06 6.58.11zm-556.27-14.1l-13.13.28-6.66.11-6.69.06h-.45v-.45V51.2v-.5h.51l13.24.07 13.24.16h.27v.27l-.13 5.66zm0 0l-.15-5.65-.13-5.54.28.27-13.24.17-13.24.06.5-.5-.06 11.19-.44-.39h6.54l6.58.11zM637 101.49a2.94 2.94 0 0 1-.42 3.06l-.55.73-.52.76a2.92 2.92 0 0 1-2.75 1.38l-3.79-.37-1.21 12.33 3.78.37a3 3 0 0 1 2.45 1.89 14.9 14.9 0 0 0 .76 1.68 3 3 0 0 1-.2 3.08l-2.21 3.08 10.07 7.22 2.21-3.08a3 3 0 0 1 2.85-1.18l1.84.18a2.92 2.92 0 0 1 2.57 1.71l1.57 3.46 11.29-5.12-1.58-3.48a2.94 2.94 0 0 1 .42-3l.55-.72.52-.76a2.94 2.94 0 0 1 2.76-1.38l3.79.38 1.22-12.34-3.78-.37a3 3 0 0 1-2.45-1.88 17.09 17.09 0 0 0-.76-1.69 2.93 2.93 0 0 1 .2-3.08l2.21-3.08L657.71 94l-2.21 3.08a2.93 2.93 0 0 1-2.85 1.18l-1.85-.18a3 3 0 0 1-2.57-1.71l-1.56-3.46L635.38 98zm19 5.6a10.16 10.16 0 1 1-14.17 2.35 10.17 10.17 0 0 1 14.17-2.35zM95.48 194.35a2.07 2.07 0 0 1-1.92 1h-.64-.64a2.05 2.05 0 0 1-1.91-1L89 192l-7.52 4.34 1.33 2.31a2.05 2.05 0 0 1-.08 2.16 12.43 12.43 0 0 0-.64 1.12 2.07 2.07 0 0 1-1.84 1.14h-2.62v8.69h2.66a2.07 2.07 0 0 1 1.84 1.14 12.43 12.43 0 0 0 .64 1.12 2.05 2.05 0 0 1 .08 2.16l-1.33 2.31 7.48 4.38 1.34-2.32a2 2 0 0 1 1.9-1h.64.64a2.08 2.08 0 0 1 1.92 1l1.33 2.31 7.52-4.34-1.33-2.3a2.09 2.09 0 0 1 .07-2.17 11.27 11.27 0 0 0 .65-1.12 2.07 2.07 0 0 1 1.84-1.14h2.65v-8.69h-2.65a2.07 2.07 0 0 1-1.84-1.14 11.27 11.27 0 0 0-.65-1.12 2.09 2.09 0 0 1-.07-2.17l1.33-2.3-7.48-4.37zm4.56 13.1a7.11 7.11 0 1 1-7.12-7.11 7.12 7.12 0 0 1 7.08 7.11zm510.9-144.26a2.05 2.05 0 0 1-2 .76l-.63-.1-.64-.07a2 2 0 0 1-1.76-1.24l-1-2.46-8 3.33 1 2.46a2.07 2.07 0 0 1-.41 2.13 11.43 11.43 0 0 0-.78 1 2.08 2.08 0 0 1-2 .9l-2.63-.35-1.09 8.64 2.63.35a2.06 2.06 0 0 1 1.67 1.36 12.63 12.63 0 0 0 .5 1.2 2.06 2.06 0 0 1-.2 2.15l-1.6 2.12 6.9 5.27 1.62-2.12a2.06 2.06 0 0 1 2-.75l.64.1.63.06a2.07 2.07 0 0 1 1.77 1.25l1 2.47 8-3.34-1-2.45a2.07 2.07 0 0 1 .35-2.14 11.67 11.67 0 0 0 .79-1 2.06 2.06 0 0 1 2-.89l2.64.34 1.12-8.61-2.63-.34a2.07 2.07 0 0 1-1.68-1.37 10.47 10.47 0 0 0-.5-1.2 2.1 2.1 0 0 1 .21-2.16l1.62-2.11-6.9-5.27zm2.83 13.59a7.11 7.11 0 1 1-6.13-8 7.11 7.11 0 0 1 6.13 8zm-74.8 123.53h97.79v181.87h-97.79z"/></g><path d="M534.23 195.29h107.26v5.02H534.23z" class="E"/><path d="M641.49 195.29h33.73v5.02h-33.73z" class="D"/><path d="M636.75 200.31h33.13v181.87h-33.13z" class="E"/><g class="G"><path d="M626.23 317.43h-76.74v-43.38h76.74zm-76.49-.25H626V274.3h-76.26zm27.41-30.45h14.94v8.59h-14.94z"/><path d="M596.63 294.8h-15.19v-7.55h15.19zm-14.94-.25h14.69v-7.05h-14.69zm44.54 77.36h-76.74v-43.38h76.74zm-76.49-.25H626v-42.88h-76.26zm27.41-30.45h14.94v8.59h-14.94z"/><path d="M596.63,349.28H581.44v-7.54h15.19ZM581.69,349h14.69v-7H581.69Z"/></g><path d="M549.62 219.7h76.49v43.12h-76.49z" class="L"/><g class="G"><path d="M560.43 208.66h58.23v42.21h-58.23z"/><path d="M581 204.28h-20.57v4.38h21.75l-1.18-4.38z"/></g><g class="L"><path d="M618.5 250.86h-58.23l-4.49-38.7h58.23l4.49 38.7z"/><path d="M575.89 208.15h-20.57l.46 4.01h21.76l-1.65-4.01z"/></g><path d="M512.77 219.7h76.49v43.12h-76.49z" class="D"/><g class="G"><path d="M589.38 263h-76.74v-43.43h76.74zm-76.49-.25h76.24v-42.93h-76.24zm27.41-30.5h14.94v8.59H540.3z"/><path d="M559.78,240.31H544.59v-7.54h15.19Zm-14.94-.25h14.69v-7H544.84Z"/></g><path d="M589.44 226.16h36.66v36.66h-36.66z" class="E"/><circle cx="375" cy="91.65" r="41.34" transform="matrix(.163843 -.986487 .986487 .163843 223.13 446.55)" class="D"/><circle cx="376.89" cy="92.57" r="39.44" transform="matrix(.740922 -.671591 .671591 .740922 35.47 277.08)" class="E"/><circle cx="376.89" cy="92.57" r="36.95" transform="matrix(.971425 -.237347 .237347 .971425 -11.2 92.13)" class="F"/><path d="M413 84.72l-59.94 36.09A37 37 0 0 1 343 107.24l51.12-47.39A37.05 37.05 0 0 1 413 84.72zm.82 9.14a36.75 36.75 0 0 1-2.44 12l-46.09 21.8a37.1 37.1 0 0 1-5.82-2.5l54.35-31.3z" opacity=".5" class="D"/><g class="G"><path d="M376.54 58.3h.71v5.6h-.71zm-17.103 4.745l.615-.355 2.8 4.85-.615.355zm-12.121 11.296l.355-.618 4.872 2.8-.355.618zM342.62 92.21h5.6v.71h-5.6zm4.408 17.147l4.849-2.801.355.615-4.849 2.801zm12.422 12.717l2.797-4.852.615.355-2.797 4.852zm17.09-.834h.71v5.6h-.71zm14.376-3.663l.615-.355 2.8 4.85-.615.355z"/><path d="M401.531 107.198l.355-.615 4.85 2.8-.355.615zm4.029-14.988h5.6v.71h-5.6zm-4.029-14.317l4.849-2.801.355.615-4.849 2.801zM390.945 67.58l2.798-4.851.615.355-2.798 4.851zm-13.515-6.75l1.22 34.23-3.51-.04 1.34-34.2.95.01z"/></g><path d="M398.75 80.63l-23.03 14.7-1.67-3.08 24.25-12.46.45.84z" class="L"/><path d="M378.09 92.57a1.2 1.2 0 1 1-1.2-1.2 1.19 1.19 0 0 1 1.2 1.2z" class="G"/><path d="M68.96 382.18l76.01-.24 76.01-.09 152.02-.17 152.02.17 76.01.09 76.01.24-76.01.25-76.01.08-152.02.17-152.02-.17-76.01-.09-76.01-.24z" class="B"/><ellipse cx="375" cy="425.29" rx="294.39" ry="31.42" class="D"/><path d="M114.33 279.14a40.8 40.8 0 0 1-.79 15.64 43.77 43.77 0 0 1-2.4 6.91c-1.25 2.87-2.55 5.66-2.23 8.79.3.2-.74.17-.77-.13-8.37-4.77-19.1-5.64-25.54-13.43-3-3.69-4.59-8.37-5.32-13-.79-5.09-1-10.73.3-15.75 1.11-4.25 3.59-8.34 7.58-10.42s9.51-2 13.84-.62c9.35 2.87 14 12.96 15.33 22.01z" class="C"/><path d="M118.62 341.08l-3.45-11.41c-2.3-7.43-4.69-14.84-7.33-22.17q-2.37-6.57-5-13a79.76 79.76 0 0 1 1-8.09c.7-3.24 1.72-6.38 2.66-9.55.06-.2-.25-.3-.33-.11-1.88 4.37-4.33 10-4.4 15.15q-3.06-7.31-6.57-14.4a61 61 0 0 1 .37-12 .15.15 0 0 0-.29-.05 42.46 42.46 0 0 0-.83 10.55c-1.8-3.55-3.69-7.06-5.71-10.51-.18-.32-.61 0-.45.31 3.15 6.05 6.06 12.24 8.8 18.5A40.43 40.43 0 0 0 84 276.71c-.21-.07-.37.23-.15.32a47.63 47.63 0 0 1 14.15 9.4q2.94 6.87 5.62 13.87c-5.23-5.14-12.4-8.51-19.33-10.32-.24-.07-.3.3-.07.36 8 2.42 14.25 7 20.35 12.43q1.07 2.82 2.09 5.66 3.87 10.76 7.38 21.65 1.7 5.21 3.32 10.44c1.17 3.76 2.09 7.72 3.61 11.34.15.35.77.27.69-.15-.66-3.59-1.99-7.12-3.04-10.63zm-13.88-69.27a20.71 20.71 0 0 0-3 7.51.06.06 0 0 0 .12 0 66.27 66.27 0 0 1 3.26-7.37c.12-.2-.24-.36-.38-.14zm-14.93 17.44a22 22 0 0 0-7.51-2.53c-.07 0-.11.09 0 .12l3.7 1.32 3.66 1.47a.21.21 0 0 0 .15-.38zm-4.2-20.98a14.71 14.71 0 0 0-2.42-1.49.13.13 0 0 0-.14.21 14.51 14.51 0 0 0 2.38 1.55c.16.09.33-.17.18-.27z" class="B"/><path d="M142.54 307.56l-18.11 5.21c-.53.16-10.71-19.37-7-29.42a32.81 32.81 0 0 1 20.48-19.44c4.31-1.47 9.6-2.69 14.14-1.69 4 .89 6.9 4.2 8.21 8 1.79 5.17 1.2 11.33.22 16.61a28.91 28.91 0 0 1-5.93 13.55c-3.23 3.81-7.31 5.79-12.01 7.18z" class="C"/><path d="M151.28 289a80.62 80.62 0 0 1-11.82 4.66 49.37 49.37 0 0 0-7.89 2.85c2.55-5.67 5.34-11.23 8.3-16.73 3.9-1.13 8-2.89 10.93-5.64a.17.17 0 0 0-.22-.26c-3.21 2.27-6.75 3.63-10.31 5.17q1.2-2.22 2.44-4.44c.23-.41-.34-.82-.61-.42a127.13 127.13 0 0 0-8.57 14.38 66.55 66.55 0 0 1-.62-13.17.09.09 0 1 0-.17 0 43.71 43.71 0 0 0 .15 14.48c-2.12 4.22-4 8.55-5.77 12.92-.69-2.63-1.58-5.22-2.18-7.87a36.23 36.23 0 0 1-.87-11.6c0-.11-.15-.12-.17 0a40.92 40.92 0 0 0 2.53 21.3c-1 2.63-2 5.28-2.85 7.92a157.92 157.92 0 0 0-8 41.82.26.26 0 0 0 .51 0 207.91 207.91 0 0 1 9-41.33c1.75-5.25 3.76-10.35 6-15.36 3.56-1.05 7.1-2.48 10.6-3.69a33.28 33.28 0 0 0 9.77-4.79.135.135 0 0 0-.18-.2zm5.62-5.67c-3.69 1.31-7.18 3.15-10.87 4.48-.17.06-.07.33.11.3 3.89-.81 7.76-2 10.9-4.57.12-.09-.04-.25-.14-.21zm-30.1-7.95c0-.2-.24-.31-.3-.11-1 3.4-1.71 7-.73 10.48a.13.13 0 0 0 .26 0c.18-3.52-.03-6.92.77-10.37zm15.2-7.85a9 9 0 0 0-1.6 5.78c0 .13.21.2.25.05.45-1.94 1.2-3.72 1.79-5.6a.25.25 0 0 0-.44-.23z" class="B"/><path d="M70.85 316.17c1.76 5.61 6 13.36 12.61 13.42 4.31 0 8.65-.47 13-.53 4.63-.07 9.27-.06 13.88.22.38 0-.55-13.86-11.67-20.62-3.12-1.89-6.93-2.49-10.46-3.25a48.06 48.06 0 0 0-12.36-1.29c-2.55.1-4.68.64-5.59 3.26s-.26 6.13.59 8.79z" class="C"/><path d="M75.63 309.15l8.14 2.36a27.26 27.26 0 0 0-2.24-2.19c-1.16-1-2.44-1.74-3.69-2.59-.11-.07 0-.27.09-.22a15.34 15.34 0 0 1 6.56 5.22 150.67 150.67 0 0 1 10 3.62 38.5 38.5 0 0 1 6.37 3.35 25.75 25.75 0 0 0-2.31-4c-1.47-1.91-3.47-3-5.4-4.33a.172.172 0 0 1 .17-.3 15.82 15.82 0 0 1 8.67 9.4 37.34 37.34 0 0 1 6.31 5.73c7.36 8.36 13.15 19.48 13.17 30.82 0 .27-.43.35-.48.07a62.94 62.94 0 0 0-14-30.14q-.8-.92-1.62-1.77a51.34 51.34 0 0 0-6.08-.45c-2.37 0-4.72.35-7.07.54-3.88.32-8.18.36-11.68-1.59-.15-.08 0-.35.12-.29 7.81 2.84 16-.76 23.82.93a36.62 36.62 0 0 0-11.54-7.44l-.71-.29c-5 .6-10.3 1.91-15.18.28a.12.12 0 0 1 .06-.23c4.72 1.18 9.24-.3 13.89-.54-5.07-2-10.23-3.54-15.31-5.5-.51-.18-.52-.6-.06-.45zm-2.21 4.94a68.57 68.57 0 0 0 7.29.55c.06 0 .08.09 0 .1a15.07 15.07 0 0 1-7.36-.47c-.1-.03-.05-.2.07-.18zm16.47-4.81a11.79 11.79 0 0 1 3.61 2.51c.13.11 0 .34-.18.23l-1.88-1.27a18.66 18.66 0 0 1-1.76-1.11.22.22 0 0 1 .21-.36z" class="B"/><path d="M129.16 327.33c-.08.19.18.36.28.16h0a.26.26 0 0 0 .18.12 112.14 112.14 0 0 0 13.59 2.39c3.68.32 7.92.53 11.14-1.61 4.36-2.89 7.23-10.62 4.87-15.53-2.79-5.83-11.2-2.67-15.42-.59a30.9 30.9 0 0 0-14.64 15.06z" class="C"/><path d="M125.9 330a43.39 43.39 0 0 1 8.11-6.18 27.84 27.84 0 0 1 8.22-8.38c.16-.11.3.14.15.25a37.4 37.4 0 0 0-6.93 7.3 76 76 0 0 1 10.18-4.63 13.53 13.53 0 0 1 5.46-5.48s.11 0 .06.07a22.51 22.51 0 0 0-4.94 5.19l6.25-2.19c.19-.06.26.23.08.3-3.72 1.45-7.52 3-11.2 4.75a43.44 43.44 0 0 0 13.56 0 .1.1 0 1 1 0 .19 26.7 26.7 0 0 1-14.38.21 71 71 0 0 0-6.83 3.82 17.26 17.26 0 0 1 5.52.46 41.68 41.68 0 0 0 9.69 1.09c.12 0 .16.2 0 .22-5.62 1-10.94-1.59-16.51-.92a41.35 41.35 0 0 0-14.27 16.68c-2.34 4.78-3.62 9.84-5.51 14.77a.182.182 0 0 1-.35-.1C114 347.69 118.81 337 125.9 330zm16.95-13.31a6.54 6.54 0 0 1 1.44-1.75 5.73 5.73 0 0 1 1.71-1.24c.06 0 .09.06.06.09-.46.53-1.11.91-1.6 1.41l-1.43 1.59a.103.103 0 0 1-.18-.1zm9.28 3.02c.83-.21 1.71-.2 2.56-.37a23.56 23.56 0 0 0 2.48-.74.1.1 0 0 1 .08.18 8.29 8.29 0 0 1-5.12 1.19.13.13 0 0 1 0-.26z" class="B"/><path d="M102.73 345.43l.74 8.38 2.5 28.3h22.16l3.13-28.3.93-8.38h-29.46z" class="J"/><path d="M102.73 345.43l.74 8.38h27.79l.93-8.38h-29.46z" class="B"/><path d="M134.38 349.94h-33.84v-6.8h33.84z" class="J"/><path d="M666.82 413c-.24-2.19-25.4-56.41-27.67-57.86-.86-.57-9 2.64-18.66 6.79l-.31.13c-2 .85-38.88 10.76-38.88 10.76l16.34 35.49L636 397.27l.58-.29s18.92 16.45 21.58 17.78 8.91.47 8.66-1.76z" class="I"/><path d="M613.17 364.16L630 399l6-1.75.59-.28s18.92 16.45 21.58 17.78 8.88.47 8.63-1.71-25.4-56.42-27.67-57.87c-.85-.57-9 2.63-18.67 6.79l-.29.13c-.48.23-3.17 1.01-7 2.07z" class="D"/><path d="M667 413.32c-.24-2.21-25.45-57.06-27.74-58.54-.86-.57-9.06 2.64-18.86 6.8L636.58 397s19 16.68 21.73 18 8.96.53 8.69-1.68z" class="C"/><g class="B"><path d="M664.48 413.54c-4.46-9.09-21.56-46.17-25.27-55.49 0-.08 0-.1.06 0 4.61 8.91 21.41 46.13 25.36 55.45.08.17-.06.23-.15.04zm-9.76-1.14a8.1 8.1 0 0 1-.29-6.53 7.86 7.86 0 0 1 4-4.31c.06 0 .11.07.06.11a9.38 9.38 0 0 0-3.62 10.68c-.01.07-.12.12-.15.05zm-15.58-12.27c-1.75-3.66-2.41-8.52-.45-12.19.08-.14.28 0 .27.1a56.18 56.18 0 0 0 .66 11.94.251.251 0 0 1-.48.15zm2.41 2.33c-1.74-3.66-2.4-8.52-.45-12.19.08-.14.28 0 .27.1a56.8 56.8 0 0 0 .66 11.94.251.251 0 0 1-.48.15z"/><path d="M644 404.79c-1.75-3.66-2.41-8.52-.45-12.19.07-.14.27 0 .27.1a55.62 55.62 0 0 0 .66 11.95.25.25 0 0 1-.48.14zm2.38 2.33c-1.74-3.65-2.41-8.52-.45-12.19.08-.14.28 0 .27.1a56.27 56.27 0 0 0 .66 12 .25.25 0 0 1-.48.09zm-14.82-42.72c-1.89-4.13 4.53-7.07 6.42-2.93s-4.53 7.07-6.42 2.93zm4.85 41.44c1.65-3.16 1.87-6.93 2.47-10.38.07-.36-.3-.57-.6-.52a.1.1 0 0 0-.16-.07 21.29 21.29 0 0 0-7.87 7.67c-1.07 1.89-1.5 4.93.9 6.08s4.29-.93 5.26-2.78zm-3 1.58c-4.18 1.47-2.76-3.55-1.91-4.91a21.49 21.49 0 0 1 1.86-2.49c1.38-1.65 3-3.08 4.5-4.58-.4 1.68-.66 3.38-1 5.07-.37 2.01-1.12 6.09-3.42 6.91z"/><path d="M629.77 382.88c-2.27 1.39-1.53 4.37-.27 6.14a21.29 21.29 0 0 0 8.62 6.82.11.11 0 0 0 .15-.08c.31 0 .65-.24.55-.59-1-3.37-1.57-7.09-3.54-10.07-1.14-1.74-3.36-3.54-5.51-2.22zm6.55 7.48c.51 1.65.94 3.31 1.51 4.94-1.68-1.34-3.4-2.59-5-4.1a25.32 25.32 0 0 1-2.11-2.28c-1-1.26-2.9-6.12 1.4-5.08 2.42.57 3.59 4.56 4.2 6.52z"/></g><path d="M532.89 257.1s.68 21.26 3.86 31.72l4.52 2.49c0 0-26.4 63.22-24.9 87.55.49 8 9.53 21.08 18.65 26.76 16.14 10 95 1.23 95 1.23l-11.44-47.38s-49.82 2.78-51.08.08c-1.6-3.42 8.32-30 16.25-51.62.8-2.18 8.77-10.24 7.84-24.81a75.62 75.62 0 0 0-6.86-26z" class="J"/><g class="B"><path d="M609.44 364.74c-10.86-.2-19.72.72-30.59.73h-12.32a12.31 12.31 0 0 1-2.84-.25 3.49 3.49 0 0 1-2.18-1.3c-.73-1.08-.34-2.45-.09-3.61.55-2.56 1.17-5.1 1.84-7.63 2.74-10.26 6.31-20.29 9.68-30.37q2.59-7.79 5.2-15.56c.42-1.26.84-2.53 1.37-3.75a32.68 32.68 0 0 1 1.71-3.26 30.26 30.26 0 0 0 2.95-6.41c2.94-9.66.11-19.66-3.32-28.78l-1.44-3.65c0-.09-.17 0-.14 0 3.13 9.62 6.87 19.64 4.76 29.91a24.38 24.38 0 0 1-2.51 6.91c-.6 1.1-1.26 2.17-1.84 3.28a26.57 26.57 0 0 0-1.52 3.51c-1.84 5.1-3.47 10.29-5.2 15.43-3.43 10.22-7 20.42-9.91 30.83-.71 2.59-1.37 5.2-1.95 7.82-.43 1.93-1.4 4.57.28 6.17 1.24 1.17 3.18 1.32 4.79 1.33h8.13c11 0 33.79-1 35.15-1a.19.19 0 0 0-.01-.35zm12.16 39.91l-3.31-16.6c-1.22-5.5-2.56-11-4-16.48l-1.24-4.63c-.19-.73-.39-1.47-.61-2.2a18.61 18.61 0 0 0-.67-2.2.07.07 0 0 0-.14 0 29.59 29.59 0 0 0 .76 4.25l.8 4 1.74 8.23c1.2 5.49 2.57 10.93 4 16.37q1.19 4.63 2.4 9.27a.14.14 0 0 0 .27-.01z"/><path d="M525.42 334.56l55.94-20.26 2.33-6.37c.76-2.09 8.77-10.24 7.85-24.81a75.36 75.36 0 0 0-6.86-26h-51.79s.68 21.26 3.87 31.72c0 0 3.47 1.84 4.51 2.49 0-.02-8.71 20.85-15.85 43.23z"/></g><path d="M440.38 415.59c2.11.64 61.85-1.34 64.08-2.86.86-.56 1.07-9.29 1-19.83v-.33c0-2.18-.94-38.62-.94-38.62l-41.82 1.26 4.2 38.2v.66s-22.53 11-24.8 12.91-3.83 8.02-1.72 8.61z" class="I"/><path d="M440.38 415.6c2.11.63 61.85-1.35 64.08-2.87.85-.57 1.08-9.29 1-19.83v-.34c0-.59 0-3.55-.18-8l-39.2 1.5.81 7.37v.65s-22.53 11-24.81 12.92-3.81 8-1.7 8.6z" class="D"/><path d="M439.93 415.85c2.13.64 62.46-1.37 64.71-2.9.86-.58 1.07-9.38 1-20l-38.9 1.19s-22.76 11.1-25 13-3.95 8.08-1.81 8.71z" class="C"/><g class="B"><path d="M440.71 413.41c10.1-.58 50.92-2 61-1.8.08 0 .08.06 0 .06-10 .8-50.82 1.88-61 1.91-.21 0-.21-.16 0-.17zm4.83-8.56a8.08 8.08 0 0 1 6.13 2.27 7.79 7.79 0 0 1 2.44 5.32c0 .06-.11.07-.12 0a9.38 9.38 0 0 0-8.44-7.47.07.07 0 0 1-.01-.12zm17.35-9.61c4.05-.19 8.79 1.08 11.41 4.31.1.13-.08.27-.2.21a56.78 56.78 0 0 0-11.26-4 .261.261 0 0 1 .05-.52zm-3.08 1.33c4-.2 8.78 1.08 11.41 4.3.1.13-.08.27-.2.21a56 56 0 0 0-11.27-4 .257.257 0 0 1 .06-.51z"/><path d="M456.72 397.89c4-.19 8.79 1.08 11.41 4.31.11.12-.07.26-.2.21a55.33 55.33 0 0 0-11.26-4 .261.261 0 0 1 .05-.52zm-3.08 1.32c4-.19 8.78 1.08 11.41 4.31.1.12-.08.27-.2.21a55.42 55.42 0 0 0-11.27-4 .262.262 0 0 1 .06-.52zm45.12 2.88c4.54-.14 4.77 6.92.22 7.06s-4.77-6.92-.22-7.06zm-40.08-11.58c2.27 2.75 5.66 4.41 8.61 6.31a.5.5 0 0 0 .72-.35.11.11 0 0 0 .12-.12 21.21 21.21 0 0 0-4-10.23c-1.33-1.73-4-3.3-5.95-1.53s-.83 4.32.5 5.92zm-.3-3.35c.25-4.41 4.34-1.16 5.26.14a21.22 21.22 0 0 1 1.57 2.69 62.68 62.68 0 0 1 2.48 5.92c-1.39-1-2.85-1.92-4.28-2.88-1.7-1.16-5.17-3.43-5.03-5.87z"/><path d="M482.42 393.28c-.41-2.63-3.44-3.1-5.56-2.62a21.3 21.3 0 0 0-9.63 5.31.11.11 0 0 0 0 .17.5.5 0 0 0 .33.73c3.48.42 7.15 1.3 10.66.64 2.06-.38 4.58-1.74 4.2-4.23zm-9.42 3.15c-1.72-.17-3.42-.42-5.14-.52a64.09 64.09 0 0 1 5.69-3 23.7 23.7 0 0 1 2.92-1.06c1.55-.41 6.77-.31 4.14 3.26-1.45 1.98-5.61 1.51-7.61 1.32z"/></g><path d="M463.53 390.5h46.78s-8.33-63.69-5.56-67.85c1.22-1.83 62 4.26 79.72-15 16.25-17.6-.28-50.57-.28-50.57h-49.86s-1 14.13-3.7 19.78c-1.15 2.42-56.83-1-65.55 14.88-11.65 21.26-1.55 98.76-1.55 98.76z" class="J"/><g class="B"><path d="M505.38 381.6l-15.86-.36a401.45 401.45 0 0 0-15.89.32l-6.62.33a17.32 17.32 0 0 0-2.16.18.07.07 0 0 0 0 .14c1.15.2 13.12.33 15.75.34 5.26 0 10.52-.14 15.78-.33q4.49-.15 9-.34c.15 0 .17-.28 0-.28zm30.99-109.24l.58-4.49c.4-3.42.76-6.86.86-10.3 0-.27-.38-.25-.41 0l-.86 8c-.3 2.68-.53 5.32-1 7.92-.15.79-.48 2.1-1.49 2.12-1.35 0-1.6-1.8-1.72-2.79a44.13 44.13 0 0 1-.13-7.45c.14-2.82.5-5.64.81-8.45 0-.1-.16-.12-.18 0-1.16 5.47-2.27 11.2-1.31 16.79a3.08 3.08 0 0 0 1.81 2.63h.06a.15.15 0 0 0 0 .09v.48a2.54 2.54 0 0 0 0 .39v.83a.2.2 0 0 0 .4 0 .17.17 0 0 0 .15-.14 4.42 4.42 0 0 0 0-1.62 2 2 0 0 0 1.66-.89 7 7 0 0 0 .77-3.12z"/><path d="M531.41 276.41a80.17 80.17 0 0 1 10.72 8.82c.14.13 0 .34-.17.23-3.66-2.83-7.41-5.6-10.9-8.62-.28-.23.05-.62.35-.43zm40.98 2.71a20.36 20.36 0 0 1-3.22-.25 24.42 24.42 0 0 1-2.8-.71c-1.73-.51-3.83-1.11-5.09-2.48a18.07 18.07 0 0 1-2.89-5 20.13 20.13 0 0 1-1.7-5.94c0-.09-.15-.09-.14 0a30.53 30.53 0 0 0 1.06 6.29 18.93 18.93 0 0 0 1.18 3 8.23 8.23 0 0 0 7.29 5.29 17.32 17.32 0 0 0 6.34 0c.14.01.1-.19-.03-.2zm-72.68 40.52a2.74 2.74 0 0 1 2.29-2.18 22.71 22.71 0 0 1 4-.08l9.36.07c12.27 0 24.65-.32 36.73-2.74a85.81 85.81 0 0 0 17.17-5.18c4.69-2 9.37-4.81 12.29-9.12 3.36-5 3.63-11.45 3.51-17.26a65.9 65.9 0 0 0-3-18.47 53.47 53.47 0 0 0-1.61-4.49c0-.09.1-.17.14-.08a63.86 63.86 0 0 1 4.87 17.83 61.49 61.49 0 0 1 .41 9.1 34.7 34.7 0 0 1-1.15 8.84c-3.18 10.86-15.35 15.35-25.2 18.11-11.84 3.32-24.2 4.24-36.45 4.42-6.16.1-12.32 0-18.48-.08-1.17 0-3.11-.35-3.81.89a6.82 6.82 0 0 0-.55 2.24c-.14.86-.23 1.74-.3 2.61a75 75 0 0 0 .13 9.83q.6 10 1.38 19.93l1.76 20c.12 1.64.28 3.27.44 4.91 0 .18-.31.22-.33 0-1.71-13.2-2.94-26.45-3.8-39.73l-.55-9.85a35.27 35.27 0 0 1 .75-9.52zm29.96 2.44a101 101 0 0 0 12.42-.91c3.88-.48 7.75-1 11.61-1.67 6.7-1.14 13.56-2.4 19.89-5a34.59 34.59 0 0 0 9.59-5.56.081.081 0 0 1 .11.12c-4.79 4.65-10.87 7.38-17.25 9.12a139.86 139.86 0 0 1-22.34 3.92 121.91 121.91 0 0 1-14.05.41.24.24 0 0 1 .02-.43z"/></g><g class="I"><path d="M545.15 198.71c-6.45 14.75-28.44 36.95-35.79 39.27-9.05 2.86-30.57-11.14-39.13-19.68-3.53-3.52 9-20.86 14.92-20.5 3.26.2 21 15.69 23.66 14.36 6.41-3.22 15.19-9.5 27.76-18 6.84-4.61 12.6-4.63 8.58 4.55z"/><path d="M492.59 202.8s-4.17-6.37-6.62-8.76-14.87-7.94-16.22-5.33c-1.74 3.37 4.79 8 8.29 9.83 0 0-4.05 7.8-.07 12.13s14.62-7.87 14.62-7.87z"/><path d="M472.91,220.57c-2.63-1.27-14.16-8.14-16.94-10.77s-10.24-10.79-8.44-13.12,4.17-.13,4.17-.13-2.6-3.94-.58-6.12,5.61,1.37,5.61,1.37-2.38-4.24-.21-6.27,5.18,2.15,5.18,2.15-2.36-3.78.14-4.7c3-1.11,6.56,6.34,9.85,9,.75.6,16,11.23,16,11.23Z"/></g><path d="M461.43 187.32c2.63 5.48 4.73 7.42 9.8 10.6.09.06 0 .22-.09.17-5.24-2.66-8.22-4.72-10-10.65-.06-.29.17-.38.29-.12zm-4.91 4.05c3.23 5.44 5.49 7.57 10.55 11.29.07.05 0 .18-.09.13-5.27-3.23-8.2-5.35-10.7-11.22-.12-.26.1-.45.24-.2zm-4.52 5.36c3.51 5.05 5.88 7.49 11.26 10.47a.12.12 0 0 1-.1.21c-5.78-2.51-8.76-5.53-11.3-10.55-.21-.35-.12-.44.14-.13zm17.58-6.94c.62 4.23 5.37 6.35 8.63 8.39a.36.36 0 0 1 .05.58c-1.48 3.38-2.57 8.58-.53 11.9a.093.093 0 0 1-.15.11c-2.67-3.27-2-8.46-.15-12.07-3.38-2-8-4.38-7.89-8.9 0-.03.03-.03.04-.01z" class="B"/><path d="M519.71 203.74l10.79 20.84s14.8-21.15 17.39-28.6c2.92-8.38-2-8-9.63-4.43s-18.55 12.19-18.55 12.19z" class="C"/><path d="M523.86 202.52c1.73 2.47 5.89 10.6 6.59 11.94.37.71 1.72 3.59 2.09 4.29.05.09-.1.14-.15.05-.71-1.33-1.57-2.6-2.29-3.93s-5.25-9.46-6.35-12.29a.07.07 0 0 1 .11-.06z" class="B"/><path d="M547.89 196c-2.59 7.45-17.39 28.6-17.39 28.6l-5.56-10.74 20.89-24.71c2.75-.07 3.8 1.85 2.06 6.85z" opacity=".1"/><path d="M591.91 264.56l-62.71 8.72c.17 1.23-3.32-49.61 8.85-81.49.83-2.17 10.38-5.71 15.28-2.31 21.48 14.91 38.67 75.88 38.58 75.08z" class="C"/><path d="M552.81 189.16l-14.29 2a11.58 11.58 0 0 1 4.43-2.25l5.75-.79a9.22 9.22 0 0 1 4.11 1.04zm3.62 2.81L537 194.65l-.57 1.72 21.48-3q-.73-.72-1.48-1.37zm4.16 4.37l-25.18 3.48-.47 1.7 26.86-3.7-1.21-1.48zm3.46 4.48l-30 4.13-.39 1.7 31.4-4.33-1.01-1.5zm3 4.52L533 210.05q-.18.84-.33 1.68l35.33-4.87zm2.71 4.58L532 215.13q-.15.84-.27 1.68l38.85-5.36c-.24-.52-.52-1.02-.81-1.53zm2.5 4.61l-41 5.65-.23 1.67 42-5.79q-.36-.78-.76-1.53zm2.33 4.62l-44 6.07-.19 1.67 44.9-6.2-.7-1.54zm2.19 4.65l-46.69 6.44-.15 1.67 47.53-6.56zm2.05 4.66l-49.16 6.78-.12 1.66 49.95-6.9-.66-1.54zm2 4.68l-51.46 7.1q0 .84-.09 1.65l52.18-7.19zm1.87 4.69l-53.56 7.39-.07 1.65 54.24-7.49-.63-1.55zm1.79 4.7L529 250.19v1.65l56.13-7.75zm1.72 4.71l-57.31 7.9v1.65l57.88-8c-.22-.5-.4-1.02-.59-1.55zm1.65 4.72l-59 8.14v1.64l59.49-8.21zm1.58 4.74l-60.51 8.3v1.64l61-8.41zm1.51 4.73L529.07 270l.07 1.64 62.28-8.6-.49-1.61z" opacity=".1"/><path d="M541.29 200c3.09.29 8.82-4.09 10.36-8.66.1-.31-.87-3.24-1.88-6.85-.61-2.2-1.23-4.65-1.64-6.94-.08-.47-13.71 6-13.71 6a37.21 37.21 0 0 1 3 8.53 6.35 6.35 0 0 1 .07.95v.16c-.02 1.81.51 6.48 3.8 6.81z" class="I"/><path d="M537.43 193v.16a10.79 10.79 0 0 0 1.48-.18c8.4-1.69 8.74-12.64 8.69-15.39-2.48.81-13.2 5.93-13.2 5.93a36.69 36.69 0 0 1 3 8.53 4.45 4.45 0 0 1 .03.95z" class="B"/><path d="M547.62 159.27c2.3 4.88 1.75 20-1.4 23.84-4.57 5.54-13.12 7.25-18.1 1.51-4.82-5.57-3.75-25.29-.13-28.87 5.34-5.27 16.23-3.68 19.63 3.52z" class="I"/><g class="B"><path d="M534.52 170.2s.08.05.07.09c-.06 1 0 2.2.95 2.56v.06c-1.13-.19-1.25-1.76-1.02-2.71z"/><path d="M535.46 169.16c1.65-.07 1.67 3.22.15 3.29s-1.53-3.23-.15-3.29zm-6.85 1.25s-.08.05-.08.09c0 1-.08 2.19-1 2.54a0 0 0 0 0 0 .06c1.13-.17 1.28-1.73 1.08-2.69z"/><path d="M527.69 169.35c-1.64-.11-1.74 3.18-.22 3.28s1.6-3.19.22-3.28zm9.06-1.71a10.19 10.19 0 0 1-1.28-.44 2.2 2.2 0 0 1-1.22-.69.71.71 0 0 1 .11-.85 1.74 1.74 0 0 1 1.74-.19 2.52 2.52 0 0 1 1.47 1.09.74.74 0 0 1-.82 1.08zm-10.34.06c.45-.08.86-.23 1.3-.35a2.23 2.23 0 0 0 1.27-.61.69.69 0 0 0-.05-.85 1.74 1.74 0 0 0-1.72-.31 2.48 2.48 0 0 0-1.54 1 .74.74 0 0 0 .74 1.12zm9.12 11.96c-.24.24-.48.57-.85.61a2.8 2.8 0 0 1-1.1-.25 0 0 0 0 0 0 0 1.38 1.38 0 0 0 1.3.55 1.1 1.1 0 0 0 .79-.91c-.02-.01-.1-.03-.14 0zm-1.09-3.04a3.47 3.47 0 0 1-2.31 1.56 4.75 4.75 0 0 1-1.25.07h-.24-.22a.27.27 0 0 1-.21-.23h0a.38.38 0 0 1 0-.1h0v-.09-2c-.29.15-1.74.82-1.72.4a52 52 0 0 1 1.26-10.52c0-.11.2-.09.19 0 0 3.28-.66 6.52-.75 9.81a6.4 6.4 0 0 1 1.64-.51c.11 0-.17 2.31-.13 2.66h0a4.8 4.8 0 0 0 3.59-1.15c.13-.05.21.01.15.1z"/><path d="M531.34 177.84a4.07 4.07 0 0 0 1.66 1.27 1.88 1.88 0 0 0 1.13.06c.81-.22.83-1 .67-1.61a4.21 4.21 0 0 0-.37-1 5.33 5.33 0 0 1-3.09 1.28z"/></g><path d="M533 179.11a1.88 1.88 0 0 0 1.13.06c.81-.22.83-1 .67-1.61a1.93 1.93 0 0 0-1.8 1.55z" fill="#ff99ba"/><path d="M525.86 160.77c.54-1.3 1.18-2.61 2-2.87s1.3 1.63 3.08 1.74c2.39.14 3.53-2.07 6.88-2.34 4.8-.38 7 3.62 7.13 10.44.16 6.1 3.85 6.64 3.85 6.64s2.11-13.46-1.72-17.88-12.53-6.3-18.33-2c-2.16 1.57-2.89 6.27-2.89 6.27z" class="B"/><path d="M545.66,172s2.75-5.21,5.07-4.28.67,8.16-1.76,9.43a2.6,2.6,0,0,1-3.64-1Z" class="I"/><path d="M550.21 169.79v.07c-1.7.95-2.43 2.72-2.87 4.52a1.44 1.44 0 0 1 2.09-.66v.1a1.61 1.61 0 0 0-1.68.78 7.64 7.64 0 0 0-.67 1.52c-.06.17-.36.12-.32-.07h0c-.34-2.31 1.03-5.72 3.45-6.26z" class="B"/><path d="M532.65 152.2a21.6 21.6 0 0 1 5.88-2.19c2.3-.44 9.66-.35 11.52 1s2.77 8.22 2.88 9.23.06 7.14-2 8.76-3-8.74-6.72-11.95-11.56-4.85-11.56-4.85z" class="C"/><path d="M532.65 152.2s7.79 1.64 11.51 4.85 4.6 13.56 6.72 11.95c.93-.71 1.34-1.71 1.64-3.36-.67-3-2.2-7.62-4.94-10.71-2.56-2.89-6.73-4.17-11.12-4.37a24.64 24.64 0 0 0-3.81 1.64z" opacity=".1"/><path d="M550.68 175.19c-.38-2.75-3.67-10-6.9-14s-12-6-13.26-5.8c-2.93.36-3.48 1.81-4 1.58s2.24-3.77 3-4.32a9.68 9.68 0 0 1 4-1.29c1.28 0 9.22.22 12.3 3.39s7.76 12.33 7.17 14.79c-.14.59-.88 1-1.07 1.85-.26 1.1-.4 2.36-.68 3.13s-.53.91-.56.67z" class="C"/><path d="M543 159.32a14.66 14.66 0 0 0 1.82-1.52 10.77 10.77 0 0 0 1.52-1.85h.08A7.68 7.68 0 0 1 545 158a6.36 6.36 0 0 1-2 1.42c0 .08-.09-.04 0-.1zm7.52 13.11c.07-.2.19-.39.27-.59a3.33 3.33 0 0 0 .21-.7 6.24 6.24 0 0 1 .23-1.36 4.77 4.77 0 0 1 .59-1 1.87 1.87 0 0 0 .47-1.16c0-.06.08-.07.09 0a4.69 4.69 0 0 1-.79 2.2 9.17 9.17 0 0 0-.28 1.46 2.2 2.2 0 0 1-.66 1.2s-.15.02-.13-.05zm-1.14-2.92l.71-1a10.64 10.64 0 0 0 .53-1.07l.41-1.1.54-1.29c0-.05.11 0 .09 0-.16.46-.23.94-.37 1.4a10.28 10.28 0 0 1-.45 1.16 7.13 7.13 0 0 1-.59 1 2.92 2.92 0 0 1-.84.84s-.05.08-.03.06zm-1.19-2.64a8.08 8.08 0 0 0 1.4-1.79l1-2h.08a9.39 9.39 0 0 1-.81 2.16 4.93 4.93 0 0 1-.65.92 5.32 5.32 0 0 1-1 .75s-.06 0-.02-.04zm-1.26-2.51a2.58 2.58 0 0 0 .68-.79l.64-1 .58-1a2.63 2.63 0 0 0 .43-1.05 0 0 0 0 1 .09 0 2.64 2.64 0 0 1-.25 1.1 6.84 6.84 0 0 1-.55 1.12 10.18 10.18 0 0 1-.71 1 1.76 1.76 0 0 1-.85.67c-.07.08-.12-.01-.06-.05zm-1-3.23l.69-.82c.22-.28.42-.58.62-.88l.61-1a0 0 0 0 1 .09 0 6.8 6.8 0 0 1-.45 1 7.09 7.09 0 0 1-.61.93 8.2 8.2 0 0 1-.71.85 2.66 2.66 0 0 1-.85.68c-.05 0-.11 0-.08-.08a4.78 4.78 0 0 1 .69-.68zm-5.17-3.24l.77-1 .93-1a11.66 11.66 0 0 1 2-1.58s.1 0 .06.07l-3.74 3.57c.01.05-.06-.01-.02-.06zm-1.83-2.25a5.67 5.67 0 0 1 .88-.95 12.15 12.15 0 0 1 2.28-1.47s.1 0 0 .07l-2 1.6a10.89 10.89 0 0 0-.93.87c-.3.31-.51.68-.79 1a0 0 0 0 1-.06 0 3.16 3.16 0 0 1 .62-1.12zm-2.37-.93a6.16 6.16 0 0 1 .81-1 7.16 7.16 0 0 1 1.94-1.32c.05 0 .08.06 0 .08a14.49 14.49 0 0 0-1.81 1.51l-.82.86c-.27.29-.49.64-.78.89h-.05a6.6 6.6 0 0 1 .71-1.02zm-1.75-1.27a15.01 15.01 0 0 1 .85-.74 3.74 3.74 0 0 1 .92-.6 0 0 0 0 1 0 .08l-1.59 1.49a9.83 9.83 0 0 0-1.2 1.6h-.05a3.53 3.53 0 0 1 1.07-1.83zm-2.1-.31a5.66 5.66 0 0 1 1.76-1.27s.09 0 0 .08a7 7 0 0 0-1.6 1.37 9.43 9.43 0 0 0-1.21 1.73h-.06a4.6 4.6 0 0 1 1.11-1.91zm-2.64 1.41a3.42 3.42 0 0 1 .21-.43 4.54 4.54 0 0 1 .57-.79 9.2 9.2 0 0 1 1.48-1.31s.1 0 .06.07a8 8 0 0 0-1.39 1.34 5.91 5.91 0 0 0-.54.77c-.08.13-.15.27-.22.41a3.17 3.17 0 0 1-.21.41h-.08a1.45 1.45 0 0 1 .12-.47zm-1.65.26a5.87 5.87 0 0 1 .46-.65 6.1 6.1 0 0 1 .54-.59l.59-.57c.19-.2.11 0 .06.06a6.31 6.31 0 0 0-.54.62l-.48.61-.48.62a7.47 7.47 0 0 1-.48.63h-.06a3.93 3.93 0 0 1 .39-.73z" class="B"/><g class="I"><path d="M561.66 201.22c6.24 13.91 20.06 42.4 16.51 53.12-4.66 14.07-29 29.59-35.36 33.94-2.75 1.89-16.42-15.64-15.58-19.11s25.32-22.53 26.7-24.82-2.86-26.73-3.84-39.63c-1.25-16.28 6.29-15.27 11.57-3.5z"/><path d="M520.91 278.56c.74-1.53-.06-1.93-2.78-.6s-12.37 8.87-14.72 5.28 11.42-14.05 16.12-15.9 13-3.22 13-3.22c-2.31 2.58-7.23 9.34-11.62 14.44z"/><path d="M549.48,282.83c-6.66,7-14.53,16.14-25,19.15a5.38,5.38,0,0,1-3.54-.11c-4.68,1.43-6.76-.35-6.76-.35-4.77,0-6.64-2.11-6.64-2.11s-5.51,1.61-7-1.56c-1.72-3.54,6.36-5.12,10.27-8.71,9-8.21,19.4-22.39,21.75-25Z"/></g><path d="M526.18 287.14a77.34 77.34 0 0 1-8.26 6.74 77.64 77.64 0 0 1-10.35 5.4.1.1 0 0 0 .06.18 41.32 41.32 0 0 0 18.66-12.2c.11-.13.02-.26-.11-.12zm5.74 4.69c-2.74 2.15-7.58 5.91-17.8 9.58v.07A37 37 0 0 0 532 292c.18-.19.1-.32-.08-.17zm3.08 2.58c-4.8 3.48-8.27 5.07-14 7.43v.06c6.83-2 9.08-3.48 14.15-7.35.13-.13 0-.28-.15-.14z" class="B"/><path d="M550.74 222.55l23.26 1.12s-10.78-23.24-15.88-29.18c-5.73-6.68-7.9-2.29-8.61 6.06s1.23 22 1.23 22z" class="C"/><path d="M551.76 218.38c3-.26 12 .23 13.53.29.79 0 3.94.31 4.72.34.1 0 .08.16 0 .16-1.5-.06-3 .05-4.52 0s-10.73-.2-13.71-.67c-.08-.01-.08-.12-.02-.12zm11.84-15.16a.083.083 0 0 1 .15-.07l3.28 5.65a18.71 18.71 0 0 0-1.22-3.19s.05-.07.07 0a15 15 0 0 1 1.4 3.69l2.16 4c1.8 3.41 3.64 6.82 5.23 10.34a.27.27 0 0 1-.27.37c-.81-.06-1.61-.15-2.41-.27-.08 0-.09-.15 0-.15a26.74 26.74 0 0 1 2-.08c-1.82-3.26-3.47-6.61-5.2-9.92s-3.54-6.88-5.19-10.37zm-14.28 9.43l-.71-3.62.61 2.65-.15-5.41.91 8.15.82 8 1.58.3a.08.08 0 1 1 0 .15h-1.76a.26.26 0 0 1-.3-.22c-.41-3.29-.78-6.65-1-10zm-72.18-47.84a17.45 17.45 0 0 1-.49-4.41 17 17 0 0 1 .5-4.41 19.51 19.51 0 0 1 0 8.82zm-8.98 2.59a19.78 19.78 0 0 1-4.4-7.64 17.13 17.13 0 0 1 2.63 3.57 17.42 17.42 0 0 1 1.77 4.07zm-6.49 6.73a17.8 17.8 0 0 1-4.06-1.78 17.44 17.44 0 0 1-3.57-2.64 17 17 0 0 1 4.07 1.78 17.38 17.38 0 0 1 3.56 2.64zm-2.25 9.07a17.93 17.93 0 0 1-4.41.5 17.4 17.4 0 0 1-4.4-.51 17.45 17.45 0 0 1 4.41-.49 17.79 17.79 0 0 1 4.4.5zm2.58 8.98a17.17 17.17 0 0 1-3.57 2.64 17.4 17.4 0 0 1-4.07 1.76 18.05 18.05 0 0 1 3.57-2.63 17.85 17.85 0 0 1 4.07-1.77zm6.74 6.49a17.35 17.35 0 0 1-1.77 4.06 17.17 17.17 0 0 1-2.64 3.57 17.42 17.42 0 0 1 1.77-4.07 17.76 17.76 0 0 1 2.64-3.56zm9.08 2.25a17.45 17.45 0 0 1 .49 4.41 17 17 0 0 1-.5 4.41 19.51 19.51 0 0 1 0-8.82zm8.98-2.59a18.05 18.05 0 0 1 2.63 3.57 17.42 17.42 0 0 1 1.77 4.1 16.78 16.78 0 0 1-2.63-3.57 17.42 17.42 0 0 1-1.77-4.1zm6.48-6.73a17.42 17.42 0 0 1 4.07 1.77 17.77 17.77 0 0 1 3.57 2.65 19.83 19.83 0 0 1-7.64-4.42zm2.25-9.07a19.51 19.51 0 0 1 8.82 0 17.45 17.45 0 0 1-4.41.49 17.93 17.93 0 0 1-4.41-.49zm-2.53-8.99a19.78 19.78 0 0 1 7.64-4.4 19.45 19.45 0 0 1-7.64 4.4zm-6.79-6.48A17.88 17.88 0 0 1 488 163a17.38 17.38 0 0 1 2.64-3.56 17 17 0 0 1-1.78 4.06 17.44 17.44 0 0 1-2.65 3.56z" class="B"/><g class="C"><path d="M236.38 246.22h247.6V425.7h-247.6z"/><path d="M323.86 227.64h-87.48v18.58h92.51l-5.03-18.58z"/></g><g opacity=".1"><path d="M236.38 246.22h247.6V425.7h-247.6z"/><path d="M323.86 227.64h-87.48v18.58h92.51l-5.03-18.58z"/></g><path d="M435.56 347.58l-142.14-41.05c11.71-54.69 44.5-108.27 46.7-163.79l142 39.18c-11.8 55.58-44.55 109.7-46.56 165.66z" class="D"/><path d="M435.56 347.58l-142.19-40.79-.28-.08.05-.26c11.67-54.71 44.41-108.3 46.51-163.84v-.42l.47.13 142.1 39.3.32.09-.07.3c-11.95 55.55-44.79 109.64-46.91 165.57zm0 0c1.9-56 34.57-110.14 46.28-165.75.09.12.17.25.26.38l-142-39.05.49-.29c-2.3 55.5-35.14 109.07-46.88 163.75l-.23-.34 142.08 41.3z" class="E"/><path d="M427.91 246c-7.19 19.19-29 29.89-49.29 23.88s-31-26.28-24-45.37 28-30 48.54-24.06 32.02 26.29 24.75 45.55z" class="K"/><g class="E"><path d="M391.3 235.18l-25 28.51a33.92 33.92 0 0 1-11.65-39.23c6.9-19 28.1-29.91 48.54-24.06s31.94 26.46 24.71 45.55q-18.29-5.4-36.6-10.77z"/><path d="M391.3 235.18l21.8 29.34a41.17 41.17 0 0 1-34.48 5.31c-20.3-5.95-30.93-26.4-24-45.37s28.1-29.91 48.54-24.06 31.94 26.46 24.71 45.55q-18.26-5.4-36.57-10.77z"/></g><path d="M391.3 235.18l-38.4 6.4a34.79 34.79 0 0 1 1.76-17.12c6.9-19 28.1-29.91 48.54-24.06s31.94 26.46 24.71 45.55q-18.3-5.4-36.61-10.77z" class="C"/><path d="M351.07 166.82q29.43 8.18 58.45 16.38l-1 4.25q-28.92-8.2-58.2-16.38l.75-4.25zm-4.42 109.36q38.78 11.43 78 23l-1.14 4.24q-39.37-11.55-78.22-23 .66-2.14 1.36-4.24zm-3.38 10.61q39 11.47 78.61 23.07l-1 4.25Q381.14 302.5 342 291l1.27-4.21zm-3.03 10.62q39.36 11.54 79.37 23.19l-.74 4.27q-40.25-11.69-79.72-23.24l1.09-4.22z" class="E"/><path d="M331.36 276.3l-9.36-2.77 1.43-4.19 9.39 2.76q-.77 2.1-1.46 4.2z" class="C"/><path d="M328 286.89l-9.47-2.78 1.32-4.19 9.44 2.77-1.29 4.2z" class="K"/><path d="M325 297.5l-9.55-2.79q.57-2.1 1.17-4.2l9.51 2.78-1.13 4.21z" class="E"/><use xlink:href="#B" class="C"/><use xlink:href="#B" opacity=".8" class="F"/><path d="M274.73 383.09q.61-52 1.31-103.47 3 0 6.11.12-.7 51.38-1.35 103.16-3.04.1-6.07.19zm15.34-.26q.68-51.58 1.42-102.75l6.14.32q-.75 51.08-1.46 102.5l-6.1-.07zm15.43.36q.74-51.26 1.5-102.19l6.17.48q-.79 50.87-1.55 102-3.04-.16-6.12-.29zm15.5.86q1.14-74.68 2.35-148.91l6.19.63q-1.21 74.22-2.37 148.74l-6.17-.46zm15.6 1.26q1.18-74.42 2.41-148.53l6.2.68q-1.21 74.14-2.42 148.42l-6.19-.57zm15.63 1.52q1.2-74.24 2.43-148.34l6.21.67q-1.23 74.19-2.45 148.32zm15.64 1.67q1.23-74.14 2.44-148.35l6.19.62q-1.19 74.31-2.42 148.41zm15.66 1.71q1.22-74.16 2.4-148.56 3.09.27 6.18.51-1.17 74.55-2.38 148.71l-6.2-.66zm15.64 1.63q1.2-74.29 2.33-149l6.15.37q-1.09 74.89-2.29 149.21zm15.61 1.42q1.16-74.52 2.23-149.61 3.06.12 6.12.18-1 75.33-2.18 149.92zm15.55 1.11q1.11-74.85 2.1-150.43 3 0 6.08-.06-.93 75.86-2 150.81-3.1-.13-6.18-.32zm15.49.63q1-75.27 1.93-151.46l6-.35q-.84 76.5-1.86 151.92-3 .01-6.07-.11z" class="E"/><path d="M243.55 228.43h231.76v180.55H243.55z" class="D"/><path d="M475.32,228.43,475.63,409v.32h-.31l-231.77.17h-.49V409l.12-180.54v-.38h.37Zm0,0-231.77.37.38-.37L244,409l-.49-.49,231.77.18L475,409Z" class="E"/><g class="G"><path d="M293.08 389.22l-.17-70.52.17-70.52.18 70.52-.18 70.52z"/><use xlink:href="#C"/><use xlink:href="#D"/><use xlink:href="#D" x="5.75"/><use xlink:href="#D" x="11.5"/><path d="M321.84 389.22l-.17-70.52.17-70.52.18 70.52-.18 70.52z"/><use xlink:href="#C" x="28.76"/><use xlink:href="#C" x="34.51"/><use xlink:href="#D" x="34.51"/><use xlink:href="#D" x="40.26"/><use xlink:href="#D" x="46.01"/><path d="M356.35 389.22l-.17-70.52.17-70.52.18 70.52-.18 70.52z"/><use xlink:href="#C" x="63.27"/><use xlink:href="#D" x="63.27"/><use xlink:href="#D" x="69.02"/></g><path d="M356.17 374.3v-10.7h24.14v10.7zm-12.87-19.84v-10.7h37.01v10.7zm-14.42-19.83v-10.7h51.43v10.7zm-6.19-19.85v-10.7h57.62v10.7zm-11.02-19.84v-10.7h68.65v10.7zm-10.91-19.84v-10.7h79.55v10.7z" class="C"/><path d="M289.05 385.4l22.81-.28 22.82-.19 45.63-.2-.66.67v-34.31l.08-34.3.22-34.31.39-34.3.4 34.3.21 34.31.08 34.3v34.31.66h-.66a5338.89 5338.89 0 0 1-45.63-.2l-22.82-.19zm96.09-11.09v-10.7h.97v10.7zm-.01-19.84v-10.7h.97v10.7zm0-19.84v-10.7h.97v10.7zm0-19.85v-10.7h.97v10.7zm.01-19.84v-10.7h.97v10.7zm0-19.84v-10.7h.97v10.7z" class="G"/><g class="B"><path d="M359.22 373.1a129.4 129.4 0 0 0-1.22-15.62 148 148 0 0 0-2.77-15.39 133.15 133.15 0 0 0-10.35-29.39 104.78 104.78 0 0 0-17.45-25.7l-1.31-1.44-1.39-1.37-2.79-2.73-6-5a105.94 105.94 0 0 0-13-8.75l.05-.09a94 94 0 0 1 35.24 30.81 104.25 104.25 0 0 1 8 13.61 127.42 127.42 0 0 1 10.12 29.81 128.92 128.92 0 0 1 2.87 31.25z"/><path d="M310.44 264.67l.37 1.48-7.3 1.82 2.35 7.15-1.46.47-2.85-8.71 8.89-2.21z"/></g><path d="M422.15 245.16v147.08h-5.95V245.16zm15.02 64.27v82.8h-5.95v-82.8zM275.12 277.3v82.8h-5.95v-82.8z" class="E"/><path d="M518.05 237.18l-.09 180.55-231.77-.12.07-134.05 44.18-46.47 187.61.09z" class="C"/><path d="M518.05 237.18l-.09 180.55-231.77-.12.07-134.05 44.18-46.47 187.61.09z" opacity=".6" class="F"/><path d="M286.26 283.56l44.18-46.47-.02 46.49-44.16-.02z" class="C"/><g class="F"><path d="M286.26 283.56l44.18-46.47-.02 46.49-44.16-.02z" opacity=".4"/><path d="M331.085 299.638l-.053 100.38-5.95-.003.053-100.38zm15.022 0l-.053 100.38-5.95-.003.053-100.38zm15.022.01l-.053 100.38-5.95-.003.053-100.38z"/><use xlink:href="#E"/><use xlink:href="#E" x="15.022" y="0.01"/><use xlink:href="#E" x="30.044" y="0.02"/><use xlink:href="#E" x="45.067" y="0.02"/><use xlink:href="#E" x="60.079" y="0.03"/><use xlink:href="#E" x="75.111" y="0.03"/><use xlink:href="#E" x="90.133" y="0.05"/><use xlink:href="#E" x="105.145" y="0.06"/><use xlink:href="#E" x="120.167" y="0.059"/></g><g class="C"><path d="M483.33 425.7h-247.6l-19.1-164.59h247.6l19.1 164.59z"/><path d="M302.14 244.07h-87.48l1.97 17.04h92.51l-7-17.04z"/></g><path d="M264.7 447.7c-2.26.73-66.79.16-69.24-1.41-.93-.6-1.39-10-1.63-21.38l-.12-7.57-4.81-34.48 43.14.26 3.65 34.47-.26 7.57s24.61 11.27 27.11 13.28 4.46 8.56 2.16 9.26z" class="H"/><path d="M264.7,447.7c-2.26.73-66.79.16-69.24-1.41-1.13-.73-1.58-14.46-1.75-29l42,.25-.26,7.57s24.61,11.27,27.11,13.28S267,447,264.7,447.7Z" class="F"/><path d="M264.7,447.7c-2.26.73-66.79.16-69.24-1.41-.93-.6-1.39-10-1.63-21.38l41.6.25s24.61,11.27,27.11,13.28S267,447,264.7,447.7Z" class="C"/><g class="B"><path d="M263.8 445.11c-10.82-.36-54.47-.8-65.19-.33-.08 0-.08.06 0 .06 10.71.6 54.37.68 65.19.44.2 0 .2-.17 0-.17zm-5.39-9.02a8.67 8.67 0 0 0-6.5 2.58 8.43 8.43 0 0 0-2.46 5.75c0 .07.12.07.13 0a10 10 0 0 1 8.83-8.2.07.07 0 0 0 0-.13zm-18.79-9.82c-4.33-.1-9.36 1.39-12.09 4.9-.1.14.09.29.22.22a60.61 60.61 0 0 1 11.94-4.59.27.27 0 0 0-.07-.53zm3.38 1.33c-4.33-.1-9.36 1.39-12.08 4.91-.11.13.08.28.21.22a59.39 59.39 0 0 1 11.87-4.59.28.28 0 0 0 0-.54z"/><path d="M246.28 428.94c-4.33-.1-9.36 1.38-12.08 4.9-.11.13.09.28.21.22a59.39 59.39 0 0 1 11.94-4.59.27.27 0 0 0-.07-.53zm3.33 1.33c-4.33-.1-9.36 1.38-12.08 4.9-.11.14.09.29.22.22a60.28 60.28 0 0 1 11.93-4.59.27.27 0 0 0-.07-.53zm-48.15 4.26c-4.86 0-4.91 7.52-.05 7.55s4.91-7.52.05-7.55zm42.94-19.77c-2.18-1.84-5-.09-6.32 1.79a22.65 22.65 0 0 0-4 11 .11.11 0 0 0 .13.12.53.53 0 0 0 .78.36c3.1-2.11 6.67-4 9-7 1.39-1.68 2.47-4.53.41-6.27zm-5.4 9.15l-4.51 3.2a67.29 67.29 0 0 1 2.5-6.4 23.48 23.48 0 0 1 1.61-2.9c.95-1.43 5.23-5 5.62-.29.22 2.6-3.43 5.12-5.22 6.39z"/><path d="M223.28 429.1c3.76.61 7.66-.43 11.37-1a.54.54 0 0 0 .33-.79.11.11 0 0 0 0-.18 22.64 22.64 0 0 0-10.42-5.42c-2.28-.46-5.51.13-5.87 2.95s2.39 4.08 4.59 4.44zm-2.6-2.49c-2.89-3.74 2.68-4 4.35-3.59a25.34 25.34 0 0 1 3.15 1.06c2.14.85 4.12 2 6.15 3-1.83.16-3.64.47-5.47.69-2.19.29-6.58.9-8.18-1.16z"/></g><path d="M127.48,223s49,85.84,50.31,91.84c2,9.22,11.75,100.15,11.75,100.15l48.27-.3s-8-80.16-16.18-106.64c-4.46-14.45-28-53.64-39-73-1-1.73-.7-9.64-.7-9.64Z" class="K"/><path d="M233.17 406.63c-7.48-.14-30.14-.77-40.11 0-.08 0-.08.13 0 .14 3.42.54 32.63.18 40.11 0a.1.1 0 1 0 0-.14zm-97.24-175.71l9.91 15.42 9.82 15.48q9.71 15.54 19 31.35a94.36 94.36 0 0 1 7.62 15.29 93 93 0 0 1 4.2 16.41c.95 5.6 1.56 11.26 2.12 16.91q.9 9 1.79 18.06 1.84 18.48 3.67 37l.43 4.54c0 .22-.38.26-.4 0l-3.75-36.78-1.86-18.31-1.93-17a111.49 111.49 0 0 0-3.55-16.46 78.74 78.74 0 0 0-7-16c-5.91-10.49-12.17-20.81-18.44-31.11l-19.32-30.93-2.49-3.75c-.05-.13.12-.22.18-.12z" class="B"/><path d="M146.89 451.2c-2.38-.2-63.43-25.79-65.11-28.2a.8.8 0 0 1-.09-.45c0-2.11 4.38-9.45 8-19.09.23-.62 1.85-3.47 4.09-7.33l17.09-28.69 39.91 16.43-19.55 28.5-3.07 6.92s18.58 19.68 20.13 22.49.96 9.58-1.4 9.42z" class="H"/><path d="M146.89 451.2c-2.38-.2-63.43-25.79-65.11-28.2a.8.8 0 0 1-.09-.45c0-2.11 4.38-9.45 8-19.09.23-.62 1.85-3.47 4.09-7.33l37.45 16.24-3.07 6.92s18.58 19.68 20.13 22.49.96 9.58-1.4 9.42z" class="F"/><path d="M146.88 451.2c-2.37-.17-63.43-25.79-65.1-28.17-.64-.9 2.2-9.25 8-19.54l38.47 15.83s18.59 19.68 20.15 22.49.85 9.55-1.52 9.39z" class="C"/><g class="B"><path d="M147 448.46c-9.89-4.39-50.2-21.17-60.3-24.76-.09 0-.11 0 0 .06 9.71 4.57 50.14 21 60.26 24.86.2.08.26-.07.04-.16zm-1.6-10.39a8.71 8.71 0 0 0-7 0 8.43 8.43 0 0 0-4.44 4.41c0 .06.08.11.12.05a10 10 0 0 1 11.26-4.29.09.09 0 0 0 .06-.17zm-13.73-16.14c-4-1.72-9.2-2.23-13 0-.15.09 0 .3.12.28a60 60 0 0 1 12.78.23.27.27 0 0 0 .1-.51zm2.59 2.48c-4-1.71-9.2-2.23-13 0-.15.09 0 .3.12.29a59.38 59.38 0 0 1 12.78.22.27.27 0 0 0 .1-.51z"/><path d="M136.84 426.9c-4-1.72-9.19-2.23-13 0-.15.08 0 .29.12.28a60.12 60.12 0 0 1 12.79.23.27.27 0 0 0 .09-.51zm2.59 2.48c-4-1.71-9.2-2.23-13 0-.15.09 0 .3.12.29a59.47 59.47 0 0 1 12.79.22.27.27 0 0 0 .09-.51zM93.2 415.26c-4.49-1.84-7.37 5.13-2.88 7s7.38-5.14 2.88-7zm47.22-2.21c-1.33-2.52-4.56-1.94-6.53-.71a22.65 22.65 0 0 0-7.88 8.72.11.11 0 0 0 .08.16.52.52 0 0 0 .58.62c3.67-.78 7.68-1.17 11-3.06 1.93-1.1 4-3.35 2.75-5.73zm-8.42 6.46c-1.79.43-3.59.77-5.37 1.27 1.54-1.69 3-3.45 4.71-5a25.88 25.88 0 0 1 2.58-2.09c1.42-1 6.73-2.67 5.33 1.84-.8 2.47-5.13 3.47-7.25 3.98z"/><path d="M115.46 418.42c3.26 2 7.26 2.47 10.9 3.36.38.1.63-.28.61-.6a.12.12 0 0 0 .08-.17 22.75 22.75 0 0 0-7.64-8.93c-1.93-1.28-5.15-1.95-6.54.53s.69 4.65 2.59 5.81zm-1.46-3.28c-1.28-4.56 4-2.7 5.37-1.7a26.07 26.07 0 0 1 2.52 2.16c1.67 1.59 3.08 3.39 4.57 5.12-1.76-.54-3.55-.93-5.33-1.41-2.13-.58-6.43-1.66-7.13-4.17z"/></g><path d="M134.39 410.83l-44.67-18.68s56.67-81.16 57.16-87.24c.43-5.39-23.44-52.65-24.23-66.35-.86-14.78 6.39-26.12 14.29-33.12l45 20s-3.93 8-11.68 12.3c0 0 23.08 54.56 21.52 71.24s-57.39 101.85-57.39 101.85z" class="K"/><g class="B"><path d="M136.49 402.32c-6.45-2.87-4.56-2.14-11.05-4.94-3.18-1.37-24-10.35-27.24-11.11-.07 0-.12.1 0 .14 2.77 1.74 23.8 10.36 27 11.66l11.26 4.44a.1.1 0 0 0 .03-.19zm41.42-165.5a86 86 0 0 0-14.16 4.4.15.15 0 0 0 .09.28c4.75-1.33 9.59-2.56 14.25-4.13a.29.29 0 0 0-.18-.55z"/><path d="M172.44 234.84a22.65 22.65 0 0 0-1.22 2.47 5.65 5.65 0 0 0-.63 2.07.16.16 0 0 0 .27.09 7.55 7.55 0 0 0 1.19-1.94l1.2-2.29c.26-.51-.52-.89-.81-.4z"/><path d="M173.06 230.5l.89-2.12 1-2.2c0-.12.23 0 .18.09-.29.71-.48 1.46-.72 2.2l-.74 2.19c-.47 1.36-1 2.7-1.64 4a5.16 5.16 0 0 0 2.23-.36 4 4 0 0 0 1.59-1.86l1.23-2.39a17 17 0 0 0 1.32-2.67c0-.12.22 0 .18.08a30.71 30.71 0 0 1-2.54 5.68c-.43.7-.79 1.43-1.58 1.7a6.35 6.35 0 0 1-2.64.14c-.11 0-.25 0-.21-.17a44.12 44.12 0 0 1 1.45-4.31zm-2.06 8.99c1.6 3.51 3 7 4.5 10.5s2.83 6.87 4.15 10.34q4 10.53 7.15 21.36 1.54 5.35 2.82 10.78a79.22 79.22 0 0 1 2 11 28.73 28.73 0 0 1-1.07 11 63.14 63.14 0 0 1-4.21 10.22c-1 2.07-1.37 1.79-.87.74 1.42-3 5.15-12 5-19.62a57.43 57.43 0 0 0-1.58-10.9c-.8-3.66-1.72-7.29-2.72-10.9-2-7.11-4.33-14.09-6.75-21.05l-4.21-11.66c-1.38-3.89-2.83-7.46-4.38-11.74a.1.1 0 0 1 .17-.07zm-34-11.94c.81-.29 1.92.21 2.74.36a24.22 24.22 0 0 0 3.17.36 23.78 23.78 0 0 0 3.16-.07 6.73 6.73 0 0 0 3-.76 15.19 15.19 0 0 0 3.91-4 23.75 23.75 0 0 0 3.07-5.24c0-.11.2 0 .16.08l-1.06 3.2a19.66 19.66 0 0 1-1.51 2.83 12.27 12.27 0 0 1-4.06 4.49c-1.87 1-4.27.94-6.35.8a25.39 25.39 0 0 1-3.57-.52c-.85-.19-2.27-.35-2.81-1.1a.26.26 0 0 1 .15-.43zm-34.36 156.2q11.28-16.61 22.15-33.49 10.87-16.88 21.46-34.08c1.68-2.73 3.62-5.46 4.72-8.49 1.2-3.31.58-6.52-.42-9.78a166 166 0 0 0-6.68-17.51c-2.52-5.74-5.24-11.38-7.91-17a163 163 0 0 1-7.47-17.16c-1.9-5.63-2.58-11.46-1-17.25s4.89-10.9 8.34-15.69l2.74-3.78c.07-.1.22 0 .15.11-3.8 5-7.51 10.29-9.77 16.19a28.21 28.21 0 0 0-2 9.1 29.43 29.43 0 0 0 1.35 9.36c1.74 5.89 4.54 11.49 7.14 17l8 17a181.77 181.77 0 0 1 6.94 17.58c.88 2.67 1.86 5.47 1.76 8.31-.1 3.12-1.63 5.91-3.2 8.52-6.86 11.37-14 22.59-21.16 33.75l-22 33.33-2.89 4.23c-.11.13-.36-.08-.25-.25zm98.68-251.98c-3-4.65-8.92-6.35-14.87-5.78s-13.21 2.85-14.93 12.85c-1.39 8.12.21 16.36-.8 25.48s-13.28 30.25 1.5 42.85c13.27 11.33 43.23 5.6 46.25-14.35 2.39-15.82-14.22-32.53-15.47-39s1.67-16.95-1.68-22.05z"/><path d="M203 141a36.71 36.71 0 0 0 1.14 13.73 13.23 13.23 0 0 0 1.46 3.27l1.92 2.88 3.86 5.64a47.64 47.64 0 0 1 5.79 12.21 37.27 37.27 0 0 1 1.38 13.48 31.55 31.55 0 0 0 .53-6.87 34.59 34.59 0 0 0-1-6.86 42.29 42.29 0 0 0-5.65-12.64l-3.94-5.66a23.69 23.69 0 0 1-3.45-5.73 29.7 29.7 0 0 1-1.52-6.58A57.36 57.36 0 0 1 203 141zm-31.79 4.75c-.39 4.66-.6 9.32-1.21 13.91a59.5 59.5 0 0 1-1.28 6.8c-.57 2.19-1.45 4.36-2.23 6.56s-1.5 4.44-2.11 6.72a42.22 42.22 0 0 0-1.17 7 25.82 25.82 0 0 0 .52 7.07 17.63 17.63 0 0 0 3.1 6.29 18.77 18.77 0 0 1-2.49-6.42 25 25 0 0 1-.16-6.85 60.8 60.8 0 0 1 3.51-13.36c.75-2.2 1.63-4.37 2.19-6.7a47.54 47.54 0 0 0 1.09-7 119.32 119.32 0 0 0 .24-14.02z"/></g><path d="M178.42 169.32c-1.37 7.82-.54 41.66 3.4 52.46 4.6 12.59 14.89 34.76 18.48 34.74 3.42 0 22.06-10.9 20-13.93S204 217 202 212.84c-1.2-2.47-8.56-27.33-13.18-39.77-4.2-11.26-8.51-14.51-10.4-3.75z" class="H"/><path d="M177.14 191.12l21.77 2.22S190 171 185.48 165.17c-5-6.56-7.3-2.55-8.38 5.25s.04 20.7.04 20.7z" class="C"/><path d="M182.82 168.71a1.1 1.1 0 1 1-1.1-1.09 1.1 1.1 0 0 1 1.1 1.09zm-1.1 12.76a1.1 1.1 0 1 0 1.1 1.1 1.09 1.09 0 0 0-1.1-1.1zm9.57 0a1.1 1.1 0 1 0 1.1 1.1 1.1 1.1 0 0 0-1.1-1.1zm-14.35-6.91h-.21l-.08 2.14a.92.92 0 0 0 .29 0 1.1 1.1 0 1 0 0-2.2zm9.57 0a1.1 1.1 0 1 0 1.09 1.1 1.1 1.1 0 0 0-1.09-1.1zM177 188.42l.15 2.18a1.1 1.1 0 0 0-.15-2.18zm9.56 0a1.1 1.1 0 1 0 1.09 1.09 1.09 1.09 0 0 0-1.14-1.09zm9.56 0a1.1 1.1 0 1 0 1.1 1.09 1.09 1.09 0 0 0-1.15-1.09z" class="F"/><g class="B"><path d="M196.24 189.16c-.74-.19-7.51-1-9-1.13l-9-.8a.05.05 0 1 0 0 .1c1.49.31 7.57 1 9.07 1.15l9 .78s-.01-.09-.07-.1z"/><path d="M195.25,193l-18.11-1.84s-1.12-12.91,0-20.71c.79-5.69,2.2-9.36,4.88-8.37Z"/></g><path d="M182.84,229.65l2.61-21.83s8.27-6.13,7.31-14c-.48-4-5.85-24.41-10.36-30.59-4.24-5.8-12.66-4.44-16.39-1.82-11.87,8.35-21.59,17.41-36.31,48.86Z" class="C"/><path d="M163.69 168.71a1.1 1.1 0 1 1-1.1-1.09 1.1 1.1 0 0 1 1.1 1.09zm8.47-1.09a1.1 1.1 0 1 0 1.09 1.09 1.09 1.09 0 0 0-1.09-1.09zm9.56 0a1.1 1.1 0 1 0 1.1 1.09 1.09 1.09 0 0 0-1.1-1.09zm-14.35-6.91a.5.5 0 0 0-.17 0h0a6.37 6.37 0 0 0-.63.35 1.05 1.05 0 0 0-.28.73 1.1 1.1 0 1 0 1.09-1.1zm9.57 0a1.1 1.1 0 1 0 1.1 1.1 1.1 1.1 0 0 0-1.1-1.1zM153 181.47a1.1 1.1 0 1 0 1.1 1.1 1.09 1.09 0 0 0-1.1-1.1zm9.57 0a1.1 1.1 0 1 0 1.1 1.1 1.1 1.1 0 0 0-1.08-1.1zm9.57 0a1.1 1.1 0 1 0 1.09 1.1 1.1 1.1 0 0 0-1.07-1.1zm9.56 0a1.1 1.1 0 1 0 1.1 1.1 1.09 1.09 0 0 0-1.08-1.1zm-23.91-6.91a1.1 1.1 0 1 0 1.09 1.1 1.1 1.1 0 0 0-1.07-1.1zm9.56 0a1.1 1.1 0 1 0 1.1 1.1 1.1 1.1 0 0 0-1.08-1.1zm9.57 0a1.1 1.1 0 1 0 1.1 1.1 1.11 1.11 0 0 0-1.08-1.1zm9.57 0a1.1 1.1 0 1 0 1.09 1.1 1.1 1.1 0 0 0-1.07-1.1zm-43 20.76a1.1 1.1 0 1 0 1.09 1.1 1.1 1.1 0 0 0-1.12-1.1zm9.56 0a1.1 1.1 0 1 0 1.1 1.1 1.09 1.09 0 0 0-1.15-1.1zm9.57 0a1.1 1.1 0 1 0 1.1 1.1 1.1 1.1 0 0 0-1.13-1.1zm9.57 0a1.1 1.1 0 1 0 1.09 1.1 1.1 1.1 0 0 0-1.12-1.1zm9.56 0a1.1 1.1 0 1 0 1.1 1.1 1.09 1.09 0 0 0-1.13-1.1zm9.57 0a1.1 1.1 0 1 0 1.1 1.1 1.1 1.1 0 0 0-1.13-1.1zm-43-6.9a1.1 1.1 0 1 0 1.1 1.09 1.09 1.09 0 0 0-1.18-1.09zm9.57 0a1.1 1.1 0 1 0 1.09 1.09 1.09 1.09 0 0 0-1.17-1.09zm9.56 0a1.1 1.1 0 1 0 1.1 1.09 1.09 1.09 0 0 0-1.18-1.09zm9.57 0a1.1 1.1 0 1 0 1.1 1.09 1.1 1.1 0 0 0-1.18-1.09zm9.57 0a1.1 1.1 0 1 0 1.09 1.09 1.09 1.09 0 0 0-1.17-1.09zm-52.62 20.75a1.1 1.1 0 1 0 1.1 1.1 1.1 1.1 0 0 0-1.18-1.1zm9.57 0a1.1 1.1 0 1 0 1.09 1.1 1.1 1.1 0 0 0-1.17-1.1zm9.56 0a1.1 1.1 0 1 0 1.1 1.1 1.09 1.09 0 0 0-1.2-1.1zm9.57 0a1.1 1.1 0 1 0 1.1 1.1 1.1 1.1 0 0 0-1.18-1.1zm9.57 0a1.1 1.1 0 1 0 1.09 1.1 1.1 1.1 0 0 0-1.17-1.1zm9.56 0a1.1 1.1 0 1 0 1.1 1.1 1.09 1.09 0 0 0-1.18-1.1zm-43.05-6.9a1.1 1.1 0 1 0 1.1 1.09 1.09 1.09 0 0 0-1.18-1.09zm9.57 0a1.1 1.1 0 1 0 1.1 1.09 1.09 1.09 0 0 0-1.18-1.09zm9.57 0a1.1 1.1 0 1 0 1.09 1.09 1.09 1.09 0 0 0-1.17-1.09zm9.56 0a1.1 1.1 0 1 0 1.1 1.09 1.09 1.09 0 0 0-1.18-1.09zm9.57 0a1.1 1.1 0 1 0 1.1 1.09 1.1 1.1 0 0 0-1.18-1.09zm9.57 0a1.1 1.1 0 1 0 1.09 1.09 1.09 1.09 0 0 0-1.17-1.09zM172.16 223a1.1 1.1 0 1 0 1.09 1.1 1.1 1.1 0 0 0-1.09-1.1zm9.56 0a1.1 1.1 0 1 0 1.1 1.1 1.1 1.1 0 0 0-1.1-1.1zm-33.48-6.9a1.08 1.08 0 0 0-1 .57l2 .75a1.64 1.64 0 0 0 0-.23 1.1 1.1 0 0 0-1-1.07zm9.57 0a1.1 1.1 0 1 0 1.09 1.09 1.09 1.09 0 0 0-1.09-1.07zm9.56 0a1.1 1.1 0 1 0 1.1 1.09 1.09 1.09 0 0 0-1.1-1.07zm9.57 0a1.1 1.1 0 1 0 1.1 1.09 1.1 1.1 0 0 0-1.1-1.07z" class="F"/><path d="M170.762 257.598l-4.207-10.228 59.687-24.553 4.207 10.228z" class="G"/><path d="M135.14 257.23l6.36 15.47h0l41.69-17.15h0l-6.37-15.47h0l-41.68 17.15z" class="B"/><g class="J"><path d="M228.74 184.17a50.4 50.4 0 1 1 17.48 69.09 50.45 50.45 0 0 1-17.48-69.09zm5 3a44.62 44.62 0 1 0 61.17-15.48 44.68 44.68 0 0 0-61.21 15.43z"/><path d="M266.75 261.61a52.15 52.15 0 1 1 18-1.36 51.7 51.7 0 0 1-18 1.36zM277 161.31A48.87 48.87 0 0 0 224.65 222 48.86 48.86 0 1 0 277 161.31zm-9.66 94.55a46.14 46.14 0 0 1-34.93-69.5h0a46.12 46.12 0 1 1 50.93 68.3 46.42 46.42 0 0 1-16 1.2zm-32.35-68a43.17 43.17 0 1 0 26.46-19.7A43.17 43.17 0 0 0 235 187.89z"/></g><g opacity=".2"><path d="M288.53 170.4a42.87 42.87 0 1 0 23.07 56.08 42.89 42.89 0 0 0-23.07-56.08z" class="F"/><path d="M276.78 167.35a42.92 42.92 0 0 0-47.33 37.48zm34.7 25.86l-64.83 51.33a43.12 43.12 0 0 0 8.87 5 42.19 42.19 0 0 0 11.27 3l47.87-37.9a42.74 42.74 0 0 0-3.18-21.43zm-19.09-20.96l-61.76 48.89a43.48 43.48 0 0 0 3 7.87l65.76-52.07a41.74 41.74 0 0 0-7-4.69zM308.82 188l-66.66 52.76 1.14 1.07 66.29-52.48c-.24-.48-.49-.93-.77-1.35zm1.9 40.45l-29.58 23.42q1.88-.41 3.72-1l24.06-19 1.8-3.42z" class="D"/></g><g class="H"><path d="M162.08 163.74c-6.28 4.33-33.55 26.41-36.79 39.11-2 7.79 11.88 35.15 15.63 41.7 1.64 2.85 21.25-6.91 22-10.35s-13.4-28.2-13.66-30.78l19.34-31.19c6.34-10.23 5.21-16.57-6.52-8.49z"/><path d="M171 252.87c2.23 3.46 8 6.17 6 8.51-1.75 2.09-5.59-.18-5.59-.18s3.5 3.95 1 5.66-6.22-1.64-6.22-1.64 3.06 3.16.41 4.68-6.29-.75-6.29-.75.25 1.51-2.1 1.74c-3.36.34-8.43-4.93-10.42-8.3s-6.78-17.21-7.48-19.34l21.56-13s6.31 4.37 9.24 7 10.2 13.87 7.53 15.86-7.67-6.05-9.33-7.75-2.33-1.61-2.18-.26c.08.9 2.87 6.24 3.87 7.77z"/></g><path d="M171.3 261c-5.11-3.53-6.74-6-9.14-11.59 0-.11-.22-.07-.18.05 1.85 5.73 3.44 9.07 9.16 11.8.28.14.4-.09.16-.26zm-4.88 4.32c-5-4.14-6.77-6.76-9.72-12.47 0-.08-.18 0-.15.07 2.42 5.84 4.1 9.14 9.63 12.62.25.16.47-.03.24-.22zm-6.15 3.75c-4.55-4.35-6.63-7.14-8.78-13.06a.12.12 0 0 0-.22.07c1.6 6.24 4.18 9.74 8.85 13.11.32.23.43.15.15-.12z" class="B"/><path d="M161.15 187.53L141 178.91s18.67-15.19 25.42-18.11c7.6-3.29 7.61 1.31 4.78 8.65s-10.05 18.08-10.05 18.08z" class="C"/><path d="M154.11 168.78a1.08 1.08 0 0 1-1.09 1 1 1 0 0 1-.25 0zm8.48-1.16a1.1 1.1 0 1 0 1.1 1.09 1.09 1.09 0 0 0-1.1-1.09zm8.47 1.09a1 1 0 0 0 .21.64l.6-1.69a1.09 1.09 0 0 0-.81 1.05zm-3.69-8a1.1 1.1 0 1 0 1.1 1.1 1.09 1.09 0 0 0-1.1-1.1zM153 181.47a1.1 1.1 0 1 0 1.1 1.1 1.09 1.09 0 0 0-1.1-1.1zm9.57 0a1.1 1.1 0 1 0 1.1 1.1 1.1 1.1 0 0 0-1.08-1.1zm-14.35-6.91a1.1 1.1 0 1 0 1.1 1.1 1.1 1.1 0 0 0-1.08-1.1zm9.57 0a1.1 1.1 0 1 0 1.09 1.1 1.1 1.1 0 0 0-1.07-1.1zm9.56 0a1.1 1.1 0 0 0 0 2.2 1 1 0 0 0 .38-.07l.69-1.28a1.1 1.1 0 0 0-1.05-.85z" class="F"/><path d="M145.39 176.55c.75.19 7.06 2.78 8.42 3.37l8.29 3.69c.06 0 0 .13 0 .1-1.46-.45-7.09-2.83-8.49-3.4l-8.22-3.67c-.1-.03-.05-.1 0-.09zm14.17 10.29l1.58.59c1.44-2.09 7.76-13.33 9.33-16a0 0 0 0 1 .07 0q-1.18 2.37-2.4 4.71l.4-.53c.48-.63 1-1.25 1.44-1.9 0 0 .13 0 .09.06a18.67 18.67 0 0 1-1.32 2c-.34.44-.72.86-1.1 1.27l-1.43 2.67c-1.51 2.71-3 5.57-4.71 8.16a11.68 11.68 0 0 1-2-.92c-.11-.03-.04-.14.05-.11z" class="B"/><path d="M220.58 249.77a4 4 0 0 1-4.67.58s.56 3.77-2.11 5.46c-1.37.87-4-.56-4-.56s.31 3-2.16 4.39c-2 1.09-4.27-.51-4.27-.51s-1.06 3.05-3.41 3.51c-4.78.94-15.79-14.86-11.68-21.36 1.92-3 4.4 1 4.4 1s-2.17-6.62 1-9 6.1 3 6.1 3-2.05-6.43 1.51-8.54c3.71-2.19 5.7 3.7 5.7 3.7s-.07-5.17 3-6.16c5.12-1.63 4.73 9.93 8 12.83l7.46-3.1s-2.31 12.47-4.87 14.76z" class="H"/><g class="B"><path d="M203 258.93c0 .05 0 .12-.07.08a33.44 33.44 0 0 1-10.38-16.95c0-.21.28-.38.37-.16A68.38 68.38 0 0 0 203 258.93zm6.85-3.58c.05.06 0 .14-.11.09-5-4.48-9.38-11.63-10.17-19.2 0-.26.21-.52.26-.22.91 4.98 6.04 14.55 10.02 19.33zm-2.69-24.43c1 7.23 4.29 13.4 8.54 19.26.05.08-.06.15-.12.1-2.86-2.3-5.18-6.32-6.72-9.59a19.2 19.2 0 0 1-2-9.73c.06-.13.28-.19.3-.04z"/><path d="M192.63 241.85a13.89 13.89 0 0 1-.81-4.1 6 6 0 0 1 1.14-4.07 3.67 3.67 0 0 1 1.86-1.23 3 3 0 0 1 2.22.4 8.43 8.43 0 0 1 2.84 3.24l-.64.25a12.83 12.83 0 0 1-.46-4.27 6.21 6.21 0 0 1 1.68-4 4.39 4.39 0 0 1 1.95-1.12 2.91 2.91 0 0 1 2.25.41 7.2 7.2 0 0 1 2.48 3.52l-.47.07a10.13 10.13 0 0 1 .37-2 7.1 7.1 0 0 1 .82-1.9 4.11 4.11 0 0 1 1.47-1.46 3.4 3.4 0 0 1 2-.34 3.46 3.46 0 0 0-1.92.48 3.89 3.89 0 0 0-1.3 1.46 9.42 9.42 0 0 0-1 3.83l-.06 1-.41-1a6.8 6.8 0 0 0-2.36-3.14 2.18 2.18 0 0 0-1.75-.3 3.6 3.6 0 0 0-1.62 1 5.45 5.45 0 0 0-1.42 3.57 12.32 12.32 0 0 0 .38 4l.71 2.8-1.36-2.54a7.85 7.85 0 0 0-2.55-3 2.44 2.44 0 0 0-1.77-.38 3 3 0 0 0-1.6 1 5.84 5.84 0 0 0-1.21 3.75 15 15 0 0 0 .54 4.07z"/></g><path d="M174.41 163.26c-.08 1 2.18 7.75 6.82 8.6 2.41.44 3.92-6.1 3.92-6.1l.31-.53 4.37-7.39-7.42-9.05-1.09-1.23-2.36 4.73-.18.38a4.23 4.23 0 0 0-.22.42l-.59 1.19c-.19.4-.3.61-.44.93l-.44 1a57.19 57.19 0 0 0-2.68 7.05z" class="H"/><path d="M179 152.29a17.2 17.2 0 0 0 6.5 12.94l4.37-7.39-7.42-9.05-1.09-1.23-2.36 4.73z" class="B"/><path d="M205.42 150.07c-3.74 14.6-12.9 14-16 13.2-2.86-.73-12.5-3.6-10.29-18.51s10.18-17.79 16.8-16.45 13.23 7.16 9.49 21.76z" class="H"/><path d="M179.65 143.84c3.38 1.22 5.22-4.14 5.22-4.14s4 1 6.42-5.11a10 10 0 0 0 5.49 7c1 .55-1.65-3.6-1.65-3.6s3 5.56 11.78 6.92c.62.09 2.42-9-3-14.23s-11.82-5.58-17.23-2.91a8.27 8.27 0 0 0-6.28 4.66c-2.1 4.27-2.06 10.94-.75 11.41z" class="B"/><path d="M181.52,145.52s-1.54-5.52-4-5.12-2.32,7.65-.26,9.36a2.54,2.54,0,0,0,3.67-.16Z" class="H"/><g class="B"><path d="M177.65 142.48a0 0 0 0 0 0 .06c1.43 1.25 1.76 3.09 1.81 4.9a1.4 1.4 0 0 0-1.86-1.06c-.05 0 0 .1 0 .11a1.55 1.55 0 0 1 1.44 1.08 7.23 7.23 0 0 1 .32 1.59c0 .18.32.19.33 0h0c.76-2.16.15-5.68-2.04-6.68zm25.24 5.8a10 10 0 0 1-.9-.52c-.34-.21-.64-.33-.82-.71a.54.54 0 0 1 .21-.62 1.32 1.32 0 0 1 1.34.11 2 2 0 0 1 .95 1 .57.57 0 0 1-.78.74zm-8.8-4.74a8.85 8.85 0 0 0 1 .17 1.6 1.6 0 0 0 1.08 0 .54.54 0 0 0 .24-.61 1.35 1.35 0 0 0-1.11-.77 1.93 1.93 0 0 0-1.39.2.57.57 0 0 0 .18 1.01zm.91 4.35s-.09 0-.1.06c-.26 1-.73 2.09-1.72 2.14v.06c1.1.18 1.71-1.28 1.82-2.26z"/><path d="M194.42 146.6c-1.55-.6-2.63 2.53-1.2 3.09s2.49-2.59 1.2-3.09z"/><path d="M193.74 146.55c-.33.08-.71.3-1.05.22s-.57-.52-.71-.92h-.06a1.2 1.2 0 0 0 .41 1.6 1.22 1.22 0 0 0 1.52-.65c.07-.08.03-.28-.11-.25zm-1.42 9.18c.14.32.24.71.58.88a2.83 2.83 0 0 0 1.12.17 0 0 0 0 1 0 .06 1.37 1.37 0 0 1-1.41 0 1.08 1.08 0 0 1-.42-1.14c.03-.02.11-.01.13.03zm5.24-2.17l-.51 2.21c0 .07-.2 0-.43 0h0a3.41 3.41 0 0 1-2.76-2.27.072.072 0 0 1 .13-.06 5.24 5.24 0 0 0 2.69 1.84c.12-.17.4-2.62.51-2.59a6 6 0 0 1 1.44.87l1.58-9.52a.1.1 0 0 1 .19 0 52.39 52.39 0 0 1-1.26 10.33c-.14.39-1.34-.6-1.58-.81z"/><path d="M203.71 150.3a2.89 2.89 0 0 0-1.59-.59 2.56 2.56 0 0 0-.9.11 2.24 2.24 0 0 0-.78.51l-.4.41.56.1a6.29 6.29 0 0 1 1.18.33 2.39 2.39 0 0 1 1 .72 1.83 1.83 0 0 0-.8-1.11 3.55 3.55 0 0 0-1.3-.54l.17.51a2 2 0 0 1 1.26-.53 6.1 6.1 0 0 1 1.6.08z"/><path d="M201.51 152a5.36 5.36 0 0 1-1.06-.78c-.07-.08-.34-.42-.3-.49a2.6 2.6 0 0 1 .38-.53 1.75 1.75 0 0 0-.5.48.83.83 0 0 0 .28.67 2.59 2.59 0 0 0 1.2.65z"/></g><path d="M271.09,118a24.91,24.91,0,0,1-41.64,15.76L217,135.55l6.24-10.78A24.93,24.93,0,1,1,271.09,118Z" class="F"/><path d="M271.09 118a25 25 0 0 1-5 12.63 22.7 22.7 0 0 1-4.89 4.83 24.26 24.26 0 0 1-6 3.35 24.9 24.9 0 0 1-6.71 1.6 23.52 23.52 0 0 1-3.46.06 22.17 22.17 0 0 1-3.45-.35 25.25 25.25 0 0 1-12.37-6.12l.29.09-12.45 1.91-.91.14.46-.8 6.2-10.8v.43a25.17 25.17 0 1 1 48.32-7zm0 0a24.65 24.65 0 0 0-28.26-27 24.47 24.47 0 0 0-10.3 4.06 25.66 25.66 0 0 0-7.45 8.14 24.62 24.62 0 0 0-3.17 10.54 24.9 24.9 0 0 0 1.76 10.86l.09.22-.12.21-6.28 10.75-.44-.65 12.48-1.75h.17l.12.12a24.56 24.56 0 0 0 11.94 6.15 22.45 22.45 0 0 0 3.37.35 24.26 24.26 0 0 0 3.41 0 24.58 24.58 0 0 0 6.66-1.46 23.44 23.44 0 0 0 6-3.24 28.9 28.9 0 0 0 2.63-2.2 27.62 27.62 0 0 0 2.27-2.57 25.06 25.06 0 0 0 5.12-12.53z" class="B"/><path d="M248.16 119.06v2.83A2.09 2.09 0 0 1 246 124a2.14 2.14 0 0 1-2.14-2.14v-4.54-.08-.09A2.2 2.2 0 0 1 246 115a4.89 4.89 0 1 0 0-9.78 4.82 4.82 0 0 0-4.19 2.4 2.16 2.16 0 0 1-3 .79 2.13 2.13 0 0 1-.74-2.93 9.18 9.18 0 1 1 10 13.54zm0 9.56v.78a2.09 2.09 0 0 1-2.14 2.14 2.14 2.14 0 0 1-2.14-2.14v-.78a2.17 2.17 0 0 1 2.14-2.14 2.12 2.12 0 0 1 2.14 2.14z" class="C"/><defs ><path id="B" d="M480.31 222.36q-.74 95.81-1.8 189.48c-78.34 4.61-161.72-21.91-238.46-7.44q.72-95.8 1.8-189.49c78.34-4.6 161.71 21.92 238.46 7.45z"/><path id="C" d="M298.84 389.22l-.18-70.52.18-70.52.17 70.52-.17 70.52z"/><path id="D" d="M304.59 389.22l-.18-70.52.18-70.52.18 70.52-.18 70.52z"/><path id="E" d="M376.173 252.961l-.077 147.08-5.95-.003.077-147.08z"/></defs></svg>