<svg xmlns="http://www.w3.org/2000/svg" xmlns:xlink="http://www.w3.org/1999/xlink" viewBox="0 0 500 500" xmlns:v="https://vecta.io/nano"><style><![CDATA[.B{fill:#263238}.C{fill:#ebebeb}.D{fill:#ffc727}.E{fill:#fff}.F{fill:#eb9481}.G{fill:#c7c7c7}.H{fill:#dbdbdb}.I{fill:#455a64}]]></style><g class="C"><path d="M62.77 376.37h35.16v11.19H62.77zm113.54-273.42h35.16v11.19h-35.16zM78.32 401.67l-17.46.3-8.83.12h-8.87-.45v-.46-11.19-.44h.5l17.58.07 8.79.09 8.79.11h.24v.23zm0 0l-.24-11.19.24.24-8.79.11-8.79.09-17.58.08.5-.5v11.19l-.46-.45h8.71l8.75.12zm340.57-105.6l-17.46.29-8.83.12h-8.87-.46v-.45-11.19-.51h.5l17.58.06 8.79.09 8.79.11h.24v.24zm0 0l-.24-11.19.24.23-8.79.11-8.79.09-17.58.06.5-.49-.05 11.19-.45-.46h8.71l8.75.12zm-19.62 14.1l-17.45.3-8.84.12h-8.86-.46v-.46-11.18-.51h.51l17.58.06 8.78.09 8.79.11h.25v.3zm0 0L399 299l.23.23-8.79.11-8.78.09-17.58.06.5-.49-.05 11.18-.45-.45h8.71l8.74.12zm-54.69-25.29h35.16v11.19h-35.16zm77.1 105.6h35.16v11.19h-35.16zM402.07 44.93h35.16v11.19h-35.16z"/><path d="M456.84 70.23l-17.46.3-8.83.12h-8.87-.45v-.46L421.18 59v-.5h.5l17.58.07 8.79.09 8.79.11h.24V59zm0 0L456.6 59l.24.24-8.79.11-8.79.08-17.58.07.5-.5v11.19l-.46-.45h8.71l8.75.12zM97.93 56.12l-17.46.3-8.83.12h-8.87-.45v-.46-11.19-.5h.5l17.58.07 8.79.09 8.79.11h.24v.23zm0 0l-.24-11.19.24.24-8.79.11-8.79.08-17.58.07.5-.5v11.19l-.46-.45h8.71l8.75.12z"/><path d="M57.37,47.81V225.47H172.85V47.81Zm111.22,173.4h-107V52.07h107Z"/></g><path d="M61.63 52.07h106.95v169.14H61.63z" class="E"/><path d="M168.58 138.77H61.63v-4.26h106.95z" class="C"/><g class="H"><path d="M180.69 237.7H49.53v-12.23h131.16zM61.63 52.07h107V161.5h-107zm103 3.94H65.58v101.54h99.06z"/><path d="M132.32 52.07h2.13v105.48h-2.13zm-36.56 0h2.13v105.48h-2.13z"/></g><path d="M327.16,47.81V225.47H442.63V47.81Zm111.21,173.4H331.42V52.07h107Z" class="C"/><path d="M331.42 52.07h106.95v169.14H331.42z" class="E"/><path d="M438.37 138.77H331.42v-4.26h106.95z" class="C"/><g class="H"><path d="M450.48 237.7H319.32v-12.23h131.16zM331.42 52.07h107V161.5h-107zm103 3.94h-99.06v101.54h99.06z"/><path d="M402.11 52.07h2.13v105.48h-2.13zm-36.56 0h2.13v105.48h-2.13z"/></g><g class="C"><path d="M40.29 278.36h146.12v8.92H40.29z"/><path d="M53.32 287.28h120.06v24.61H53.32z"/></g><path d="M173.38 292.14l-120.06 2.39v-7.25h120.06v4.86z" class="G"/><path d="M155.29 307.24H71.41v-15.3h83.88zm-82.88-1h81.88v-13.3H72.41zm27.28-8.71h27.33v4.13H99.69z" class="H"/><path d="M52.35 453.45h-3.98L59.94 311.9h10.14L52.35 453.45z" class="C"/><path d="M70.08 311.9l-1.19 9.47h-9.72l.77-9.47h10.14z" class="G"/><path d="M174.35 453.45h3.98L166.76 311.9h-10.14l17.73 141.55z" class="C"/><path d="M156.62 311.9l1.19 9.47h9.72l-.77-9.47h-10.14z" class="G"/><g class="B"><path d="M41.45 453.45l52.14-.25 52.14-.08 104.27-.17 104.27.17 52.14.08 52.14.25-52.14.24-52.14.09-104.27.17-104.27-.17-52.14-.09-52.14-.24z"/><path d="M334.51 70.6h-169A17.26 17.26 0 0 0 148.36 88v348a17.27 17.27 0 0 0 17.11 17.42h169A17.29 17.29 0 0 0 351.64 436V88a17.28 17.28 0 0 0-17.13-17.4zm6.43 354.67c0 9.16-6.86 16.57-15.31 16.57H174.39c-8.49 0-15.34-7.41-15.34-16.57V101.21c0-18.66 6.85-19.57 15.34-19.57h30.29c1.76 0 3.2 2 3.2 4.48v1.07c0 5.81 3.18 5.81 7.12 5.81h70c4 0 7.09 0 7.09-5.83v-1.05c0-2.48 1.42-4.48 3.22-4.48h30.3c8.45 0 15.31 2.48 15.31 19.57z"/></g><path d="M259.55 85.76h-19.11a1.18 1.18 0 0 1-1.18-1.18h0a1.18 1.18 0 0 1 1.18-1.18h19.11a1.18 1.18 0 0 1 1.18 1.18h0a1.18 1.18 0 0 1-1.18 1.18zM341 101.21v324.06c0 9.16-6.86 16.57-15.32 16.57H174.39c-8.48 0-15.34-7.41-15.34-16.57V101.21c0-18.66 6.86-19.57 15.34-19.57h30.29c1.76 0 3.2 2 3.2 4.48v1.07c0 5.81 3.18 5.81 7.12 5.81h70c3.94 0 7.09 0 7.09-5.83v-1.05c0-2.48 1.42-4.48 3.21-4.48h30.3c8.49 0 15.4 2.48 15.4 19.57z" class="E"/><g class="G"><path d="M177.46 122.84l-5.38-5.03 5.38-5.04.83.89-4.42 4.15 4.42 4.14-.83.89z"/><use xlink:href="#B"/><use xlink:href="#B" y="3.76"/><use xlink:href="#B" y="7.52"/><path d="M235.69 121a.37.37 0 0 1 .51 0 2.2 2.2 0 0 0 1.34.54 1.47 1.47 0 0 0 .87-.26.62.62 0 0 0 .3-.5.4.4 0 0 0-.06-.22.69.69 0 0 0-.21-.21 2.54 2.54 0 0 0-1-.33h0a4.12 4.12 0 0 1-.9-.28 1.44 1.44 0 0 1-.65-.54 1.06 1.06 0 0 1-.16-.58 1.3 1.3 0 0 1 .56-1 2.07 2.07 0 0 1 1.21-.37 2.78 2.78 0 0 1 1.53.56.361.361 0 1 1-.4.6 2 2 0 0 0-1.13-.45 1.34 1.34 0 0 0-.78.24.57.57 0 0 0-.27.44.31.31 0 0 0 .05.2.66.66 0 0 0 .19.18 2.35 2.35 0 0 0 .87.31h0a4.17 4.17 0 0 1 1 .29 1.67 1.67 0 0 1 .7.58 1.11 1.11 0 0 1 .17.6 1.37 1.37 0 0 1-.6 1.09 2.19 2.19 0 0 1-1.29.39 3 3 0 0 1-1.8-.7.37.37 0 0 1-.05-.58zm4.87-3.33a.38.38 0 0 1 .38-.38.4.4 0 0 1 .4.38v4.14a.4.4 0 0 1-.4.38.38.38 0 0 1-.38-.38zm1.87 2.01a2.55 2.55 0 0 1 2.58-2.53 2.62 2.62 0 0 1 1.6.54.403.403 0 1 1-.49.64 1.81 1.81 0 0 0-2.37.13 1.65 1.65 0 0 0 0 2.42 1.76 1.76 0 0 0 1.26.51 1.94 1.94 0 0 0 1-.26v-1h-1a.4.4 0 0 1-.4-.4.39.39 0 0 1 .4-.39h1.39a.39.39 0 0 1 .41.39v1.55.12h0 0a.34.34 0 0 1-.13.17 2.59 2.59 0 0 1-1.59.54 2.54 2.54 0 0 1-2.66-2.43zm6.68 2.13a.38.38 0 0 1-.76 0v-4.07h0a.37.37 0 0 1 .15-.32.39.39 0 0 1 .54.08l2.26 3.13v-2.88a.38.38 0 0 1 .76 0v4.07a.38.38 0 0 1-.38.38.36.36 0 0 1-.29-.14h0l-2.24-3.11zm8.76.38a2 2 0 0 1-2-2v-2.5a.37.37 0 0 1 .38-.38.39.39 0 0 1 .39.38v2.5a1.25 1.25 0 0 0 2.5 0v-2.5a.38.38 0 0 1 .39-.38.37.37 0 0 1 .38.38v2.5a2 2 0 0 1-2.04 2zm5.3-1.9h-.86v1.52a.39.39 0 0 1-.77 0v-4.14a.38.38 0 0 1 .38-.38h1.25a1.5 1.5 0 1 1 0 3zm-.86-.78h.86a.72.72 0 1 0 0-1.44h-.86zm-62.86-30.59l-.29.29-.17.16a4 4 0 0 0-5.64 0l-.16-.17-.29-.29h0 0l.37-.33a5.16 5.16 0 0 1 .86-.54 4.14 4.14 0 0 1 1.14-.38c.18 0 .37 0 .56-.08h.5.39a4.77 4.77 0 0 1 1 .25 4.94 4.94 0 0 1 .7.33 4.48 4.48 0 0 1 .67.47l.31.28z"/><path d="M194.28,90.29l-.47-.46a3.35,3.35,0,0,1,4.72,0l-.47.46a2.68,2.68,0,0,0-3.78,0Z"/><path d="M197.6 90.76l-.46.46a1.35 1.35 0 0 0-1.94 0l-.46-.46a2 2 0 0 1 2.86 0z"/><path d="M196.59 91.63a.42.42 0 0 1-.42.42.41.41 0 0 1-.41-.42.41.41 0 0 1 .41-.41.41.41 0 0 1 .42.41zm-25.68-1.83a1.21 1.21 0 1 1 1.2 1.21 1.2 1.2 0 0 1-1.2-1.21zm3.79 0a1.21 1.21 0 1 1 1.21 1.2 1.21 1.21 0 0 1-1.21-1.2zm3.8 0a1.21 1.21 0 1 1 1.21 1.2 1.21 1.21 0 0 1-1.21-1.2zm3.8 0a1.21 1.21 0 1 1 1.2 1.2 1.2 1.2 0 0 1-1.2-1.2zm3.8 0a1.21 1.21 0 1 1 1.2 1.2 1.2 1.2 0 0 1-1.2-1.2zm141.21 2.64h-9.83v-4.56h9.83zm-9.31-.51h8.8v-3.54H318zm.3-3.27h6.33v3h-6.33z"/><path d="M327.31 88.94h.87v2.43h-.87z"/></g><path d="M182.22 424.33h-.89v4.08h-1.66v-2.08h-2.94v2.08h-1.67v-4.08h-.88l4.02-4.15 4.02 4.15zm134.29-4.15h9.69v1.38h-9.69zm0 3.42h9.69v1.39h-9.69zm0 3.43h9.69v1.39h-9.69zm-63.47-2.59l-2.76 2.94-2.75-2.94.48-.46 2.27 2.42 2.27-2.42.49.46zm-2.76 5.98a5 5 0 1 1 5-5 5 5 0 0 1-5 5zm0-9.35a4.35 4.35 0 1 0 4.35 4.34 4.34 4.34 0 0 0-4.35-4.34z" class="C"/><path d="M192.49 213.29a1.94 1.94 0 0 1-1.94-1.94V209a.38.38 0 0 1 .75 0v2.39a1.2 1.2 0 0 0 2.39 0V209a.37.37 0 0 1 .38-.37.36.36 0 0 1 .36.37v2.39a1.94 1.94 0 0 1-1.94 1.9zm3.29-.96a.34.34 0 0 1 .5-.05 1.28 1.28 0 0 0 .74.29.89.89 0 0 0 .46-.13c.09-.08.12-.14.12-.2a.11.11 0 0 0 0-.06s0-.05-.09-.09a1.67 1.67 0 0 0-.54-.18h0a2.79 2.79 0 0 1-.58-.18 1.15 1.15 0 0 1-.46-.39.76.76 0 0 1-.12-.42 1 1 0 0 1 .4-.74 1.45 1.45 0 0 1 .83-.25 1.68 1.68 0 0 1 1 .37.38.38 0 0 1 .11.5.35.35 0 0 1-.5.09 1.14 1.14 0 0 0-.61-.25.69.69 0 0 0-.41.13.21.21 0 0 0-.1.15.07.07 0 0 0 0 .05l.07.07a1.38 1.38 0 0 0 .49.16h0a2.49 2.49 0 0 1 .62.19 1.08 1.08 0 0 1 .48.4.86.86 0 0 1 .12.44 1 1 0 0 1-.42.78 1.5 1.5 0 0 1-.87.27 2 2 0 0 1-1.2-.46.37.37 0 0 1-.04-.49zm3.22-.72a1.65 1.65 0 0 1 1.63-1.68 1.6 1.6 0 0 1 1.62 1.56h0v.06a.31.31 0 0 1-.34.27h-2.14a.88.88 0 0 0 .23.45 1 1 0 0 0 .64.3 1.08 1.08 0 0 0 .7-.17.38.38 0 0 1 .51 0 .32.32 0 0 1 0 .44 1.72 1.72 0 0 1-1.21.44 1.66 1.66 0 0 1-1.64-1.67zm.73-.33h1.9a1.1 1.1 0 0 0-1-.71.93.93 0 0 0-.89.71zm5.53-.99a.36.36 0 0 1-.36.35.62.62 0 0 0-.4.13 1 1 0 0 0-.31.32 2.38 2.38 0 0 0-.28.57v1.27a.36.36 0 1 1-.72 0v-2.64a.35.35 0 0 1 .35-.35.35.35 0 0 1 .37.35v.05a.92.92 0 0 1 .14-.14 1.45 1.45 0 0 1 .85-.26.35.35 0 0 1 .36.35zm3.67 1.04v1.6a.35.35 0 0 1-.34.36.36.36 0 0 1-.36-.36v-1.6a.69.69 0 0 0-.7-.68.67.67 0 0 0-.67.68v1.6a.2.2 0 0 1 0 .07.38.38 0 0 1-.36.29.35.35 0 0 1-.35-.36v-2.64a.35.35 0 0 1 .35-.36.36.36 0 0 1 .33.21 1.32 1.32 0 0 1 .71-.21 1.4 1.4 0 0 1 1.39 1.4zm4.16.29v1.31a.352.352 0 0 1-.7.07 1.56 1.56 0 0 1-.9.29 1.58 1.58 0 0 1-1.14-.49 1.73 1.73 0 0 1-.46-1.18 1.67 1.67 0 0 1 .46-1.18 1.52 1.52 0 0 1 2-.21.352.352 0 0 1 .7.07zm-.71 0a1 1 0 0 0-.26-.69.84.84 0 0 0-.63-.28.8.8 0 0 0-.62.28 1 1 0 0 0-.26.69 1 1 0 0 0 .26.69.82.82 0 0 0 .62.26.86.86 0 0 0 .63-.26 1 1 0 0 0 .26-.69zm4.83-.3v1.61a.36.36 0 0 1-.35.36.37.37 0 0 1-.37-.36v-1.61a.68.68 0 0 0-.69-.67.69.69 0 0 0-.68.69V213h0a.39.39 0 0 1-.34.22h-.07a.36.36 0 0 1-.28-.35v-1.59h0v-1a.36.36 0 0 1 .35-.37.35.35 0 0 1 .32.2 1.53 1.53 0 0 1 .72-.2 1.4 1.4 0 0 1 1.06.47 1.37 1.37 0 0 1 1-.47 1.41 1.41 0 0 1 1.4 1.41v1.59a.36.36 0 1 1-.72 0v-1.59a.69.69 0 0 0-.68-.69.7.7 0 0 0-.67.69zm3.34.29a1.67 1.67 0 0 1 1.64-1.68 1.6 1.6 0 0 1 1.62 1.56h0v.06a.31.31 0 0 1-.34.27h-2.14a.88.88 0 0 0 .23.45 1 1 0 0 0 .64.3 1.1 1.1 0 0 0 .7-.17.38.38 0 0 1 .51 0 .32.32 0 0 1 0 .44 1.72 1.72 0 0 1-1.21.44 1.68 1.68 0 0 1-1.65-1.67zm.74-.33h1.9a1.1 1.1 0 0 0-1-.71.93.93 0 0 0-.9.71z" class="B"/><path d="M189.42 218.41h121.16v14.39H189.42z" class="C"/><path d="M190.55 247.41v-4a.36.36 0 0 1 .37-.37h2.19a.37.37 0 0 1 .37.37.38.38 0 0 1-.37.38h-1.82v1.22h1.57a.38.38 0 0 1 .37.37.38.38 0 0 1-.37.38h-1.57V247h1.82a.38.38 0 0 1 0 .75h-2.19a.37.37 0 0 1-.37-.34zm6.71-1.6v1.61a.36.36 0 0 1-.35.36.37.37 0 0 1-.37-.36v-1.61a.68.68 0 0 0-.69-.67.69.69 0 0 0-.68.69v1.66h0a.39.39 0 0 1-.34.22h-.07a.36.36 0 0 1-.29-.35v-1.59h0v-1a.37.37 0 0 1 .36-.37.35.35 0 0 1 .32.2 1.53 1.53 0 0 1 .72-.2 1.42 1.42 0 0 1 1.06.47 1.37 1.37 0 0 1 1.05-.47 1.41 1.41 0 0 1 1.4 1.41v1.59a.36.36 0 0 1-.72 0v-1.59a.69.69 0 0 0-.68-.69.7.7 0 0 0-.72.69zm6.42.3v1.31a.36.36 0 0 1-.36.36.37.37 0 0 1-.35-.29 1.5 1.5 0 0 1-.89.29 1.56 1.56 0 0 1-1.14-.49 1.73 1.73 0 0 1-.46-1.18 1.69 1.69 0 0 1 .46-1.18 1.54 1.54 0 0 1 1.14-.51 1.51 1.51 0 0 1 .89.3.37.37 0 0 1 .35-.3.36.36 0 0 1 .36.37zm-.71 0a.94.94 0 0 0-.27-.69.82.82 0 0 0-.62-.28.8.8 0 0 0-.62.28.94.94 0 0 0-.26.69 1 1 0 0 0 .26.69.82.82 0 0 0 .62.26.84.84 0 0 0 .62-.26 1 1 0 0 0 .3-.69zm2.76-2.53a.37.37 0 1 1-.73 0v-.14a.37.37 0 0 1 .73 0zm0 1.22v2.62a.37.37 0 0 1-.73 0v-2.62a.37.37 0 1 1 .73 0zm1.43-1.72a.38.38 0 0 1 .37.37v4a.38.38 0 0 1-.37.37.37.37 0 0 1-.37-.37v-4a.37.37 0 0 1 .37-.37z" class="B"/><path d="M189.42 252.9h121.16v14.39H189.42z" class="C"/><path d="M192.12 280.44h-.83v1.46a.37.37 0 0 1-.37.37.38.38 0 0 1-.37-.37v-4a.37.37 0 0 1 .37-.37h1.2a1.44 1.44 0 1 1 0 2.87zm-.83-.74h.83a.69.69 0 1 0 0-1.38h-.83zm5.94.9v1.32a.36.36 0 0 1-.36.35.37.37 0 0 1-.35-.29 1.53 1.53 0 0 1-.89.29 1.56 1.56 0 0 1-1.14-.49 1.71 1.71 0 0 1-.46-1.18 1.69 1.69 0 0 1 .46-1.18 1.5 1.5 0 0 1 2-.21.37.37 0 0 1 .35-.3.37.37 0 0 1 .36.37zm-.71 0a1 1 0 0 0-.27-.69.84.84 0 0 0-1.25 0 1 1 0 0 0-.25.69 1 1 0 0 0 .25.69.88.88 0 0 0 1.25 0 1 1 0 0 0 .27-.69zm1.86.71a.34.34 0 0 1 .5-.05 1.28 1.28 0 0 0 .74.29.89.89 0 0 0 .46-.13c.09-.08.12-.14.12-.2a.11.11 0 0 0 0-.06.18.18 0 0 0-.09-.08 1.31 1.31 0 0 0-.53-.19h0a2.46 2.46 0 0 1-.58-.18 1 1 0 0 1-.47-.39.85.85 0 0 1-.11-.42 1 1 0 0 1 .39-.74 1.48 1.48 0 0 1 .83-.25 1.74 1.74 0 0 1 1 .37.37.37 0 0 1 .1.5.34.34 0 0 1-.49.09 1.18 1.18 0 0 0-.62-.24.63.63 0 0 0-.4.12c-.09.06-.11.12-.11.15a.07.07 0 0 0 0 .05.19.19 0 0 0 .08.07 1.31 1.31 0 0 0 .49.16h0a2.49 2.49 0 0 1 .62.19 1 1 0 0 1 .48.4.87.87 0 0 1 .13.44 1 1 0 0 1-.42.78 1.55 1.55 0 0 1-.88.27 2 2 0 0 1-1.19-.46.36.36 0 0 1-.05-.49zm3.24 0a.34.34 0 0 1 .5-.05 1.25 1.25 0 0 0 .74.29.89.89 0 0 0 .46-.13c.09-.08.12-.14.12-.2a.11.11 0 0 0 0-.06.24.24 0 0 0-.09-.08 1.37 1.37 0 0 0-.54-.19h0a2.71 2.71 0 0 1-.59-.18 1.07 1.07 0 0 1-.46-.39.76.76 0 0 1-.12-.42 1 1 0 0 1 .4-.74 1.45 1.45 0 0 1 .83-.25 1.68 1.68 0 0 1 1 .37.38.38 0 0 1 .11.5.35.35 0 0 1-.5.09 1.12 1.12 0 0 0-.61-.24.69.69 0 0 0-.41.12.21.21 0 0 0-.1.15.07.07 0 0 0 0 .05l.07.07a1.38 1.38 0 0 0 .49.16h0a2.49 2.49 0 0 1 .62.19 1.08 1.08 0 0 1 .48.4.86.86 0 0 1 .12.44 1 1 0 0 1-.42.78 1.5 1.5 0 0 1-.87.27 2 2 0 0 1-1.2-.46.37.37 0 0 1-.03-.49zm7.68-1.86l-1.11 2.61v.05h0 0 0 0 0-.06-.27-.06 0 0 0 0 0v-.05l-.49-1.17-.47 1.17v.05h0 0 0 0-.06-.28a.1.1 0 0 1-.07 0h0 0 0 0v-.05l-1.1-2.61a.34.34 0 0 1-.33-.45.32.32 0 0 1 .44.2l.8 1.81.47-1.13a.35.35 0 0 1 .32-.21.34.34 0 0 1 .33.21l.48 1.13.79-1.81a.33.33 0 0 1 .45-.2.35.35 0 0 1 .22.45zm1.6 2.33a1.65 1.65 0 0 1-.46-1.18 1.74 1.74 0 0 1 .46-1.18 1.59 1.59 0 0 1 1.16-.51 1.51 1.51 0 0 1 1.12.51 1.71 1.71 0 0 1 .47 1.18 1.62 1.62 0 0 1-.47 1.18 1.48 1.48 0 0 1-1.12.51 1.55 1.55 0 0 1-1.16-.51zm.27-1.18a1.11 1.11 0 0 0 .24.71.92.92 0 0 0 .65.25.86.86 0 0 0 .61-.25 1 1 0 0 0 .27-.71 1 1 0 0 0-.27-.7.91.91 0 0 0-.61-.25 1 1 0 0 0-.65.25 1.08 1.08 0 0 0-.24.7zm5.55-1.33a.36.36 0 0 1-.35.36.71.71 0 0 0-.41.12 1.23 1.23 0 0 0-.31.33 1.81 1.81 0 0 0-.27.56v1.28a.37.37 0 0 1-.73 0v-2.65a.37.37 0 0 1 .73 0v.05a.93.93 0 0 1 .14-.14 1.43 1.43 0 0 1 .85-.26.35.35 0 0 1 .35.35zm3.75 2.64a.36.36 0 0 1-.36.36.36.36 0 0 1-.35-.29 1.62 1.62 0 0 1-.92.29 1.68 1.68 0 0 1 0-3.36 1.56 1.56 0 0 1 .9.29v-1.27a.37.37 0 0 1 .73 0v2.66h0zm-1.63-2.26a.89.89 0 0 0-.63.27 1 1 0 0 0-.27.68.92.92 0 0 0 .27.66.86.86 0 0 0 .63.28.83.83 0 0 0 .63-.28.92.92 0 0 0 .27-.66 1 1 0 0 0-.27-.68.85.85 0 0 0-.63-.27z" class="B"/><path d="M189.42 287.39h121.16v14.39H189.42z" class="C"/><g class="B"><path d="M196.74 317.9a.13.13 0 0 1 .13-.13.13.13 0 0 1 .14.13v3.65a.14.14 0 0 1-.14.14.13.13 0 0 1-.13-.14zm5.58 1.18v2.47a.13.13 0 1 1-.26 0v-.4a1.3 1.3 0 0 1-1 .54 1.37 1.37 0 0 1 0-2.74 1.29 1.29 0 0 1 1 .53v-.4a.13.13 0 0 1 .26 0zm-.26 1.24a1 1 0 1 0-1 1.1 1.07 1.07 0 0 0 1-1.1zm4.02 1.15a1.3 1.3 0 0 1-1.3 1.29 1.4 1.4 0 0 1-.57-.13.14.14 0 0 1-.05-.18.12.12 0 0 1 .18-.06 1 1 0 0 0 1.44-.9v-.34a1.23 1.23 0 0 1-1 .54 1.36 1.36 0 0 1 0-2.72 1.27 1.27 0 0 1 1 .53v-.4a.13.13 0 0 1 .22-.1.13.13 0 0 1 .13.13zm-.27-1.16a1 1 0 1 0-1 1.1 1.06 1.06 0 0 0 1-1.1z"/><use xlink:href="#C"/><path d="M209.35 320.32a1.331 1.331 0 0 1 2.66-.1h0 0a.13.13 0 0 1-.14.12h-2.25a1.08 1.08 0 0 0 1.07 1.05 1 1 0 0 0 .88-.5.13.13 0 0 1 .18 0 .15.15 0 0 1 .05.19 1.33 1.33 0 0 1-1.11.62 1.36 1.36 0 0 1-1.34-1.38zm.29-.22h2.08a1.05 1.05 0 0 0-2.08 0zm3.12.22a1.33 1.33 0 0 1 2.65-.1h0 0a.12.12 0 0 1-.13.12H213a1.08 1.08 0 0 0 1.06 1.05 1 1 0 0 0 .89-.5.13.13 0 0 1 .18 0 .14.14 0 0 1 0 .19 1.31 1.31 0 0 1-1.11.62 1.35 1.35 0 0 1-1.26-1.38zm.29-.22h2.07a1.035 1.035 0 0 0-2.07 0zm5.95-1.02a.14.14 0 0 1-.13.13h-.36v2a.22.22 0 0 0 .2.21.14.14 0 1 1 0 .27.47.47 0 0 1-.48-.48v-2h-.34c-.13 0-.13-.06-.13-.13s0-.13.13-.13h.34v-1a.14.14 0 1 1 .28 0v1h.36a.14.14 0 0 1 .13.13zm2.37-.08a1.37 1.37 0 0 1 0 2.74 1.37 1.37 0 0 1 0-2.74zm0 2.47a1.11 1.11 0 1 0-1-1.1 1.07 1.07 0 0 0 1 1.05z"/><use xlink:href="#D"/><path d="M229 317.9a.13.13 0 0 1 .14-.13.14.14 0 0 1 .14.13v3.65a.14.14 0 1 1-.28 0zm1.34 0a.14.14 0 0 1 .28 0v3.65a.14.14 0 0 1-.28 0zm2.85 3.22a.13.13 0 0 1 .19 0 1.46 1.46 0 0 0 .84.32.85.85 0 0 0 .52-.17.39.39 0 0 0 0-.67 1.34 1.34 0 0 0-.59-.2h0a1.56 1.56 0 0 1-.62-.21.57.57 0 0 1-.29-.49.69.69 0 0 1 .29-.54 1.18 1.18 0 0 1 .67-.18 1.48 1.48 0 0 1 .82.29.14.14 0 0 1 0 .19.13.13 0 0 1-.18 0 1.27 1.27 0 0 0-.68-.27.87.87 0 0 0-.52.15.43.43 0 0 0-.17.32.32.32 0 0 0 .16.27 1.25 1.25 0 0 0 .56.19h0a1.84 1.84 0 0 1 .66.23.67.67 0 0 1 .31.56.7.7 0 0 1-.31.55 1.13 1.13 0 0 1-.68.22 1.7 1.7 0 0 1-1-.39.13.13 0 0 1 .02-.17zm3.98-2.04a.14.14 0 0 1-.13.13h-.36v2a.22.22 0 0 0 .2.21.14.14 0 1 1 0 .27.47.47 0 0 1-.48-.48v-2h-.34c-.13 0-.13-.06-.13-.13s0-.13.13-.13h.34v-1a.14.14 0 1 1 .28 0v1h.32a.14.14 0 0 1 .17.13z"/><use xlink:href="#D" x="12.91"/><path d="M242.7 319.08a.14.14 0 0 1-.13.13h-.36v2a.22.22 0 0 0 .21.21.14.14 0 1 1 0 .27.46.46 0 0 1-.48-.48v-2h-.35c-.13 0-.13-.06-.13-.13s0-.13.13-.13h.35v-1a.14.14 0 0 1 .13-.14.15.15 0 0 1 .14.14v1h.36a.14.14 0 0 1 .13.13zm.86 1.24a1.331 1.331 0 0 1 2.66-.1h0 0a.13.13 0 0 1-.14.12h-2.25a1.08 1.08 0 0 0 1.07 1.05 1 1 0 0 0 .88-.5.13.13 0 0 1 .18 0 .14.14 0 0 1 0 .19 1.3 1.3 0 0 1-1.1.62 1.36 1.36 0 0 1-1.3-1.38zm.29-.22h2.08a1.05 1.05 0 0 0-2.08 0zm7.24-.03a.85.85 0 1 0-1.7 0v1.51h0a.12.12 0 0 1-.07.07h-.07-.09 0 0 0 0v-1.49a.85.85 0 1 0-1.69 0v1.49a.13.13 0 0 1-.06.11h-.09a.17.17 0 0 1-.12-.1v-2.51a.14.14 0 0 1 .13-.13.13.13 0 0 1 .14.13v.26a1.08 1.08 0 0 1 .84-.39 1.12 1.12 0 0 1 1 .58 1.16 1.16 0 0 1 1-.58 1.11 1.11 0 0 1 1.11 1.12v1.49a.13.13 0 0 1-.26 0zm1.2.25a1.33 1.33 0 0 1 2.65-.1h0 0a.12.12 0 0 1-.13.12h-2.25a1.08 1.08 0 0 0 1.06 1.05 1 1 0 0 0 .89-.5.13.13 0 0 1 .18 0 .14.14 0 0 1 0 .19 1.31 1.31 0 0 1-1.11.62 1.35 1.35 0 0 1-1.29-1.38zm.29-.22h2.07a1.035 1.035 0 0 0-2.07 0zm5.27-.03a.84.84 0 0 0-.84-.85.86.86 0 0 0-.85.85v1.51.06a.14.14 0 0 1-.1.05h0a.16.16 0 0 1-.09-.07h0a0 0 0 0 0 0 0v-2.5a.14.14 0 0 1 .03-.12.13.13 0 0 1 .13.14v.26a1.11 1.11 0 0 1 2 .72v1.48a.13.13 0 0 1-.13.14.14.14 0 0 1-.14-.14zm2.43-.99a.14.14 0 0 1-.14.13h-.35v2a.22.22 0 0 0 .2.21.14.14 0 1 1 0 .27.47.47 0 0 1-.48-.48v-2h-.34c-.13 0-.13-.06-.13-.13s0-.13.13-.13h.34v-1a.14.14 0 1 1 .28 0v1h.35a.14.14 0 0 1 .14.13zm1.09 2.04a.13.13 0 0 1 .19 0 1.46 1.46 0 0 0 .84.32.83.83 0 0 0 .52-.17.43.43 0 0 0 .21-.33.46.46 0 0 0-.2-.34 1.29 1.29 0 0 0-.58-.2h0a1.46 1.46 0 0 1-.62-.21.56.56 0 0 1-.3-.49.67.67 0 0 1 .3-.54 1.18 1.18 0 0 1 .67-.18 1.54 1.54 0 0 1 .82.29.14.14 0 0 1 0 .19.13.13 0 0 1-.18 0 1.21 1.21 0 0 0-.67-.27.83.83 0 0 0-.52.15.41.41 0 0 0-.18.32.32.32 0 0 0 .16.27 1.3 1.3 0 0 0 .56.19h0a1.89 1.89 0 0 1 .67.23.67.67 0 0 1 .31.56.68.68 0 0 1-.32.55 1.11 1.11 0 0 1-.68.22 1.67 1.67 0 0 1-1-.39.12.12 0 0 1 0-.17zm4.63-2.94a.13.13 0 0 1 .13-.13.13.13 0 0 1 .14.13v.13a.14.14 0 1 1-.27 0zm0 .9a.13.13 0 0 1 .13-.13.13.13 0 0 1 .14.13v2.47a.14.14 0 0 1-.14.14.13.13 0 0 1-.13-.14zm3.52.99a.84.84 0 0 0-.84-.85.86.86 0 0 0-.85.85v1.51.06a.14.14 0 0 1-.1.05h0a.16.16 0 0 1-.09-.07h0a0 0 0 0 0 0 0v-2.5a.14.14 0 0 1 .14-.14.13.13 0 0 1 .13.14v.26a1.1 1.1 0 0 1 .85-.4 1.12 1.12 0 0 1 1.11 1.12v1.48a.13.13 0 0 1-.13.14.14.14 0 0 1-.14-.14zm4.11-.99a.14.14 0 0 1-.14.13h-.35v2a.22.22 0 0 0 .2.21.14.14 0 1 1 0 .27.47.47 0 0 1-.48-.48v-2h-.34c-.14 0-.14-.06-.14-.13s0-.13.14-.13h.34v-1a.15.15 0 0 1 .13-.14.15.15 0 0 1 .15.14v1h.35a.14.14 0 0 1 .14.13zm.86 1.24a1.33 1.33 0 0 1 2.65-.1h0 0a.12.12 0 0 1-.13.12h-2.25a1.06 1.06 0 0 0 1.06 1.05 1 1 0 0 0 .88-.5.13.13 0 0 1 .18 0 .13.13 0 0 1 .05.19 1.33 1.33 0 0 1-1.11.62 1.35 1.35 0 0 1-1.33-1.38zm.28-.22h2.08a1.05 1.05 0 0 0-2.08 0z"/><use xlink:href="#C" x="70.63"/><path d="M284.35 320.07a.85.85 0 1 0-1.69 0v1.51h0a.12.12 0 0 1-.07.07h-.06-.09 0 0 0 0v-1.49a.85.85 0 1 0-1.69 0v1.49a.13.13 0 0 1-.06.11h-.09a.16.16 0 0 1-.11-.1v-2.51a.13.13 0 0 1 .26 0v.26a1.11 1.11 0 0 1 .85-.39 1.12 1.12 0 0 0 2 0 1.12 1.12 0 0 1 1.12 1.12v1.49a.13.13 0 0 1-.14.13.13.13 0 0 1-.13-.13zm1.21 1.05a.13.13 0 0 1 .19 0 1.46 1.46 0 0 0 .84.32.83.83 0 0 0 .52-.17.43.43 0 0 0 .21-.33.46.46 0 0 0-.2-.34 1.29 1.29 0 0 0-.58-.2h0a1.46 1.46 0 0 1-.62-.21.56.56 0 0 1-.3-.49.67.67 0 0 1 .3-.54 1.18 1.18 0 0 1 .67-.18 1.48 1.48 0 0 1 .81.29.131.131 0 1 1-.18.19 1.21 1.21 0 0 0-.67-.27.83.83 0 0 0-.52.15.41.41 0 0 0-.18.32.32.32 0 0 0 .16.27 1.3 1.3 0 0 0 .56.19h0a1.89 1.89 0 0 1 .67.23.66.66 0 0 1 .3.56.67.67 0 0 1-.31.55 1.11 1.11 0 0 1-.68.22 1.67 1.67 0 0 1-1-.39.12.12 0 0 1 .01-.17zm5.79-2.12a1.37 1.37 0 1 1-1.3 1.37 1.34 1.34 0 0 1 1.3-1.37zm0 2.47a1.11 1.11 0 1 0-1-1.1 1.07 1.07 0 0 0 1 1.05zm3.34-3.55a.13.13 0 0 1-.14.13c-.19 0-.29 0-.34.11a.66.66 0 0 0-.11.45v.29h.38a.14.14 0 0 1 .14.14.13.13 0 0 1-.14.13h-.38v2.39a.15.15 0 0 1-.14.14.14.14 0 0 1-.14-.14v-2.39h-.36a.13.13 0 0 1-.14-.13.14.14 0 0 1 .14-.14h.36v-.29a1 1 0 0 1 .18-.61.74.74 0 0 1 .55-.19.14.14 0 0 1 .14.11zm2.31 3.2a.13.13 0 0 1 .19 0 1.49 1.49 0 0 0 .84.32.81.81 0 0 0 .52-.17.38.38 0 0 0 0-.67 1.25 1.25 0 0 0-.58-.2h0a1.51 1.51 0 0 1-.62-.21.58.58 0 0 1-.3-.49.7.7 0 0 1 .3-.54 1.18 1.18 0 0 1 .65-.16 1.51 1.51 0 0 1 .82.29.14.14 0 0 1 0 .19.14.14 0 0 1-.19 0 1.21 1.21 0 0 0-.67-.27.87.87 0 0 0-.52.15.43.43 0 0 0-.17.32.33.33 0 0 0 .15.27 1.35 1.35 0 0 0 .56.19h0a1.83 1.83 0 0 1 .67.23.67.67 0 0 1 .31.56.7.7 0 0 1-.31.55 1.14 1.14 0 0 1-.69.22 1.67 1.67 0 0 1-1-.39.13.13 0 0 1 .04-.19zm2.74-.8a1.33 1.33 0 0 1 2.65-.1h0 0a.12.12 0 0 1-.13.12H300a1.08 1.08 0 0 0 1.06 1.05 1 1 0 0 0 .89-.5.13.13 0 0 1 .18 0 .14.14 0 0 1 0 .19 1.31 1.31 0 0 1-1.11.62 1.35 1.35 0 0 1-1.28-1.38zm.28-.22h2.08a1.06 1.06 0 0 0-1-.89 1.09 1.09 0 0 0-1.1.89zm3.2-1.01a.15.15 0 0 1 .15-.14.13.13 0 0 1 .12.14v.6a.43.43 0 0 0 0-.07 1.34 1.34 0 0 1 1.1-.67.13.13 0 0 1 .13.14.13.13 0 0 1-.13.13 1 1 0 0 0-.8.45 2.42 2.42 0 0 0-.33.64.08.08 0 0 0 0 0v1.2a.13.13 0 0 1-.12.14.15.15 0 0 1-.15-.14zm3.34 2.58v-.06l-1-2.46a.13.13 0 0 1 .06-.17.14.14 0 0 1 .18.07l.91 2.16.91-2.16a.12.12 0 0 1 .17-.07.13.13 0 0 1 .07.17l-1 2.43a.16.16 0 0 1 0 .07.11.11 0 0 1-.09 0h-.08zm2.38-3.49a.13.13 0 0 1 .14-.13.14.14 0 0 1 .14.13v.13a.15.15 0 0 1-.14.15.15.15 0 0 1-.14-.15zm0 .9a.13.13 0 0 1 .14-.13.13.13 0 0 1 .14.13v2.47a.14.14 0 1 1-.28 0zm1.37 1.23a1.38 1.38 0 0 1 1.41-1.36 1.42 1.42 0 0 1 .88.3.13.13 0 0 1 0 .18.14.14 0 0 1-.18 0 1.12 1.12 0 1 0-.71 2 1.17 1.17 0 0 0 .71-.24.13.13 0 0 1 .18 0 .14.14 0 0 1 0 .2 1.42 1.42 0 0 1-.87.29 1.39 1.39 0 0 1-1.42-1.37zm3.11.01a1.331 1.331 0 0 1 2.66-.1h0 0a.13.13 0 0 1-.14.12h-2.25a1.08 1.08 0 0 0 1.06 1.05 1 1 0 0 0 .89-.5.13.13 0 0 1 .18 0 .14.14 0 0 1 0 .19 1.31 1.31 0 0 1-1.11.62 1.36 1.36 0 0 1-1.29-1.38zm.29-.22h2.08a1.05 1.05 0 0 0-2.08 0z"/></g><path d="M190.91,323.48H183v-7.92h7.92Zm-6.92-1h5.92v-5.92H184Z" class="C"/><g fill="#a6a6a6"><path d="M304 224.34a1.46 1.46 0 1 1-1.46-1.46 1.45 1.45 0 0 1 1.46 1.46zm1.06 4H300a2.53 2.53 0 0 1 5.05 0zM300 258.65l-.86-.69h6.75l-.86.69-.86.7-.95.8h0l-.71.6-.71-.6h0l-.95-.8z"/><path d="M305.91 258v4.28h-6.75V258l.82.77.84.75.87.77h0 0-.05a6.26 6.26 0 0 0-.55.34l-.68.45-.65.47-.64.51.7-.42.67-.45.66-.47.52-.42h0l.74.64h0 0l.74-.64h0l.51.42.66.47.67.45.7.42c-.2-.18-.42-.34-.63-.51l-.66-.47-.67-.45a6.42 6.42 0 0 0-.56-.34h-.05 0 0l.88-.77.83-.75zm-3.38 34.93a4.93 4.93 0 0 0-3.37 1.67 4.26 4.26 0 0 0 6.75 0 4.94 4.94 0 0 0-3.38-1.67zm0 2.85a1.19 1.19 0 1 1 1.19-1.19 1.18 1.18 0 0 1-1.19 1.19zm.76-1.19a.76.76 0 1 1-1.51 0 .76.76 0 0 1 1.51 0z"/></g><path d="M221.06 340.49h57.89v17.46h-57.89z" class="D"/><path d="M231.7 350.62a.46.46 0 0 1 .65-.06 2.93 2.93 0 0 0 1.71.69 1.91 1.91 0 0 0 1.12-.33.81.81 0 0 0 .39-.65.54.54 0 0 0-.08-.28 1 1 0 0 0-.27-.27 3.63 3.63 0 0 0-1.23-.42h0a4.84 4.84 0 0 1-1.15-.35 2 2 0 0 1-.84-.7 1.44 1.44 0 0 1-.2-.74 1.64 1.64 0 0 1 .71-1.3 2.62 2.62 0 0 1 1.55-.48 3.51 3.51 0 0 1 2 .72.46.46 0 0 1 .12.63.45.45 0 0 1-.63.14 2.58 2.58 0 0 0-1.45-.57 1.7 1.7 0 0 0-1 .3.72.72 0 0 0-.34.56.46.46 0 0 0 .06.25.91.91 0 0 0 .24.24 3.21 3.21 0 0 0 1.12.39h0a5.31 5.31 0 0 1 1.24.38 2 2 0 0 1 .89.74 1.43 1.43 0 0 1 .22.76 1.72 1.72 0 0 1-.77 1.39 2.82 2.82 0 0 1-1.66.51 3.87 3.87 0 0 1-2.29-.89.47.47 0 0 1-.11-.66zm6.23-4.22a.48.48 0 0 1 .49-.49.5.5 0 0 1 .5.49v5.29a.49.49 0 0 1-.5.49.48.48 0 0 1-.49-.49zm2.39 2.6a3.31 3.31 0 0 1 5.34-2.53.51.51 0 1 1-.62.81 2.32 2.32 0 0 0-1.42-.49 2.19 2.19 0 0 0-1.61.66 2.13 2.13 0 0 0 0 3.1 2.22 2.22 0 0 0 1.61.65 2.44 2.44 0 0 0 1.23-.34v-1.23h-1.28a.51.51 0 0 1-.51-.51.5.5 0 0 1 .51-.5h1.78a.5.5 0 0 1 .52.5v2a.66.66 0 0 1 0 .15.09.09 0 0 0 0 .05h0a.44.44 0 0 1-.18.21 3.28 3.28 0 0 1-2 .7 3.25 3.25 0 0 1-3.37-3.23zm8.55 2.69a.5.5 0 0 1-.49.49.48.48 0 0 1-.49-.49v-5.21h0a.48.48 0 0 1 .2-.42.5.5 0 0 1 .68.11l2.89 4v-3.69a.49.49 0 0 1 .48-.48.5.5 0 0 1 .5.48v5.21a.5.5 0 0 1-.5.49.47.47 0 0 1-.36-.18l-.05-.05-2.86-4zm11.19.49a2.58 2.58 0 0 1-2.58-2.59v-3.19a.48.48 0 0 1 .49-.49.5.5 0 0 1 .5.49v3.19a1.6 1.6 0 1 0 3.19 0v-3.19a.49.49 0 0 1 .5-.49.48.48 0 0 1 .49.49v3.19a2.58 2.58 0 0 1-2.59 2.59zm6.79-2.44h-1.1v1.95a.5.5 0 0 1-1 0v-5.29a.5.5 0 0 1 .49-.49h1.61a1.92 1.92 0 1 1 0 3.83zm-1.1-1h1.1a.92.92 0 1 0 0-1.84h-1.1z" class="E"/><circle cx="275.78" cy="144.3" r="11.52" class="I"/><circle cx="222.5" cy="186.98" r="8.08" class="C"/><path d="M266.42,191.58a30.71,30.71,0,0,1-9,3.76,31.17,31.17,0,1,1,9-3.76Z" class="D"/><g class="E"><path d="M259.51 161.49A9.49 9.49 0 1 1 250 152a9.48 9.48 0 0 1 9.51 9.49z"/><path d="M266.42,187.67v3.91a30.71,30.71,0,0,1-9,3.76,31,31,0,0,1-23.8-3.77v-3.9a16.4,16.4,0,1,1,32.79,0Z"/></g><path d="M287.14 217.82a21.6 21.6 0 0 1-.37-4.23 20.86 20.86 0 0 1 .37-4.23 20.87 20.87 0 0 1 .38 4.23 21.61 21.61 0 0 1-.38 4.23zm-6.01 2.67a21.9 21.9 0 0 1-3.25-2.72 21.44 21.44 0 0 1-2.73-3.26 24 24 0 0 1 6 6zm-2.36 6.14a21.5 21.5 0 0 1-4.22.37 20.86 20.86 0 0 1-4.23-.37 24.31 24.31 0 0 1 8.45 0zm2.68 6.01a24.5 24.5 0 0 1-6 6 20.82 20.82 0 0 1 2.72-3.26 22 22 0 0 1 3.28-2.74zm6.13 2.36a23.68 23.68 0 0 1 0 8.45 24.31 24.31 0 0 1 0-8.45zm6.01-2.67a23.78 23.78 0 0 1 6 6 20.74 20.74 0 0 1-3.25-2.72 21.86 21.86 0 0 1-2.75-3.28zm2.41-6.14a23.73 23.73 0 0 1 8.46 0 24.36 24.36 0 0 1-8.46 0zm-2.72-6.01a22 22 0 0 1 2.72-3.26 21.38 21.38 0 0 1 3.26-2.72 24.5 24.5 0 0 1-6 6z" class="B"/><path d="M338.38,131.45s7,48.69,6.53,53.32-6.18,49.51-6.18,49.51-12.82-2.76-16.52-5c-2.66-1.59-12.08-9.71-12.08-9.71s16-31.3,17.32-37.65,2.19-37.14,3.72-43.34a12.6,12.6,0,0,1,7.36-8.32" class="D"/><path d="M323.32 199a10.57 10.57 0 0 0 3.94 4.29c.87.59 2.55 1.85 3.08.22a2.93 2.93 0 0 0-.22-1.89 10.47 10.47 0 0 0-1.82-3.09c-.94-1.15-2.5-2.66-4.14-2.38s-1.33 1.71-.84 2.85zm10.25 7.82a10 10 0 0 0 2.36 5.79c.69.72 1.49.95 2.11.45s.95-1.58 1-2.44a10.78 10.78 0 0 0-1.1-6c-.59-1.15-1.63-2.75-3.16-2.4-1.92.5-1.4 3.19-1.21 4.6zm-7.82-.82c-.87.68 0 3.3.81 4.54 1 1.58 2.73 3.38 4.16 2.7.72-.35.82-2.3-.76-4.75-1.48-2.25-3.49-3.03-4.21-2.49zm-4.38 14.44c.34.67 1.08 1.85 1.95 1.89s1-.84 1-1.48a9.75 9.75 0 0 0-.55-2.93c-.41-1.28-1.17-2.39-2.4-2.46-2.43-.13-.44 4.12 0 4.98z" class="B"/><path d="M398.3 358.4l21.81 38.6c3.5 7.77 6.43 14.65 7.62 18.35a.14.14 0 0 1 0 .06 6 6 0 0 1 .51 2.66v.07c-1.61 2.61-62.92 32.41-65.41 32.73s-3.59-6.75-2.13-9.81 19.84-25 19.84-25l-21.41-38.7z" class="F"/><path d="M363.81 450.62c2.48-.32 62.82-29.89 64.42-32.5v-.07a6 6 0 0 0-.51-2.66.06.06 0 0 0 0-.05c-1.19-3.7-4.12-10.59-7.61-18.36l-5.14-9.08-39 20.16 4.54 8s-17.39 21.68-18.85 24.74-.35 10.2 2.15 9.82z" class="C"/><path d="M362.68 449.79c2.51-.38 63.6-31.85 65.16-34.53.61-1-3.46-10.17-8.69-21.11 0-.11-.11-.23-.17-.34l-39.63 19.86.36.66s-18 22.51-19.41 25.63-.12 10.22 2.38 9.83z" class="D"/><path d="M362.16 447.07c10.16-5.56 51.7-27 62.17-31.74.08 0 .11 0 0 .06-10 5.73-51.66 26.85-62.12 31.84-.21.11-.27-.05-.05-.16z" class="E"/><path d="M376.46 416.16c3.66-2.84 8.94-4.78 13.52-3.48.18.05.1.3-.05.32a64.22 64.22 0 0 0-13.19 3.66.29.29 0 0 1-.28-.5zm-2.02 3.27c3.66-2.85 8.94-4.78 13.52-3.48.18.05.11.3 0 .32a64.57 64.57 0 0 0-13.19 3.66.3.3 0 0 1-.33-.5zm-2.02 3.27c3.67-2.85 8.94-4.78 13.53-3.48.17 0 .1.3-.05.32a64.49 64.49 0 0 0-13.2 3.66.29.29 0 0 1-.28-.5z" class="B"/><path d="M412.42 405.85c3.29-4.5 10.28.6 7 5.11s-10.29-.61-7-5.11z" class="E"/><path d="M377 417.71l-4.39 27.43a108.44 108.44 0 0 1-9.94 4.65c-2.5.39-3.78-6.72-2.39-9.83 1.09-2.36 11.72-15.85 16.72-22.25z" opacity=".1"/><path d="M360.62 448.08c-.87 1 1.26 4.54 2.2 4.42s67.39-34.72 68.39-35.55-1.5-4.69-2.93-4.22-67.66 35.35-67.66 35.35z" class="B"/><path d="M415.07 384.3l-43.94 23.46s-55.46-79-56.56-99.8c-1.54-28.68 22.95-119.73 22.95-119.73l39.06-.26S360.7 281.6 362 297.57c.67 8.36 53.07 86.73 53.07 86.73z" fill="#37474f"/><path d="M367.3 398.68c2.26-1.63 23.09-13.7 38.95-21.41.1 0 .17.1.08.16-4.81 3.18-35.9 20.21-38.91 21.42-.1.04-.22-.1-.12-.17zm-10.73-121.11c1.81-13.7 3.81-27.39 6.09-41s4.69-27.38 7.56-41q.52-2.49 1.07-5a.204.204 0 0 1 .4.08l-7.09 40.46-6.14 40.62-1.34 10.08a89.61 89.61 0 0 0-1 10.46 26.69 26.69 0 0 0 1.67 9.81 56.77 56.77 0 0 0 4.5 8.82l39.53 65.71c.06.1-.08.2-.14.1-7.6-11.78-31.16-49.42-38.32-61.57-3.24-5.48-6.94-11-8-17.42-1.08-6.61.33-13.56 1.21-20.15z" class="B"/><path d="M367.82 384.3l.44 44.59c-.23 8.52-.59 16-1.14 19.84a.13.13 0 0 1 0 .06 5.94 5.94 0 0 1-.7 2.62h-.05c-2.58 1.65-70.75 1.75-73.13 1s-.3-7.64 2.35-9.75 28.73-13.83 28.73-13.83V384.3z" class="F"/><path d="M368.17 419.74l.09 9.15c-.23 8.52-.59 16-1.14 19.84a.13.13 0 0 1 0 .06 11 11 0 0 1-.7 2.62h-.05c-2.58 1.65-70.75 1.75-73.13 1s-.3-7.64 2.35-9.75 28.73-13.83 28.73-13.83v-9.29z" class="C"/><path d="M293.2 452.33c2.41.76 71.12-.44 73.7-2.15 1-.64 1.4-10.66 1.55-22.78v-.4l-44.34.28v.76s-26.09 12.22-28.74 14.4-4.59 9.13-2.17 9.89z" class="D"/><path d="M293.93 449.65c11.57-.49 58.31-1.37 69.79-1 .1 0 .1.07 0 .08-11.46.73-58.2 1.23-69.79 1.08-.25.03-.25-.15 0-.16z" class="E"/><path d="M320.42 428.26c4.54-.94 10.13-.33 13.67 2.85.14.13 0 .32-.19.27a64.66 64.66 0 0 0-13.45-2.55.29.29 0 0 1-.03-.57zm-3.25 2.04c4.54-.94 10.13-.33 13.66 2.85.14.13 0 .32-.18.27a64.76 64.76 0 0 0-13.46-2.55.29.29 0 0 1-.02-.57zm-3.26 2.04c4.54-.93 10.13-.33 13.67 2.85.14.13 0 .32-.19.28a64 64 0 0 0-13.45-2.56.29.29 0 0 1-.03-.57zm-21.81 17.54c-1.22.5-.88 4.62 0 4.94s75.8-1.33 77.07-1.64.72-4.87-.76-5.08-76.31 1.78-76.31 1.78z" class="B"/><path d="M357.24 434.91c4.94-2.57 8.95 5.09 4 7.68s-8.95-5.09-4-7.68z" class="E"/><path d="M338 188.14c.26.81 14.29 39.27 15.62 39.89 1.49.69-31 55.29-32.94 80.65-1.23 16.23 1.19 108 1.19 108h47.52l-3.37-108.7c-.42-10.14 32.63-60.63 33-92.08.13-9.91-7-28-7-28z" fill="#37474f"/><g class="B"><path d="M365.78 307.36c0-.42.33-.56.36-.13 1.07 14.16 1.32 28.23 2 42.41s.29 17.55.92 31.68c.36 8 0 16 .2 24a.1.1 0 0 1-.19 0c-1.48-14.06-3.28-89.95-3.29-97.96zm-45.07 1.92a71.45 71.45 0 0 1 1-10.42 52.2 52.2 0 0 1 2.94-9.78c2.62-6.62 5.73-13.08 8.7-19.55l9.24-19.57q2.67-5.46 5.37-10.91c1.83-3.67 3.8-7.28 5.71-10.91.07-.14.3 0 .23.11l-9.1 19.64-9 19.67-8.67 19.45a64.5 64.5 0 0 0-3.39 9.61 56.36 56.36 0 0 0-1.46 10.38c-.46 8.11-.68 16.26-1.48 24.35 0 .1-.18.09-.18 0-.24-7.35-.13-14.74.09-22.07z"/><path d="M325.34 407.37c2.76-.36 23.82-1.09 41.43-.34a.09.09 0 0 1 0 .18c-5.74.51-38.18.73-41.41.36-.11-.01-.15-.19-.02-.2zm21.74-181.44a91 91 0 0 1 14.86 5.15.164.164 0 0 1-.11.31c-5-1.56-10.06-3-14.95-4.86a.32.32 0 0 1 .2-.6zm-4.8-32.58c0-.16.29-.23.3 0 .55 5.68 1.42 10.63 2.44 15.88.48 2.44 3.85 15.84 8 14.41.7-.24 1-1 1-2.07a17 17 0 0 0-1-4.11c-.76-2.8-1.44-5.62-2-8.47a79.18 79.18 0 0 1-1.47-16.11.14.14 0 0 1 .28 0 148.51 148.51 0 0 0 3.57 22.08c.9 3.48 3.23 8.62-.42 9.55s-7.06-7.73-7.77-10.13a82 82 0 0 1-2.93-21.03z"/><path d="M353 224a22.3 22.3 0 0 1 1.25 2.72 6.32 6.32 0 0 1 .63 2.27c0 .15-.19.19-.29.1a8.49 8.49 0 0 1-1.22-2.16l-1.23-2.52a.48.48 0 0 1 .86-.41zm7.91 97.32c-.24-6.75-1-13.84 1.22-20.36a67.71 67.71 0 0 1 4.34-9.25q2.46-4.75 4.85-9.58c6.35-12.82 12.33-25.85 17.67-39.13 2.58-6.39 4.88-12.95 5.8-19.81a60.9 60.9 0 0 0-1.33-21.56c-.4-1.76-.83-3.51-1.31-5.25 0-.12.16-.2.2-.07a71.08 71.08 0 0 1 3.71 20.62 58.45 58.45 0 0 1-3.58 19.7c-2.28 6.64-5.13 13.08-7.94 19.51q-4.35 9.92-9 19.7c-3.11 6.48-6.43 12.85-9.71 19.25a35.18 35.18 0 0 0-3.65 9.71 50.36 50.36 0 0 0-.39 10.63l2 79.6.07 5.68c0 .16-.25.19-.26 0-.94-14.86-2.15-64.49-2.69-79.39zm10.66-123.5c0-.1.17-.08.18 0 .56 4.12.88 8.38 2.87 12.11 1.82 3.43 5 5.64 8.46 7.18a64.22 64.22 0 0 0 6.17 2.28c.15 0 .12.28-.05.24-3.93-.81-7.92-1.73-11.34-3.94-3.66-2.36-5.54-6.14-6.14-10.37a35.58 35.58 0 0 1-.15-7.5z"/></g><path d="M394.5 191.15c-.09.19-62.6 17.22-63.3 16.77-.07 0-2.65-1.44-3.21-6.27-.16-1.33 1.62-7 1.67-11.27.14-14.81-.44-42.31 3.59-57.08 1.08-4 9.63-8.52 14.32-5.63 21.13 12.99 47.05 63.23 46.93 63.48z" class="C"/><path d="M344.43 126.51s2.32 31.53 3.16 35.19c.58 2.56 7.66 28.3 11.3 46.9 1.56 8 .83 20.51.83 20.51s21.77-7.07 28.44-11.61c3.86-2.63 12.47-14 12.47-14s-13.78-30.57-21.63-42.05-22.77-31.35-29.76-34.25c-3.15-1.32-4.81-.69-4.81-.69z" class="D"/><path d="M383.4 179.57a3.49 3.49 0 0 0-1.86 2.76 11 11 0 0 0-.47 4.95c.13.9.53 2.23 1.7 2s1.82-2.23 2.13-3.25 1.23-7.62-1.5-6.46zm-9.27 7.66c-1.28 1.06-1.14 3.24-.87 4.69a10.27 10.27 0 0 0 1.16 3.39 3 3 0 0 0 1.3 1.4c1.59.65 1.71-1.44 1.83-2.49a10.56 10.56 0 0 0-.71-5.78c-.52-1.09-1.53-2.19-2.71-1.21zm4.49-12.18c-1-.12-1.53.63-1.81 1.62a9.12 9.12 0 0 0-.39 3.56c.08.73.24 2 1.05 2.3s1.46-.53 1.75-1.18c.52-1.19 1.56-6.02-.6-6.3zM363.46 226c-.77 1.57-2.34.27-3.6-1.26h0v-6.36l.34.28a11.15 11.15 0 0 1 2.89 4 3.52 3.52 0 0 1 .37 3.34zm7.19-.7l-2.29.83a9.91 9.91 0 0 1-2.91-4.21c-.2-.68-.29-1.75.55-2s1.76.56 2.3 1.05a9.13 9.13 0 0 1 2 2.95 2.74 2.74 0 0 1 .35 1.38zm-5.89-54c.95-.05 1.84 1.3 2.26 2a9.78 9.78 0 0 1 1.24 3.8c.1.77.38 2.4-.34 3-.87.71-1.71-.1-2.33-1.21a8.8 8.8 0 0 1-1.85-5.55c.01-.7.09-1.98 1.02-2.04zm7.12 28c-1.26.93-.72 2.76-.23 3.95a10.82 10.82 0 0 0 3.83 4.71c.71.48 1.78 1.06 2.54.78s1.12-.9 1-1.9a10 10 0 0 0-2.89-5.54c-.92-1.02-2.62-3.17-4.25-1.96zm7.92.34c.84 2.81 2.39 4 3.12 3.67 1.44-.65 1.19-3.11.65-4.92-.42-1.42-1.85-3.78-2.94-3.56-.89.22-1.63 2.26-.83 4.85zm-28.92-49a10.25 10.25 0 0 1-1.65 3.18 7.64 7.64 0 0 1-2.34 2.25l-.52-5.58h0a16.47 16.47 0 0 1 1.56-1.34c.84-.65 2.44-2 3.07-.4a3 3 0 0 1-.12 1.93zm4.67-.94c1.54.27 2.49-1.38 3-2.56a10.71 10.71 0 0 0 .76-6c-.14-.84-.46-2-1.18-2.38s-1.43-.18-2.08.57a10.05 10.05 0 0 0-2 5.92c-.12 1.43-.5 4.15 1.5 4.49zm-5.22-6c-1.34 2.35-3.31 3.24-4.06 2.72a.8.8 0 0 1-.29-.4c0-.39-.07-.79-.11-1.19h0a8.53 8.53 0 0 1 .95-3c.94-1.64 2.55-3.52 4-2.92.75.38.96 2.32-.49 4.86zm42.18 55.11c-.75 1-.4 2.27.32 3.41a9.29 9.29 0 0 0 1.87 2.33c.48.42 1.26.85 1.77.2s.12-2-.17-2.71c-.37-.83-2.3-5.1-3.79-3.16zm-19.6-33.58a2.44 2.44 0 0 0-.67 2.72 7.54 7.54 0 0 0 .82 2.3c.26.46.75 1 1.32.64s.63-1.53.59-2.15c-.04-.74-.39-4.54-2.06-3.44z" class="B"/><path d="M337.75 142.69c3.53-.84 6.5-10.12 6.68-15.1 0-.34-1.32-2-3.39-5.27-1.26-2-2.6-4.25-3.68-6.39l-11.82 10a38.11 38.11 0 0 1 5.45 7.59 5.23 5.23 0 0 1 .35.92 1.66 1.66 0 0 0 .06.16c.6 1.85 2.94 8.9 6.35 8.09z" class="F"/><path d="M332.91 136.59l-.71.35-.81-2.3a1.56 1.56 0 0 0-.05-.16 5.63 5.63 0 0 0-.35-.93 38.24 38.24 0 0 0-5.45-7.58l11.82-10 .71 1.36c1.37 4.88 2.93 14.96-5.16 19.26z" class="B"/><path d="M331.66 101.44c3.88 4 8.39 19 6.57 23.84-2.64 6.95-10.46 11.48-17.25 7.51-6.57-3.85-12.1-23.55-9.74-28.26 3.48-6.95 14.69-9.02 20.42-3.09z" class="F"/><g class="B"><path d="M322.56 117.11s.09 0 .11.06c.33 1 .88 2.1 1.9 2.1 0 0 .05 0 0 .06-1.14.25-1.85-1.21-2.01-2.22z"/><path d="M323.06 115.75c1.55-.71 2.86 2.45 1.42 3.1s-2.72-2.5-1.42-3.1zm-6.06 3.73s-.05.08 0 .12c.43 1 .77 2.14 0 2.83 0 0 0 .07 0 0 1-.55.52-2.1 0-2.95z"/><path d="M315.66 118.82c-1.62.53-.44 3.74 1.06 3.24s.28-3.68-1.06-3.24zm7.85-5.62a13 13 0 0 1-1.4.11 2.22 2.22 0 0 1-1.44-.15.72.72 0 0 1-.26-.85 1.8 1.8 0 0 1 1.57-.9 2.63 2.63 0 0 1 1.85.42.77.77 0 0 1-.32 1.37zm-10.16 3.47a11.68 11.68 0 0 0 1.12-.84c.43-.33.8-.54 1-1.08a.72.72 0 0 0-.38-.79 1.76 1.76 0 0 0-1.77.37 2.62 2.62 0 0 0-1.1 1.54.77.77 0 0 0 1.13.8zm14.09 8.61c-.14.32-.25.74-.59.91a2.81 2.81 0 0 1-1.15.19 0 0 0 0 0 0 .07 1.44 1.44 0 0 0 1.46 0 1.14 1.14 0 0 0 .41-1.19c-.03-.04-.11-.03-.13.02zm-2.24-2.5a3.63 3.63 0 0 1-1.61 2.4 4.48 4.48 0 0 1-1.17.55l-.24.06-.23.06a.27.27 0 0 1-.29-.14h0v-.11h0v-.08c-.33-.74-.73-1.92-.73-1.92-.22.25-1.36 1.46-1.5 1.06a54.07 54.07 0 0 1-2.87-10.6.1.1 0 0 1 .19 0c1.23 3.16 1.9 6.52 3.09 9.71a6.62 6.62 0 0 1 1.37-1.13c.12 0 .73 2.29.91 2.61h0a5 5 0 0 0 3-2.49c0-.12.11-.08.08.02zm11.98-6.86c-2.88.53-5.25-6.45-5.25-6.45s-3.87-.16-7.05-6.16c0 0-.29 7-12.23 9.43a10.37 10.37 0 0 1-1.13-6.26 43.45 43.45 0 0 0-.86 7.14s-5.89-8.64 1.15-14.69c2.8-2.4 7.82-3.75 16.53-2.51 0 0 0-5 1-4.65s.77 5 .77 5 2.95-2.1 3.73-1.59-2.22 2.3-2.22 2.3a6.86 6.86 0 0 1 6.63 6c1 5.65.36 12.18-1.07 12.44z"/><path d="M330.7 97.74a6.27 6.27 0 0 1 7.73 3 11.66 11.66 0 0 1 .94 5.19 22.09 22.09 0 0 1-.89 5.48c0 .1-.18 0-.15-.06a16.5 16.5 0 0 0 .5-5 15.67 15.67 0 0 0-.77-4.81 6 6 0 0 0-7.31-3.61c-.09.01-.14-.15-.05-.19zm-12.85-2.55a24.17 24.17 0 0 1 6.3.22 17.58 17.58 0 0 1 5.73 1.71c.09 0 0 .19-.06.15A32 32 0 0 0 318.46 96c-3.54.14-7.36 1.4-9 4.84 0 .06-.11 0-.09 0 1.33-3.55 5-5.26 8.48-5.65z"/></g><path d="M334.47,114.64s1-6,3.54-5.89,3.38,7.79,1.42,9.84a2.72,2.72,0,0,1-3.9.28Z" class="F"/><path d="M338.18 111s.07 0 .05.06c-1.35 1.5-1.48 3.48-1.31 5.39a1.49 1.49 0 0 1 1.83-1.34c.06 0 .05.1 0 .11a1.68 1.68 0 0 0-1.4 1.32 8.21 8.21 0 0 0-.14 1.72c0 .19-.32.24-.34 0h0c-1.09-2.18-.87-5.98 1.31-7.26z" class="B"/><g class="F"><path d="M357.14 141.8c5.07 17.76 8.29 51.21 5.72 57.29-2.28 5.38-19.41 17.88-29.26 24.56-3.21 2.18-18.75-22.38-15.2-24.52 4.84-2.9 22.19-14.37 22.61-15.61s2-26.38 4.67-40.79c2.4-13.06 9.55-7.65 11.46-.93z"/><path d="M285.62 228.09c2.43 2.48 8-4 8-4a6.42 6.42 0 0 0 .59 4.31c1.34 2.27 5.48 1.17 5.48 1.17a7.94 7.94 0 0 0 1.36 4.44c1.5 2 5.84 1.53 5.84 1.53a6.91 6.91 0 0 0 3.65 3.15c4.22 1.38 9.13-3.36 12.75-5.7a52 52 0 0 0 11.21-10.52L320 198.73s-20.64 5.14-24.11 8.91c-2.97 3.17-13.97 16.67-10.27 20.45z"/></g><path d="M293.63 224c2.29-4.11 5.57-7.68 8.76-11.08.07-.07.19 0 .12.11-3.22 3.35-5.62 7.64-8.7 11.11a.12.12 0 0 1-.18-.14zm5.94 5.21a11.85 11.85 0 0 1 2.15-2.38l2.5-2.33q2.55-2.3 5.2-4.45c.08-.06.19 0 .11.11l-5 4.67-2.42 2.41a14.84 14.84 0 0 1-2.36 2.19.16.16 0 0 1-.18-.22zm7.43 6.24a8.63 8.63 0 0 1 2.05-2l2.35-2 4.62-4.18a.081.081 0 0 1 .12.11l-4.57 4.39-2.28 2.11a8 8 0 0 1-2.23 1.74s-.06-.13-.06-.17z" class="B"/><path d="M366.18 182.8l-27.57.34s3.54-30.39 7.35-43.62c3.2-11.12 9.86-10.1 13.52 4.26 3.46 13.58 6.7 39.02 6.7 39.02z" class="D"/><g class="B"><path d="M365.68 179l-.09-.15a8.8 8.8 0 0 1-1.85-5.55c0-.63.08-1.77.83-2l1.11 7.7zm-21.45-25.35a10.57 10.57 0 0 1 3.7-4.49c.84-.65 2.44-2 3.07-.4a3 3 0 0 1-.12 1.9 10.25 10.25 0 0 1-1.65 3.18c-.87 1.2-2.34 2.8-4 2.61s-1.42-1.64-1-2.78zm9.81-8.4a10.05 10.05 0 0 1 2-5.92c.65-.75 1.44-1 2.08-.57s1 1.54 1.18 2.38a10.71 10.71 0 0 1-.76 6c-.53 1.18-1.48 2.83-3 2.56-1.99-.3-1.61-3.02-1.54-4.43zm-7.77 1.22c-.91-.64-.18-3.3.55-4.58.94-1.64 2.55-3.52 4-2.92.74.3.95 2.24-.5 4.78-1.32 2.37-3.32 3.25-4.05 2.74zm-1.63 28.22c-.15.73-.56 2.06-1.4 2.33s-1.19-.55-1.34-1.18a9.2 9.2 0 0 1-.22-3c.06-1.35.51-2.61 1.68-3 2.32-.7 1.49 3.92 1.28 4.87zm-2.35 2.71a42.65 42.65 0 0 1 5.28-.4l5.46-.17c1.82-.04 9.06.08 10.87.11.08 0 .07.14 0 .15l-10.83.54-5.34.05a46.44 46.44 0 0 1-5.42-.19s-.07-.08-.02-.09z"/><path d="M360.63 148.75l1.81 8.44 1.58 8.49 1.36 8.52.55 4.28.36 4.32v.12h-.12l-2.78-.08 2.77-.15-.11.12-1.31-8.51-1.44-8.5-1.4-8.51-1.27-8.54z"/><path d="M361.87 150.27a9.74 9.74 0 0 1 .36 2.62 8.64 8.64 0 0 1-.36 2.62 23.24 23.24 0 0 1-.14-2.62 17.85 17.85 0 0 1 .14-2.62z"/></g><path d="M99.21 390.69s17.1-3.88 26.47-12.51 14.61-24.11 14.61-24.11a147.9 147.9 0 0 0-19.18 5 32.48 32.48 0 0 0-5.8 8.2 39.44 39.44 0 0 1 0-5.86 25.63 25.63 0 0 0-6.09 3.7c-7.82 6.89-10.01 25.58-10.01 25.58z" class="D"/><path d="M129.61 361.59l7-4.79a.135.135 0 0 0-.14-.23c-4.4 2.63-8.75 5.44-13 8.39-1.47 1-2.9 2.09-4.33 3.18l.3-.5c.51-.86 1.06-1.7 1.6-2.55a35.53 35.53 0 0 1 3.63-4.84c.05-.06 0-.14-.09-.08-1.33 1.53-2.66 3.05-3.87 4.68a34.92 34.92 0 0 0-1.63 2.4 39.94 39.94 0 0 0-.77 1.29l-.25.44c-2.21 1.74-4.37 3.55-6.42 5.46a74.72 74.72 0 0 0-3.67 3.67c.66-2.07 1.23-4.16 2-6.2 0-.07-.09-.1-.11 0-.75 2.14-1.56 4.29-2.14 6.48q-2 2.13-3.74 4.41l.06-.28.61-2.41c.42-1.54.87-3.08 1.4-4.6a26.69 26.69 0 0 1 4.59-8.67c.05-.06 0-.14-.09-.08a33.29 33.29 0 0 0-6.54 13.67c-.19.73-.36 1.46-.53 2.19-.08.39-.19.79-.25 1.19-.52.69-1 1.4-1.51 2.12a74.1 74.1 0 0 0-7.24 14.19A167.37 167.37 0 0 0 89 417.21c0 .11.14.15.18 0 3.34-10 6.76-20.15 12.48-29.1a66 66 0 0 1 3.91-5.46A32.26 32.26 0 0 0 114 381a36.86 36.86 0 0 0 8.34-4 53.13 53.13 0 0 0 4.27-3.23.06.06 0 1 0-.08-.09 33.8 33.8 0 0 1-7.83 4.74 43 43 0 0 1-8.63 2.9c-1.26.27-2.54.48-3.82.65a72 72 0 0 1 5-5.59c.58-.57 1.17-1.12 1.77-1.68a39.57 39.57 0 0 1 6.32-3.62c2.8-1.36 5.56-2.79 8.33-4.2l4.7-2.38c.06 0 0-.13-.06-.1-2.81 1.36-5.67 2.62-8.51 3.92-2.66 1.23-5.37 2.46-7.93 3.89l-.32.2c2.31-2 4.71-3.94 7.17-5.79q3.38-2.62 6.89-5.03zm-.97 8.82l-4.19 1.79c-1.38.64-2.75 1.44-4.1 2.23-.06 0 0 .12.06.09l4.09-1.94 4.17-2.06c.07-.03.04-.14-.03-.11z" class="B"/><path d="M43.66 304.52a24.44 24.44 0 0 1 5.11 14.2c0 1.53-.19 3.67-.37 6.18a40.6 40.6 0 0 1 11.16 9.54 20.13 20.13 0 0 0-11.27-2.7 33.24 33.24 0 0 0 .65 5.11 19.18 19.18 0 0 1 7.25 1.43 16.31 16.31 0 0 0-6.54 1.3c3.05 9.7 12.11 19.66 37.13 23.89a52.46 52.46 0 0 0-4.43-35.2c-7.5-14.75-38.69-23.75-38.69-23.75z" class="D"/><g class="B"><path d="M95.44 405c-.43-4.14-1-8.28-1.62-12.39a245.58 245.58 0 0 0-5-24.49 96.83 96.83 0 0 0-3.61-11.16 16.91 16.91 0 0 0 .1-2v-2.4c0-1.6-.1-3.2-.23-4.8a57.35 57.35 0 0 0-1.54-9.38c-.46-1.78-1-3.54-1.51-5.3a.06.06 0 0 0-.11 0 69.27 69.27 0 0 1 1.84 9.37 89.49 89.49 0 0 1 .85 9.39v2.58 1.1a80.33 80.33 0 0 0-4.21-8.72 105.91 105.91 0 0 0-8.59-12.8 5.92 5.92 0 0 0-.21-1.39l-.36-1.68a80.96 80.96 0 0 0-.86-3.41c-.62-2.27-1.44-4.46-2.15-6.7 0-.07-.13 0-.11 0 .66 2.21 1.1 4.51 1.61 6.77l.74 3.35.35 1.67v.13c-1-1.28-2-2.54-3.1-3.78-4.78-5.6-10-10.77-15.29-15.9-.65-.63-1.31-1.24-2-1.87-.05-.05-.13 0-.08.09 5 5.26 10 10.57 14.7 16.14 1.12 1.32 2.21 2.66 3.29 4l-1.7-1.13c-1.46-.95-2.93-1.88-4.45-2.73s-3-1.68-4.61-2.45-3.32-1.44-4.87-2.35c-.06 0-.12.08-.05.11a35.67 35.67 0 0 1 4.56 2.53l4.54 2.76 4.41 2.8c1.22.79 2.42 1.65 3.68 2.38a117.56 117.56 0 0 1 8 11.67 86.79 86.79 0 0 1 4.15 7.86l-.9-.39-2.29-1-4.43-1.93c-2.8-1.22-5.65-2.34-8.41-3.68a37.19 37.19 0 0 1-4.49-2.5c-.06 0-.11.06 0 .11 5.13 3.53 10.88 6 16.56 8.54l2.46 1.08c.67.3 1.35.64 2 .9a88.61 88.61 0 0 1 4.23 11.59 235.81 235.81 0 0 1 5.44 24.21c1.44 8.17 2.41 16.4 3.16 24.66l.3 3.09a.33.33 0 0 0 .65 0c.03-4.21-.4-8.41-.84-12.55zm-15.22-69.12c-.46-2.55-1.14-5-1.82-7.53 0-.07-.13 0-.11 0l1.54 7.42 1.24 7.61h.07a68.07 68.07 0 0 0-.92-7.5zm-10.78 6.89a45.37 45.37 0 0 0-5.44-3.06l-2.76-1.37-2.89-1.32a.063.063 0 0 0-.06.11c.92.45 1.79 1 2.69 1.5l2.77 1.52 5.55 2.87a.143.143 0 0 0 .14-.25z"/><path d="M99.52 361.07s15.82-3.78 23.09-14.39c6.93-10.14 9.18-27.42 9.35-28.94-.28 1.39-3.55 16.5-14.32 23.53-8.25 5.39-16.22 9.82-18.12 19.8z" opacity=".1"/><path d="M114.12 333.73a20.25 20.25 0 0 0-5.83 9.61s0 .05 0 0a23.58 23.58 0 0 1 5.86-9.54c.1-.03.02-.12-.03-.07z"/></g><path d="M99.52 361.07s15.82-3.78 23.09-14.39c6.93-10.14 9.18-27.42 9.35-28.94a.45.45 0 0 0 0-.11s-7.58 10.79-15.56 13.54-19.17 12.27-16.88 29.9z" class="D"/><path d="M129.18 323.58a65.33 65.33 0 0 1-4.89 8.37 33.56 33.56 0 0 1-6.51 6.69l-6.6 4.93a.56.56 0 0 0 0-.08q.61-.9 1.29-1.77c.91-1.16 1.9-2.25 2.9-3.33l5.73-6.53a23.65 23.65 0 0 0 2.54-4.09c0-.07-.08-.1-.11 0-2.57 5.35-7.69 8.77-11.35 13.29a22.25 22.25 0 0 0-1.46 2 7.69 7.69 0 0 0-.91 1.61 33.15 33.15 0 0 0-5.4 5.45 22.58 22.58 0 0 1 .63-3.07 15.71 15.71 0 0 1 1.68-4c0-.06-.06-.12-.1-.06a18.91 18.91 0 0 0-1.84 4 14.32 14.32 0 0 0-.58 3.42h0a31.19 31.19 0 0 0-2.13 3.32l.19-1a94.34 94.34 0 0 1 1.07-4.71 28.06 28.06 0 0 1 3.81-8.91.06.06 0 1 0-.1-.06 33.46 33.46 0 0 0-4.21 8.72c-.51 1.55-.91 3.13-1.27 4.72l-.48 2.35-.23 1.23a57.77 57.77 0 0 0-3.65 10.73 157.53 157.53 0 0 0-3.37 20 165.76 165.76 0 0 0-1.05 21.2c0 .89.07 1.78.11 2.66 0 .23.36.27.37 0l.46-10.54c.21-3.54.51-7 .88-10.51a188.63 188.63 0 0 1 3.3-20.46c1.28-5.78 2.95-11.6 6.11-16.67a31.21 31.21 0 0 1 5.71-6.79c2.22-2 4.64-3.74 7-5.58a38.54 38.54 0 0 0 6.41-6.16 49.94 49.94 0 0 0 5-8.17c.37-.72.76-1.43 1.14-2.14.04-.06-.06-.12-.09-.06zm-2.73 2.32a54.59 54.59 0 0 1-3.53 6.17s0 .09.07.05a43.67 43.67 0 0 0 3.57-6.18c.03-.07-.08-.1-.11-.04z" class="B"/><path d="M41.45 354.07s-.25 22.49 13.2 29 20.65 1.08 29.79 3.26h0c-.36-.54-6.88-9.91-17.25-12.49-10.68-2.69-22.5-10.4-25.74-19.77z" class="D"/><path d="M41.45 354.07s-.25 22.49 13.2 29 20.65 1.08 29.79 3.26h0a50.76 50.76 0 0 0-15.29-4.51c-8.49-1.05-24.69-6.58-27.7-27.75z" opacity=".1"/><path d="M85.32 386.71a22.31 22.31 0 0 0-5.32-3.62l-.88-.38a5.47 5.47 0 0 0-.45-.51l-1.26-1.21a20 20 0 0 0-2.74-1.99c-2.22-1.31-4.66-2.22-6.94-3.44-.07 0-.13.07-.06.1l3.31 1.87 3.19 1.89a22.46 22.46 0 0 1 2.66 2l.7.66A35.88 35.88 0 0 0 73 380.9l-7.41-1.37a36.67 36.67 0 0 1-3.56-1l-3.29-2.77a26.42 26.42 0 0 1-3.49-3.76c0-.06-.15 0-.1.06a41.24 41.24 0 0 0 5.51 6.08l-1.72-.71a27.82 27.82 0 0 1-11.46-9.53c0-.06-.14 0-.1.06a31.71 31.71 0 0 0 9.27 8.9 28.29 28.29 0 0 0 5.86 2.77 54.63 54.63 0 0 0 7.28 1.72 52.28 52.28 0 0 1 7.12 1.65 21.54 21.54 0 0 1 6 3.15 28 28 0 0 1 8 10 50.1 50.1 0 0 1 4.44 16.44c0 .24.4.24.38 0-.6-9.48-3.12-19.32-10.41-25.88zm-15.6-7.33a7.68 7.68 0 0 0-2.72-2.51 9.92 9.92 0 0 1-3.28-2.72c-.05-.06-.15 0-.1.06a10.9 10.9 0 0 0 2.9 2.6 10.14 10.14 0 0 1 3.16 2.62c-.01.05.07 0 .04-.05z" class="B"/><path d="M76.85 403.31l.61 12.36 1.88 37.78h28.2l1.88-37.78.61-12.36H76.85z" class="I"/><path d="M76.85 403.31l.61 12.36h31.96l.61-12.36H76.85z" class="B"/><path d="M112.01 409.94H74.88v-11.8h37.13z" class="I"/><defs ><path id="B" d="M326.86 114.67a1.06 1.06 0 1 1-1.06-1.06 1.05 1.05 0 0 1 1.06 1.06z"/><path id="C" d="M207.37 319.09a.14.14 0 0 1 .14-.14.13.13 0 0 1 .13.14v.6-.07a1.34 1.34 0 0 1 1.1-.67.13.13 0 0 1 .13.14.13.13 0 0 1-.13.13 1 1 0 0 0-.8.45 2.42 2.42 0 0 0-.33.64.08.08 0 0 0 0 0v1.2a.13.13 0 0 1-.13.14.14.14 0 0 1-.14-.14z"/><path id="D" d="M227.67 319.08v2.47a.13.13 0 0 1-.13.14.14.14 0 0 1-.14-.14v-.4a1.28 1.28 0 0 1-1 .54 1.37 1.37 0 0 1 0-2.74 1.27 1.27 0 0 1 1 .53v-.4a.13.13 0 0 1 .14-.13.13.13 0 0 1 .13.13zm-.27 1.24a1 1 0 1 0-1 1.1 1.07 1.07 0 0 0 1-1.1z"/></defs></svg>