<svg id="visual" viewBox="0 0 1280 720" width="1280" height="720" xmlns="http://www.w3.org/2000/svg" xmlns:xlink="http://www.w3.org/1999/xlink" version="1.1"><rect x="0" y="0" width="1280" height="720" fill="#2b2b3d"></rect><defs><linearGradient id="grad1_0" x1="43.8%" y1="0%" x2="100%" y2="100%"><stop offset="14.444444444444446%" stop-color="#8259ec" stop-opacity="1"></stop><stop offset="85.55555555555554%" stop-color="#8259ec" stop-opacity="1"></stop></linearGradient></defs><defs><linearGradient id="grad1_1" x1="43.8%" y1="0%" x2="100%" y2="100%"><stop offset="14.444444444444446%" stop-color="#8259ec" stop-opacity="1"></stop><stop offset="85.55555555555554%" stop-color="#5b4db1" stop-opacity="1"></stop></linearGradient></defs><defs><linearGradient id="grad1_2" x1="43.8%" y1="0%" x2="100%" y2="100%"><stop offset="14.444444444444446%" stop-color="#3f3d76" stop-opacity="1"></stop><stop offset="85.55555555555554%" stop-color="#5b4db1" stop-opacity="1"></stop></linearGradient></defs><defs><linearGradient id="grad1_3" x1="43.8%" y1="0%" x2="100%" y2="100%"><stop offset="14.444444444444446%" stop-color="#3f3d76" stop-opacity="1"></stop><stop offset="85.55555555555554%" stop-color="#2b2b3d" stop-opacity="1"></stop></linearGradient></defs><defs><linearGradient id="grad2_0" x1="0%" y1="0%" x2="56.3%" y2="100%"><stop offset="14.444444444444446%" stop-color="#8259ec" stop-opacity="1"></stop><stop offset="85.55555555555554%" stop-color="#8259ec" stop-opacity="1"></stop></linearGradient></defs><defs><linearGradient id="grad2_1" x1="0%" y1="0%" x2="56.3%" y2="100%"><stop offset="14.444444444444446%" stop-color="#5b4db1" stop-opacity="1"></stop><stop offset="85.55555555555554%" stop-color="#8259ec" stop-opacity="1"></stop></linearGradient></defs><defs><linearGradient id="grad2_2" x1="0%" y1="0%" x2="56.3%" y2="100%"><stop offset="14.444444444444446%" stop-color="#5b4db1" stop-opacity="1"></stop><stop offset="85.55555555555554%" stop-color="#3f3d76" stop-opacity="1"></stop></linearGradient></defs><defs><linearGradient id="grad2_3" x1="0%" y1="0%" x2="56.3%" y2="100%"><stop offset="14.444444444444446%" stop-color="#2b2b3d" stop-opacity="1"></stop><stop offset="85.55555555555554%" stop-color="#3f3d76" stop-opacity="1"></stop></linearGradient></defs><g transform="translate(1280, 0)"><path d="M0 432C-41.5 418.5 -83 404.9 -128.2 394.7C-173.5 384.4 -222.4 377.5 -253.9 349.5C-285.4 321.5 -299.5 272.6 -321.2 233.4C-342.8 194.1 -372.1 164.6 -391.8 127.3C-411.6 90 -421.8 45 -432 0L0 0Z" fill="#343459"></path><path d="M0 324C-31.1 313.9 -62.3 303.7 -96.2 296C-130.1 288.3 -166.8 283.1 -190.4 262.1C-214.1 241.1 -224.6 204.4 -240.9 175C-257.1 145.6 -279.1 123.4 -293.9 95.5C-308.7 67.5 -316.3 33.8 -324 0L0 0Z" fill="#4b4593"></path><path d="M0 216C-20.8 209.2 -41.5 202.5 -64.1 197.3C-86.7 192.2 -111.2 188.7 -127 174.7C-142.7 160.8 -149.8 136.3 -160.6 116.7C-171.4 97.1 -186.1 82.3 -195.9 63.7C-205.8 45 -210.9 22.5 -216 0L0 0Z" fill="#6d54cf"></path><path d="M0 108C-10.4 104.6 -20.8 101.2 -32.1 98.7C-43.4 96.1 -55.6 94.4 -63.5 87.4C-71.4 80.4 -74.9 68.1 -80.3 58.3C-85.7 48.5 -93 41.1 -98 31.8C-102.9 22.5 -105.4 11.3 -108 0L0 0Z" fill="#8259ec"></path></g><g transform="translate(0, 720)"><path d="M0 -432C44.1 -423.1 88.3 -414.2 130.1 -400.4C171.9 -386.6 211.4 -367.8 249.8 -343.8C288.2 -319.9 325.5 -290.9 349.5 -253.9C373.5 -217 384.1 -172.2 395.6 -128.6C407.2 -84.9 419.6 -42.5 432 0L0 0Z" fill="#343459"></path><path d="M0 -324C33.1 -317.3 66.2 -310.7 97.6 -300.3C128.9 -289.9 158.6 -275.8 187.4 -257.9C216.2 -239.9 244.1 -218.1 262.1 -190.4C280.1 -162.7 288.1 -129.1 296.7 -96.4C305.4 -63.7 314.7 -31.8 324 0L0 0Z" fill="#4b4593"></path><path d="M0 -216C22.1 -211.6 44.1 -207.1 65 -200.2C86 -193.3 105.7 -183.9 124.9 -171.9C144.1 -160 162.8 -145.4 174.7 -127C186.7 -108.5 192.1 -86.1 197.8 -64.3C203.6 -42.5 209.8 -21.2 216 0L0 0Z" fill="#6d54cf"></path><path d="M0 -108C11 -105.8 22.1 -103.6 32.5 -100.1C43 -96.6 52.9 -91.9 62.5 -86C72.1 -80 81.4 -72.7 87.4 -63.5C93.4 -54.2 96 -43 98.9 -32.1C101.8 -21.2 104.9 -10.6 108 0L0 0Z" fill="#8259ec"></path></g></svg>