<svg id="visual" viewBox="0 0 900 600" width="900" height="600" xmlns="http://www.w3.org/2000/svg" xmlns:xlink="http://www.w3.org/1999/xlink" version="1.1"><rect x="0" y="0" width="900" height="600" fill="#2b2b3d"></rect><defs><linearGradient id="grad1_0" x1="33.3%" y1="100%" x2="100%" y2="0%"><stop offset="20%" stop-color="#8259ec" stop-opacity="1"></stop><stop offset="80%" stop-color="#8259ec" stop-opacity="1"></stop></linearGradient></defs><defs><linearGradient id="grad1_1" x1="33.3%" y1="100%" x2="100%" y2="0%"><stop offset="20%" stop-color="#8259ec" stop-opacity="1"></stop><stop offset="80%" stop-color="#5b4db1" stop-opacity="1"></stop></linearGradient></defs><defs><linearGradient id="grad1_2" x1="33.3%" y1="100%" x2="100%" y2="0%"><stop offset="20%" stop-color="#3f3d76" stop-opacity="1"></stop><stop offset="80%" stop-color="#5b4db1" stop-opacity="1"></stop></linearGradient></defs><defs><linearGradient id="grad1_3" x1="33.3%" y1="100%" x2="100%" y2="0%"><stop offset="20%" stop-color="#3f3d76" stop-opacity="1"></stop><stop offset="80%" stop-color="#2b2b3d" stop-opacity="1"></stop></linearGradient></defs><defs><linearGradient id="grad2_0" x1="0%" y1="100%" x2="66.7%" y2="0%"><stop offset="20%" stop-color="#8259ec" stop-opacity="1"></stop><stop offset="80%" stop-color="#8259ec" stop-opacity="1"></stop></linearGradient></defs><defs><linearGradient id="grad2_1" x1="0%" y1="100%" x2="66.7%" y2="0%"><stop offset="20%" stop-color="#5b4db1" stop-opacity="1"></stop><stop offset="80%" stop-color="#8259ec" stop-opacity="1"></stop></linearGradient></defs><defs><linearGradient id="grad2_2" x1="0%" y1="100%" x2="66.7%" y2="0%"><stop offset="20%" stop-color="#5b4db1" stop-opacity="1"></stop><stop offset="80%" stop-color="#3f3d76" stop-opacity="1"></stop></linearGradient></defs><defs><linearGradient id="grad2_3" x1="0%" y1="100%" x2="66.7%" y2="0%"><stop offset="20%" stop-color="#2b2b3d" stop-opacity="1"></stop><stop offset="80%" stop-color="#3f3d76" stop-opacity="1"></stop></linearGradient></defs><g transform="translate(900, 600)"><path d="M-459.7 0C-409.6 -41.9 -359.6 -83.8 -344.6 -142.7C-329.6 -201.7 -349.8 -277.8 -325.1 -325.1C-300.4 -372.3 -230.8 -390.7 -169.1 -408.4C-107.5 -426 -53.7 -442.8 0 -459.7L0 0Z" fill="#343459"></path><path d="M-344.8 0C-307.2 -31.4 -269.7 -62.8 -258.5 -107.1C-247.2 -151.3 -262.3 -208.4 -243.8 -243.8C-225.3 -279.2 -173.1 -293 -126.9 -306.3C-80.6 -319.5 -40.3 -332.1 0 -344.8L0 0Z" fill="#4b4593"></path><path d="M-229.9 0C-204.8 -20.9 -179.8 -41.9 -172.3 -71.4C-164.8 -100.9 -174.9 -138.9 -162.5 -162.5C-150.2 -186.2 -115.4 -195.4 -84.6 -204.2C-53.7 -213 -26.9 -221.4 0 -229.9L0 0Z" fill="#6d54cf"></path><path d="M-114.9 0C-102.4 -10.5 -89.9 -20.9 -86.2 -35.7C-82.4 -50.4 -87.4 -69.5 -81.3 -81.3C-75.1 -93.1 -57.7 -97.7 -42.3 -102.1C-26.9 -106.5 -13.4 -110.7 0 -114.9L0 0Z" fill="#8259ec"></path></g><g transform="translate(0, 0)"><path d="M459.7 0C461.5 68.2 463.4 136.5 424.7 175.9C386.1 215.4 307 226.1 260.2 260.2C213.5 294.3 199.1 351.8 161.1 389C123.1 426.1 61.6 442.9 0 459.7L0 0Z" fill="#343459"></path><path d="M344.8 0C346.1 51.2 347.5 102.3 318.5 131.9C289.6 161.5 230.2 169.6 195.2 195.2C160.1 220.7 149.3 263.9 120.8 291.7C92.4 319.6 46.2 332.2 0 344.8L0 0Z" fill="#4b4593"></path><path d="M229.9 0C230.8 34.1 231.7 68.2 212.4 88C193 107.7 153.5 113.1 130.1 130.1C106.7 147.2 99.5 175.9 80.6 194.5C61.6 213 30.8 221.5 0 229.9L0 0Z" fill="#6d54cf"></path><path d="M114.9 0C115.4 17.1 115.8 34.1 106.2 44C96.5 53.8 76.7 56.5 65.1 65.1C53.4 73.6 49.8 88 40.3 97.2C30.8 106.5 15.4 110.7 0 114.9L0 0Z" fill="#8259ec"></path></g></svg>