<svg id="visual" viewBox="0 0 900 675" width="900" height="675" xmlns="http://www.w3.org/2000/svg" xmlns:xlink="http://www.w3.org/1999/xlink" version="1.1"><rect x="0" y="0" width="900" height="675" fill="#7464fb"></rect><g transform="translate(12.182708631154725 2.761146481556068)"><path d="M253 -357.1C329.7 -344.3 395.1 -277.3 405.5 -200.9C415.9 -124.5 371.3 -38.8 349.9 44.3C328.6 127.4 330.6 207.7 288 240.4C245.5 273.1 158.4 258 83.7 275.7C8.9 293.4 -53.4 343.9 -122.1 352.6C-190.8 361.3 -265.8 328.3 -321.9 273.5C-378 218.6 -415.2 141.8 -427.2 61.1C-439.2 -19.5 -426.1 -104.1 -381.1 -162.1C-336 -220.2 -259.1 -251.9 -190.3 -268.3C-121.5 -284.7 -60.7 -285.8 13.7 -307.1C88.1 -328.5 176.2 -369.9 253 -357.1" fill="#232124"></path></g></svg>