<svg id="visual" viewBox="0 0 900 675" width="900" height="675" xmlns="http://www.w3.org/2000/svg" xmlns:xlink="http://www.w3.org/1999/xlink" version="1.1"><rect x="0" y="0" width="900" height="675" fill="#7464fb"></rect><g transform="translate(-39.35593661439327 19.260810741306784)"><path d="M494.6 -681.7C660.9 -662.8 829.3 -559.2 850.4 -416.7C871.4 -274.1 745 -92.6 689.2 79.1C633.4 250.7 648.1 412.5 570.7 485.4C493.4 558.3 323.9 542.3 180.9 557.5C37.8 572.8 -78.8 619.3 -227.8 638.4C-376.7 657.4 -557.9 648.9 -626.8 552.5C-695.7 456.1 -652.2 271.8 -676.1 97.9C-699.9 -76 -791.1 -239.5 -771.2 -380.9C-751.3 -522.4 -620.3 -641.9 -473.2 -669.5C-326.2 -697.2 -163.1 -633.1 0.5 -634C164.2 -634.8 328.3 -700.6 494.6 -681.7" fill="#232124"></path></g></svg>