<svg id="visual" viewBox="0 0 900 675" width="900" height="675" xmlns="http://www.w3.org/2000/svg" xmlns:xlink="http://www.w3.org/1999/xlink" version="1.1"><rect x="0" y="0" width="900" height="675" fill="#7464fb"></rect><g transform="translate(-10.094781379213828 59.45765099738202)"><path d="M256 -444.3C329.2 -351.2 384.3 -275.9 443.8 -189.7C503.4 -103.5 567.5 -6.4 556.2 80.8C544.9 167.9 458.4 245.1 385.2 339.1C312 433.2 252.2 544.3 172.4 551.3C92.6 558.3 -7.2 461.3 -97.8 402.9C-188.5 344.4 -269.9 324.4 -332.3 275.3C-394.6 226.1 -437.8 147.6 -477.4 52.1C-516.9 -43.5 -552.7 -156.1 -530.5 -257.8C-508.2 -359.5 -427.9 -450.2 -329.8 -532C-231.8 -613.7 -115.9 -686.6 -12.3 -667.5C91.4 -648.4 182.7 -537.5 256 -444.3" fill="#232124"></path></g></svg>