<svg id="visual" viewBox="0 0 900 675" width="900" height="675" xmlns="http://www.w3.org/2000/svg" xmlns:xlink="http://www.w3.org/1999/xlink" version="1.1"><rect x="0" y="0" width="900" height="675" fill="#232124"></rect><g transform="translate(-24.104628438960447 -85.01948720588473)"><path d="M325.4 -461.1C438.5 -433.6 558.5 -371.8 608.7 -274.3C658.9 -176.9 639.3 -43.9 621.8 90.6C604.4 225.2 589.1 361.2 519.1 459.6C449.1 558 324.3 618.6 197.8 640.7C71.4 662.7 -56.7 646.1 -179.4 610.3C-302.1 574.6 -419.3 519.8 -488.3 429.2C-557.3 338.7 -578.1 212.4 -587.8 89.6C-597.5 -33.2 -596.2 -152.4 -543.8 -240.5C-491.4 -328.6 -387.9 -385.6 -288.7 -419.4C-189.6 -453.2 -94.8 -463.9 5.7 -472.7C106.1 -481.6 212.3 -488.5 325.4 -461.1" fill="#7464fb"></path></g></svg>