<svg id="visual" viewBox="0 0 900 600" width="900" height="600" xmlns="http://www.w3.org/2000/svg" xmlns:xlink="http://www.w3.org/1999/xlink" version="1.1"><rect x="0" y="0" width="900" height="600" fill="#232124"></rect><g transform="translate(10.353519069043074 40.061553869987165)"><path d="M273.8 -337.7C348.9 -263.4 399.5 -171.4 406.6 -79.3C413.7 12.7 377.4 104.8 326.1 183.2C274.8 261.6 208.5 326.2 126.5 362.5C44.6 398.7 -53.1 406.6 -140.5 378.2C-227.9 349.8 -304.9 285.1 -356.7 202.5C-408.6 119.9 -435.2 19.2 -426.6 -83.2C-418 -185.5 -374.2 -289.6 -297.2 -363.6C-220.3 -437.5 -110.1 -481.2 -5.4 -474.9C99.4 -468.5 198.8 -412 273.8 -337.7" fill="#7464fb"></path></g></svg>