<svg id="visual" viewBox="0 0 900 600" width="900" height="600" xmlns="http://www.w3.org/2000/svg" xmlns:xlink="http://www.w3.org/1999/xlink" version="1.1"><rect x="0" y="0" width="900" height="600" fill="#1a1b21"></rect><path d="M0 383L21.5 393.8C43 404.7 86 426.3 128.8 422.2C171.7 418 214.3 388 257.2 388C300 388 343 418 385.8 421.8C428.7 425.7 471.3 403.3 514.2 396.2C557 389 600 397 642.8 403.5C685.7 410 728.3 415 771.2 409.2C814 403.3 857 386.7 878.5 378.3L900 370L900 601L878.5 601C857 601 814 601 771.2 601C728.3 601 685.7 601 642.8 601C600 601 557 601 514.2 601C471.3 601 428.7 601 385.8 601C343 601 300 601 257.2 601C214.3 601 171.7 601 128.8 601C86 601 43 601 21.5 601L0 601Z" fill="#8467f3"></path><path d="M0 420L21.5 417.7C43 415.3 86 410.7 128.8 409.2C171.7 407.7 214.3 409.3 257.2 420C300 430.7 343 450.3 385.8 452C428.7 453.7 471.3 437.3 514.2 425.5C557 413.7 600 406.3 642.8 405C685.7 403.7 728.3 408.3 771.2 421.5C814 434.7 857 456.3 878.5 467.2L900 478L900 601L878.5 601C857 601 814 601 771.2 601C728.3 601 685.7 601 642.8 601C600 601 557 601 514.2 601C471.3 601 428.7 601 385.8 601C343 601 300 601 257.2 601C214.3 601 171.7 601 128.8 601C86 601 43 601 21.5 601L0 601Z" fill="#7a63e9"></path><path d="M0 462L21.5 465C43 468 86 474 128.8 480.8C171.7 487.7 214.3 495.3 257.2 493.7C300 492 343 481 385.8 477C428.7 473 471.3 476 514.2 475.3C557 474.7 600 470.3 642.8 474.8C685.7 479.3 728.3 492.7 771.2 493.7C814 494.7 857 483.3 878.5 477.7L900 472L900 601L878.5 601C857 601 814 601 771.2 601C728.3 601 685.7 601 642.8 601C600 601 557 601 514.2 601C471.3 601 428.7 601 385.8 601C343 601 300 601 257.2 601C214.3 601 171.7 601 128.8 601C86 601 43 601 21.5 601L0 601Z" fill="#705edf"></path><path d="M0 517L21.5 514.2C43 511.3 86 505.7 128.8 502.3C171.7 499 214.3 498 257.2 500C300 502 343 507 385.8 512.2C428.7 517.3 471.3 522.7 514.2 522.5C557 522.3 600 516.7 642.8 513.5C685.7 510.3 728.3 509.7 771.2 505.5C814 501.3 857 493.7 878.5 489.8L900 486L900 601L878.5 601C857 601 814 601 771.2 601C728.3 601 685.7 601 642.8 601C600 601 557 601 514.2 601C471.3 601 428.7 601 385.8 601C343 601 300 601 257.2 601C214.3 601 171.7 601 128.8 601C86 601 43 601 21.5 601L0 601Z" fill="#6659d5"></path><path d="M0 549L21.5 549.2C43 549.3 86 549.7 128.8 546.3C171.7 543 214.3 536 257.2 533.8C300 531.7 343 534.3 385.8 538.5C428.7 542.7 471.3 548.3 514.2 548.2C557 548 600 542 642.8 537.5C685.7 533 728.3 530 771.2 529.7C814 529.3 857 531.7 878.5 532.8L900 534L900 601L878.5 601C857 601 814 601 771.2 601C728.3 601 685.7 601 642.8 601C600 601 557 601 514.2 601C471.3 601 428.7 601 385.8 601C343 601 300 601 257.2 601C214.3 601 171.7 601 128.8 601C86 601 43 601 21.5 601L0 601Z" fill="#5c54cb"></path></svg>