<svg id="visual" viewBox="0 0 900 600" width="900" height="600" xmlns="http://www.w3.org/2000/svg" xmlns:xlink="http://www.w3.org/1999/xlink" version="1.1"><g stroke-width="1" stroke-linejoin="bevel"><path d="M475 277L567 279L526 228Z" fill="#484c9d" stroke="#484c9d"></path><path d="M567 279L600 215L526 228Z" fill="#2d345d" stroke="#2d345d"></path><path d="M514 100L409 234L526 228Z" fill="#1a1b21" stroke="#1a1b21"></path><path d="M526 228L409 234L475 277Z" fill="#262b48" stroke="#262b48"></path><path d="M380 315L522 406L475 277Z" fill="#484c9d" stroke="#484c9d"></path><path d="M475 277L522 406L567 279Z" fill="#262b48" stroke="#262b48"></path><path d="M720 313L678 197L600 215Z" fill="#625ac8" stroke="#625ac8"></path><path d="M409 234L380 315L475 277Z" fill="#5453b2" stroke="#5453b2"></path><path d="M522 406L576 428L567 279Z" fill="#484c9d" stroke="#484c9d"></path><path d="M600 215L514 100L526 228Z" fill="#5453b2" stroke="#5453b2"></path><path d="M720 313L600 215L567 279Z" fill="#3d4487" stroke="#3d4487"></path><path d="M600 215L635 99L514 100Z" fill="#3d4487" stroke="#3d4487"></path><path d="M576 428L677 374L567 279Z" fill="#1a1b21" stroke="#1a1b21"></path><path d="M678 197L664 138L600 215Z" fill="#8467f3" stroke="#8467f3"></path><path d="M677 374L720 313L567 279Z" fill="#5453b2" stroke="#5453b2"></path><path d="M678 197L812 92L664 138Z" fill="#7261de" stroke="#7261de"></path><path d="M514 100L377 129L409 234Z" fill="#2d345d" stroke="#2d345d"></path><path d="M409 234L291 239L380 315Z" fill="#262b48" stroke="#262b48"></path><path d="M664 138L635 99L600 215Z" fill="#202334" stroke="#202334"></path><path d="M380 315L387 435L522 406Z" fill="#3d4487" stroke="#3d4487"></path><path d="M522 406L526 513L576 428Z" fill="#343c72" stroke="#343c72"></path><path d="M377 129L291 239L409 234Z" fill="#625ac8" stroke="#625ac8"></path><path d="M380 315L281 433L387 435Z" fill="#2d345d" stroke="#2d345d"></path><path d="M391 480L526 513L522 406Z" fill="#484c9d" stroke="#484c9d"></path><path d="M576 428L683 461L677 374Z" fill="#625ac8" stroke="#625ac8"></path><path d="M327 488L391 480L387 435Z" fill="#262b48" stroke="#262b48"></path><path d="M387 435L391 480L522 406Z" fill="#2d345d" stroke="#2d345d"></path><path d="M593 536L683 461L576 428Z" fill="#343c72" stroke="#343c72"></path><path d="M790 429L801 327L720 313Z" fill="#7261de" stroke="#7261de"></path><path d="M188 197L263 265L291 239Z" fill="#262b48" stroke="#262b48"></path><path d="M291 239L263 265L380 315Z" fill="#3d4487" stroke="#3d4487"></path><path d="M575 600L593 536L526 513Z" fill="#5453b2" stroke="#5453b2"></path><path d="M526 513L593 536L576 428Z" fill="#343c72" stroke="#343c72"></path><path d="M606 0L504 0L514 100Z" fill="#343c72" stroke="#343c72"></path><path d="M514 100L405 0L377 129Z" fill="#5453b2" stroke="#5453b2"></path><path d="M377 129L286 120L291 239Z" fill="#1a1b21" stroke="#1a1b21"></path><path d="M316 0L286 120L377 129Z" fill="#2d345d" stroke="#2d345d"></path><path d="M790 429L720 313L677 374Z" fill="#343c72" stroke="#343c72"></path><path d="M720 313L828 210L678 197Z" fill="#202334" stroke="#202334"></path><path d="M635 99L606 0L514 100Z" fill="#1a1b21" stroke="#1a1b21"></path><path d="M722 0L606 0L635 99Z" fill="#625ac8" stroke="#625ac8"></path><path d="M722 0L635 99L664 138Z" fill="#1a1b21" stroke="#1a1b21"></path><path d="M263 265L281 433L380 315Z" fill="#3d4487" stroke="#3d4487"></path><path d="M281 433L327 488L387 435Z" fill="#7261de" stroke="#7261de"></path><path d="M391 480L505 600L526 513Z" fill="#7261de" stroke="#7261de"></path><path d="M504 0L405 0L514 100Z" fill="#5453b2" stroke="#5453b2"></path><path d="M812 500L790 429L683 461Z" fill="#343c72" stroke="#343c72"></path><path d="M683 461L790 429L677 374Z" fill="#2d345d" stroke="#2d345d"></path><path d="M900 331L828 210L801 327Z" fill="#202334" stroke="#202334"></path><path d="M801 327L828 210L720 313Z" fill="#625ac8" stroke="#625ac8"></path><path d="M376 600L505 600L391 480Z" fill="#262b48" stroke="#262b48"></path><path d="M593 536L684 600L683 461Z" fill="#8467f3" stroke="#8467f3"></path><path d="M505 600L575 600L526 513Z" fill="#1a1b21" stroke="#1a1b21"></path><path d="M812 92L722 0L664 138Z" fill="#5453b2" stroke="#5453b2"></path><path d="M286 120L188 197L291 239Z" fill="#1a1b21" stroke="#1a1b21"></path><path d="M263 265L175 406L281 433Z" fill="#202334" stroke="#202334"></path><path d="M175 135L188 197L286 120Z" fill="#625ac8" stroke="#625ac8"></path><path d="M405 0L316 0L377 129Z" fill="#3d4487" stroke="#3d4487"></path><path d="M828 210L812 92L678 197Z" fill="#2d345d" stroke="#2d345d"></path><path d="M188 197L174 282L263 265Z" fill="#7261de" stroke="#7261de"></path><path d="M292 600L376 600L327 488Z" fill="#484c9d" stroke="#484c9d"></path><path d="M327 488L376 600L391 480Z" fill="#1a1b21" stroke="#1a1b21"></path><path d="M292 600L327 488L213 539Z" fill="#262b48" stroke="#262b48"></path><path d="M575 600L684 600L593 536Z" fill="#262b48" stroke="#262b48"></path><path d="M684 600L812 500L683 461Z" fill="#8467f3" stroke="#8467f3"></path><path d="M900 431L900 331L801 327Z" fill="#1a1b21" stroke="#1a1b21"></path><path d="M174 282L175 406L263 265Z" fill="#484c9d" stroke="#484c9d"></path><path d="M196 0L175 135L286 120Z" fill="#5453b2" stroke="#5453b2"></path><path d="M188 197L89 188L174 282Z" fill="#625ac8" stroke="#625ac8"></path><path d="M900 431L801 327L790 429Z" fill="#3d4487" stroke="#3d4487"></path><path d="M828 210L900 181L812 92Z" fill="#484c9d" stroke="#484c9d"></path><path d="M900 0L795 0L812 92Z" fill="#2d345d" stroke="#2d345d"></path><path d="M812 92L795 0L722 0Z" fill="#343c72" stroke="#343c72"></path><path d="M900 331L900 181L828 210Z" fill="#3d4487" stroke="#3d4487"></path><path d="M213 539L327 488L281 433Z" fill="#5453b2" stroke="#5453b2"></path><path d="M175 406L213 539L281 433Z" fill="#262b48" stroke="#262b48"></path><path d="M812 500L900 431L790 429Z" fill="#262b48" stroke="#262b48"></path><path d="M900 181L900 94L812 92Z" fill="#8467f3" stroke="#8467f3"></path><path d="M196 0L133 111L175 135Z" fill="#2d345d" stroke="#2d345d"></path><path d="M175 135L89 188L188 197Z" fill="#2d345d" stroke="#2d345d"></path><path d="M174 282L108 394L175 406Z" fill="#5453b2" stroke="#5453b2"></path><path d="M316 0L196 0L286 120Z" fill="#202334" stroke="#202334"></path><path d="M75 268L108 394L174 282Z" fill="#343c72" stroke="#343c72"></path><path d="M175 406L62 503L213 539Z" fill="#2d345d" stroke="#2d345d"></path><path d="M684 600L802 600L812 500Z" fill="#202334" stroke="#202334"></path><path d="M812 500L900 506L900 431Z" fill="#625ac8" stroke="#625ac8"></path><path d="M0 208L89 188L0 92Z" fill="#262b48" stroke="#262b48"></path><path d="M133 111L89 188L175 135Z" fill="#5453b2" stroke="#5453b2"></path><path d="M900 600L900 506L812 500Z" fill="#343c72" stroke="#343c72"></path><path d="M89 188L75 268L174 282Z" fill="#8467f3" stroke="#8467f3"></path><path d="M85 600L204 600L213 539Z" fill="#2d345d" stroke="#2d345d"></path><path d="M213 539L204 600L292 600Z" fill="#484c9d" stroke="#484c9d"></path><path d="M900 94L900 0L812 92Z" fill="#484c9d" stroke="#484c9d"></path><path d="M196 0L113 0L133 111Z" fill="#202334" stroke="#202334"></path><path d="M0 208L0 329L75 268Z" fill="#3d4487" stroke="#3d4487"></path><path d="M802 600L900 600L812 500Z" fill="#5453b2" stroke="#5453b2"></path><path d="M0 398L62 503L108 394Z" fill="#262b48" stroke="#262b48"></path><path d="M108 394L62 503L175 406Z" fill="#2d345d" stroke="#2d345d"></path><path d="M75 268L0 329L108 394Z" fill="#8467f3" stroke="#8467f3"></path><path d="M0 208L75 268L89 188Z" fill="#625ac8" stroke="#625ac8"></path><path d="M0 92L89 188L133 111Z" fill="#2d345d" stroke="#2d345d"></path><path d="M0 329L0 398L108 394Z" fill="#7261de" stroke="#7261de"></path><path d="M0 600L85 600L62 503Z" fill="#7261de" stroke="#7261de"></path><path d="M62 503L85 600L213 539Z" fill="#343c72" stroke="#343c72"></path><path d="M113 0L0 92L133 111Z" fill="#202334" stroke="#202334"></path><path d="M0 398L0 499L62 503Z" fill="#202334" stroke="#202334"></path><path d="M113 0L0 0L0 92Z" fill="#1a1b21" stroke="#1a1b21"></path><path d="M0 499L0 600L62 503Z" fill="#484c9d" stroke="#484c9d"></path></g></svg>