<svg id="visual" viewBox="0 0 900 600" width="900" height="600" xmlns="http://www.w3.org/2000/svg" xmlns:xlink="http://www.w3.org/1999/xlink" version="1.1"><rect x="0" y="0" width="900" height="600" fill="#2b2b3d"></rect><path d="M580 0L559.3 25C538.7 50 497.3 100 457 150C416.7 200 377.3 250 385 300C392.7 350 447.3 400 479.2 450C511 500 520 550 524.5 575L529 600L0 600L0 575C0 550 0 500 0 450C0 400 0 350 0 300C0 250 0 200 0 150C0 100 0 50 0 25L0 0Z" fill="#8259ec" stroke-linecap="round" stroke-linejoin="miter"></path></svg>