<svg id="visual" viewBox="0 0 900 600" width="900" height="600" xmlns="http://www.w3.org/2000/svg" xmlns:xlink="http://www.w3.org/1999/xlink" version="1.1"><rect x="0" y="0" width="900" height="600" fill="#2b2b3d"></rect><path d="M576 0L552.3 16.7C528.7 33.3 481.3 66.7 441.7 100C402 133.3 370 166.7 363 200C356 233.3 374 266.7 408.8 300C443.7 333.3 495.3 366.7 507.8 400C520.3 433.3 493.7 466.7 494.8 500C496 533.3 525 566.7 539.5 583.3L554 600L0 600L0 583.3C0 566.7 0 533.3 0 500C0 466.7 0 433.3 0 400C0 366.7 0 333.3 0 300C0 266.7 0 233.3 0 200C0 166.7 0 133.3 0 100C0 66.7 0 33.3 0 16.7L0 0Z" fill="#8259ec" stroke-linecap="round" stroke-linejoin="miter"></path></svg>