<svg id="visual" viewBox="0 0 1280 720" width="1280" height="720" xmlns="http://www.w3.org/2000/svg" xmlns:xlink="http://www.w3.org/1999/xlink" version="1.1"><rect x="0" y="0" width="1280" height="720" fill="#2b2b3d"></rect><defs><linearGradient id="grad1_0" x1="43.8%" y1="0%" x2="100%" y2="100%"><stop offset="14.444444444444446%" stop-color="#8259ec" stop-opacity="1"></stop><stop offset="85.55555555555554%" stop-color="#8259ec" stop-opacity="1"></stop></linearGradient></defs><defs><linearGradient id="grad1_1" x1="43.8%" y1="0%" x2="100%" y2="100%"><stop offset="14.444444444444446%" stop-color="#8259ec" stop-opacity="1"></stop><stop offset="85.55555555555554%" stop-color="#6350c0" stop-opacity="1"></stop></linearGradient></defs><defs><linearGradient id="grad1_2" x1="43.8%" y1="0%" x2="100%" y2="100%"><stop offset="14.444444444444446%" stop-color="#4b4593" stop-opacity="1"></stop><stop offset="85.55555555555554%" stop-color="#6350c0" stop-opacity="1"></stop></linearGradient></defs><defs><linearGradient id="grad1_3" x1="43.8%" y1="0%" x2="100%" y2="100%"><stop offset="14.444444444444446%" stop-color="#4b4593" stop-opacity="1"></stop><stop offset="85.55555555555554%" stop-color="#393967" stop-opacity="1"></stop></linearGradient></defs><defs><linearGradient id="grad1_4" x1="43.8%" y1="0%" x2="100%" y2="100%"><stop offset="14.444444444444446%" stop-color="#2b2b3d" stop-opacity="1"></stop><stop offset="85.55555555555554%" stop-color="#393967" stop-opacity="1"></stop></linearGradient></defs><defs><linearGradient id="grad2_0" x1="0%" y1="0%" x2="56.3%" y2="100%"><stop offset="14.444444444444446%" stop-color="#8259ec" stop-opacity="1"></stop><stop offset="85.55555555555554%" stop-color="#8259ec" stop-opacity="1"></stop></linearGradient></defs><defs><linearGradient id="grad2_1" x1="0%" y1="0%" x2="56.3%" y2="100%"><stop offset="14.444444444444446%" stop-color="#6350c0" stop-opacity="1"></stop><stop offset="85.55555555555554%" stop-color="#8259ec" stop-opacity="1"></stop></linearGradient></defs><defs><linearGradient id="grad2_2" x1="0%" y1="0%" x2="56.3%" y2="100%"><stop offset="14.444444444444446%" stop-color="#6350c0" stop-opacity="1"></stop><stop offset="85.55555555555554%" stop-color="#4b4593" stop-opacity="1"></stop></linearGradient></defs><defs><linearGradient id="grad2_3" x1="0%" y1="0%" x2="56.3%" y2="100%"><stop offset="14.444444444444446%" stop-color="#393967" stop-opacity="1"></stop><stop offset="85.55555555555554%" stop-color="#4b4593" stop-opacity="1"></stop></linearGradient></defs><defs><linearGradient id="grad2_4" x1="0%" y1="0%" x2="56.3%" y2="100%"><stop offset="14.444444444444446%" stop-color="#393967" stop-opacity="1"></stop><stop offset="85.55555555555554%" stop-color="#2b2b3d" stop-opacity="1"></stop></linearGradient></defs><g transform="translate(1280, 0)"><path d="M0 612C-53.9 609.4 -107.8 606.8 -158.4 591.1C-209 575.5 -256.2 546.7 -297 514.4C-337.8 482.1 -372.3 446.4 -411.5 411.5C-450.7 376.7 -494.6 342.8 -517 298.5C-539.4 254.2 -540.3 199.5 -552.5 148C-564.8 96.6 -588.4 48.3 -612 0L0 0Z" fill="#323252"></path><path d="M0 489.6C-43.1 487.5 -86.3 485.5 -126.7 472.9C-167.2 460.4 -204.9 437.4 -237.6 411.5C-270.3 385.7 -297.9 357.1 -329.2 329.2C-360.6 301.4 -395.7 274.2 -413.6 238.8C-431.5 203.4 -432.2 159.6 -442 118.4C-451.8 77.3 -470.7 38.6 -489.6 0L0 0Z" fill="#423f7d"></path><path d="M0 367.2C-32.4 365.6 -64.7 364.1 -95 354.7C-125.4 345.3 -153.7 328 -178.2 308.7C-202.7 289.3 -223.4 267.8 -246.9 246.9C-270.4 226 -296.8 205.7 -310.2 179.1C-323.6 152.5 -324.2 119.7 -331.5 88.8C-338.9 57.9 -353 29 -367.2 0L0 0Z" fill="#574baa"></path><path d="M0 244.8C-21.6 243.8 -43.1 242.7 -63.4 236.5C-83.6 230.2 -102.5 218.7 -118.8 205.8C-135.1 192.9 -148.9 178.5 -164.6 164.6C-180.3 150.7 -197.9 137.1 -206.8 119.4C-215.8 101.7 -216.1 79.8 -221 59.2C-225.9 38.6 -235.4 19.3 -244.8 0L0 0Z" fill="#7255d6"></path><path d="M0 122.4C-10.8 121.9 -21.6 121.4 -31.7 118.2C-41.8 115.1 -51.2 109.3 -59.4 102.9C-67.6 96.4 -74.5 89.3 -82.3 82.3C-90.1 75.3 -98.9 68.6 -103.4 59.7C-107.9 50.8 -108.1 39.9 -110.5 29.6C-113 19.3 -117.7 9.7 -122.4 0L0 0Z" fill="#8259ec"></path></g><g transform="translate(0, 720)"><path d="M0 -612C46.9 -584.9 93.8 -557.7 147 -548.6C200.3 -539.6 259.9 -548.5 306 -530C352.1 -511.5 384.7 -465.5 425.7 -425.7C466.7 -385.9 516.1 -352.3 525.7 -303.5C535.3 -254.7 505.1 -190.6 512.9 -137.4C520.7 -84.3 566.3 -42.2 612 0L0 0Z" fill="#323252"></path><path d="M0 -489.6C37.5 -467.9 75 -446.2 117.6 -438.9C160.2 -431.7 207.9 -438.8 244.8 -424C281.7 -409.2 307.8 -372.4 340.5 -340.5C373.3 -308.7 412.8 -281.9 420.5 -242.8C428.2 -203.7 404.1 -152.4 410.3 -109.9C416.5 -67.4 453.1 -33.7 489.6 0L0 0Z" fill="#423f7d"></path><path d="M0 -367.2C28.1 -350.9 56.3 -334.6 88.2 -329.2C120.2 -323.7 155.9 -329.1 183.6 -318C211.3 -306.9 230.8 -279.3 255.4 -255.4C280 -231.5 309.6 -211.4 315.4 -182.1C321.2 -152.8 303.1 -114.3 307.7 -82.5C312.4 -50.6 339.8 -25.3 367.2 0L0 0Z" fill="#574baa"></path><path d="M0 -244.8C18.8 -233.9 37.5 -223.1 58.8 -219.5C80.1 -215.8 104 -219.4 122.4 -212C140.8 -204.6 153.9 -186.2 170.3 -170.3C186.7 -154.4 206.4 -140.9 210.3 -121.4C214.1 -101.9 202.1 -76.2 205.2 -55C208.3 -33.7 226.5 -16.9 244.8 0L0 0Z" fill="#7255d6"></path><path d="M0 -122.4C9.4 -117 18.8 -111.5 29.4 -109.7C40.1 -107.9 52 -109.7 61.2 -106C70.4 -102.3 76.9 -93.1 85.1 -85.1C93.3 -77.2 103.2 -70.5 105.1 -60.7C107.1 -50.9 101 -38.1 102.6 -27.5C104.1 -16.9 113.3 -8.4 122.4 0L0 0Z" fill="#8259ec"></path></g></svg>