<svg id="visual" viewBox="0 0 1280 720" width="1280" height="720" xmlns="http://www.w3.org/2000/svg" xmlns:xlink="http://www.w3.org/1999/xlink" version="1.1"><rect x="0" y="0" width="1280" height="720" fill="#2b2b3d"></rect><defs><linearGradient id="grad1_0" x1="43.8%" y1="0%" x2="100%" y2="100%"><stop offset="14.444444444444446%" stop-color="#8259ec" stop-opacity="1"></stop><stop offset="85.55555555555554%" stop-color="#8259ec" stop-opacity="1"></stop></linearGradient></defs><defs><linearGradient id="grad1_1" x1="43.8%" y1="0%" x2="100%" y2="100%"><stop offset="14.444444444444446%" stop-color="#8259ec" stop-opacity="1"></stop><stop offset="85.55555555555554%" stop-color="#6350c0" stop-opacity="1"></stop></linearGradient></defs><defs><linearGradient id="grad1_2" x1="43.8%" y1="0%" x2="100%" y2="100%"><stop offset="14.444444444444446%" stop-color="#4b4593" stop-opacity="1"></stop><stop offset="85.55555555555554%" stop-color="#6350c0" stop-opacity="1"></stop></linearGradient></defs><defs><linearGradient id="grad1_3" x1="43.8%" y1="0%" x2="100%" y2="100%"><stop offset="14.444444444444446%" stop-color="#4b4593" stop-opacity="1"></stop><stop offset="85.55555555555554%" stop-color="#393967" stop-opacity="1"></stop></linearGradient></defs><defs><linearGradient id="grad1_4" x1="43.8%" y1="0%" x2="100%" y2="100%"><stop offset="14.444444444444446%" stop-color="#2b2b3d" stop-opacity="1"></stop><stop offset="85.55555555555554%" stop-color="#393967" stop-opacity="1"></stop></linearGradient></defs><defs><linearGradient id="grad2_0" x1="0%" y1="0%" x2="56.3%" y2="100%"><stop offset="14.444444444444446%" stop-color="#8259ec" stop-opacity="1"></stop><stop offset="85.55555555555554%" stop-color="#8259ec" stop-opacity="1"></stop></linearGradient></defs><defs><linearGradient id="grad2_1" x1="0%" y1="0%" x2="56.3%" y2="100%"><stop offset="14.444444444444446%" stop-color="#6350c0" stop-opacity="1"></stop><stop offset="85.55555555555554%" stop-color="#8259ec" stop-opacity="1"></stop></linearGradient></defs><defs><linearGradient id="grad2_2" x1="0%" y1="0%" x2="56.3%" y2="100%"><stop offset="14.444444444444446%" stop-color="#6350c0" stop-opacity="1"></stop><stop offset="85.55555555555554%" stop-color="#4b4593" stop-opacity="1"></stop></linearGradient></defs><defs><linearGradient id="grad2_3" x1="0%" y1="0%" x2="56.3%" y2="100%"><stop offset="14.444444444444446%" stop-color="#393967" stop-opacity="1"></stop><stop offset="85.55555555555554%" stop-color="#4b4593" stop-opacity="1"></stop></linearGradient></defs><defs><linearGradient id="grad2_4" x1="0%" y1="0%" x2="56.3%" y2="100%"><stop offset="14.444444444444446%" stop-color="#393967" stop-opacity="1"></stop><stop offset="85.55555555555554%" stop-color="#2b2b3d" stop-opacity="1"></stop></linearGradient></defs><g transform="translate(1280, 0)"><path d="M0 576C-47.8 556.7 -95.5 537.4 -138.7 517.7C-181.9 498.1 -220.6 478.2 -265 459C-309.4 439.8 -359.5 421.5 -385.4 385.4C-411.3 349.3 -413 295.5 -442.5 255.5C-472.1 215.5 -529.5 189.4 -556.4 149.1C-583.3 108.8 -579.6 54.4 -576 0L0 0Z" fill="#323252"></path><path d="M0 460.8C-38.2 445.3 -76.4 429.9 -111 414.2C-145.6 398.5 -176.5 382.5 -212 367.2C-247.5 351.9 -287.6 337.2 -308.3 308.3C-329 279.4 -330.4 236.4 -354 204.4C-377.7 172.4 -423.6 151.5 -445.1 119.3C-466.6 87 -463.7 43.5 -460.8 0L0 0Z" fill="#423f7d"></path><path d="M0 345.6C-28.7 334 -57.3 322.4 -83.2 310.6C-109.2 298.9 -132.4 286.9 -159 275.4C-185.6 263.9 -215.7 252.9 -231.2 231.2C-246.8 209.6 -247.8 177.3 -265.5 153.3C-283.3 129.3 -317.7 113.6 -333.8 89.4C-350 65.3 -347.8 32.6 -345.6 0L0 0Z" fill="#574baa"></path><path d="M0 230.4C-19.1 222.7 -38.2 214.9 -55.5 207.1C-72.8 199.2 -88.2 191.3 -106 183.6C-123.8 175.9 -143.8 168.6 -154.1 154.1C-164.5 139.7 -165.2 118.2 -177 102.2C-188.8 86.2 -211.8 75.7 -222.5 59.6C-233.3 43.5 -231.9 21.8 -230.4 0L0 0Z" fill="#7255d6"></path><path d="M0 115.2C-9.6 111.3 -19.1 107.5 -27.7 103.5C-36.4 99.6 -44.1 95.6 -53 91.8C-61.9 88 -71.9 84.3 -77.1 77.1C-82.3 69.9 -82.6 59.1 -88.5 51.1C-94.4 43.1 -105.9 37.9 -111.3 29.8C-116.7 21.8 -115.9 10.9 -115.2 0L0 0Z" fill="#8259ec"></path></g><g transform="translate(0, 720)"><path d="M0 -576C46 -553.7 92 -531.5 137.7 -513.9C183.4 -496.3 228.7 -483.4 261.5 -452.9C294.3 -422.5 314.7 -374.4 337.3 -337.3C359.9 -300.2 384.8 -273.9 427 -246.5C469.1 -219.1 528.6 -190.4 556.4 -149.1C584.1 -107.8 580.1 -53.9 576 0L0 0Z" fill="#323252"></path><path d="M0 -460.8C36.8 -443 73.6 -425.2 110.2 -411.1C146.7 -397 182.9 -386.7 209.2 -362.3C235.5 -338 251.7 -299.5 269.8 -269.8C287.9 -240.1 307.8 -219.2 341.6 -197.2C375.3 -175.2 422.9 -152.3 445.1 -119.3C467.3 -86.2 464 -43.1 460.8 0L0 0Z" fill="#423f7d"></path><path d="M0 -345.6C27.6 -332.2 55.2 -318.9 82.6 -308.3C110 -297.8 137.2 -290 156.9 -271.8C176.6 -253.5 188.8 -224.7 202.4 -202.4C215.9 -180.1 230.9 -164.4 256.2 -147.9C281.5 -131.4 317.2 -114.2 333.8 -89.4C350.5 -64.7 348 -32.3 345.6 0L0 0Z" fill="#574baa"></path><path d="M0 -230.4C18.4 -221.5 36.8 -212.6 55.1 -205.5C73.3 -198.5 91.5 -193.4 104.6 -181.2C117.7 -169 125.9 -149.8 134.9 -134.9C144 -120.1 153.9 -109.6 170.8 -98.6C187.7 -87.6 211.5 -76.1 222.5 -59.6C233.6 -43.1 232 -21.6 230.4 0L0 0Z" fill="#7255d6"></path><path d="M0 -115.2C9.2 -110.7 18.4 -106.3 27.5 -102.8C36.7 -99.3 45.7 -96.7 52.3 -90.6C58.9 -84.5 62.9 -74.9 67.5 -67.5C72 -60 77 -54.8 85.4 -49.3C93.8 -43.8 105.7 -38.1 111.3 -29.8C116.8 -21.6 116 -10.8 115.2 0L0 0Z" fill="#8259ec"></path></g></svg>