<svg id="visual" viewBox="0 0 1280 720" width="1280" height="720" xmlns="http://www.w3.org/2000/svg" xmlns:xlink="http://www.w3.org/1999/xlink" version="1.1"><rect x="0" y="0" width="1280" height="720" fill="#2b2b3d"></rect><defs><linearGradient id="grad1_0" x1="43.8%" y1="0%" x2="100%" y2="100%"><stop offset="14.444444444444446%" stop-color="#8259ec" stop-opacity="1"></stop><stop offset="85.55555555555554%" stop-color="#8259ec" stop-opacity="1"></stop></linearGradient></defs><defs><linearGradient id="grad1_1" x1="43.8%" y1="0%" x2="100%" y2="100%"><stop offset="14.444444444444446%" stop-color="#8259ec" stop-opacity="1"></stop><stop offset="85.55555555555554%" stop-color="#5b4db1" stop-opacity="1"></stop></linearGradient></defs><defs><linearGradient id="grad1_2" x1="43.8%" y1="0%" x2="100%" y2="100%"><stop offset="14.444444444444446%" stop-color="#3f3d76" stop-opacity="1"></stop><stop offset="85.55555555555554%" stop-color="#5b4db1" stop-opacity="1"></stop></linearGradient></defs><defs><linearGradient id="grad1_3" x1="43.8%" y1="0%" x2="100%" y2="100%"><stop offset="14.444444444444446%" stop-color="#3f3d76" stop-opacity="1"></stop><stop offset="85.55555555555554%" stop-color="#2b2b3d" stop-opacity="1"></stop></linearGradient></defs><defs><linearGradient id="grad2_0" x1="0%" y1="0%" x2="56.3%" y2="100%"><stop offset="14.444444444444446%" stop-color="#8259ec" stop-opacity="1"></stop><stop offset="85.55555555555554%" stop-color="#8259ec" stop-opacity="1"></stop></linearGradient></defs><defs><linearGradient id="grad2_1" x1="0%" y1="0%" x2="56.3%" y2="100%"><stop offset="14.444444444444446%" stop-color="#5b4db1" stop-opacity="1"></stop><stop offset="85.55555555555554%" stop-color="#8259ec" stop-opacity="1"></stop></linearGradient></defs><defs><linearGradient id="grad2_2" x1="0%" y1="0%" x2="56.3%" y2="100%"><stop offset="14.444444444444446%" stop-color="#5b4db1" stop-opacity="1"></stop><stop offset="85.55555555555554%" stop-color="#3f3d76" stop-opacity="1"></stop></linearGradient></defs><defs><linearGradient id="grad2_3" x1="0%" y1="0%" x2="56.3%" y2="100%"><stop offset="14.444444444444446%" stop-color="#2b2b3d" stop-opacity="1"></stop><stop offset="85.55555555555554%" stop-color="#3f3d76" stop-opacity="1"></stop></linearGradient></defs><g transform="translate(1280, 0)"><path d="M0 612C-66.9 603.6 -133.8 595.2 -182.6 562.1C-231.5 528.9 -262.2 471.1 -319.2 439.3C-376.1 407.5 -459.1 401.9 -495.1 359.7C-531.1 317.5 -520 238.8 -531.6 172.7C-543.3 106.7 -577.6 53.3 -612 0L0 0Z" fill="#343459"></path><path d="M0 459C-50.2 452.7 -100.3 446.4 -137 421.6C-173.6 396.7 -196.7 353.3 -239.4 329.5C-282.1 305.7 -344.4 301.4 -371.3 269.8C-398.3 238.2 -390 179.1 -398.7 129.6C-407.5 80 -433.2 40 -459 0L0 0Z" fill="#4b4593"></path><path d="M0 306C-33.4 301.8 -66.9 297.6 -91.3 281C-115.7 264.5 -131.1 235.5 -159.6 219.6C-188 203.8 -229.6 201 -247.6 179.9C-265.5 158.8 -260 119.4 -265.8 86.4C-271.6 53.3 -288.8 26.7 -306 0L0 0Z" fill="#6d54cf"></path><path d="M0 153C-16.7 150.9 -33.4 148.8 -45.7 140.5C-57.9 132.2 -65.6 117.8 -79.8 109.8C-94 101.9 -114.8 100.5 -123.8 89.9C-132.8 79.4 -130 59.7 -132.9 43.2C-135.8 26.7 -144.4 13.3 -153 0L0 0Z" fill="#8259ec"></path></g><g transform="translate(0, 720)"><path d="M0 -612C68.9 -612.7 137.8 -613.5 189.1 -582C240.4 -550.6 274.2 -487 323.9 -445.8C373.6 -404.5 439.3 -385.6 470 -341.5C500.8 -297.4 496.7 -228.3 514.5 -167.2C532.4 -106.1 572.2 -53 612 0L0 0Z" fill="#343459"></path><path d="M0 -459C51.7 -459.6 103.4 -460.1 141.8 -436.5C180.3 -413 205.6 -365.3 242.9 -334.3C280.2 -303.4 329.4 -289.2 352.5 -256.1C375.6 -223.1 372.5 -171.2 385.9 -125.4C399.3 -79.6 429.1 -39.8 459 0L0 0Z" fill="#4b4593"></path><path d="M0 -306C34.5 -306.4 68.9 -306.7 94.6 -291C120.2 -275.3 137.1 -243.5 161.9 -222.9C186.8 -202.3 219.6 -192.8 235 -170.8C250.4 -148.7 248.3 -114.1 257.3 -83.6C266.2 -53 286.1 -26.5 306 0L0 0Z" fill="#6d54cf"></path><path d="M0 -153C17.2 -153.2 34.5 -153.4 47.3 -145.5C60.1 -137.7 68.5 -121.8 81 -111.4C93.4 -101.1 109.8 -96.4 117.5 -85.4C125.2 -74.4 124.2 -57.1 128.6 -41.8C133.1 -26.5 143 -13.3 153 0L0 0Z" fill="#8259ec"></path></g></svg>