<svg width="1907" height="1917" viewBox="0 0 1907 1917" fill="none" xmlns="http://www.w3.org/2000/svg">
<g opacity="0.5" filter="url(#filter0_d_18_1291)">
<path fill-rule="evenodd" clip-rule="evenodd" d="M299.997 750.915C228.946 959.132 112.263 1316.95 479.82 1499.26C847.376 1681.57 1005.02 1541.5 1156.8 1472.29C1308.58 1403.08 1690.52 1341.21 1618.33 1102.15C1546.14 863.101 1508.13 439.811 1232.01 456.195C955.89 472.579 999.742 585.311 823.615 616.182C647.488 647.052 371.048 542.698 299.997 750.915Z" stroke="url(#paint0_linear_18_1291)" stroke-width="20" stroke-linecap="round" stroke-dasharray="200 100"/>
</g>
<g opacity="0.2" filter="url(#filter1_d_18_1291)">
<path fill-rule="evenodd" clip-rule="evenodd" d="M386.395 787.219C324.174 971.693 222.114 1288.75 553.631 1453.56C885.148 1618.37 1025.66 1495.12 1161.45 1434.78C1297.24 1374.44 1639.82 1322.39 1573.15 1109.42C1506.48 896.446 1469.1 520.026 1221.23 532.471C973.355 544.915 1013.6 645.423 855.651 671.506C697.699 697.589 448.615 602.745 386.395 787.219Z" stroke="url(#paint1_linear_18_1291)" stroke-width="10" stroke-linecap="round" stroke-dasharray="100 50"/>
</g>
<g filter="url(#filter2_d_18_1291)">
<path fill-rule="evenodd" clip-rule="evenodd" d="M287.707 675.166C214.296 890.3 93.7364 1260 473.504 1448.37C853.271 1636.74 1016.15 1492.02 1172.97 1420.51C1329.79 1349 1724.43 1285.07 1649.84 1038.07C1575.25 791.079 1535.97 353.727 1250.68 370.655C965.39 387.583 1010.7 504.06 828.72 535.957C646.742 567.853 361.119 460.032 287.707 675.166Z" stroke="url(#paint2_linear_18_1291)" stroke-width="30" stroke-linecap="round" stroke-dasharray="200 100"/>
</g>
<defs>
<filter id="filter0_d_18_1291" x="35.8044" y="266.986" width="1780.26" height="1510.93" filterUnits="userSpaceOnUse" color-interpolation-filters="sRGB">
<feFlood flood-opacity="0" result="BackgroundImageFix"/>
<feColorMatrix in="SourceAlpha" type="matrix" values="0 0 0 0 0 0 0 0 0 0 0 0 0 0 0 0 0 0 127 0" result="hardAlpha"/>
<feOffset/>
<feGaussianBlur stdDeviation="89.3737"/>
<feColorMatrix type="matrix" values="0 0 0 0 0.129427 0 0 0 0 0.224219 0 0 0 0 0.4375 0 0 0 0.3 0"/>
<feBlend mode="normal" in2="BackgroundImageFix" result="effect1_dropShadow_18_1291"/>
<feBlend mode="normal" in="SourceGraphic" in2="effect1_dropShadow_18_1291" result="shape"/>
</filter>
<filter id="filter1_d_18_1291" x="137.566" y="348.422" width="1627.78" height="1371.3" filterUnits="userSpaceOnUse" color-interpolation-filters="sRGB">
<feFlood flood-opacity="0" result="BackgroundImageFix"/>
<feColorMatrix in="SourceAlpha" type="matrix" values="0 0 0 0 0 0 0 0 0 0 0 0 0 0 0 0 0 0 127 0" result="hardAlpha"/>
<feOffset/>
<feGaussianBlur stdDeviation="89.3737"/>
<feColorMatrix type="matrix" values="0 0 0 0 0.129427 0 0 0 0 0.224219 0 0 0 0 0.4375 0 0 0 0.3 0"/>
<feBlend mode="normal" in2="BackgroundImageFix" result="effect1_dropShadow_18_1291"/>
<feBlend mode="normal" in="SourceGraphic" in2="effect1_dropShadow_18_1291" result="shape"/>
</filter>
<filter id="filter2_d_18_1291" x="16.0085" y="176.431" width="1836.86" height="1558.58" filterUnits="userSpaceOnUse" color-interpolation-filters="sRGB">
<feFlood flood-opacity="0" result="BackgroundImageFix"/>
<feColorMatrix in="SourceAlpha" type="matrix" values="0 0 0 0 0 0 0 0 0 0 0 0 0 0 0 0 0 0 127 0" result="hardAlpha"/>
<feOffset/>
<feGaussianBlur stdDeviation="89.3737"/>
<feColorMatrix type="matrix" values="0 0 0 0 0.129427 0 0 0 0 0.224219 0 0 0 0 0.4375 0 0 0 0.3 0"/>
<feBlend mode="normal" in2="BackgroundImageFix" result="effect1_dropShadow_18_1291"/>
<feBlend mode="normal" in="SourceGraphic" in2="effect1_dropShadow_18_1291" result="shape"/>
</filter>
<linearGradient id="paint0_linear_18_1291" x1="1548.75" y1="1341.83" x2="339.868" y2="671.737" gradientUnits="userSpaceOnUse">
<stop stop-color="#844FFC"/>
<stop offset="1" stop-color="#2FB8FF"/>
</linearGradient>
<linearGradient id="paint1_linear_18_1291" x1="1512.49" y1="1321.86" x2="421.599" y2="717.168" gradientUnits="userSpaceOnUse">
<stop stop-color="#844FFC"/>
<stop offset="1" stop-color="#2FB8FF"/>
</linearGradient>
<linearGradient id="paint2_linear_18_1291" x1="1577.95" y1="1285.71" x2="328.903" y2="593.357" gradientUnits="userSpaceOnUse">
<stop stop-color="#844FFC"/>
<stop offset="1" stop-color="#2FB8FF"/>
</linearGradient>
</defs>
</svg>
